<?xml version="1.0" encoding="UTF-8"?>
<svg version="1.1" xmlns="http://www.w3.org/2000/svg" width="600" height="600">
<path d="M0 0 C198 0 396 0 600 0 C600 198 600 396 600 600 C402 600 204 600 0 600 C0 402 0 204 0 0 Z " fill="#FEFEFE" transform="translate(0,0)"/>
<path d="M0 0 C5.88782823 3.87370676 11.67376402 7.85700255 17.375 12 C18.14030029 12.55469971 18.90560059 13.10939941 19.6940918 13.6809082 C32.92605363 23.2866808 46.08399887 32.97266751 59 43 C60.61914117 44.24823223 62.2397622 45.4945183 63.86083984 46.74023438 C64.95279488 47.57944915 66.04426732 48.41929224 67.13525391 49.25976562 C69.78660588 51.30207688 72.44323805 53.33632636 75.109375 55.359375 C82.20149811 60.75785677 89.11248762 66.34343382 95.97460938 72.03149414 C99.52623533 74.97303721 103.08612678 77.8857146 106.75 80.6875 C110.97420045 83.92496637 115.01835481 87.36671958 119.06787109 90.81762695 C122.46946319 93.71416408 125.90218339 96.56367227 129.375 99.375 C135.07228232 104.01386122 140.60855093 108.8280757 146.1484375 113.65234375 C150.43759398 117.38662455 154.75642761 121.08575521 159.08129883 124.77856445 C160.12216893 125.6684505 161.15646424 126.56610607 162.18284321 127.47266769 C163.99314084 129.04014233 163.99314084 129.04014233 166.03914928 130.42523575 C169.15204961 132.74461691 171.57058134 134.6062798 172.73925209 138.39931488 C173.01871562 141.27238691 173.04740765 144.05036802 172.98754883 146.93652344 C172.9967485 148.01537308 173.00594818 149.09422272 173.01542664 150.20576477 C173.03528346 153.75813178 172.9975039 157.30722273 172.95703125 160.859375 C172.95480119 163.33082995 172.95538559 165.8022889 172.95866394 168.27374268 C172.95692252 173.44547918 172.92784004 178.61610412 172.87817383 183.78759766 C172.81567718 190.42498627 172.81091685 197.06086354 172.8251543 203.69848251 C172.83155506 208.79770672 172.81284083 213.89658741 172.78589439 218.99573517 C172.77499759 221.44380928 172.77074231 223.89192207 172.77317238 226.34001923 C172.77175003 229.75442827 172.73783756 233.16695359 172.69458008 236.58105469 C172.70269211 238.10527794 172.70269211 238.10527794 172.71096802 239.66029358 C172.66033151 242.20928379 172.5889354 244.51953371 172 247 C169.51908875 249.02618408 169.51908875 249.02618408 167 250 C165.43064406 253.13871188 165.64798897 255.53855822 166 259 C168.59216083 262.69186542 170.04149064 263.82883761 174.5 264.625 C178.95850936 263.82883761 180.40783917 262.69186542 183 259 C183.75011367 255.45728358 183.75011367 255.45728358 183 252 C181.13291495 249.63502561 179.67938569 248.33969285 177 247 C176.71885738 232.71796594 176.50847396 218.43636476 176.37825394 204.15212536 C176.31573909 197.51848798 176.23101213 190.88671484 176.09472656 184.25415039 C175.96392092 177.84786609 175.89250385 171.44336949 175.86147308 165.03585243 C175.83937342 162.59687474 175.796214 160.15799029 175.73123932 157.71977806 C175.21726764 137.62557347 175.21726764 137.62557347 179.55578613 132.14785767 C182.38578642 129.26933235 185.58244485 127.14255086 189 125 C190.87131357 123.5003155 192.72835072 121.98241569 194.5625 120.4375 C195.46097656 119.71433594 196.35945312 118.99117188 197.28515625 118.24609375 C200.10673495 115.9116941 202.80590712 113.48009402 205.5 111 C209.91640144 106.94016355 214.46163522 103.10676179 219.12890625 99.33984375 C222.22987017 96.81266363 225.27165455 94.22373995 228.3125 91.625 C233.27516074 87.39711284 238.34399878 83.33353571 243.49194336 79.33422852 C248.19616908 75.6666473 252.78997795 71.87754217 257.375 68.0625 C263.42946464 63.03835056 269.59372226 58.21616412 275.91625977 53.53491211 C280.94455586 49.80931524 285.88770851 45.98612624 290.8125 42.125 C304.58089889 31.35986001 318.74963371 21.13589008 332.9375 10.93359375 C335.4714247 9.10952319 337.99356367 7.27181038 340.5 5.41015625 C341.985 4.30994141 341.985 4.30994141 343.5 3.1875 C344.3353125 2.56230469 345.170625 1.93710937 346.03125 1.29296875 C348 0 348 0 350 0 C353.5821353 61.53596712 353.5821353 61.53596712 346 72 C343.79296875 74.03515625 343.79296875 74.03515625 341.1875 76.0625 C336.70699262 79.61967957 332.32732139 83.25805966 328 87 C322.07859094 92.0996788 316.07346051 97.08186091 310 102 C308.77453304 102.99583964 307.54928695 103.9919511 306.32421875 104.98828125 C303.61177664 107.19406596 300.89811121 109.39833239 298.18359375 111.6015625 C295.42288746 113.84282603 292.66522 116.08774204 289.91015625 118.3359375 C283.60207801 123.48013839 277.27628942 128.59708795 270.875 133.625 C270.31522461 134.06900146 269.75544922 134.51300293 269.17871094 134.97045898 C266.1754394 137.34235111 263.1358396 139.63133731 260.015625 141.84765625 C259.36480957 142.32315918 258.71399414 142.79866211 258.04345703 143.28857422 C256.79936976 144.19575417 255.54040854 145.08300858 254.26513672 145.94580078 C251.91980299 147.68030717 250.19168999 149.12313365 249.55371094 152.04150391 C249.42616155 154.48670217 249.42616155 154.48670217 250 158 C251.90684074 160.30047707 251.90684074 160.30047707 255.125 160.484375 C260.37025668 159.82871791 263.00462054 157.55180163 267 154.25 C267.73766602 153.66307373 268.47533203 153.07614746 269.23535156 152.47143555 C271.50276176 150.66260542 273.75162066 148.83239934 276 147 C277.32665203 145.93696123 278.65470831 144.87567181 279.984375 143.81640625 C282.48276055 141.82501861 284.97563426 139.8270613 287.46484375 137.82421875 C291.23215701 134.80280695 295.05175565 131.85500052 298.88696289 128.92016602 C303.50480906 125.3860078 308.09889335 121.82202809 312.6875 118.25 C313.81901489 117.36948975 313.81901489 117.36948975 314.97338867 116.47119141 C318.9405417 113.38344002 322.90617499 110.29374463 326.87109375 107.203125 C328.06569214 106.27258301 328.06569214 106.27258301 329.28442383 105.32324219 C330.79386145 104.14743327 332.30284749 102.9710443 333.8112793 101.79394531 C335.87004469 100.19053207 337.93421956 98.59436127 340 97 C340.73573242 96.42636719 341.47146484 95.85273437 342.22949219 95.26171875 C342.94524414 94.71128906 343.66099609 94.16085938 344.3984375 93.59375 C345.36402588 92.84641602 345.36402588 92.84641602 346.34912109 92.08398438 C348 91 348 91 350 91 C350.02501826 95.35587197 350.04300806 99.71170407 350.05493164 104.06762695 C350.05991084 105.5445224 350.06669663 107.02141305 350.07543945 108.49829102 C350.23125179 135.52714896 350.23125179 135.52714896 343.46875 142.67578125 C341.99921875 143.98095703 341.99921875 143.98095703 340.5 145.3125 C339.96737549 145.7883252 339.43475098 146.26415039 338.88598633 146.75439453 C334.6812354 150.48129038 330.34609678 154.04049685 325.96875 157.5625 C322.47720078 160.42924568 319.08437419 163.39735891 315.6875 166.375 C310.15528981 171.21807429 304.50447604 175.85468156 298.6550293 180.31005859 C295.16824728 182.98657988 291.88525789 185.67416269 289 189 C289.06814151 193.02034924 289.1176825 195.1176825 292 198 C295.74504559 198.51838202 297.53961964 198.27905737 300.796875 196.3046875 C301.77140625 195.50289062 302.7459375 194.70109375 303.75 193.875 C304.89025292 192.95526769 306.03090092 192.03602503 307.171875 191.1171875 C307.78353516 190.61670898 308.39519531 190.11623047 309.02539062 189.60058594 C312.63637616 186.67358035 316.32489302 183.845731 320 181 C321.53666334 179.80364869 323.07312411 178.60703714 324.609375 177.41015625 C329.45399264 173.64176894 334.32415662 169.90735666 339.203125 166.18359375 C341.26824884 164.57129735 343.25177237 162.93016377 345.234375 161.22265625 C348 159 348 159 350 159 C350.07501597 164.3161319 350.12900455 169.63194537 350.16479492 174.94848633 C350.17973916 176.75127541 350.20010204 178.55402906 350.22631836 180.35668945 C350.61426595 207.74883209 350.61426595 207.74883209 343.8984375 214.86328125 C342.6288682 215.94497558 341.32717062 216.98980844 340 218 C339.28489258 218.57411621 338.56978516 219.14823242 337.83300781 219.73974609 C335.46263943 221.60304334 333.0534817 223.40069988 330.625 225.1875 C329.7479541 225.83895996 328.8709082 226.49041992 327.96728516 227.16162109 C321.12996252 232.2194851 314.20424438 237.14504772 307.23828125 242.0234375 C302.65674557 245.23384099 298.10440226 248.48381699 293.5625 251.75 C292.85335449 252.2567627 292.14420898 252.76352539 291.41357422 253.28564453 C290.04090778 254.27479532 288.68580711 255.28890678 287.35188389 256.32971478 C285 258 285 258 282.43244076 259.16876698 C278.94527836 261.08186603 277.22672902 262.66495436 275 266 C272.97574814 274.19824912 273.71145308 283.05730961 273.82055664 291.43041992 C273.81842555 294.06396214 273.81231688 296.69721317 273.80117798 299.33070374 C273.78496994 304.99605105 273.80485761 310.66033749 273.8491993 316.32552147 C273.91303244 324.5216097 273.91860837 332.7169445 273.90960806 340.91323892 C273.8962914 354.21929162 273.92530104 367.52488908 273.9831543 380.83081055 C274.03915397 393.74063797 274.08270886 406.6503681 274.10424805 419.56030273 C274.1055845 420.35588875 274.10692094 421.15147476 274.10829789 421.97116943 C274.12245137 430.65641997 274.13218704 439.34166845 274.13734341 448.0269289 C274.1380406 449.17176087 274.1380406 449.17176087 274.13875188 450.33972076 C274.14056773 453.39065351 274.14236303 456.44158614 274.14362305 459.49251918 C274.14746161 468.42340895 274.16498728 477.35402837 274.20711904 486.28482375 C274.23637491 492.54495044 274.25196848 498.80503749 274.26279068 505.06522179 C274.26998117 507.6351778 274.2824154 510.20512515 274.30040932 512.77502823 C274.32438521 516.27621847 274.33012655 519.77698299 274.33143616 523.27824402 C274.34310493 524.300997 274.3547737 525.32374997 274.36679608 526.37749547 C274.33563762 535.26759398 274.33563762 535.26759398 271 539 C268 539.5625 268 539.5625 265 539 C262.26073755 536.09502598 261.39485803 533.41277841 260.5703125 529.5546875 C260.33505859 528.48686035 260.09980469 527.4190332 259.85742188 526.31884766 C259.61572266 525.18237793 259.37402344 524.0459082 259.125 522.875 C258.59932005 520.50454866 258.0706628 518.13475566 257.5390625 515.765625 C257.27899414 514.60611328 257.01892578 513.44660156 256.75097656 512.25195312 C255.09779178 505.09316855 253.06844855 498.04770717 251 491 C250.75749512 490.16178711 250.51499023 489.32357422 250.26513672 488.45996094 C246.60587083 475.72876533 246.60587083 475.72876533 241.9296875 463.34765625 C240.39497883 459.47219443 239.28026921 455.47093263 238.125 451.46875 C236.63791794 446.88358031 234.82360169 442.46002717 233 438 C232.46415283 436.66582031 232.46415283 436.66582031 231.91748047 435.3046875 C220.11832601 405.96007087 206.14403757 373.54557612 182 352 C181.44570313 351.46632813 180.89140625 350.93265625 180.3203125 350.3828125 C178.62824997 348.76267623 178.62824997 348.76267623 176 347 C168.2585681 347.59302894 161.36652863 357.41293659 156.625 362.875 C130.34533416 394.19664066 116.1225098 435.07564044 103.55169678 473.37078857 C103.027077 474.96861226 102.50065848 476.56584676 101.972229 478.16241455 C98.79880209 487.7763833 96.07572415 497.37438318 93.85351562 507.25219727 C92.83300216 511.73329059 91.64715989 516.14760301 90.375 520.5625 C89.96510974 522.00100726 89.5562474 523.43980784 89.1484375 524.87890625 C88.85791504 525.89621826 88.85791504 525.89621826 88.56152344 526.93408203 C87.97835258 529.07964367 87.47701382 531.23616019 86.9765625 533.40234375 C86 537 86 537 84 539 C81.0625 539.4375 81.0625 539.4375 78 539 C73.90289398 534.4484061 74.62566049 529.07262069 74.72239685 523.31861877 C74.72845021 522.22983254 74.73450357 521.1410463 74.74074036 520.01926655 C74.76427353 516.36358635 74.80903925 512.70846236 74.85327148 509.05297852 C74.87371943 506.4346073 74.89259185 503.81622337 74.91000366 501.1978302 C74.94359702 496.28547334 74.98255065 491.37320894 75.0277089 486.4609447 C75.11612803 476.79904617 75.16366877 467.13731634 75.19606018 457.4750824 C75.20135265 455.95253179 75.20665862 454.42998122 75.2119779 452.90743071 C75.21997338 450.59990813 75.22791201 448.29238539 75.23572917 445.9848622 C75.26519696 437.28652323 75.29753949 428.58820017 75.33520508 419.88989258 C75.34034629 418.69741522 75.34034629 418.69741522 75.34559137 417.48084741 C75.40278708 404.61525902 75.51482187 391.75064764 75.6445384 378.88561226 C75.77631728 365.66190742 75.83893975 352.43908292 75.84061486 339.21471924 C75.84400453 331.06624896 75.9019778 322.92194559 76.03134049 314.77448492 C76.1151699 309.18173805 76.13229214 303.59120984 76.09831541 297.99794925 C76.08073605 294.77493092 76.1015297 291.56044036 76.1826992 288.3381958 C76.87254597 275.32107138 76.87254597 275.32107138 72.21980023 263.598418 C67.99711453 259.36457398 63.26129066 256.15922041 58.08697999 253.19874942 C55.48176908 251.70233111 53.07214304 249.98300395 50.6484375 248.2109375 C49.22745816 247.26037223 47.80309859 246.31483564 46.375 245.375 C38.3341569 239.97149359 30.54491559 234.30388106 22.85351562 228.41552734 C21.0183906 227.01404487 19.17442842 225.62499196 17.328125 224.23828125 C1.5563316 212.34759676 1.5563316 212.34759676 0 204 C-0.82934487 198.0656434 -1.13935624 192.23295066 -1.09765625 186.24609375 C-1.0962413 185.45977066 -1.09482635 184.67344757 -1.09336853 183.86329651 C-1.08783672 181.38798985 -1.07529775 178.91277863 -1.0625 176.4375 C-1.05747616 174.74414194 -1.05291481 173.05078245 -1.04882812 171.35742188 C-1.03788978 167.2382453 -1.02067362 163.11913875 -1 159 C1.68993521 160.26273453 3.95287955 161.62251163 6.25 163.50390625 C6.85175049 163.9922998 7.45350098 164.48069336 8.07348633 164.98388672 C9.0271106 165.76530029 9.0271106 165.76530029 10 166.5625 C15.47340177 170.99583012 21.01403923 175.29909263 26.671875 179.49609375 C31.82818511 183.34711152 36.87963539 187.33681564 41.9465332 191.30419922 C42.68734131 191.88314941 43.42814941 192.46209961 44.19140625 193.05859375 C44.85342041 193.57736084 45.51543457 194.09612793 46.19750977 194.63061523 C50.07467386 197.57616764 52.11393911 198.50896468 57 198 C59 197 59 197 60 195 C60.45369593 192.1028558 60.45369593 192.1028558 60 189 C58.228075 186.6435884 58.228075 186.6435884 55.6875 184.6875 C54.31078125 183.52927734 54.31078125 183.52927734 52.90625 182.34765625 C51.46765625 181.18556641 51.46765625 181.18556641 50 180 C49.1234375 179.27683594 48.246875 178.55367187 47.34375 177.80859375 C45.53654378 176.32296393 43.72381307 174.84403461 41.90625 173.37109375 C36.53867632 168.99190394 31.27306727 164.49214969 26 160 C25.41250977 159.50032715 24.82501953 159.0006543 24.21972656 158.48583984 C20.67740431 155.47132169 17.14758268 152.44303786 13.62939453 149.40039062 C12.08466614 148.0727667 10.52514448 146.7624121 8.96484375 145.453125 C7.62099609 144.30070312 7.62099609 144.30070312 6.25 143.125 C5.47140625 142.46757812 4.6928125 141.81015625 3.890625 141.1328125 C-1.59087201 134.94914025 -1.15320778 125.51134863 -1.09765625 117.66015625 C-1.0962413 116.89319931 -1.09482635 116.12624237 -1.09336853 115.33604431 C-1.08781766 112.9114881 -1.07527463 110.48702781 -1.0625 108.0625 C-1.05747864 106.40820447 -1.05291685 104.75390747 -1.04882812 103.09960938 C-1.03786438 99.06636988 -1.02063424 95.03320114 -1 91 C1.65965367 92.26325386 4.00993639 93.6314606 6.36328125 95.3984375 C6.99516357 95.87168457 7.6270459 96.34493164 8.27807617 96.83251953 C9.28511597 97.59604736 9.28511597 97.59604736 10.3125 98.375 C11.36884644 99.17139893 11.36884644 99.17139893 12.4465332 99.98388672 C17.89511571 104.11276231 23.24804289 108.35274049 28.5703125 112.64257812 C32.96448424 116.18284044 37.40515691 119.6503054 41.88671875 123.07958984 C46.50457723 126.61392069 51.09874998 130.17796917 55.6875 133.75 C56.44111816 134.33628174 57.19473633 134.92256348 57.97119141 135.52661133 C61.95246009 138.62469644 65.93083623 141.72643675 69.90625 144.83203125 C70.70716064 145.4569043 71.50807129 146.08177734 72.33325195 146.72558594 C73.85615927 147.91384215 75.37819195 149.10322053 76.89916992 150.29394531 C78.92470095 151.87354584 80.95815161 153.4415601 83 155 C83.64630371 155.49363037 84.29260742 155.98726074 84.95849609 156.49584961 C87.84208659 158.63637559 89.632882 159.95058027 93.25 160.4375 C96.20730963 160.16302046 96.20730963 160.16302046 99 158 C99.57748803 156.03638136 99.57748803 156.03638136 99.6875 153.875 C99.790625 152.59625 99.89375 151.3175 100 150 C99.41009277 149.72470459 98.82018555 149.44940918 98.21240234 149.16577148 C96.0981876 148.05173756 94.43683658 146.86807816 92.6015625 145.34765625 C91.96452393 144.82413574 91.32748535 144.30061523 90.67114258 143.76123047 C89.99591553 143.20064941 89.32068848 142.64006836 88.625 142.0625 C87.18441188 140.87791061 85.74299067 139.6943337 84.30078125 138.51171875 C83.57842285 137.9192334 82.85606445 137.32674805 82.11181641 136.71630859 C79.04623463 134.2248589 75.93178302 131.79860605 72.8125 129.375 C67.72883691 125.41427179 62.78824279 121.31592338 57.89379883 117.12451172 C54.00715029 113.81159253 50.03230432 110.63345388 46 107.5 C40.78935875 103.44896275 35.70778138 99.27619002 30.69018555 94.98876953 C27.27001657 92.06705919 23.80999447 89.20443373 20.3125 86.375 C15.04984458 82.08947505 9.96420788 77.62795137 5 73 C4.33049316 72.45504883 3.66098633 71.91009766 2.97119141 71.34863281 C0.37882449 68.25988253 -0.13836157 65.25450934 -0.73046875 61.37890625 C-0.85230026 60.63202042 -0.97413177 59.88513458 -1.09965515 59.11561584 C-2.24309054 51.48782573 -2.42131043 43.91601216 -2.33618164 36.21557617 C-2.3124675 33.93437391 -2.31567299 31.65434276 -2.32226562 29.37304688 C-2.30190568 19.44977174 -1.45851952 9.81223806 0 0 Z " fill="#27AAE1" transform="translate(125,30)"/>
<path d="M0 0 C3.5821353 61.53596712 3.5821353 61.53596712 -4 72 C-6.20703125 74.03515625 -6.20703125 74.03515625 -8.8125 76.0625 C-13.29300738 79.61967957 -17.67267861 83.25805966 -22 87 C-27.92140906 92.0996788 -33.92653949 97.08186091 -40 102 C-41.22546696 102.99583964 -42.45071305 103.9919511 -43.67578125 104.98828125 C-46.38822336 107.19406596 -49.10188879 109.39833239 -51.81640625 111.6015625 C-54.57711254 113.84282603 -57.33478 116.08774204 -60.08984375 118.3359375 C-66.39792199 123.48013839 -72.72371058 128.59708795 -79.125 133.625 C-79.68477539 134.06900146 -80.24455078 134.51300293 -80.82128906 134.97045898 C-83.8245606 137.34235111 -86.8641604 139.63133731 -89.984375 141.84765625 C-90.63519043 142.32315918 -91.28600586 142.79866211 -91.95654297 143.28857422 C-93.20063024 144.19575417 -94.45959146 145.08300858 -95.73486328 145.94580078 C-98.08019701 147.68030717 -99.80831001 149.12313365 -100.44628906 152.04150391 C-100.57383845 154.48670217 -100.57383845 154.48670217 -100 158 C-98.09315926 160.30047707 -98.09315926 160.30047707 -94.875 160.484375 C-89.62974332 159.82871791 -86.99537946 157.55180163 -83 154.25 C-82.26233398 153.66307373 -81.52466797 153.07614746 -80.76464844 152.47143555 C-78.49723824 150.66260542 -76.24837934 148.83239934 -74 147 C-72.67334797 145.93696123 -71.34529169 144.87567181 -70.015625 143.81640625 C-67.51723945 141.82501861 -65.02436574 139.8270613 -62.53515625 137.82421875 C-58.76784299 134.80280695 -54.94824435 131.85500052 -51.11303711 128.92016602 C-46.49519094 125.3860078 -41.90110665 121.82202809 -37.3125 118.25 C-36.55815674 117.66299316 -35.80381348 117.07598633 -35.02661133 116.47119141 C-31.0594583 113.38344002 -27.09382501 110.29374463 -23.12890625 107.203125 C-22.33250732 106.58276367 -21.5361084 105.96240234 -20.71557617 105.32324219 C-19.20613855 104.14743327 -17.69715251 102.9710443 -16.1887207 101.79394531 C-14.12995531 100.19053207 -12.06578044 98.59436127 -10 97 C-9.26426758 96.42636719 -8.52853516 95.85273437 -7.77050781 95.26171875 C-7.05475586 94.71128906 -6.33900391 94.16085938 -5.6015625 93.59375 C-4.95783691 93.09552734 -4.31411133 92.59730469 -3.65087891 92.08398438 C-2 91 -2 91 0 91 C0.02501826 95.35587197 0.04300806 99.71170407 0.05493164 104.06762695 C0.05991084 105.5445224 0.06669663 107.02141305 0.07543945 108.49829102 C0.23125179 135.52714896 0.23125179 135.52714896 -6.53125 142.67578125 C-7.5109375 143.54589844 -8.490625 144.41601562 -9.5 145.3125 C-10.29893677 146.02623779 -10.29893677 146.02623779 -11.11401367 146.75439453 C-15.3187646 150.48129038 -19.65390322 154.04049685 -24.03125 157.5625 C-27.52279922 160.42924568 -30.91562581 163.39735891 -34.3125 166.375 C-39.84471019 171.21807429 -45.49552396 175.85468156 -51.3449707 180.31005859 C-54.83175272 182.98657988 -58.11474211 185.67416269 -61 189 C-60.93185849 193.02034924 -60.8823175 195.1176825 -58 198 C-54.25495441 198.51838202 -52.46038036 198.27905737 -49.203125 196.3046875 C-48.22859375 195.50289062 -47.2540625 194.70109375 -46.25 193.875 C-45.10974708 192.95526769 -43.96909908 192.03602503 -42.828125 191.1171875 C-42.21646484 190.61670898 -41.60480469 190.11623047 -40.97460938 189.60058594 C-37.36362384 186.67358035 -33.67510698 183.845731 -30 181 C-28.46333666 179.80364869 -26.92687589 178.60703714 -25.390625 177.41015625 C-20.54600736 173.64176894 -15.67584338 169.90735666 -10.796875 166.18359375 C-8.73175116 164.57129735 -6.74822763 162.93016377 -4.765625 161.22265625 C-2 159 -2 159 0 159 C0.07501597 164.3161319 0.12900455 169.63194537 0.16479492 174.94848633 C0.17973916 176.75127541 0.20010204 178.55402906 0.22631836 180.35668945 C0.61426595 207.74883209 0.61426595 207.74883209 -6.1015625 214.86328125 C-7.3711318 215.94497558 -8.67282938 216.98980844 -10 218 C-10.71510742 218.57411621 -11.43021484 219.14823242 -12.16699219 219.73974609 C-14.53736057 221.60304334 -16.9465183 223.40069988 -19.375 225.1875 C-20.2520459 225.83895996 -21.1290918 226.49041992 -22.03271484 227.16162109 C-28.87003748 232.2194851 -35.79575562 237.14504772 -42.76171875 242.0234375 C-47.34325443 245.23384099 -51.89559774 248.48381699 -56.4375 251.75 C-57.14664551 252.2567627 -57.85579102 252.76352539 -58.58642578 253.28564453 C-59.95909222 254.27479532 -61.31419289 255.28890678 -62.64811611 256.32971478 C-65 258 -65 258 -67.56755924 259.16876698 C-71.05472164 261.08186603 -72.77327098 262.66495436 -75 266 C-77.02425186 274.19824912 -76.28854692 283.05730961 -76.17944336 291.43041992 C-76.18157445 294.06396214 -76.18768312 296.69721317 -76.19882202 299.33070374 C-76.21503006 304.99605105 -76.19514239 310.66033749 -76.1508007 316.32552147 C-76.08696756 324.5216097 -76.08139163 332.7169445 -76.09039194 340.91323892 C-76.1037086 354.21929162 -76.07469896 367.52488908 -76.0168457 380.83081055 C-75.96084603 393.74063797 -75.91729114 406.6503681 -75.89575195 419.56030273 C-75.8944155 420.35588875 -75.89307906 421.15147476 -75.89170211 421.97116943 C-75.87754863 430.65641997 -75.86781296 439.34166845 -75.86265659 448.0269289 C-75.8619594 449.17176087 -75.8619594 449.17176087 -75.86124812 450.33972076 C-75.85943227 453.39065351 -75.85763697 456.44158614 -75.85637695 459.49251918 C-75.85253839 468.42340895 -75.83501272 477.35402837 -75.79288096 486.28482375 C-75.76362509 492.54495044 -75.74803152 498.80503749 -75.73720932 505.06522179 C-75.73001883 507.6351778 -75.7175846 510.20512515 -75.69959068 512.77502823 C-75.67561479 516.27621847 -75.66987345 519.77698299 -75.66856384 523.27824402 C-75.65106068 524.81237349 -75.65106068 524.81237349 -75.63320392 526.37749547 C-75.66436238 535.26759398 -75.66436238 535.26759398 -79 539 C-82 539.5625 -82 539.5625 -85 539 C-87.73926245 536.09502598 -88.60514197 533.41277841 -89.4296875 529.5546875 C-89.66494141 528.48686035 -89.90019531 527.4190332 -90.14257812 526.31884766 C-90.38427734 525.18237793 -90.62597656 524.0459082 -90.875 522.875 C-91.40067995 520.50454866 -91.9293372 518.13475566 -92.4609375 515.765625 C-92.72100586 514.60611328 -92.98107422 513.44660156 -93.24902344 512.25195312 C-94.90220822 505.09316855 -96.93155145 498.04770717 -99 491 C-99.24250488 490.16178711 -99.48500977 489.32357422 -99.73486328 488.45996094 C-103.39412917 475.72876533 -103.39412917 475.72876533 -108.0703125 463.34765625 C-109.60502117 459.47219443 -110.71973079 455.47093263 -111.875 451.46875 C-113.36208206 446.88358031 -115.17639831 442.46002717 -117 438 C-117.35723145 437.11054688 -117.71446289 436.22109375 -118.08251953 435.3046875 C-130.98064042 403.22693021 -146.3461027 369.12311784 -174 347 C-171.56223101 341.8639371 -167.95704255 339.55691725 -163.375 336.5 C-161.83013708 335.43895052 -160.28722207 334.37506032 -158.74609375 333.30859375 C-157.95702637 332.76315918 -157.16795898 332.21772461 -156.35498047 331.65576172 C-144.73698166 323.48727033 -133.72407581 314.45035962 -122.75585938 305.43994141 C-121.19064408 304.15634299 -119.619183 302.88036928 -118.046875 301.60546875 C-112.40360477 297.02649948 -106.85566626 292.34654125 -101.35571289 287.59716797 C-98.37053522 285.02083431 -95.37029751 282.46903687 -92.32421875 279.96484375 C-91.73431152 279.47677246 -91.1444043 278.98870117 -90.53662109 278.48583984 C-89.42084687 277.56471782 -88.30035264 276.64927112 -87.17431641 275.74072266 C-83.42016746 272.62884113 -80.48564955 269.7044014 -79.6015625 264.78125 C-79.79418569 246.03259277 -88.06341762 227.58115864 -96 210.9375 C-96.485896 209.9155957 -96.97179199 208.89369141 -97.47241211 207.84082031 C-111.61661709 178.8688877 -133.53525453 153.89336789 -164.25 142.5625 C-165.82909584 142.02895701 -167.41174134 141.50561472 -169 141 C-169.99 140.67 -170.98 140.34 -172 140 C-172 175.31 -172 210.62 -172 247 C-172.33 247 -172.66 247 -173 247 C-173.28114262 232.71796594 -173.49152604 218.43636476 -173.62174606 204.15212536 C-173.68426091 197.51848798 -173.76898787 190.88671484 -173.90527344 184.25415039 C-174.03607908 177.84786609 -174.10749615 171.44336949 -174.13852692 165.03585243 C-174.16062658 162.59687474 -174.203786 160.15799029 -174.26876068 157.71977806 C-174.78273236 137.62557347 -174.78273236 137.62557347 -170.44421387 132.14785767 C-167.61421358 129.26933235 -164.41755515 127.14255086 -161 125 C-159.12868643 123.5003155 -157.27164928 121.98241569 -155.4375 120.4375 C-154.53902344 119.71433594 -153.64054687 118.99117188 -152.71484375 118.24609375 C-149.89326505 115.9116941 -147.19409288 113.48009402 -144.5 111 C-140.08359856 106.94016355 -135.53836478 103.10676179 -130.87109375 99.33984375 C-127.77012983 96.81266363 -124.72834545 94.22373995 -121.6875 91.625 C-116.72483926 87.39711284 -111.65600122 83.33353571 -106.50805664 79.33422852 C-101.80383092 75.6666473 -97.21002205 71.87754217 -92.625 68.0625 C-86.57053536 63.03835056 -80.40627774 58.21616412 -74.08374023 53.53491211 C-69.05544414 49.80931524 -64.11229149 45.98612624 -59.1875 42.125 C-45.41910111 31.35986001 -31.25036629 21.13589008 -17.0625 10.93359375 C-14.5285753 9.10952319 -12.00643633 7.27181038 -9.5 5.41015625 C-8.51 4.67667969 -7.52 3.94320312 -6.5 3.1875 C-5.6646875 2.56230469 -4.829375 1.93710937 -3.96875 1.29296875 C-2 0 -2 0 0 0 Z " fill="#27AAE1" transform="translate(475,30)"/>
<path d="M0 0 C0.11685585 13.86460897 0.20466638 27.72914146 0.25906086 41.59414196 C0.28516617 48.03209182 0.32058252 54.46971111 0.37719727 60.9074707 C0.43148184 67.11905992 0.46141349 73.33033096 0.47438622 79.54213905 C0.48363234 81.91327232 0.50168771 84.28438797 0.52865028 86.65538597 C0.5648918 89.97401072 0.56994718 93.29131696 0.56762695 96.61010742 C0.58560333 97.59266006 0.60357971 98.57521271 0.62210083 99.58753967 C0.57101904 106.32966299 0.57101904 106.32966299 -2.49641418 109.93061829 C-3.3225975 110.61351425 -4.14878082 111.29641022 -5 112 C-5.83333333 115.5 -5.83333333 115.5 -5 119 C-2.40783917 122.69186542 -0.95850936 123.82883761 3.5 124.625 C7.95850936 123.82883761 9.40783917 122.69186542 12 119 C12.83333333 115.5 12.83333333 115.5 12 112 C11.17381668 111.31710403 10.34763336 110.63420807 9.49641418 109.93061829 C5.85037554 105.65042008 6.33258647 102.06424029 6.43237305 96.61010742 C6.43164291 95.56574524 6.43091278 94.52138306 6.43016052 93.44537354 C6.43364006 89.99820774 6.47252088 86.5523981 6.51171875 83.10546875 C6.52104551 80.71365599 6.52816227 78.32183367 6.53315735 75.93000793 C6.55223761 69.63825048 6.60134848 63.34707119 6.65667725 57.05554199 C6.70784684 50.63411277 6.73066658 44.21259001 6.75585938 37.79101562 C6.80946519 25.19376391 6.89382875 12.59691272 7 0 C8.61053422 0.30927904 10.22039315 0.62207601 11.82995605 0.93637085 C12.72651665 1.11018469 13.62307724 1.28399853 14.54680634 1.46307945 C17.17933957 2.03925133 19.39672092 2.84770704 21.78125 4.1015625 C22.5554126 4.50511963 23.3295752 4.90867676 24.12719727 5.32446289 C24.91022217 5.75364014 25.69324707 6.18281738 26.5 6.625 C27.32878662 7.07157959 28.15757324 7.51815918 29.01147461 7.97827148 C35.23372521 11.40763216 40.72979785 15.2209278 46 20 C46.80179688 20.67289063 47.60359375 21.34578125 48.4296875 22.0390625 C70.17932752 40.67193168 84.74246939 66.98601812 93.35595703 94.00195312 C94.02205817 96.06843218 94.72302387 98.12029038 95.43359375 100.171875 C102.57026864 120.93558735 102.57026864 120.93558735 99.15234375 129 C94.70224824 135.53225029 87.91354297 140.43275073 81.87890625 145.43115234 C79.46955271 147.44291246 77.10199072 149.50045855 74.73291016 151.55932617 C69.07215071 156.46962427 63.29945865 161.19790054 57.37963867 165.79199219 C53.63419272 168.70137799 49.94758811 171.67089996 46.28759766 174.68701172 C37.47893908 181.93646151 28.41642911 188.79391898 19.15332031 195.45214844 C17.7897732 196.43229455 16.42933414 197.41679143 15.07324219 198.40722656 C13.43543486 199.60008568 11.78087145 200.76984618 10.125 201.9375 C9.24070312 202.56527344 8.35640625 203.19304687 7.4453125 203.83984375 C5 205 5 205 2.62109375 205.00390625 C-1.05107366 203.59742782 -3.97145955 201.37338529 -7.0625 199 C-7.7237085 198.50306641 -8.38491699 198.00613281 -9.06616211 197.49414062 C-10.41399553 196.48014144 -11.7591542 195.46257677 -13.1015625 194.44140625 C-15.73891635 192.43897092 -18.40313927 190.47307409 -21.0625 188.5 C-41.03369847 173.46160756 -60.20887371 157.44377157 -79.15673828 141.14624023 C-81.84892845 138.83245279 -84.55313185 136.5385114 -87.29296875 134.28125 C-90.75993753 131.35959088 -92.77941263 129.36708192 -93.21313477 124.71289062 C-93.32188003 117.56044748 -92.16344812 111.44091921 -90.0625 104.625 C-89.75038574 103.58915771 -89.43827148 102.55331543 -89.11669922 101.48608398 C-82.24132363 79.3813637 -72.12770829 58.36374028 -58 40 C-57.27039063 39.03449219 -56.54078125 38.06898438 -55.7890625 37.07421875 C-43.6638101 21.60029557 -21.08945468 0 0 0 Z " fill="#0F75BC" transform="translate(296,170)"/>
<path d="M0 0 C1.9375 0.75 1.9375 0.75 4 2 C4.75 4.125 4.75 4.125 5 6 C1.36146137 8.5014953 -1.9061967 9.56614339 -6.1328125 10.5390625 C-8.32483171 11.08018858 -10.12703061 11.72638082 -12 13 C-12.33 13.99 -12.66 14.98 -13 16 C-4.18174286 17.59227569 4.29297346 18.2871102 13.24609375 18.23046875 C14.45967056 18.23001053 15.67324738 18.22955231 16.92359924 18.2290802 C19.47064196 18.22608123 22.01768324 18.21826657 24.56469727 18.20581055 C28.42405841 18.18756355 32.2831783 18.18530135 36.14257812 18.18554688 C38.6354187 18.18062956 41.12825768 18.17480031 43.62109375 18.16796875 C45.32174232 18.16629951 45.32174232 18.16629951 47.05674744 18.16459656 C55.07111255 18.11803666 63.01318099 17.65580877 71 17 C70.505 18.485 70.505 18.485 70 20 C60.50134326 22.2100835 50.99897393 23.57972766 41.3125 24.6875 C40.16604004 24.81874268 39.01958008 24.94998535 37.83837891 25.08520508 C33.52216353 25.5631107 29.34703383 26 25 26 C24.98541748 26.59949463 24.97083496 27.19898926 24.95581055 27.81665039 C24.88076179 30.56587455 24.78429248 33.31395889 24.6875 36.0625 C24.66494141 37.00544922 24.64238281 37.94839844 24.61914062 38.91992188 C24.39899472 44.66372859 23.6479756 48.88152706 21 54 C19.67729696 50.03189088 20.03173625 46.36394099 20.25 42.25 C20.29060547 41.07050781 20.29060547 41.07050781 20.33203125 39.8671875 C20.60350624 34.59531836 21.64753905 30.73021717 24 26 C23.4016333 26.01047363 22.8032666 26.02094727 22.18676758 26.03173828 C-4.82915201 26.44166004 -4.82915201 26.44166004 -17 22 C-18 21 -18 21 -18.2890625 18.66796875 C-17.83233481 14.45249559 -15.31022039 13.08326778 -12.17578125 10.5 C-9.59255719 8.71910586 -6.97338273 7.94277989 -4 7 C-3.24756445 5.07361988 -3.24756445 5.07361988 -3 3 C-1.4375 1.25 -1.4375 1.25 0 0 Z " fill="#0F0F0F" transform="translate(247,507)"/>
<path d="M0 0 C0.33 0.66 0.66 1.32 1 2 C-3.06651242 9.46538848 -8.84199361 15.08320812 -14.88110352 20.94555664 C-15.52490967 21.57067139 -16.16871582 22.19578613 -16.83203125 22.83984375 C-17.41702393 23.40050537 -18.0020166 23.96116699 -18.60473633 24.53881836 C-20.10678534 25.96835675 -20.10678534 25.96835675 -21 28 C-19.10424749 28.02721176 -17.20838021 28.04649136 -15.3125 28.0625 C-14.25675781 28.07410156 -13.20101563 28.08570313 -12.11328125 28.09765625 C-9.27589738 28.00865425 -6.7561081 27.64939838 -4 27 C-4 26.34 -4 25.68 -4 25 C-3.01 25 -2.02 25 -1 25 C-0.67 24.01 -0.34 23.02 0 22 C0.66 22 1.32 22 2 22 C2.103125 20.906875 2.20625 19.81375 2.3125 18.6875 C2.97307727 15.14440371 3.2027092 14.06756277 6 12 C6.35217795 16.93049126 5.71114607 19.84855758 3 24 C-2.18286903 29.25017902 -7.51193246 33.93027607 -15 35 C-15.17015625 35.61488281 -15.3403125 36.22976563 -15.515625 36.86328125 C-17.47817684 43.40860042 -17.47817684 43.40860042 -19.875 46.125 C-22.72129358 47.29700324 -24.14915433 47.12533382 -27 46 C-29.00060547 42.94065486 -29.24675139 40.48394837 -29.1875 36.875 C-29.17783203 35.57175781 -29.17783203 35.57175781 -29.16796875 34.2421875 C-29 32 -29 32 -28 30 C-27.59504198 26.64989272 -27.23236377 23.30179112 -26.92578125 19.94140625 C-26.43081799 15.38606638 -25.86446279 13.81928371 -23 10 C-23.33 14.95 -23.66 19.9 -24 25 C-21.06184127 22.08485557 -18.1252996 19.16821012 -15.19262695 16.24755859 C-14.19548833 15.25543397 -13.19745212 14.26421061 -12.19848633 13.27392578 C-10.75883147 11.84646531 -9.3224863 10.41574407 -7.88671875 8.984375 C-7.02264404 8.12553711 -6.15856934 7.26669922 -5.26831055 6.38183594 C-3.32309427 4.33926463 -1.62644361 2.29889312 0 0 Z " fill="#1D1D1D" transform="translate(350,521)"/>
<path d="M0 0 C0.33 0 0.66 0 1 0 C1.06058594 1.07121094 1.12117187 2.14242187 1.18359375 3.24609375 C1.26798537 4.64324391 1.35263406 6.04037857 1.4375 7.4375 C1.47681641 8.14455078 1.51613281 8.85160156 1.55664062 9.58007812 C1.47624438 13.08690419 1.47624438 13.08690419 3 16 C5.95817107 16.25005386 5.95817107 16.25005386 9 16 C9.66 15.34 10.32 14.68 11 14 C11.763125 13.71125 12.52625 13.4225 13.3125 13.125 C16.35645898 11.85078461 18.50545882 10.13817815 21 8 C20.78087133 11.83475164 20.05971606 12.94164113 17.25 15.6875 C14 18 14 18 11.375 19 C8.75389978 19.86545553 8.75389978 19.86545553 7.0625 22.625 C6.381875 23.40875 5.70125 24.1925 5 25 C4.01 24.979375 3.02 24.95875 2 24.9375 C0.515 24.9684375 0.515 24.9684375 -1 25 C-2.38123963 26.96722008 -3.71488126 28.96868328 -5 31 C-7.75 31.875 -7.75 31.875 -10 32 C-11.0625 30.125 -11.0625 30.125 -12 28 C-11.67 27.34 -11.34 26.68 -11 26 C-10.76784405 22.64663634 -10.60559473 19.30011977 -10.48242188 15.94140625 C-10.29895899 12.1821478 -10.07193688 9.20437202 -8 6 C-7.67 6 -7.34 6 -7 6 C-6.94583259 8.72943537 -6.90624775 11.45778564 -6.875 14.1875 C-6.84986328 15.34088867 -6.84986328 15.34088867 -6.82421875 16.51757812 C-6.78733149 20.8149434 -7.0041496 24.07901831 -9 28 C-6.37650336 27.03805123 -5.22488429 26.42504726 -3.8984375 23.91796875 C-2.77917561 20.2828008 -2.61828716 16.77127301 -2.5 13 C-2.35318032 8.31904315 -2.07622707 4.28640428 0 0 Z " fill="#171717" transform="translate(244,538)"/>
<path d="M0 0 C2.16874252 0.50603992 3.99967627 0.99983813 6 2 C6.35813217 6.56618517 6.60240582 9.92905632 4.3125 14 C1.77957167 16.19064072 0.32055878 16.82051034 -3 17 C-4 16 -4 16 -4.3125 13.5625 C-3.87851233 8.61504061 -1.99667448 4.51034502 0 0 Z " fill="#202020" transform="translate(310,551)"/>
<path d="M0 0 C1.8125 0.125 1.8125 0.125 4 1 C6.14782145 4.50015347 7.66622284 7.88341505 8 12 C7.01 13.485 7.01 13.485 6 15 C3.625 15.125 3.625 15.125 1 15 C0.278125 15.185625 -0.44375 15.37125 -1.1875 15.5625 C-3 16 -3 16 -5 15 C-4.34 13.02 -3.68 11.04 -3 9 C1 9 1 9 3 10 C3 9.34 3 8.68 3 8 C0.525 7.01 0.525 7.01 -2 6 C-1.34 4.02 -0.68 2.04 0 0 Z " fill="#111111" transform="translate(332,513)"/>
<path d="M0 0 C0 3 0 3 -1.4609375 4.5703125 C-2.40839844 5.33988281 -2.40839844 5.33988281 -3.375 6.125 C-4.00148438 6.64320313 -4.62796875 7.16140625 -5.2734375 7.6953125 C-8.84584893 10.39482702 -12.30009628 10.31912442 -16.625 10.5625 C-17.33140625 10.60568359 -18.0378125 10.64886719 -18.765625 10.69335938 C-20.51018537 10.79944751 -22.25506697 10.90022889 -24 11 C-22.53950103 7.14959362 -20.71752779 5.71016706 -17 4 C-13.6699349 3.57609942 -10.41254687 3.49930766 -7.05859375 3.40625 C-3.7760602 2.97025576 -2.40414818 2.21017045 0 0 Z " fill="#1E1E1E" transform="translate(326,509)"/>
<path d="M0 0 C0.33 0 0.66 0 1 0 C1.66 1.98 2.32 3.96 3 6 C5.76276177 5.47731534 8.3260876 4.89130413 11 4 C10.72731275 7.9085172 10.16393951 9.78596786 7.75 12.9375 C5 15 5 15 2.25 14.875 C0 14 0 14 -1 13 C-1.09873816 11.00200428 -1.12971799 9.00042842 -1.125 7 C-1.12757813 5.906875 -1.13015625 4.81375 -1.1328125 3.6875 C-1 1 -1 1 0 0 Z " fill="#0D0D0D" transform="translate(323,553)"/>
<path d="M0 0 C8.91 0 17.82 0 27 0 C25.68 0.33 24.36 0.66 23 1 C22.98541748 1.59949463 22.97083496 2.19898926 22.95581055 2.81665039 C22.88076179 5.56587455 22.78429248 8.31395889 22.6875 11.0625 C22.66494141 12.00544922 22.64238281 12.94839844 22.61914062 13.91992188 C22.39899472 19.66372859 21.6479756 23.88152706 19 29 C17.67729696 25.03189088 18.03173625 21.36394099 18.25 17.25 C18.27707031 16.46367188 18.30414063 15.67734375 18.33203125 14.8671875 C18.37199219 14.09117187 18.41195313 13.31515625 18.453125 12.515625 C18.48567383 11.81727539 18.51822266 11.11892578 18.55175781 10.39941406 C19 8 19 8 22 1 C14.74 1 7.48 1 0 1 C0 0.67 0 0.34 0 0 Z " fill="#505050" transform="translate(249,532)"/>
<path d="M0 0 C2.5625 2.0625 2.5625 2.0625 5 5 C5 9.91711128 3.74812814 13.92518931 1 18 C-2.1875 19.375 -2.1875 19.375 -5 20 C-3.7315625 18.63875 -3.7315625 18.63875 -2.4375 17.25 C-0.33066472 14.84607656 -0.33066472 14.84607656 -0.0625 11.75 C-0.98863775 9.81843591 -0.98863775 9.81843591 -3 8 C-2.64700993 4.55834679 -1.95418308 2.93127462 0 0 Z " fill="#1D1D1D" transform="translate(276,549)"/>
<path d="M0 0 C1.9375 0.75 1.9375 0.75 4 2 C4.75 4.125 4.75 4.125 5 6 C1.35587377 8.50533679 -1.91807033 9.56454255 -6.1484375 10.546875 C-11.01630448 11.73816734 -13.58593199 14.39626154 -17 18 C-17 15 -17 15 -15.6796875 13.46484375 C-11.84580325 10.22014951 -8.79900395 8.59966798 -4 7 C-3.24756445 5.07361988 -3.24756445 5.07361988 -3 3 C-1.4375 1.25 -1.4375 1.25 0 0 Z " fill="#181818" transform="translate(247,507)"/>
<path d="M0 0 C3.875 1.875 3.875 1.875 5 3 C5.37726453 8.56465188 5.21860027 12.2275927 2 17 C-2.1 20 -2.1 20 -5 20 C-5 19.34 -5 18.68 -5 18 C-3.04072937 16.2856382 -1.04119788 14.61594832 1 13 C0.42655063 10.13275314 0.1385485 9.1385485 -2 7 C-1.6730244 4.38419521 -1.17960932 2.35921863 0 0 Z " fill="#0E0E0E" transform="translate(365,548)"/>
<path d="M0 0 C0.33 0 0.66 0 1 0 C0.93941381 2.83543366 0.85216609 5.66600145 0.75 8.5 C0.73582031 9.29148437 0.72164063 10.08296875 0.70703125 10.8984375 C0.462018 16.87676092 -1.02335168 20.80872533 -4 26 C-5.69033247 22.61933505 -4.65507279 18.90722864 -4.25 15.25 C-4.17523438 14.45078125 -4.10046875 13.6515625 -4.0234375 12.828125 C-3.49530579 7.96291169 -2.52151873 4.29489453 0 0 Z " fill="#373737" transform="translate(359,539)"/>
<path d="M0 0 C0.33 0 0.66 0 1 0 C-0.1801848 19.81468172 -0.1801848 19.81468172 -4 28 C-4.66 28 -5.32 28 -6 28 C-5.80083984 27.00033203 -5.80083984 27.00033203 -5.59765625 25.98046875 C-4.65088004 21.03926445 -3.89369032 16.21055321 -3.5625 11.1875 C-3.21799471 6.7344502 -2.35066 3.78149652 0 0 Z " fill="#2B2B2B" transform="translate(306,531)"/>
<path d="M0 0 C0.33 0 0.66 0 1 0 C0.5656838 6.60460145 0.03565466 12.96434534 -4.875 17.875 C-7.24930925 19.13198725 -9.34814698 19.63168708 -12 20 C-10.88831499 16.66494497 -10.35581058 16.36750326 -7.625 14.4375 C-3.65116778 11.21283287 -2.66096138 7.95685545 -1.5078125 3.07421875 C-1 1 -1 1 0 0 Z " fill="#323232" transform="translate(297,549)"/>
<path d="M0 0 C0.33 0 0.66 0 1 0 C1.55353075 16.8929385 1.55353075 16.8929385 -2 24 C-3.37237824 20.03764478 -2.95917661 16.10864358 -2.6875 12 C-2.65205078 11.2884375 -2.61660156 10.576875 -2.58007812 9.84375 C-2.3483073 6.13541681 -2.02089554 3.16744444 0 0 Z " fill="#262626" transform="translate(289,534)"/>
<path d="M0 0 C0.33 0 0.66 0 1 0 C1.05416741 2.72943537 1.09375225 5.45778564 1.125 8.1875 C1.15013672 9.34088867 1.15013672 9.34088867 1.17578125 10.51757812 C1.21266851 14.8149434 0.9958504 18.07901831 -1 22 C-3 20 -3 20 -3.046875 16.4453125 C-2.95898751 15.00449032 -2.85954252 13.56433776 -2.75 12.125 C-2.69005859 11.04412109 -2.69005859 11.04412109 -2.62890625 9.94140625 C-2.37485751 6.21306938 -2.0342071 3.18470129 0 0 Z " fill="#3D3D3D" transform="translate(236,544)"/>
<path d="M0 0 C3.0625 0.125 3.0625 0.125 5.0625 1.125 C4.48905063 3.99224686 4.2010485 4.9864515 2.0625 7.125 C-0.5625 6.75 -0.5625 6.75 -2.9375 6.125 C-3.31968767 4.46885343 -3.65145102 2.80042976 -3.9375 1.125 C-2.9375 0.125 -2.9375 0.125 0 0 Z " fill="#E8E8E8" transform="translate(327.9375,552.875)"/>
<path d="M0 0 C1.8125 0.0625 1.8125 0.0625 4 1 C5.75 4.5625 5.75 4.5625 7 8 C5.3125 8.6875 5.3125 8.6875 3 9 C0.25 7.5625 0.25 7.5625 -2 6 C-1.34 4.02 -0.68 2.04 0 0 Z " fill="#202020" transform="translate(332,513)"/>
<path d="M0 0 C1.32 0.66 2.64 1.32 4 2 C4.125 4.375 4.125 4.375 4 7 C3.34 7.66 2.68 8.32 2 9 C-0.125 8.625 -0.125 8.625 -2 8 C-2 4.23312136 -1.76462683 3.08809695 0 0 Z " fill="#161616" transform="translate(361,519)"/>
<path d="M0 0 C1.32 0.66 2.64 1.32 4 2 C4.125 4.375 4.125 4.375 4 7 C3.34 7.66 2.68 8.32 2 9 C-0.125 8.625 -0.125 8.625 -2 8 C-2 4.23312136 -1.76462683 3.08809695 0 0 Z " fill="#171717" transform="translate(289,513)"/>
<path d="M0 0 C0.74609375 1.734375 0.74609375 1.734375 1 4 C-0.65234375 6.140625 -0.65234375 6.140625 -2.9375 8.25 C-3.68902344 8.95640625 -4.44054687 9.6628125 -5.21484375 10.390625 C-5.80394531 10.92171875 -6.39304687 11.4528125 -7 12 C-7.66 11.67 -8.32 11.34 -9 11 C-7.59155282 7.78475695 -5.89655214 5.67816132 -3.375 3.25 C-2.74335938 2.63640625 -2.11171875 2.0228125 -1.4609375 1.390625 C-0.73777344 0.70226562 -0.73777344 0.70226562 0 0 Z " fill="#9E9E9E" transform="translate(347,521)"/>
<path d="M0 0 C0.33 0 0.66 0 1 0 C1.34833144 4.87664009 0.41685712 7.77050005 -2 12 C-2.99 11.34 -3.98 10.68 -5 10 C-4.34 10 -3.68 10 -3 10 C-2.87625 8.906875 -2.7525 7.81375 -2.625 6.6875 C-2 3 -2 3 0 0 Z " fill="#3D3D3D" transform="translate(355,533)"/>
<path d="M0 0 C-0.33 0.99 -0.66 1.98 -1 3 C-3.31 3.33 -5.62 3.66 -8 4 C-8 3.34 -8 2.68 -8 2 C-9.98 2 -11.96 2 -14 2 C-14 1.67 -14 1.34 -14 1 C-4.58997722 -0.14806378 -4.58997722 -0.14806378 0 0 Z " fill="#212121" transform="translate(318,524)"/>
<path d="M0 0 C1.98 0.66 3.96 1.32 6 2 C6 2.99 6 3.98 6 5 C4.34385343 5.38218767 2.67542976 5.71395102 1 6 C0 5 0 5 -0.0625 2.4375 C-0.041875 1.633125 -0.02125 0.82875 0 0 Z " fill="#101010" transform="translate(306,562)"/>
<path d="M0 0 C0.33 0.99 0.66 1.98 1 3 C-1.1875 5.5625 -1.1875 5.5625 -4 8 C-6.8125 7.8125 -6.8125 7.8125 -9 7 C-8.443125 6.773125 -7.88625 6.54625 -7.3125 6.3125 C-4.36753316 4.64103234 -2.31843456 2.44723648 0 0 Z " fill="#232323" transform="translate(264,546)"/>
<path d="M0 0 C0.66 0.99 1.32 1.98 2 3 C0.29374499 5.78388975 -0.47626739 6.85384206 -3.6875 7.75 C-4.8321875 7.87375 -4.8321875 7.87375 -6 8 C-4.02 5.36 -2.04 2.72 0 0 Z " fill="#2E2E2E" transform="translate(277,561)"/>
<path d="M0 0 C0.66 0.99 1.32 1.98 2 3 C-3.75 7 -3.75 7 -6 7 C-6 6.34 -6 5.68 -6 5 C-4.04072937 3.2856382 -2.04119788 1.61594832 0 0 Z " fill="#404040" transform="translate(366,561)"/>
<path d="M0 0 C0.33 0 0.66 0 1 0 C0.67 4.29 0.34 8.58 0 13 C-0.33 13 -0.66 13 -1 13 C-1.2236337 11.58566794 -1.42826476 10.16832382 -1.625 8.75 C-1.74101562 7.96109375 -1.85703125 7.1721875 -1.9765625 6.359375 C-2.00319395 3.67847541 -1.36592084 2.27305911 0 0 Z " fill="#616161" transform="translate(306,531)"/>
<path d="M0 0 C1.98 0.495 1.98 0.495 4 1 C4 1.99 4 2.98 4 4 C2.35 4 0.7 4 -1 4 C-0.67 2.68 -0.34 1.36 0 0 Z " fill="#EAEAEA" transform="translate(309,559)"/>
</svg>
