<?xml version="1.0" encoding="UTF-8"?>
<svg version="1.1" xmlns="http://www.w3.org/2000/svg" width="180" height="180">
<path d="M0 0 C59.4 0 118.8 0 180 0 C180 59.4 180 118.8 180 180 C120.6 180 61.2 180 0 180 C0 120.6 0 61.2 0 0 Z " fill="#FEFDFD" transform="translate(0,0)"/>
<path d="M0 0 C2.34312578 0.01852371 4.68586057 0.02050727 7.02905273 0.02026367 C8.52189471 0.02517069 10.01473402 0.03099541 11.50756836 0.0378418 C12.20644669 0.03895462 12.90532501 0.04006744 13.62538147 0.04121399 C18.52131525 0.08963712 18.52131525 0.08963712 20.75366211 1.20581055 C19.26390231 9.6974414 16.06794949 17.29529445 12.75366211 25.20581055 C8.86234156 23.99893722 5.40845053 22.61311297 1.87866211 20.58081055 C1.09749023 20.13479492 0.31631836 19.6887793 -0.48852539 19.22924805 C-1.06860352 18.89151367 -1.64868164 18.5537793 -2.24633789 18.20581055 C-1.94816162 18.89586182 -1.64998535 19.58591309 -1.34277344 20.296875 C0.73566493 25.81114647 1.71451339 31.64104959 2.94116211 37.39331055 C3.22932774 38.70260947 3.51773683 40.01185483 3.80639648 41.32104492 C4.07129883 42.55532227 4.33620117 43.78959961 4.60913086 45.0612793 C4.85300537 46.19202881 5.09687988 47.32277832 5.34814453 48.48779297 C5.75366211 51.20581055 5.75366211 51.20581055 4.75366211 53.20581055 C-0.83216107 47.73398376 -6.15820251 42.14196849 -11.24633789 36.20581055 C-11.57633789 35.87581055 -11.90633789 35.54581055 -12.24633789 35.20581055 C-12.90633789 38.83581055 -13.56633789 42.46581055 -14.24633789 46.20581055 C-21.33337528 45.66065382 -27.57429895 43.5966245 -34.24633789 41.20581055 C-34.00399414 41.7656665 -33.76165039 42.32552246 -33.51196289 42.90234375 C-32.41781014 45.4386214 -31.33199535 47.97838558 -30.24633789 50.51831055 C-29.86477539 51.39938477 -29.48321289 52.28045898 -29.09008789 53.18823242 C-28.72915039 54.03579102 -28.36821289 54.88334961 -27.99633789 55.7565918 C-27.66118164 56.53687744 -27.32602539 57.31716309 -26.98071289 58.12109375 C-26.24633789 60.20581055 -26.24633789 60.20581055 -26.24633789 63.20581055 C-30.20633789 64.19581055 -30.20633789 64.19581055 -34.24633789 65.20581055 C-27.4013693 70.96924564 -20.39908351 76.38613004 -13.11132812 81.57421875 C-8.35089875 84.99668884 -8.35089875 84.99668884 -7.24633789 87.20581055 C-17.85316142 91.14816974 -28.73307384 91.96853084 -39.24633789 87.20581055 C-43.37509927 84.67036312 -46.54772716 82.25372665 -49.24633789 78.20581055 C-50.15213555 74.07957188 -50.38896464 70.09660397 -50.43920898 65.88085938 C-50.45527191 64.64970901 -50.47133484 63.41855865 -50.48788452 62.15010071 C-50.53246479 56.57630806 -50.57375274 51.00263916 -50.59643555 45.42871094 C-50.60983403 42.48276123 -50.63781069 39.53749453 -50.6784668 36.59179688 C-50.72767534 33.02513006 -50.75253881 29.45908733 -50.75966263 25.89209557 C-50.76638307 24.53524625 -50.78162619 23.17841134 -50.80555344 21.82175636 C-50.83706756 19.92894198 -50.83425025 18.03564969 -50.82983398 16.14257812 C-50.83792084 15.06591385 -50.84600769 13.98924957 -50.8543396 12.87995911 C-50.24633789 10.20581055 -50.24633789 10.20581055 -47.84344482 8.38275146 C-45.54832761 7.34266439 -43.42312893 6.51921712 -40.98852539 5.8894043 C-40.19704102 5.68250977 -39.40555664 5.47561523 -38.59008789 5.26245117 C-37.77540039 5.05813477 -36.96071289 4.85381836 -36.12133789 4.64331055 C-35.32985352 4.43512695 -34.53836914 4.22694336 -33.72290039 4.01245117 C-31.23812533 3.37322275 -28.74658269 2.78142203 -26.24633789 2.20581055 C-25.43720947 2.01092041 -24.62808105 1.81603027 -23.79443359 1.61523438 C-15.87662653 -0.08095459 -8.0569091 -0.06610357 0 0 Z " fill="#252122" transform="translate(87.246337890625,29.794189453125)"/>
<path d="M0 0 C2.10243072 2.10243072 2.56316328 3.19668416 3.47265625 5.95703125 C3.73240234 6.74013672 3.99214844 7.52324219 4.25976562 8.33007812 C4.52466797 9.14927734 4.78957031 9.96847656 5.0625 10.8125 C5.33126953 11.62009766 5.60003906 12.42769531 5.87695312 13.25976562 C7.15364644 17.14715349 8.33486644 20.95171797 9 25 C10.15628906 24.3503125 10.15628906 24.3503125 11.3359375 23.6875 C12.33882813 23.130625 13.34171875 22.57375 14.375 22 C15.37273437 21.443125 16.37046875 20.88625 17.3984375 20.3125 C20 19 20 19 22 19 C20.14539079 28.81585849 17.97564816 38.51562255 15.53833008 48.20385742 C15.3245874 49.07244385 15.11084473 49.94103027 14.890625 50.8359375 C14.69500977 51.61501465 14.49939453 52.3940918 14.29785156 53.19677734 C14.19956055 53.79184082 14.10126953 54.3869043 14 55 C14.33 55.33 14.66 55.66 15 56 C16.89770306 53.96004487 18.79318945 51.91810165 20.6875 49.875 C21.21794922 49.30523437 21.74839844 48.73546875 22.29492188 48.1484375 C24.88283788 45.35412329 27.38909722 42.54432519 29.76953125 39.5703125 C30.50558594 38.72210938 31.24164063 37.87390625 32 37 C32.66 37 33.32 37 34 37 C34.05001046 41.08931682 34.08600357 45.17851141 34.10986328 49.26806641 C34.11982603 50.65481676 34.13340118 52.04154665 34.15087891 53.42822266 C34.24983708 61.49040344 34.07347869 69.15724803 32 77 C25.36557705 76.08939293 25.36557705 76.08939293 22.859375 75.4765625 C8.12224224 73.02037371 -7.48193289 74.96923403 -21.30859375 80.29296875 C-25.10463299 81.29018661 -27.74031406 80.72236552 -31.140625 78.77246094 C-32.18476562 78.0111084 -32.18476562 78.0111084 -33.25 77.234375 C-34.0234375 76.67363281 -34.796875 76.11289063 -35.59375 75.53515625 C-36.3878125 74.94605469 -37.181875 74.35695313 -38 73.75 C-38.7940625 73.17636719 -39.588125 72.60273437 -40.40625 72.01171875 C-44.61502624 68.93229747 -48.44258782 65.81561146 -52 62 C-49.69 61.34 -47.38 60.68 -45 60 C-47.64 54.06 -50.28 48.12 -53 42 C-49.02692066 40.67564022 -46.19025432 41.81870814 -42.3125 42.9375 C-41.61060547 43.13279297 -40.90871094 43.32808594 -40.18554688 43.52929688 C-38.45491056 44.01199136 -36.72715934 44.50500846 -35 45 C-34.67 42.03 -34.34 39.06 -34 36 C-28.9663614 40.16798101 -24.45586145 44.54280681 -20.0625 49.375 C-19.47404297 50.01566406 -18.88558594 50.65632813 -18.27929688 51.31640625 C-16.8492747 52.87431658 -15.42411391 54.43668698 -14 56 C-15.26672976 47.0383596 -17.24534485 38.28330009 -19.32299805 29.47998047 C-19.64651245 28.09576904 -19.64651245 28.09576904 -19.9765625 26.68359375 C-20.17330566 25.85400146 -20.37004883 25.02440918 -20.57275391 24.16967773 C-21 22 -21 22 -21 19 C-16.96118589 20.59104798 -12.99469722 22.28798691 -9 24 C-6.03 16.08 -3.06 8.16 0 0 Z " fill="#EB1E26" transform="translate(110,34)"/>
<path d="M0 0 C2.82133726 1.11143589 5.60323498 2.26810443 8.375 3.5 C17.45354224 7.25663817 26.73214475 8.1596602 36.421875 9.41210938 C46.36047926 10.75617708 55.76564737 12.46416626 64.6875 17.1875 C66.20923828 17.98220703 66.20923828 17.98220703 67.76171875 18.79296875 C68.50035156 19.19128906 69.23898438 19.58960938 70 20 C68.64895122 24.05314634 66.05986945 24.99621272 62.5 26.9375 C61.86578125 27.28868896 61.2315625 27.63987793 60.578125 28.00170898 C58.72640646 29.01624939 56.86601642 30.01204797 55 31 C54.1028125 31.47695312 53.205625 31.95390625 52.28125 32.4453125 C47.62171514 34.727208 45.18755841 35.33571863 40 34 C37.17913905 32.82930275 34.50058715 31.44699031 31.8125 30 C31.06291016 29.59773193 30.31332031 29.19546387 29.54101562 28.78100586 C17.47932983 22.12400279 5.88347339 12.70462535 0 0 Z " fill="#262324" transform="translate(46,128)"/>
<path d="M0 0 C10.14635674 1.1640512 19.35499883 3.75864715 29 7 C29.99 7.33 30.98 7.66 32 8 C32.2041769 12.52016244 32.32793748 17.03913311 32.4375 21.5625 C32.49615234 22.83931641 32.55480469 24.11613281 32.61523438 25.43164062 C32.78473391 34.7541148 32.78473391 34.7541148 30.54467773 38.31054688 C28.78739572 40.05308934 26.9830602 41.52444255 25 43 C23.11967625 45.10294861 21.29923494 47.24255447 19.48046875 49.3984375 C18 51 18 51 16 52 C17.4350527 40.45532234 20.2014589 29.2757219 23 18 C22.16855469 18.44472656 21.33710938 18.88945313 20.48046875 19.34765625 C19.39378906 19.91355469 18.30710938 20.47945312 17.1875 21.0625 C16.10855469 21.63097656 15.02960938 22.19945313 13.91796875 22.78515625 C11 24 11 24 8 23 C6.83623606 20.26678341 5.85253862 17.62782343 4.9375 14.8125 C4.68162109 14.05646484 4.42574219 13.30042969 4.16210938 12.52148438 C3.42992233 10.35127443 2.71319857 8.17651181 2 6 C1.60941406 4.82824219 1.21882813 3.65648437 0.81640625 2.44921875 C0.54699219 1.64097656 0.27757813 0.83273438 0 0 Z " fill="#282425" transform="translate(112,31)"/>
<path d="M0 0 C0.60585938 0.39832031 1.21171875 0.79664062 1.8359375 1.20703125 C11.28940135 7.18452916 18.82139474 9.24054445 29.9375 9.3125 C30.75976074 9.31813965 31.58202148 9.3237793 32.42919922 9.32958984 C36.84224984 9.27818412 40.95788959 8.87751073 45.28515625 8 C51.69835531 6.74375985 57.98119731 6.66916816 64.5 6.6875 C65.64597656 6.67138672 66.79195313 6.65527344 67.97265625 6.63867188 C76.89083048 6.63359897 85.0474424 7.77491714 93 12 C92.42647107 15.87132028 90.51295648 18.08172796 88 21 C84.86304192 20.49403902 82.02964696 19.65857294 79.0625 18.5625 C65.83691524 14.15019449 52.10172399 14.82500757 38.37158203 15.19189453 C24.51762289 15.53654738 12.81198017 14.70305912 2 5 C1.34 4.34 0.68 3.68 0 3 C0 2.01 0 1.02 0 0 Z " fill="#2F2B2C" transform="translate(41,116)"/>
<path d="M0 0 C0.66 0.33 1.32 0.66 2 1 C1.32711735 6.20861017 -0.18784484 10.89080815 -1.9375 15.8125 C-2.20240234 16.58787109 -2.46730469 17.36324219 -2.74023438 18.16210938 C-4.75545174 23.87772587 -4.75545174 23.87772587 -7 25 C-9.6015625 23.78515625 -9.6015625 23.78515625 -12.625 22.0625 C-13.62789062 21.49660156 -14.63078125 20.93070313 -15.6640625 20.34765625 C-16.43492188 19.90292969 -17.20578125 19.45820312 -18 19 C-17.82871582 19.71019287 -17.65743164 20.42038574 -17.48095703 21.15209961 C-16.69481755 24.4137026 -15.90990071 27.67559869 -15.125 30.9375 C-14.85558594 32.05447266 -14.58617187 33.17144531 -14.30859375 34.32226562 C-13.77921664 36.52369969 -13.25343657 38.72600218 -12.73144531 40.92919922 C-12.27384131 42.8503418 -11.80607488 44.76912437 -11.32324219 46.68408203 C-11.13149414 47.47024902 -10.93974609 48.25641602 -10.7421875 49.06640625 C-10.48864502 50.07296265 -10.48864502 50.07296265 -10.22998047 51.09985352 C-9.96337935 53.3025674 -10.34452663 54.89563175 -11 57 C-15.33064814 52.78781944 -19.4117369 48.44298473 -23.35546875 43.8671875 C-25.47130895 41.46487962 -27.7024661 39.22791166 -30 37 C-30.66 39.64 -31.32 42.28 -32 45 C-37.78279567 44.36914956 -43.34022622 43.33166744 -49 42 C-48.4946875 43.13179687 -47.989375 44.26359375 -47.46875 45.4296875 C-46.81230711 46.91137289 -46.15606763 48.39314841 -45.5 49.875 C-45.16613281 50.62136719 -44.83226562 51.36773437 -44.48828125 52.13671875 C-44.17246094 52.85214844 -43.85664062 53.56757812 -43.53125 54.3046875 C-43.23798828 54.96452637 -42.94472656 55.62436523 -42.64257812 56.30419922 C-42 58 -42 58 -42 60 C-43.98 60.99 -45.96 61.98 -48 63 C-47.14450562 63.60473145 -47.14450562 63.60473145 -46.27172852 64.22167969 C-43.69387869 66.05334443 -41.12820746 67.90137018 -38.5625 69.75 C-37.21575195 70.70132813 -37.21575195 70.70132813 -35.84179688 71.671875 C-34.98779297 72.290625 -34.13378906 72.909375 -33.25390625 73.546875 C-32.46314697 74.11245117 -31.6723877 74.67802734 -30.85766602 75.26074219 C-28.81252213 77.17552797 -28.35912586 78.26330365 -28 81 C-37.48387028 75.29360348 -46.2150314 68.71273008 -55 62 C-54.67 61.34 -54.34 60.68 -54 60 C-51.35139573 59.40644386 -48.70802678 59.25790731 -46 59 C-46.24234375 58.40461426 -46.4846875 57.80922852 -46.734375 57.19580078 C-47.82649824 54.50697235 -48.91330919 51.81602826 -50 49.125 C-50.3815625 48.18785156 -50.763125 47.25070313 -51.15625 46.28515625 C-51.69765625 44.94130859 -51.69765625 44.94130859 -52.25 43.5703125 C-52.58515625 42.74289551 -52.9203125 41.91547852 -53.265625 41.06298828 C-54 39 -54 39 -54 37 C-47.25790101 38.43684077 -40.64120651 40.15055009 -34 42 C-33.67 38.04 -33.34 34.08 -33 30 C-26.29178945 35.36656844 -20.71193855 41.61667627 -15 48 C-15.176521 47.14768799 -15.35304199 46.29537598 -15.53491211 45.41723633 C-16.1929244 42.23969258 -16.85078519 39.06211752 -17.50854492 35.88452148 C-17.79266433 34.51211317 -18.07684323 33.13971717 -18.36108398 31.76733398 C-18.77082907 29.78893256 -19.1803389 27.81048241 -19.58984375 25.83203125 C-19.95903931 24.04889526 -19.95903931 24.04889526 -20.33569336 22.22973633 C-20.89958271 19.48821035 -21.45457143 16.74524835 -22 14 C-18.45756548 15.36591169 -15.07372071 16.90931484 -11.6875 18.625 C-10.80449219 19.07101563 -9.92148438 19.51703125 -9.01171875 19.9765625 C-8.34785156 20.31429687 -7.68398437 20.65203125 -7 21 C-6.82984375 20.40574219 -6.6596875 19.81148437 -6.484375 19.19921875 C-4.58289682 12.69575882 -2.37613734 6.34440732 0 0 Z " fill="#F1E5E5" transform="translate(107,34)"/>
<path d="M0 0 C2.16965398 3.25448097 3.36143262 6.5253585 4.625 10.1875 C4.85445313 10.84169922 5.08390625 11.49589844 5.3203125 12.16992188 C5.88395144 13.77864135 6.44247984 15.38914977 7 17 C10.14454764 16.00241937 12.85491765 15.08772421 15.6875 13.375 C18 12 18 12 21 12 C20.24374431 19.09315686 18.86577754 26.01464264 17.4375 33 C17.20353516 34.15628906 16.96957031 35.31257813 16.72851562 36.50390625 C16.15497733 39.33648314 15.57873932 42.16848202 15 45 C16.32 44.34 17.64 43.68 19 43 C17.55575365 46.23861303 15.74227753 48.61969163 13.375 51.25 C12.74335937 51.95640625 12.11171875 52.6628125 11.4609375 53.390625 C10.97882813 53.92171875 10.49671875 54.4528125 10 55 C8.74605608 51.23816824 9.41472479 49.44211002 10.36328125 45.609375 C10.67330078 44.34222656 10.98332031 43.07507813 11.30273438 41.76953125 C11.6392524 40.42966979 11.97584152 39.08982618 12.3125 37.75 C12.6380869 36.42595738 12.96296443 35.10174012 13.28710938 33.77734375 C14.75731838 27.81801609 16.28994182 21.89442275 18 16 C16.84371094 16.6496875 16.84371094 16.6496875 15.6640625 17.3125 C14.66117188 17.869375 13.65828125 18.42625 12.625 19 C11.62726563 19.556875 10.62953125 20.11375 9.6015625 20.6875 C7 22 7 22 5 22 C3.96378723 19.27581165 2.94588063 16.54697784 1.9375 13.8125 C1.64294922 13.04357422 1.34839844 12.27464844 1.04492188 11.48242188 C-0.47736587 7.30956253 -1.53759488 4.38434198 0 0 Z " fill="#F0E3E4" transform="translate(114,37)"/>
<path d="M0 0 C0.12375 0.61681641 0.2475 1.23363281 0.375 1.86914062 C1.22050001 4.75176722 2.52967087 5.436142 5 7.09375 C5.804375 7.64933594 6.60875 8.20492187 7.4375 8.77734375 C8.283125 9.34582031 9.12875 9.91429688 10 10.5 C11.67363894 11.62511398 13.340668 12.76014088 15 13.90625 C16.11375 14.65358398 16.11375 14.65358398 17.25 15.41601562 C19.25731833 17.23290755 19.63438299 18.35784586 20 21 C10.51612972 15.29360348 1.7849686 8.71273008 -7 2 C-6 0 -6 0 -4.0625 -0.6875 C-2 -1 -2 -1 0 0 Z " fill="#F0E6E6" transform="translate(59,94)"/>
<path d="M0 0 C3.78630702 0.75567052 5.4041044 2.12597273 8 5 C8.66 4.01 9.32 3.02 10 2 C10.5345256 3.24420647 11.05208611 4.49570936 11.5625 5.75 C11.85253906 6.44609375 12.14257812 7.1421875 12.44140625 7.859375 C13.07831803 10.30012784 12.80248831 11.6403655 12 14 C7.40312076 9.64157559 3.54058858 5.25723759 0 0 Z " fill="#F8EDED" transform="translate(84,77)"/>
<path d="M0 0 C2.18971822 3.28457734 3.27153595 6.33604556 4.5625 10.0625 C6.08853945 14.60963466 6.08853945 14.60963466 8 19 C5.6484375 18.36328125 5.6484375 18.36328125 3 17 C1.6015625 14.35546875 1.6015625 14.35546875 0.625 11.1875 C0.28726563 10.14980469 -0.05046875 9.11210938 -0.3984375 8.04296875 C-1.01247651 4.93688829 -0.85862613 3.01634244 0 0 Z " fill="#E3D8D8" transform="translate(114,37)"/>
<path d="M0 0 C1.75140143 0.45294865 3.50107344 0.91258748 5.25 1.375 C6.71179688 1.75785156 6.71179688 1.75785156 8.203125 2.1484375 C10.65837303 2.89598509 12.75617405 3.77123817 15 5 C14.67 5.66 14.34 6.32 14 7 C12.06077578 6.54901762 10.12366406 6.08894441 8.1875 5.625 C7.10855469 5.36976562 6.02960938 5.11453125 4.91796875 4.8515625 C2 4 2 4 -1 2 C-0.67 1.34 -0.34 0.68 0 0 Z " fill="#F1DDDE" transform="translate(58,72)"/>
<path d="M0 0 C0.66 0 1.32 0 2 0 C0.55575365 3.23861303 -1.25772247 5.61969163 -3.625 8.25 C-4.25664063 8.95640625 -4.88828125 9.6628125 -5.5390625 10.390625 C-6.02117187 10.92171875 -6.50328125 11.4528125 -7 12 C-8.04449911 8.86650268 -7.93423645 8.01031744 -7 5 C-5.824375 4.87625 -5.824375 4.87625 -4.625 4.75 C-1.85250896 4.27193661 -1.85250896 4.27193661 -0.6875 1.9375 C-0.460625 1.298125 -0.23375 0.65875 0 0 Z " fill="#FAE3E3" transform="translate(131,80)"/>
<path d="M0 0 C3.0831351 1.19899698 6.06279492 2.47700477 9 4 C8.67 4.99 8.34 5.98 8 7 C6.68 6.34 5.36 5.68 4 5 C4 6.32 4 7.64 4 9 C3.34 9 2.68 9 2 9 C1.34 6.03 0.68 3.06 0 0 Z " fill="#F0ECEC" transform="translate(85,48)"/>
<path d="M0 0 C0 3 0 3 -1 6 C-2.98 4.68 -4.96 3.36 -7 2 C-6 0 -6 0 -4.0625 -0.6875 C-2 -1 -2 -1 0 0 Z " fill="#E4DADB" transform="translate(59,94)"/>
<path d="M0 0 C0.66 0.33 1.32 0.66 2 1 C1.44894091 4.9492568 0.61064629 8.34920174 -1 12 C-1.66 12 -2.32 12 -3 12 C-2.68950274 10.56206608 -2.3765224 9.1246682 -2.0625 7.6875 C-1.88847656 6.88699219 -1.71445313 6.08648437 -1.53515625 5.26171875 C-1 3 -1 3 0 0 Z " fill="#F0EAEA" transform="translate(107,34)"/>
<path d="M0 0 C0.66 3.3 1.32 6.6 2 10 C1.34 10 0.68 10 0 10 C-0.33 10.66 -0.66 11.32 -1 12 C-1.66 8.37 -2.32 4.74 -3 1 C-1 0 -1 0 0 0 Z " fill="#E9DADA" transform="translate(90,56)"/>
<path d="M0 0 C2.29633824 3.44450737 2.54016485 5.93812283 3 10 C2.34 10 1.68 10 1 10 C-0.83691257 6.21812119 -1.15837626 4.05431692 0 0 Z " fill="#EAE2E1" transform="translate(114,37)"/>
<path d="M0 0 C0.33 0 0.66 0 1 0 C0.91291331 1.45945288 0.80473093 2.91765868 0.6875 4.375 C0.62949219 5.18710937 0.57148438 5.99921875 0.51171875 6.8359375 C0 9 0 9 -3 11 C-2.69217504 9.35328588 -2.37860766 7.70764424 -2.0625 6.0625 C-1.88847656 5.14597656 -1.71445313 4.22945312 -1.53515625 3.28515625 C-1 1 -1 1 0 0 Z " fill="#FAF4F4" transform="translate(132,56)"/>
<path d="M0 0 C0.99 0 1.98 0 3 0 C2.67 2.64 2.34 5.28 2 8 C1.01 8 0.02 8 -1 8 C-0.67 5.36 -0.34 2.72 0 0 Z " fill="#E9E2E2" transform="translate(132,49)"/>
<path d="M0 0 C2.475 0.495 2.475 0.495 5 1 C4.67 2.98 4.34 4.96 4 7 C3.34 7 2.68 7 2 7 C1.34 4.69 0.68 2.38 0 0 Z " fill="#F3F2F2" transform="translate(53,71)"/>
<path d="M0 0 C0.99 0.33 1.98 0.66 3 1 C2.1875 3.9375 2.1875 3.9375 1 7 C0.01 7.33 -0.98 7.66 -2 8 C-1.47731534 5.23723823 -0.89130413 2.6739124 0 0 Z " fill="#E7D8D9" transform="translate(103,45)"/>
</svg>
