<?xml version="1.0" encoding="UTF-8"?>
<svg version="1.1" xmlns="http://www.w3.org/2000/svg" width="900" height="900">
<path d="M0 0 C1.12802536 0.00090637 1.12802536 0.00090637 2.27883911 0.00183105 C44.49551937 0.09286433 85.75059738 6.9590779 126.125 19.1875 C127.43911865 19.58291992 127.43911865 19.58291992 128.77978516 19.98632812 C182.84594558 36.49476356 232.43801391 65.37853473 275.125 102.1875 C275.84171875 102.80238281 276.5584375 103.41726562 277.296875 104.05078125 C279.25528972 105.74618573 281.19381332 107.46113615 283.125 109.1875 C283.99125 109.9609375 284.8575 110.734375 285.75 111.53125 C296.76260245 121.48945435 307.56887156 131.80816284 317.125 143.1875 C318.00881475 144.19801789 318.89440641 145.20698296 319.78125 146.21484375 C374.75659823 208.98574333 409.30964536 289.52702993 419.125 372.1875 C419.21187073 372.90610199 419.29874146 373.62470398 419.38824463 374.36508179 C421.20826748 389.82200881 421.52557361 405.19736844 421.5 420.75 C421.49918427 422.62410553 421.49918427 422.62410553 421.49835205 424.53607178 C421.45688738 445.33375794 420.478915 465.65824335 417.125 486.1875 C417.01845093 486.8487085 416.91190186 487.50991699 416.80212402 488.19116211 C405.90300973 555.28081291 379.43528132 620.01186168 338.125 674.1875 C337.65255859 674.81011719 337.18011719 675.43273437 336.69335938 676.07421875 C319.4516182 698.69345402 299.98469347 720.92921197 278.125 739.1875 C276.80628906 740.33992187 276.80628906 740.33992187 275.4609375 741.515625 C203.11778875 804.45911781 107.85572397 841.1823461 -28.63452148 842.66967773 C-81.78406905 838.933613 -133.75678017 824.92204205 -181.875 802.1875 C-182.78572266 801.75969238 -183.69644531 801.33188477 -184.63476562 800.89111328 C-203.58693935 791.91695288 -221.69622856 781.20644468 -238.875 769.1875 C-239.57012695 768.70345703 -240.26525391 768.21941406 -240.98144531 767.72070312 C-255.90387839 757.28092419 -270.01184428 745.98437408 -283.32421875 733.5546875 C-285.42693863 731.60331193 -287.56114726 729.72746063 -289.75 727.875 C-298.01527626 720.701364 -305.94361328 712.75772118 -313.00390625 704.39453125 C-314.52925033 702.59532581 -316.0795763 700.83152702 -317.65234375 699.07421875 C-336.103599 678.33876803 -352.15206463 655.30492309 -365.875 631.1875 C-366.34196289 630.37635742 -366.80892578 629.56521484 -367.29003906 628.72949219 C-396.80556733 577.13853371 -414.09983433 519.24806103 -419.875 460.1875 C-420.01856934 458.82262451 -420.01856934 458.82262451 -420.16503906 457.43017578 C-421.22945788 445.92186266 -421.11882979 434.35999342 -421.125 422.8125 C-421.12567474 421.67778259 -421.12634949 420.54306519 -421.12704468 419.3739624 C-421.10984892 401.13071026 -420.4853839 383.26918363 -417.875 365.1875 C-417.61759033 363.3940918 -417.61759033 363.3940918 -417.35498047 361.56445312 C-410.63544774 316.38325186 -397.21559291 271.66204178 -375.89941406 231.14648438 C-374.78654453 229.01834684 -373.70144299 226.87722312 -372.6171875 224.734375 C-350.77964099 181.94597282 -319.56370582 140.30913701 -282.9375 108.9765625 C-281.51944849 107.74651024 -280.12452322 106.48944623 -278.75 105.2109375 C-271.56586731 98.5364899 -263.84653379 92.65226244 -256.00488281 86.78222656 C-254.04783208 85.31690614 -252.0978614 83.8426256 -250.1484375 82.3671875 C-178.64510047 28.65941496 -89.26978196 -0.13499778 0 0 Z " fill="#4C5265" transform="translate(449.875,28.8125)"/>
<path d="M0 0 C2.67000696 1.29779348 5.20622136 2.78419196 7.75 4.3125 C8.4922583 4.7554541 9.2345166 5.1984082 9.99926758 5.65478516 C23.07946954 13.5792569 35.1375469 22.55400953 46.55175781 32.71923828 C48.48562884 34.4294688 50.46550861 36.08400727 52.4375 37.75 C55.63844559 40.56439072 58.42148772 43.61113413 61.171875 46.86328125 C63.1168342 49.13655621 65.14860655 51.31075649 67.1875 53.5 C82.05462323 70.05829005 93.5073135 88.94778838 103 109 C103.45890625 109.95003906 103.9178125 110.90007812 104.390625 111.87890625 C113.430536 131.07441346 118.93802308 151.2364582 123 172 C123.16951172 172.82983398 123.33902344 173.65966797 123.51367188 174.51464844 C126.18725066 188.05449451 126.28545328 201.62555112 126.3125 215.375 C126.31617584 216.27433258 126.31985168 217.17366516 126.32363892 218.10025024 C126.34548904 228.34749247 125.9632911 238.30477398 124.42651367 248.44384766 C123.55720515 255.6919003 123.54840819 260.29400252 128 266.4375 C139.49184392 283.08652567 145.99435413 302.29876217 150 322 C150.22816406 323.10472656 150.45632813 324.20945312 150.69140625 325.34765625 C156.89902048 361.07399551 148.13704797 402.94405909 127.61914062 433.02441406 C124.22288828 437.79576726 120.64144458 442.41434041 117 447 C116.56977539 447.54736816 116.13955078 448.09473633 115.69628906 448.65869141 C111.1251662 454.46134576 106.37901072 459.93231466 101 465 C96.47912603 462.48840335 92.61363727 459.38478989 88.625 456.125 C80.4587772 449.46919646 72.39251082 443.82572611 63 439 C61.36417969 438.14535156 61.36417969 438.14535156 59.6953125 437.2734375 C52.47502939 433.68699491 45.24214183 430.94650273 37.5 428.6875 C36.68289551 428.44515625 35.86579102 428.2028125 35.02392578 427.953125 C22.08707515 424.36476447 9.02492629 423.61350622 -4.3125 423.6875 C-5.39525208 423.69123123 -5.39525208 423.69123123 -6.49987793 423.69503784 C-17.55511776 423.75380983 -28.27646255 424.10168042 -39 427 C-39.80195801 427.2151123 -40.60391602 427.43022461 -41.43017578 427.65185547 C-59.67702499 432.75100343 -77.24332123 441.01954155 -92 453 C-93.99686433 454.61178832 -95.99492946 456.22205235 -97.99462891 457.83032227 C-99.35268939 458.92687193 -100.70543339 460.03004533 -102.05224609 461.14038086 C-106.78275047 465 -106.78275047 465 -109 465 C-110.3046875 463.7421875 -110.3046875 463.7421875 -111.875 461.875 C-112.49246094 461.14539063 -113.10992187 460.41578125 -113.74609375 459.6640625 C-114.48988281 458.78492188 -115.23367188 457.90578125 -116 457 C-116.94733709 455.9228214 -117.89668495 454.84740905 -118.84765625 453.7734375 C-125.21232236 446.54576581 -130.95130822 439.23064039 -136 431 C-136.65484375 429.9584375 -137.3096875 428.916875 -137.984375 427.84375 C-146.08548803 414.40469427 -152.21678106 399.22425785 -156 384 C-156.29777344 382.81277344 -156.59554688 381.62554688 -156.90234375 380.40234375 C-164.66550108 345.09866859 -158.46900065 304.01801173 -140 273 C-139.24033191 271.89793266 -138.46700881 270.80514097 -137.6796875 269.72265625 C-131.55942809 261.09671573 -131.31630573 255.71669934 -132.69628906 245.56396484 C-140.37703438 180.72217436 -122.70396554 114.47656077 -82.625 62.8125 C-77.01897228 55.73944567 -70.86659375 49.16788681 -64.60888672 42.671875 C-63.18928037 41.19669074 -61.78303446 39.70867442 -60.37890625 38.21875 C-49.79260754 27.23264034 -16.02578828 -5.24272217 0 0 Z " fill="#FCFDFD" transform="translate(454,156)"/>
<path d="M0 0 C41.24458608 21.85772995 70.59371899 67.58632996 84.4375 111 C86.86594829 118.90504063 88.55292586 126.8577962 90 135 C90.37115433 136.77164335 90.7457306 138.54257615 91.125 140.3125 C92.70407514 148.28104427 93.15831432 156.2821968 93.203125 164.390625 C93.21022995 165.24919098 93.2173349 166.10775696 93.22465515 166.99234009 C93.45606535 203.1662674 93.45606535 203.1662674 90 219 C89.75830078 220.11536133 89.51660156 221.23072266 89.26757812 222.37988281 C86.27904649 235.80677496 83.00121502 248.59334304 77 261 C76.23122472 262.87613036 75.46267172 264.75235852 74.69970703 266.63085938 C68.37164252 281.93211187 59.33939663 296.10932368 49 309 C48.06607422 310.2375 48.06607422 310.2375 47.11328125 311.5 C36.06069443 325.74459126 22.67669069 338.55987982 8 349 C7.67 349.33 7.34 349.66 7 350 C-1.25003631 351.34385705 -9.41624625 352.00893642 -16.73828125 347.40625 C-21.47850112 343.9566891 -25.76584797 340.04499747 -30 336 C-30.69174316 335.35385742 -31.38348633 334.70771484 -32.09619141 334.04199219 C-40.04870181 326.56909684 -47.36847374 318.67782579 -54 310 C-54.76957031 309.00097656 -55.53914063 308.00195312 -56.33203125 306.97265625 C-87.76067805 265.64111908 -100.20691864 216.34631013 -99 165 C-98.98598145 164.29568848 -98.97196289 163.59137695 -98.95751953 162.86572266 C-97.67328904 111.95988521 -74.48360974 65.22848715 -41 28 C-40.2884375 27.20335937 -39.576875 26.40671875 -38.84375 25.5859375 C-32.30322708 18.66807672 -24.6082629 13.1075648 -16.97509766 7.46679688 C-15.25463626 6.18910441 -13.55328435 4.88575937 -11.85546875 3.578125 C-10.56576172 2.61132812 -10.56576172 2.61132812 -9.25 1.625 C-8.53328125 1.08101562 -7.8165625 0.53703125 -7.078125 -0.0234375 C-4.25319463 -1.35094237 -2.93573216 -0.98156541 0 0 Z " fill="#4D5264" transform="translate(453,195)"/>
<path d="M0 0 C14.30522776 -0.46385304 27.52419959 4.0017922 38.44921875 13.33984375 C48.85592886 23.31154668 55.91051514 34.71756488 56.39208984 49.34326172 C56.48192555 53.642703 56.52127458 57.94291145 56.54931641 62.24316406 C56.565759 64.08151004 56.59289129 65.91979526 56.63134766 67.7578125 C56.9609666 83.64831207 55.57199452 98.28688543 45.19921875 111.15234375 C44.77253906 111.75046875 44.34585938 112.34859375 43.90625 112.96484375 C36.28981852 122.97118188 23.49199371 129.31098495 11.19921875 131.15234375 C0.19644911 131.86192217 -10.84720177 132.47452584 -20.80078125 127.15234375 C-21.80367188 126.64316406 -22.8065625 126.13398438 -23.83984375 125.609375 C-37.11278511 118.41300357 -45.91251272 107.4745137 -50.80078125 93.15234375 C-52.52885829 84.98339562 -52.10207001 76.49778886 -52.15087891 68.18774414 C-52.16738066 66.13489398 -52.19459354 64.08209989 -52.23291016 62.02954102 C-52.53636448 45.64696572 -51.03948152 33.55765235 -40.80078125 20.15234375 C-40.3625 19.53875 -39.92421875 18.92515625 -39.47265625 18.29296875 C-32.2747998 8.94402876 -18.94927872 1.87475407 -7.30078125 0.33984375 C-4.86742652 0.19515779 -2.43439418 0.13241475 0 0 Z " fill="#FCFDFD" transform="translate(448.80078125,250.84765625)"/>
<path d="M0 0 C5.71345441 4.04122385 10.2100202 8.79679408 11.5625 15.8125 C11.66920037 17.93392896 11.72110315 20.05834214 11.73950195 22.18237305 C11.75875481 24.12040047 11.75875481 24.12040047 11.77839661 26.09757996 C11.78656642 27.50645562 11.79400969 28.91533567 11.80078125 30.32421875 C11.80485678 31.03746622 11.8089323 31.75071369 11.81313133 32.48557472 C11.83396208 36.26308524 11.84827499 40.04055978 11.85766602 43.81811523 C11.86870624 47.70052754 11.90308634 51.58236291 11.94283772 55.46457195 C11.96911008 58.46650688 11.97736732 61.4683067 11.98094749 64.47034645 C11.98578847 65.90035701 11.9973307 67.33036256 12.01598549 68.76025963 C12.11648744 76.97636809 11.85621401 83.64711764 7.5625 90.8125 C6.9025 90.8125 6.2425 90.8125 5.5625 90.8125 C5.5625 91.4725 5.5625 92.1325 5.5625 92.8125 C4.9025 92.8125 4.2425 92.8125 3.5625 92.8125 C3.5625 93.4725 3.5625 94.1325 3.5625 94.8125 C-3.15463105 98.47638966 -10.05838543 98.91412679 -17.5546875 97.37890625 C-22.37425037 95.65457376 -25.77225298 92.06204247 -28.4375 87.8125 C-30.17219728 83.40264566 -30.6936517 79.71039072 -30.7121582 74.984375 C-30.71726913 74.3298938 -30.72238007 73.6754126 -30.72764587 73.00109863 C-30.7414558 70.85480402 -30.740592 68.70883354 -30.73828125 66.5625 C-30.7421723 65.0608712 -30.74650781 63.55924349 -30.75126648 62.05761719 C-30.75870971 58.91728133 -30.75845078 55.77705795 -30.75317383 52.63671875 C-30.74737497 48.62187102 -30.76432909 44.60748398 -30.7875185 40.5927124 C-30.80228109 37.49395071 -30.80312424 34.39529942 -30.80000877 31.29650879 C-30.8005205 29.8166004 -30.8057302 28.3366856 -30.81582069 26.85681152 C-30.82822051 24.78444808 -30.82137392 22.71297522 -30.80981445 20.640625 C-30.81044388 19.4640332 -30.8110733 18.28744141 -30.8117218 17.07519531 C-30.09497569 10.82616285 -26.76227568 6.23556604 -22.4375 1.8125 C-15.66737276 -2.33247586 -7.45521899 -2.57543929 0 0 Z " fill="#34F9CB" transform="translate(541.4375,648.1875)"/>
<path d="M0 0 C3.64485644 3.54809034 7.7942853 7.74886421 8.26742554 12.92643738 C8.27504913 14.12142349 8.28267273 15.31640961 8.29052734 16.54760742 C8.29724457 17.20819153 8.30396179 17.86877563 8.31088257 18.54937744 C8.32988874 20.7348177 8.33378877 22.91995096 8.3359375 25.10546875 C8.34236634 26.62901434 8.34909476 28.15255868 8.35610962 29.67610168 C8.36809084 32.87304543 8.37178986 36.06988109 8.37060547 39.2668457 C8.37040285 43.3478316 8.39764132 47.42811664 8.43214989 51.50893688 C8.4544831 54.65840279 8.45844097 57.80770219 8.45738602 60.95723915 C8.45973477 62.46062943 8.46851723 63.9640248 8.48405075 65.46733665 C8.64089673 82.2231395 8.64089673 82.2231395 2 89.05859375 C1.34 89.51363281 0.68 89.96867188 0 90.4375 C-0.66 90.91058594 -1.32 91.38367188 -2 91.87109375 C-7.15660405 94.78175502 -13.24615915 94.70828746 -19 94 C-25.37440245 91.45235325 -29.22202295 87.1134537 -32.57836914 81.23608398 C-35.02986993 75.35322621 -34.4514499 68.85981524 -34.43359375 62.59765625 C-34.43816222 61.19192759 -34.44346976 59.78620115 -34.44947815 58.38047791 C-34.45838241 55.44276828 -34.45601716 52.50533089 -34.44604492 49.56762695 C-34.43455922 45.82074812 -34.45477297 42.07481233 -34.48396206 38.32805729 C-34.50239282 35.42734402 -34.50201805 32.52685391 -34.49632454 29.62609673 C-34.49617216 28.24552526 -34.50214717 26.86493785 -34.51461601 25.48442268 C-34.58895433 15.90581576 -33.9982692 9.61338754 -27.5625 2.1875 C-19.14006509 -5.00238346 -9.31139246 -6.61801448 0 0 Z " fill="#34F9CA" transform="translate(380,651)"/>
<path d="M0 0 C2.06468622 2.06468622 2.65844221 3.30973657 3.70703125 5.98046875 C11.20694895 24.54312843 20.25057363 42.45550708 33 58 C33.6290625 58.81726563 34.258125 59.63453125 34.90625 60.4765625 C39.24512911 66.0779843 43.93628073 71.29157467 48.78833008 76.44702148 C51.03329829 78.83668274 53.17137854 81.21482663 55.21875 83.78125 C56.91408056 86.08099995 56.91408056 86.08099995 59.25 87.6875 C59.8275 88.120625 60.405 88.55375 61 89 C61 89.66 61 90.32 61 91 C59.52466797 91.45826172 59.52466797 91.45826172 58.01953125 91.92578125 C49.2429574 94.77446885 41.04752944 98.2684346 32.875 102.5625 C31.99948486 103.02116455 31.12396973 103.4798291 30.22192383 103.95239258 C26.30975098 106.05143317 22.59038565 108.21256179 19.0078125 110.83984375 C16 113 16 113 14 113 C-5.83663971 78.76942671 -13.2023333 46.55345918 -2.875 7.4375 C-1.16157205 1.16157205 -1.16157205 1.16157205 0 0 Z " fill="#4F5464" transform="translate(336,462)"/>
<path d="M0 0 C8.32319958 8.32319958 9.27708221 29.52592584 9.375 40.8125 C9.117735 67.36571631 1.12163355 90.74772896 -13 113 C-13.6084375 112.6596875 -14.216875 112.319375 -14.84375 111.96875 C-27.91078332 104.74344922 -41.05215888 98.33449709 -55 93 C-56.66789243 92.33640595 -58.33506886 91.6709892 -60 91 C-56.72056015 87.04785454 -53.36765608 83.33330987 -49.6875 79.75 C-44.70470184 74.80872516 -40.31611861 69.52766068 -36 64 C-35.53158691 63.40268066 -35.06317383 62.80536133 -34.58056641 62.18994141 C-19.72927005 43.15763493 -8.70207903 22.5419735 0 0 Z " fill="#4E5465" transform="translate(563,462)"/>
<path d="M0 0 C4.09260595 3.29049164 7.09867813 7.44447189 8.75390625 12.41015625 C8.8637028 13.78895962 8.92241661 15.17222221 8.94677734 16.55517578 C8.96284027 17.3867923 8.9789032 18.21840881 8.99545288 19.07522583 C9.04019356 22.88803086 9.08099653 26.70066507 9.10400391 30.51367188 C9.12051791 32.51737113 9.14774735 34.52101259 9.18603516 36.52441406 C9.24116689 39.42674039 9.26273616 42.3276873 9.27734375 45.23046875 C9.30001312 46.11517853 9.3226825 46.99988831 9.34603882 47.91140747 C9.3240437 54.47535704 7.56790681 59.06586262 3.75390625 64.41015625 C-1.0979085 69.14067563 -5.8460919 70.71099454 -12.55859375 70.84765625 C-18.73463461 70.73599901 -22.73217265 69.67863956 -27.24609375 65.41015625 C-31.47446354 60.66251298 -33.34652361 56.58921797 -33.40722656 50.19580078 C-33.41683411 49.37459747 -33.42644165 48.55339417 -33.43634033 47.70730591 C-33.44059021 46.82807465 -33.44484009 45.94884338 -33.44921875 45.04296875 C-33.45776886 43.67445267 -33.45776886 43.67445267 -33.4664917 42.27828979 C-33.4759268 40.35008906 -33.48246976 38.4218723 -33.48632812 36.49365234 C-33.4960356 33.55277242 -33.52707377 30.61259108 -33.55859375 27.671875 C-33.56512418 25.79557705 -33.5703745 23.91927412 -33.57421875 22.04296875 C-33.58656555 21.16778595 -33.59891235 20.29260315 -33.6116333 19.39089966 C-33.58438225 11.87683376 -31.27681606 7.05066308 -26.24609375 1.41015625 C-19.39776764 -4.5821291 -7.69193653 -4.48027201 0 0 Z " fill="#34F9CB" transform="translate(462.24609375,613.58984375)"/>
<path d="M0 0 C5.6139332 3.42705534 9.0511408 7.76205071 11.25390625 13.9765625 C11.87204525 18.59223202 11.9751817 23.13281133 11.90576172 27.77807617 C11.87898369 29.90790334 11.90557834 32.03244385 11.9375 34.16210938 C11.96019116 43.15843204 10.86428373 50.61511901 4.84667969 57.61303711 C0.68139925 61.4824801 -3.74835749 62.9002728 -9.35546875 63.04296875 C-15.97546525 62.74122858 -20.77425426 61.41921781 -25.74609375 56.9765625 C-31.80225159 49.97215014 -31.54859437 41.59479781 -31.45288086 32.83837891 C-31.43362173 30.47998887 -31.47314868 28.12748271 -31.51757812 25.76953125 C-31.56463724 17.1778653 -31.01960491 10.4397012 -24.74609375 3.9765625 C-18.11672411 -2.19029298 -8.48235949 -3.16127765 0 0 Z " fill="#4E5464" transform="translate(460.74609375,286.0234375)"/>
<path d="M0 0 C4.3109076 3.43009347 7.33117071 6.6756399 9 12 C9.265625 14.71875 9.265625 14.71875 9.25 17.5 C9.25773437 18.87671875 9.25773437 18.87671875 9.265625 20.28125 C8.84218093 24.61532457 6.98346715 28.17474193 5 32 C4.34 32 3.68 32 3 32 C2.67 32.99 2.34 33.98 2 35 C-3.44828696 39.43465218 -8.62841408 39.71835231 -15.54296875 39.51953125 C-21.89486701 38.56495219 -26.11487162 35.4932343 -29.9375 30.4375 C-30.288125 29.633125 -30.63875 28.82875 -31 28 C-31.5878125 26.9171875 -31.5878125 26.9171875 -32.1875 25.8125 C-33.84616512 20.0709669 -33.90144206 14.25950134 -31.4375 8.75 C-28.48297242 3.59262677 -24.41295267 0.12946721 -19.0625 -2.375 C-12.18443865 -3.77868599 -6.15349173 -3.50048931 0 0 Z " fill="#35F8CB" transform="translate(462,705)"/>
<path d="M0 0 C0.66 0.99 1.32 1.98 2 3 C1.67 3.33 1.34 3.66 1 4 C0.87598086 6.17731389 0.8219849 8.35863454 0.79467773 10.53930664 C0.78477814 11.22220261 0.77487854 11.90509857 0.76467896 12.60868835 C0.73298065 14.87580853 0.70827387 17.14294969 0.68359375 19.41015625 C0.6630314 20.97815001 0.64203512 22.54613813 0.62062073 24.11412048 C0.56532576 28.24870248 0.51594938 32.38333511 0.46777344 36.51800537 C0.41761247 40.73405483 0.36189826 44.95003043 0.30664062 49.16601562 C0.1989683 57.44394803 0.09754365 65.72194208 0 74 C0.66 74 1.32 74 2 74 C2.33 76.64 2.66 79.28 3 82 C-0.13374463 79.43602712 -0.93567388 76.85247347 -2 73 C-2.25396729 69.73057556 -2.25396729 69.73057556 -2.25878906 66.15600586 C-2.2622937 65.49991837 -2.26579834 64.84383087 -2.26940918 64.16786194 C-2.27815343 62.01674566 -2.2724042 59.8659629 -2.265625 57.71484375 C-2.26697359 56.21081988 -2.26891575 54.70679643 -2.27142334 53.20277405 C-2.27436456 50.05823598 -2.27010872 46.91381189 -2.26074219 43.76928711 C-2.24933834 39.74545965 -2.25591927 35.72189875 -2.26788712 31.69808102 C-2.27512446 28.59507754 -2.27280936 25.49213695 -2.26763153 22.38913155 C-2.26630073 20.90561453 -2.26792275 19.42209174 -2.27259064 17.93858147 C-2.27768791 15.86376754 -2.26990166 13.78938177 -2.25878906 11.71459961 C-2.25719788 10.5357872 -2.25560669 9.35697479 -2.25396729 8.1424408 C-2.00203603 5.02519268 -1.32944633 2.81116577 0 0 Z " fill="#4EEECD" transform="translate(513,657)"/>
<path d="M0 0 C0.99 0.33 1.98 0.66 3 1 C2.67468292 1.68076096 2.34936584 2.36152191 2.01419067 3.06291199 C0.81422155 6.5380129 0.75970303 9.31759002 0.77294922 12.9934082 C0.77251114 14.01862831 0.77251114 14.01862831 0.77206421 15.06455994 C0.77345083 17.31009891 0.78898013 19.55530067 0.8046875 21.80078125 C0.80842001 23.36305052 0.81126586 24.92532215 0.81326294 26.4875946 C0.82088065 30.58935059 0.84051304 34.6909638 0.8626709 38.79266357 C0.88316953 42.98219878 0.89227323 47.17175717 0.90234375 51.36132812 C0.92376078 59.5742841 0.95787412 67.78712426 1 76 C0.34 76 -0.32 76 -1 76 C-2.44957456 73.10085089 -2.11932924 70.585717 -2.11352539 67.34716797 C-2.11367142 66.66412598 -2.11381744 65.98108398 -2.1139679 65.27734375 C-2.11327023 63.0155929 -2.10548465 60.753924 -2.09765625 58.4921875 C-2.09579155 56.92562912 -2.09436789 55.35907016 -2.09336853 53.79251099 C-2.08954743 49.66610102 -2.0797206 45.53972616 -2.06866455 41.41333008 C-2.0584417 37.20394363 -2.05386903 32.99455153 -2.04882812 28.78515625 C-2.03809798 20.52342138 -2.02102642 12.26171505 -2 4 C-1.34 4 -0.68 4 0 4 C0 2.68 0 1.36 0 0 Z " fill="#2D6969" transform="translate(511,656)"/>
<path d="M0 0 C1.07765625 0.00902344 2.1553125 0.01804687 3.265625 0.02734375 C4.08546875 0.03894531 4.9053125 0.05054688 5.75 0.0625 C5.75 0.3925 5.75 0.7225 5.75 1.0625 C4.80640625 1.10117187 4.80640625 1.10117187 3.84375 1.140625 C-1.7134422 1.50887268 -5.81730365 2.43629575 -10.65625 5.22265625 C-12.25 6.0625 -12.25 6.0625 -14.25 6.0625 C-14.53875 6.64 -14.8275 7.2175 -15.125 7.8125 C-16.25 10.0625 -16.25 10.0625 -17.29663086 11.67016602 C-18.7172966 15.23510931 -18.58884455 18.80527147 -18.62890625 22.58984375 C-18.64590073 23.4157753 -18.6628952 24.24170685 -18.68040466 25.09266663 C-18.73344071 27.72836695 -18.77376793 30.36405377 -18.8125 33 C-18.8565521 35.63229374 -18.90338803 38.26447112 -18.95530701 40.8966217 C-18.9870379 42.5326308 -19.01399639 44.16874139 -19.03553772 45.80491638 C-19.105287 49.66986991 -19.31987318 53.30310079 -20.25 57.0625 C-20.58 57.0625 -20.91 57.0625 -21.25 57.0625 C-21.32433795 51.19094592 -21.37869117 45.31966781 -21.41479492 39.44775391 C-21.42985098 37.45161159 -21.45030027 35.45550219 -21.47631836 33.45947266 C-21.51284161 30.58487815 -21.52975837 27.71072228 -21.54296875 24.8359375 C-21.55845261 23.94820648 -21.57393646 23.06047546 -21.58988953 22.14584351 C-21.59193137 14.57277836 -19.32289984 9.75029679 -14.25 4.0625 C-9.73290223 0.11003946 -5.88560265 -0.06397394 0 0 Z " fill="#53E0C5" transform="translate(450.25,610.9375)"/>
<path d="M0 0 C0.99 0.33 1.98 0.66 3 1 C1.99088542 2.7578125 0.98177083 4.515625 -0.02734375 6.2734375 C-1.71528555 9.26970366 -2.12292802 11.00834411 -2.11352539 14.44970703 C-2.11344986 15.37051056 -2.11337433 16.29131409 -2.11329651 17.24002075 C-2.10813522 18.23589203 -2.10297394 19.23176331 -2.09765625 20.2578125 C-2.0962413 21.27600067 -2.09482635 22.29418884 -2.09336853 23.3432312 C-2.087759 26.60385035 -2.07520488 29.86440151 -2.0625 33.125 C-2.05748623 35.33203026 -2.05292311 37.53906159 -2.04882812 39.74609375 C-2.03778648 45.16408581 -2.02103905 50.58203805 -2 56 C-4.72268735 53.41814907 -5.23168663 51.30289951 -5.37231445 47.69384766 C-5.38534539 45.93396494 -5.38126769 44.17390155 -5.36328125 42.4140625 C-5.36377975 41.4795224 -5.36427826 40.5449823 -5.36479187 39.5821228 C-5.36245343 37.60681023 -5.35273846 35.63149457 -5.33618164 33.65625 C-5.31264028 30.64295581 -5.31561633 27.63055001 -5.32226562 24.6171875 C-5.31668674 22.69530725 -5.30957554 20.77343072 -5.30078125 18.8515625 C-5.30169266 17.95450592 -5.30260406 17.05744934 -5.30354309 16.13320923 C-5.24188432 10.6508877 -5.13830543 5.46727549 -1.375 1.125 C-0.92125 0.75375 -0.4675 0.3825 0 0 Z " fill="#345E65" transform="translate(432,616)"/>
<path d="M0 0 C0.66 0 1.32 0 2 0 C0.85235318 3.44294045 -0.41241237 4.50780453 -3.578125 6.1953125 C-9.59474167 8.19438191 -16.8148062 8.33991413 -22.68359375 5.87109375 C-24.58331445 4.68249844 -26.31055645 3.46908135 -28 2 C-27.34 1.67 -26.68 1.34 -26 1 C-25.40960938 1.30808594 -24.81921875 1.61617187 -24.2109375 1.93359375 C-21.49200372 3.24502294 -19.62684381 3.16760658 -16.625 3.0625 C-12.60384418 2.98196951 -8.95611777 3.18848866 -5 4 C-4.34 4 -3.68 4 -3 4 C-3 3.34 -3 2.68 -3 2 C-2.01 2 -1.02 2 0 2 C0 1.34 0 0.68 0 0 Z " fill="#49E3C4" transform="translate(463,737)"/>
<path d="M0 0 C0.33 0 0.66 0 1 0 C1.04958948 4.46572364 1.085809 8.93129961 1.10986328 13.3972168 C1.11989545 14.91514886 1.13352438 16.43306173 1.15087891 17.95092773 C1.17525035 20.1379064 1.18651095 22.32462864 1.1953125 24.51171875 C1.20578613 25.82615967 1.21625977 27.14060059 1.22705078 28.49487305 C1.01205976 31.81382589 0.44225823 34.03314007 -1 37 C-3.5424813 33.18627805 -3.07157768 31.38212846 -2.6875 26.875 C-2.58824219 25.61429687 -2.48898437 24.35359375 -2.38671875 23.0546875 C-2 20 -2 20 -1 19 C-0.84379445 17.58672053 -0.74943827 16.1664541 -0.68359375 14.74609375 C-0.64169922 13.89208984 -0.59980469 13.03808594 -0.55664062 12.15820312 C-0.51732422 11.26037109 -0.47800781 10.36253906 -0.4375 9.4375 C-0.39431641 8.53580078 -0.35113281 7.63410156 -0.30664062 6.70507812 C-0.20021858 4.47021515 -0.09820012 2.23523692 0 0 Z " fill="#757882" transform="translate(471,300)"/>
<path d="M0 0 C0 0.99 0 1.98 0 3 C0.99 3 1.98 3 3 3 C3.33 3.66 3.66 4.32 4 5 C6.54941373 5.31241371 9.00361513 5.51303421 11.5625 5.625 C12.27341797 5.66367187 12.98433594 5.70234375 13.71679688 5.7421875 C15.47742425 5.83671783 17.23867728 5.91945817 19 6 C14.19077852 8.7978882 9.42162634 8.75424829 4 8 C0.3210631 6.42915234 -3.16830022 4.66339956 -5 1 C-3 0 -3 0 0 0 Z " fill="#4EE3C5" transform="translate(357,737)"/>
<path d="M0 0 C1.79133978 -0.05391993 3.58313899 -0.09275571 5.375 -0.125 C6.37273438 -0.14820313 7.37046875 -0.17140625 8.3984375 -0.1953125 C11 0 11 0 13 2 C12.13117187 2.09796875 11.26234375 2.1959375 10.3671875 2.296875 C1.96475186 3.38712392 -3.22588263 4.58431403 -9 11 C-9.25 8.6875 -9.25 8.6875 -9 6 C-6.51463982 3.51463982 -4.3377616 2.80566659 -1 2 C-0.67 1.34 -0.34 0.68 0 0 Z " fill="#356B6D" transform="translate(523,645)"/>
<path d="M0 0 C0.66 0 1.32 0 2 0 C2.05449838 1.72880982 2.09301688 3.45812712 2.125 5.1875 C2.14820313 6.15042969 2.17140625 7.11335937 2.1953125 8.10546875 C1.9913544 11.12812778 1.26874632 13.26769985 0 16 C-0.66 16 -1.32 16 -2 16 C-2.33 17.65 -2.66 19.3 -3 21 C-4.32 21.33 -5.64 21.66 -7 22 C-6.505 20.515 -6.505 20.515 -6 19 C-5.34 19 -4.68 19 -4 19 C-3.87625 18.443125 -3.7525 17.88625 -3.625 17.3125 C-3 15 -3 15 -2 12.875 C-0.53813516 8.67213858 -0.32601463 4.41835621 0 0 Z " fill="#3A656B" transform="translate(471,718)"/>
<path d="M0 0 C1.97806641 -0.00773438 1.97806641 -0.00773438 3.99609375 -0.015625 C7.1989784 0.22292501 8.91108447 0.5411593 11.5625 2.25 C11.5625 2.91 11.5625 3.57 11.5625 4.25 C11.02496094 4.08886719 10.48742187 3.92773438 9.93359375 3.76171875 C7.11799692 3.15406935 4.50506003 3.08065927 1.625 3.0625 C0.60535156 3.04832031 -0.41429687 3.03414062 -1.46484375 3.01953125 C-5.26061708 3.31381591 -8.07236117 4.56743059 -11.4375 6.25 C-11.125 4.375 -11.125 4.375 -10.4375 2.25 C-6.82740719 -0.15672854 -4.16774719 -0.04795107 0 0 Z " fill="#397475" transform="translate(448.4375,608.75)"/>
<path d="M0 0 C0.99 0 1.98 0 3 0 C2.67 0.94875 2.34 1.8975 2 2.875 C0.23732358 9.0256156 0.35361566 15.82605872 2 22 C-0.58421305 20.70789348 -0.94251148 19.65763562 -2 17 C-2.68117342 11.01969809 -1.96503144 5.64946539 0 0 Z " fill="#346C6D" transform="translate(429,711)"/>
<path d="M0 0 C2.46301423 2.46301423 2.76766521 4.27360036 3.625 7.625 C3.88539063 8.62789063 4.14578125 9.63078125 4.4140625 10.6640625 C4.60742188 11.43492187 4.80078125 12.20578125 5 13 C4.01 13.33 3.02 13.66 2 14 C1.67 12.68 1.34 11.36 1 10 C-0.32 9.67 -1.64 9.34 -3 9 C-2.01 6.03 -1.02 3.06 0 0 Z " fill="#5D636D" transform="translate(563,462)"/>
<path d="M0 0 C0.33 0 0.66 0 1 0 C1.33 11.22 1.66 22.44 2 34 C1.34 34 0.68 34 0 34 C-0.33 35.32 -0.66 36.64 -1 38 C-0.67 25.46 -0.34 12.92 0 0 Z " fill="#B7B9C4" transform="translate(546,360)"/>
<path d="M0 0 C0.4846875 0.28875 0.969375 0.5775 1.46875 0.875 C-1.82101808 1.97158936 -3.24428767 1.67453138 -6.53125 0.875 C-6.53125 0.215 -6.53125 -0.445 -6.53125 -1.125 C-8.1566808 -0.98404936 -9.78159051 -0.83707913 -11.40625 -0.6875 C-12.31117188 -0.60628906 -13.21609375 -0.52507813 -14.1484375 -0.44140625 C-16.54235861 -0.25510715 -16.54235861 -0.25510715 -18.53125 0.875 C-19.19125 0.215 -19.85125 -0.445 -20.53125 -1.125 C-12.72246532 -4.24851387 -7.19044885 -3.98240244 0 0 Z " fill="#50D7BE" transform="translate(378.53125,650.125)"/>
<path d="M0 0 C6.27 0 12.54 0 19 0 C19 0.66 19 1.32 19 2 C19.99 2.33 20.98 2.66 22 3 C21.01 3.495 21.01 3.495 20 4 C19.13375 3.690625 18.2675 3.38125 17.375 3.0625 C10.50355554 0.89926748 4.73423496 2.07593287 -2 4 C-2 3.34 -2 2.68 -2 2 C-1.34 2 -0.68 2 0 2 C0 1.34 0 0.68 0 0 Z " fill="#36686C" transform="translate(440,701)"/>
<path d="M0 0 C0 0.99 0 1.98 0 3 C-2.41611533 3.22237877 -4.8317717 3.42832339 -7.25 3.625 C-7.93191406 3.68945312 -8.61382813 3.75390625 -9.31640625 3.8203125 C-13.1227049 4.11594735 -15.77809846 4.17561392 -19 2 C-15.54980812 0.27490406 -11.64331314 0.98870837 -7.84765625 1.0625 C-5.03035024 1.00066612 -2.771165 0 0 0 Z " fill="#3E797A" transform="translate(543,744)"/>
<path d="M0 0 C1.32 0 2.64 0 4 0 C4.33 0.66 4.66 1.32 5 2 C5.99 1.34 6.98 0.68 8 0 C8 3.3 8 6.6 8 10 C5.33333333 6.66666667 2.66666667 3.33333333 0 0 Z " fill="#38686D" transform="translate(544,650)"/>
<path d="M0 0 C0.33 0.99 0.66 1.98 1 3 C-0.2065625 3.6496875 -0.2065625 3.6496875 -1.4375 4.3125 C-4.27846354 5.80474002 -4.27846354 5.80474002 -5 9 C-5.66 9 -6.32 9 -7 9 C-7 9.66 -7 10.32 -7 11 C-7.99 10.67 -8.98 10.34 -10 10 C-8.5741914 6.54804233 -6.90253666 4.8985744 -3.875 2.75 C-3.15054688 2.22921875 -2.42609375 1.7084375 -1.6796875 1.171875 C-1.12539062 0.78515625 -0.57109375 0.3984375 0 0 Z " fill="#6C6F7C" transform="translate(197,113)"/>
<path d="M0 0 C0.33 0 0.66 0 1 0 C1.33 4.62 1.66 9.24 2 14 C1.01 12.68 0.02 11.36 -1 10 C-1.33 10 -1.66 10 -2 10 C-2.17942163 6.05272412 -2.09350689 3.4019487 0 0 Z " fill="#6D7184" transform="translate(866,386)"/>
<path d="M0 0 C0.66 0.33 1.32 0.66 2 1 C0.85760183 2.33627775 -0.28901055 3.66895388 -1.4375 5 C-2.07558594 5.7425 -2.71367188 6.485 -3.37109375 7.25 C-4.17740234 8.11625 -4.17740234 8.11625 -5 9 C-5.33 9 -5.66 9 -6 9 C-6 7.35 -6 5.7 -6 4 C-4.02 3.34 -2.04 2.68 0 2 C0 1.34 0 0.68 0 0 Z " fill="#6B6F79" transform="translate(768,724)"/>
<path d="M0 0 C0 0.99 0 1.98 0 3 C0.99 3 1.98 3 3 3 C3 3.66 3 4.32 3 5 C0.6875 5.25 0.6875 5.25 -2 5 C-3.8125 3 -3.8125 3 -5 1 C-3 0 -3 0 0 0 Z " fill="#49EECB" transform="translate(357,737)"/>
<path d="M0 0 C0.66 0.33 1.32 0.66 2 1 C1.34 1.66 0.68 2.32 0 3 C-0.6425235 5.06874034 -0.6425235 5.06874034 -1 7 C-2.32 7 -3.64 7 -5 7 C-5 7.66 -5 8.32 -5 9 C-5.66 8.67 -6.32 8.34 -7 8 C-4.69 5.36 -2.38 2.72 0 0 Z " fill="#4CEAC9" transform="translate(438,705)"/>
<path d="M0 0 C1.45792884 -0.05399736 2.91642712 -0.09279177 4.375 -0.125 C5.18710937 -0.14820313 5.99921875 -0.17140625 6.8359375 -0.1953125 C9 0 9 0 11 2 C5.06 2.495 5.06 2.495 -1 3 C-0.67 2.01 -0.34 1.02 0 0 Z " fill="#347C78" transform="translate(525,645)"/>
<path d="M0 0 C0.99 0.33 1.98 0.66 3 1 C-0.75 7.75 -0.75 7.75 -3 10 C-3.36923077 3.47692308 -3.36923077 3.47692308 -1.5 1.0625 C-1.005 0.711875 -0.51 0.36125 0 0 Z " fill="#326669" transform="translate(432,616)"/>
<path d="M0 0 C0.33 0 0.66 0 1 0 C1 3.3 1 6.6 1 10 C0.01 10 -0.98 10 -2 10 C-1.85950482 8.52031676 -1.71245174 7.04125484 -1.5625 5.5625 C-1.48128906 4.73878906 -1.40007812 3.91507812 -1.31640625 3.06640625 C-1 1 -1 1 0 0 Z " fill="#D8E0DE" transform="translate(354,350)"/>
<path d="M0 0 C1 2 1 2 0 5.0625 C-2 8 -2 8 -5.6875 8.875 C-6.780625 8.91625 -7.87375 8.9575 -9 9 C-8.2575 8.443125 -7.515 7.88625 -6.75 7.3125 C-4.08292005 5.06972822 -2.08443768 2.77925025 0 0 Z " fill="#376D6F" transform="translate(385,735)"/>
<path d="M0 0 C0.99 0.66 1.98 1.32 3 2 C3 2.66 3 3.32 3 4 C-1.95 5.485 -1.95 5.485 -7 7 C-7 6.34 -7 5.68 -7 5 C-5.5459375 4.5978125 -5.5459375 4.5978125 -4.0625 4.1875 C-3.051875 3.795625 -2.04125 3.40375 -1 3 C-0.67 2.01 -0.34 1.02 0 0 Z " fill="#6D6E74" transform="translate(394,549)"/>
<path d="M0 0 C0 3.61656862 -1.02130767 5.0319615 -3 8 C-3.66 8.66 -4.32 9.32 -5 10 C-5.99 9.67 -6.98 9.34 -8 9 C-5.36 6.03 -2.72 3.06 0 0 Z " fill="#70737C" transform="translate(147,157)"/>
<path d="M0 0 C0.53625 0.37125 1.0725 0.7425 1.625 1.125 C0.985625 1.24875 0.34625 1.3725 -0.3125 1.5 C-0.993125 1.70625 -1.67375 1.9125 -2.375 2.125 C-2.705 2.785 -3.035 3.445 -3.375 4.125 C-5.3125 3.75 -5.3125 3.75 -7.375 3.125 C-7.705 2.465 -8.035 1.805 -8.375 1.125 C-2.95961538 -1.09038462 -2.95961538 -1.09038462 0 0 Z " fill="#626775" transform="translate(473.375,378.875)"/>
<path d="M0 0 C2 3 2 3 2 5 C-0.5 6.625 -0.5 6.625 -3 8 C-3.66 7.34 -4.32 6.68 -5 6 C-4.34 6 -3.68 6 -3 6 C-3 5.34 -3 4.68 -3 4 C-2.34 4 -1.68 4 -1 4 C-0.67 2.68 -0.34 1.36 0 0 Z " fill="#39666B" transform="translate(550,735)"/>
<path d="M0 0 C1.32 1.65 2.64 3.3 4 5 C3.01 5.495 3.01 5.495 2 6 C-0.625 5.0625 -0.625 5.0625 -3 4 C-2.01 2.68 -1.02 1.36 0 0 Z " fill="#65646E" transform="translate(506,549)"/>
<path d="M0 0 C2.5654594 2.5654594 2.54046087 4.47686668 3 8 C1.68 7.67 0.36 7.34 -1 7 C-0.67 4.69 -0.34 2.38 0 0 Z " fill="#565B5F" transform="translate(563,462)"/>
<path d="M0 0 C1.32 0.33 2.64 0.66 4 1 C4 2.98 4 4.96 4 7 C3.01 7.495 3.01 7.495 2 8 C0.74335022 5.09399739 0 3.20395416 0 0 Z " fill="#5D5F70" transform="translate(595,447)"/>
<path d="M0 0 C0.66 0.33 1.32 0.66 2 1 C0.625 3 0.625 3 -1 5 C-1.66 5 -2.32 5 -3 5 C-3 5.66 -3 6.32 -3 7 C-3.99 7 -4.98 7 -6 7 C-4.60667426 3.63279613 -3.0210714 2.0140476 0 0 Z " fill="#EBEEF2" transform="translate(411,179)"/>
<path d="M0 0 C0.66 0.66 1.32 1.32 2 2 C1.34 2 0.68 2 0 2 C-0.33 2.99 -0.66 3.98 -1 5 C-2.65 4.67 -4.3 4.34 -6 4 C-4.03617993 2.49440461 -2.21736634 1.10868317 0 0 Z " fill="#E9EDF0" transform="translate(370,563)"/>
<path d="M0 0 C2.8125 -0.1875 2.8125 -0.1875 6 0 C6.99 0.99 7.98 1.98 9 3 C5.7 2.67 2.4 2.34 -1 2 C-0.67 1.34 -0.34 0.68 0 0 Z " fill="#454E5F" transform="translate(363,644)"/>
<path d="M0 0 C0.99 0 1.98 0 3 0 C3.33 2.64 3.66 5.28 4 8 C1.10067643 5.60490662 0.49831724 3.68754757 0 0 Z " fill="#4DE5C6" transform="translate(512,731)"/>
<path d="M0 0 C2.64 0.99 5.28 1.98 8 3 C8 3.33 8 3.66 8 4 C5.03 3.67 2.06 3.34 -1 3 C-0.67 2.01 -0.34 1.02 0 0 Z " fill="#346166" transform="translate(438,681)"/>
<path d="M0 0 C2.97 0 5.94 0 9 0 C5.39338934 1.80330533 2.91606575 2.46599103 -1 3 C-0.67 2.01 -0.34 1.02 0 0 Z " fill="#345F65" transform="translate(359,646)"/>
<path d="M0 0 C0.66 0.33 1.32 0.66 2 1 C1.67 2.32 1.34 3.64 1 5 C-0.65 5.33 -2.3 5.66 -4 6 C-2.68 4.02 -1.36 2.04 0 0 Z " fill="#5F6370" transform="translate(530,522)"/>
<path d="M0 0 C1.485 0.99 1.485 0.99 3 2 C2.6875 3.875 2.6875 3.875 2 6 C1.01 6.66 0.02 7.32 -1 8 C-0.67 5.36 -0.34 2.72 0 0 Z " fill="#656A74" transform="translate(360,317)"/>
<path d="M0 0 C0.77321882 2.98241547 1.41196203 5.97580475 2 9 C1.01 9.495 1.01 9.495 0 10 C-0.38922918 8.71254964 -0.76098036 7.41980403 -1.125 6.125 C-1.43824219 5.04605469 -1.43824219 5.04605469 -1.7578125 3.9453125 C-1.83773437 3.30335938 -1.91765625 2.66140625 -2 2 C-1.34 1.34 -0.68 0.68 0 0 Z " fill="#595B6B" transform="translate(566,279)"/>
</svg>
