<?xml version="1.0" encoding="UTF-8"?>
<svg version="1.1" xmlns="http://www.w3.org/2000/svg" width="273" height="366">
<path d="M0 0 C3.03747167 2.29258761 5.37431766 4.72795166 7.84375 7.6171875 C9.89993285 9.88941854 11.27158254 10.77335854 14 12 C18 16.44444444 18 16.44444444 18 19 C19.97596956 20.71250695 21.96291403 22.36510792 24 24 C25.93138629 25.71678781 27.01897013 27.03365483 28.296875 29.30078125 C30.11776132 32.18663549 32.11719412 34.31470731 34.5625 36.6875 C35.34753906 37.45449219 36.13257813 38.22148438 36.94140625 39.01171875 C37.62074219 39.66785156 38.30007812 40.32398438 39 41 C40.7305922 42.7305922 42.2547021 44.4924896 43.8125 46.375 C46.31186895 49.31221461 48.92712281 51.65490952 52 54 C54.49354169 56.2085655 55.83154617 57.54728034 57 60.6875 C57.33 61.450625 57.66 62.21375 58 63 C59.33076989 63.34342449 60.66431979 63.67619874 62 64 C63.02611949 65.65071396 64.02308143 67.31970006 65 69 C67.32462373 71.02659505 69.68582079 72.79054719 72.25 74.5 C74 76 74 76 74.41015625 77.8828125 C75.48893121 81.75497164 78.58674533 84.07168705 82 86 C85.09802862 85.63478935 85.09802862 85.63478935 88 84 C94.19365085 81.75592361 100.01450715 81.66663323 106.5625 81.6875 C107.57763672 81.67138672 108.59277344 81.65527344 109.63867188 81.63867188 C115.10393155 81.63510214 119.39736947 81.69535603 124 85 C126.18139622 88.32743512 126.25321776 91.12111551 126.26069641 95.0458374 C126.26778122 96.28506958 126.27486603 97.52430176 126.28216553 98.80108643 C126.27987174 100.17175329 126.27736204 101.54241982 126.2746582 102.91308594 C126.27900622 104.35880802 126.28418967 105.80452779 126.29014587 107.25024414 C126.30354096 111.17606501 126.30411373 115.10178963 126.30158257 119.0276289 C126.3005127 122.3077167 126.30539692 125.58778503 126.310188 128.86786866 C126.32128603 136.61016943 126.32171964 144.35242169 126.31567383 152.09472656 C126.30963986 160.07223465 126.32192965 168.04956611 126.3432439 176.02704406 C126.3608842 182.88240612 126.36685723 189.7377121 126.36360615 196.59309602 C126.36179621 200.6845875 126.36440004 204.77595314 126.37832069 208.86742401 C126.39093316 212.71867485 126.38892284 216.56965161 126.37590981 220.42089844 C126.37355147 221.83014266 126.37625197 223.23940637 126.38453293 224.64862823 C126.43097152 233.16960039 125.82192539 239.35614921 122 247 C120.515 247.99 120.515 247.99 119 249 C116.16366249 251.19816157 113.47813986 253.40385348 111 256 C106.50240741 260.49759259 99.053248 260.47840493 93 261 C93.32343451 262.95138189 93.32343451 262.95138189 94 265 C96.35774595 266.68134288 96.35774595 266.68134288 99 268 C99.99 268.66 100.98 269.32 102 270 C102.1171875 272.49609375 102.1171875 272.49609375 101.875 275.4375 C101.74643613 278.35933109 101.74643613 278.35933109 102 281 C105.14281087 284.14281087 108.66852961 284.49634065 113 285 C113 285.66 113 286.32 113 287 C115.72012474 289.31529012 118.5561284 291.45033543 121.3984375 293.61328125 C125.25563814 297.1519443 125.91780122 299.72591887 126.25 304.875 C126.14357974 308.8809628 125.38166825 312.23879198 124 316 C123.34 316.33 122.68 316.66 122 317 C121.31867549 318.66072849 120.65257873 320.327767 120 322 C118 324 118 324 115.4375 326 C112.94690328 327.76637442 112.94690328 327.76637442 112 330 C109.67750658 330.40197001 107.34114367 330.72686657 105 331 C104.175 331.226875 103.35 331.45375 102.5 331.6875 C100 332 100 332 96.4375 330.9375 C92.54298925 329.8753607 92.29275232 330.19429711 89 332 C85.5368575 331.8557024 83.52534996 331.34562497 80.625 329.4375 C76.88789432 323.83184147 79.34934517 316.32556915 80.5625 310.125 C80.706875 309.42375 80.85125 308.7225 81 308 C79.6078125 308.804375 79.6078125 308.804375 78.1875 309.625 C75.85560324 310.97050922 73.51063153 312.25431224 71.12109375 313.49609375 C70.13238281 314.01300781 69.14367187 314.52992188 68.125 315.0625 C67.17882812 315.54847656 66.23265625 316.03445313 65.2578125 316.53515625 C62.69970467 317.86131424 62.69970467 317.86131424 62 321 C61.195625 321.103125 60.39125 321.20625 59.5625 321.3125 C56.77000057 321.8514034 54.40827543 322.50261805 51.75 323.4375 C46.91627246 325.11736442 42.03123352 326.10719238 37 327 C37 327.66 37 328.32 37 329 C32.00178927 329.81245298 27.13167867 330.19235903 22.0625 330.1875 C21.0113501 330.1884668 21.0113501 330.1884668 19.93896484 330.18945312 C14.94714619 330.13836217 10.73153268 329.51409046 6 328 C5.34 328 4.68 328 4 328 C3.443125 328.7425 2.88625 329.485 2.3125 330.25 C0.20889551 332.75158372 -0.9165466 333.66002874 -3.6875 335.125 C-7.25805351 336.65778568 -7.25805351 336.65778568 -8 340 C-16.42857143 341.42857143 -16.42857143 341.42857143 -21 339 C-21 338.34 -21 337.68 -21 337 C-23.99829952 335.45801739 -25.37642895 334.82598017 -28.6875 335.75 C-31.10490029 336.91436354 -31.10490029 336.91436354 -33 339 C-33 339.33 -33 339.66 -33 340 C-36.33333333 340 -39.66666667 340 -43 340 C-44.29133839 341.75959402 -44.29133839 341.75959402 -45.5 343.9375 C-47.78908189 347.89454094 -47.78908189 347.89454094 -50 349 C-50.99 349.66 -51.98 350.32 -53 351 C-53.66 350.67 -54.32 350.34 -55 350 C-57.91656347 349.86954549 -57.91656347 349.86954549 -60.3125 350.625 C-63.73621234 351.1027273 -65.84202683 350.33336645 -69 349 C-70.95040379 347.04959621 -71.85113961 345.56614452 -73.0625 343.125 C-73.40410156 342.44695312 -73.74570313 341.76890625 -74.09765625 341.0703125 C-74.97466302 339.05813245 -75.53437043 337.14093597 -76 335 C-76.66 335 -77.32 335 -78 335 C-78.2475 335.78375 -78.495 336.5675 -78.75 337.375 C-80.18600823 340.39061729 -81.00220692 340.78214656 -84 342 C-84.66 342.66 -85.32 343.32 -86 344 C-90.28814237 344.6654014 -92.61970243 344.89602367 -96.3046875 342.50390625 C-98.35076943 340.75272225 -100.25454725 339.05183542 -102 337 C-102 336.34 -102 335.68 -102 335 C-102.86625 335.4640625 -102.86625 335.4640625 -103.75 335.9375 C-107.48225073 337.69995173 -110.03983943 338.26485996 -114.0625 337.1875 C-114.73410156 337.01605469 -115.40570313 336.84460938 -116.09765625 336.66796875 C-118 336 -118 336 -121 334 C-123.00179788 333.77399056 -125.0038093 333.54928879 -127.0078125 333.34375 C-129.79067508 332.86356979 -131.70102959 331.59650723 -134 330 C-134.7425 329.71125 -135.485 329.4225 -136.25 329.125 C-138 328 -138 328 -138.875 325.6875 C-139.02324796 322.5001688 -138.57315732 320.77175338 -137 318 C-135.68170193 317.30407441 -134.34563743 316.64146874 -133 316 C-131.58092663 315.05482868 -130.18481853 314.07435963 -128.8125 313.0625 C-127.77029297 312.30646484 -127.77029297 312.30646484 -126.70703125 311.53515625 C-124.7291147 310.01056986 -124.7291147 310.01056986 -124 307 C-123.34 306.01 -122.68 305.02 -122 304 C-121.67287763 301.71428423 -121.5605032 299.46135232 -121.44140625 297.15625 C-120.90639953 294.54276582 -119.96070146 293.73949412 -118 292 C-117.690625 291.29875 -117.38125 290.5975 -117.0625 289.875 C-116 288 -116 288 -113.875 287.25 C-113.25625 287.1675 -112.6375 287.085 -112 287 C-112 286.67 -112 286.34 -112 286 C-106.49541284 285.63302752 -106.49541284 285.63302752 -104.3125 287.25 C-103.6628125 288.11625 -103.6628125 288.11625 -103 289 C-102.443125 289.721875 -101.88625 290.44375 -101.3125 291.1875 C-100.879375 291.785625 -100.44625 292.38375 -100 293 C-99.54625 292.54625 -99.0925 292.0925 -98.625 291.625 C-97.41666667 290.41666667 -96.20833333 289.20833333 -95 288 C-94.360625 287.01 -93.72125 286.02 -93.0625 285 C-90.59374589 281.40908494 -89.094869 280.2146802 -84.8125 279.375 C-83.884375 279.25125 -82.95625 279.1275 -82 279 C-82 277.68 -82 276.36 -82 275 C-81.43410156 274.80664062 -80.86820313 274.61328125 -80.28515625 274.4140625 C-79.55167969 274.15367187 -78.81820312 273.89328125 -78.0625 273.625 C-77.33160156 273.36976563 -76.60070312 273.11453125 -75.84765625 272.8515625 C-73.81317884 272.14728587 -73.81317884 272.14728587 -73 270 C-72.855625 269.34 -72.71125 268.68 -72.5625 268 C-71.70429492 264.94860415 -69.20302269 263.20302269 -67 261 C-67.85991295 260.98786972 -67.85991295 260.98786972 -68.73719788 260.97549438 C-74.72369934 260.88919139 -80.70987946 260.78967754 -86.69604492 260.68261719 C-88.9277607 260.64442117 -91.15953607 260.60955219 -93.39135742 260.578125 C-96.60617314 260.53227071 -99.82058192 260.47430963 -103.03515625 260.4140625 C-104.02709488 260.40251129 -105.01903351 260.39096008 -106.04103088 260.37905884 C-111.39466379 260.26594766 -115.93161046 259.75408745 -121 258 C-121 257.34 -121 256.68 -121 256 C-122.61926171 254.73779098 -122.61926171 254.73779098 -124.6875 253.5625 C-125.77611328 252.90894531 -125.77611328 252.90894531 -126.88671875 252.2421875 C-127.58410156 251.83226562 -128.28148437 251.42234375 -129 251 C-129.99 250.401875 -130.98 249.80375 -132 249.1875 C-132.66 248.795625 -133.32 248.40375 -134 248 C-133.505 247.01 -133.505 247.01 -133 246 C-133.93166826 243.96726926 -134.9349985 241.96615661 -136 240 C-137.36993124 237.26013752 -137.13225781 235.07727307 -137.14044189 232.00917053 C-137.14615204 230.73180527 -137.15186218 229.45444 -137.15774536 228.1383667 C-137.15899077 226.71472178 -137.16011586 225.29107674 -137.16113281 223.86743164 C-137.16575992 222.37448503 -137.17078443 220.88153961 -137.17617798 219.38859558 C-137.18931284 215.32665911 -137.19574884 211.26473917 -137.20018864 207.20278478 C-137.20311711 204.66698625 -137.20722145 202.13119228 -137.21169281 199.59539604 C-137.2253695 191.66698161 -137.23503578 183.73857753 -137.2388947 175.81015211 C-137.24337853 166.64738512 -137.2609407 157.48476707 -137.2898953 148.32204539 C-137.31148253 141.24600512 -137.32159737 134.17000686 -137.32293582 127.093934 C-137.32398582 122.86451113 -137.32993489 118.63522823 -137.34775543 114.40583992 C-137.36418553 110.42907044 -137.36641648 106.45254693 -137.35761642 102.47575569 C-137.35684337 101.01441796 -137.36122399 99.55306728 -137.37107468 98.09176254 C-137.38371311 96.10048581 -137.37615536 94.1091111 -137.36749268 92.11781311 C-137.36895924 91.00227586 -137.3704258 89.88673861 -137.3719368 88.73739719 C-137 86 -137 86 -135.59466171 84.1599493 C-131.02410805 80.83535043 -124.68777033 81.81605272 -119.3125 81.8125 C-118.35666016 81.80025391 -117.40082031 81.78800781 -116.41601562 81.77539062 C-109.21666865 81.76066803 -102.82435915 82.72521362 -96 85 C-96 85.66 -96 86.32 -96 87 C-95.01 86.67 -94.02 86.34 -93 86 C-92.855625 85.360625 -92.71125 84.72125 -92.5625 84.0625 C-92.376875 83.381875 -92.19125 82.70125 -92 82 C-90.6725606 81.32167348 -89.33821128 80.65682022 -88 80 C-86.22345674 78.52684922 -86.22345674 78.52684922 -84.546875 76.8125 C-83.928125 76.19632812 -83.309375 75.58015625 -82.671875 74.9453125 C-82.03765625 74.30335937 -81.4034375 73.66140625 -80.75 73 C-80.1003125 72.35804687 -79.450625 71.71609375 -78.78125 71.0546875 C-78.16765625 70.43851562 -77.5540625 69.82234375 -76.921875 69.1875 C-76.08027832 68.34251953 -76.08027832 68.34251953 -75.22167969 67.48046875 C-73.78784208 66.06280891 -73.78784208 66.06280891 -74 64 C-72.49609375 62.51953125 -72.49609375 62.51953125 -70.4375 60.8125 C-67.58135123 58.37308468 -64.76901389 55.91794076 -62.0625 53.3125 C-61.49660156 52.77238281 -60.93070312 52.23226562 -60.34765625 51.67578125 C-58.85189121 50.06279085 -58.85189121 50.06279085 -58.49609375 47.85546875 C-58.33238281 47.24316406 -58.16867188 46.63085938 -58 46 C-57.01 45.67 -56.02 45.34 -55 45 C-54.67 44.01 -54.34 43.02 -54 42 C-52.66666667 41.33333333 -51.33333333 40.66666667 -50 40 C-47.94058215 37.63548321 -47.0012505 36.0037515 -46 33 C-44.67205698 32.32265994 -43.3374796 31.65830885 -42 31 C-40.26143229 29.47291683 -38.5774519 27.8825313 -36.9375 26.25 C-35.65166016 24.98929688 -35.65166016 24.98929688 -34.33984375 23.703125 C-31.94701376 20.93878718 -30.602163 18.26332917 -29 15 C-26 12.8125 -26 12.8125 -23 11 C-21.14198761 9.56308045 -21.14198761 9.56308045 -20 8 C-20 7.01 -20 6.02 -20 5 C-14.17375847 -0.20200137 -7.62960741 -1.74337467 0 0 Z M123 87 C124 90 124 90 124 90 Z M124 90 C124 138.18 124 186.36 124 236 C124.33 236 124.66 236 125 236 C125 187.82 125 139.64 125 90 C124.67 90 124.34 90 124 90 Z M-88 110 C-88 142.01 -88 174.02 -88 207 C-87.67 207 -87.34 207 -87 207 C-86.82322979 194.64822071 -86.65726093 182.29634863 -86.50522423 169.94423866 C-86.4342911 164.209157 -86.35958527 158.47417541 -86.27636719 152.73925781 C-86.19625016 147.20860686 -86.12589978 141.67791129 -86.06242752 136.14704514 C-86.03642947 134.03300749 -86.00686418 131.91901071 -85.97373581 129.80507278 C-85.92806646 126.8526605 -85.89488602 123.90035969 -85.86474609 120.94775391 C-85.8482048 120.0666243 -85.83166351 119.18549469 -85.81462097 118.27766418 C-85.79983613 116.18424949 -85.88993326 114.09057145 -86 112 C-86.66 111.34 -87.32 110.68 -88 110 Z M75 110 C73.30743213 113.38513574 73.92362059 117.2281132 73.97827148 120.94775391 C73.98787903 121.87463516 73.99748657 122.80151642 74.00738525 123.75648499 C74.04045035 126.82991963 74.08075405 129.90321543 74.12109375 132.9765625 C74.14538753 135.10362249 74.16923145 137.23068767 74.19264221 139.35775757 C74.25555701 144.96380503 74.32460268 150.56976108 74.39489746 156.17572021 C74.46551419 161.89314602 74.53037098 167.6106368 74.59570312 173.328125 C74.72481077 184.55215472 74.86039115 195.77609633 75 207 C75.33 207 75.66 207 76 207 C76 174.99 76 142.98 76 110 C75.67 110 75.34 110 75 110 Z M-86 115 C-85.99555878 116.14814178 -85.99111755 117.29628357 -85.98654175 118.47921753 C-85.94606209 129.28023296 -85.91604761 140.08123308 -85.89637566 150.88230705 C-85.88592226 156.43573026 -85.87173477 161.98909241 -85.84912109 167.54248047 C-85.82744808 172.89816008 -85.8154431 178.25378082 -85.81024551 183.60950089 C-85.80653977 185.65651502 -85.79930376 187.7035258 -85.78853989 189.75051498 C-85.77409858 192.60962733 -85.77201896 195.46849399 -85.77294922 198.32763672 C-85.76216339 199.60725281 -85.76216339 199.60725281 -85.75115967 200.91271973 C-85.77189568 206.77189568 -85.77189568 206.77189568 -88 209 C-87.33316193 209.01030746 -86.66632385 209.02061493 -85.97927856 209.03123474 C-79.00302494 209.13989439 -72.02688512 209.25443933 -65.05078125 209.37231445 C-62.45152175 209.4154738 -59.85223736 209.45716121 -57.25292969 209.49731445 C-53.50448117 209.55548003 -49.75615577 209.61903834 -46.0078125 209.68359375 C-44.28064499 209.70866249 -44.28064499 209.70866249 -42.51858521 209.73423767 C-35.96362809 209.85305058 -29.5104365 210.21873614 -23 211 C-22.00682734 207.9962757 -22.00682734 207.9962757 -22.92578125 205.078125 C-23.38339844 204.47484375 -23.84101562 203.8715625 -24.3125 203.25 C-24.76238281 202.63640625 -25.21226563 202.0228125 -25.67578125 201.390625 C-26.11277344 200.93171875 -26.54976562 200.4728125 -27 200 C-27.66 200 -28.32 200 -29 200 C-31.01037342 197.82879671 -31.92953274 196.36114471 -32.5 193.4375 C-33.08868317 190.56766953 -33.80678271 189.86829621 -36 188 C-39.36550115 185.03044016 -40.23602989 183.36554348 -41 179 C-42.57807271 176.47508366 -44.38781464 174.61218536 -46.5 172.5 C-48.59523365 170.40476635 -50.41805459 168.49780854 -52 166 C-52 165.01 -52 164.02 -52 163 C-52.6830333 160.88370471 -52.6830333 160.88370471 -54 159 C-54.63035156 158.70867187 -55.26070312 158.41734375 -55.91015625 158.1171875 C-59.54684855 156.17308657 -61.18658235 152.59904346 -63 149 C-63.165 148.113125 -63.33 147.22625 -63.5 146.3125 C-64.38059758 142.23973618 -67.81469031 140.06269144 -70.8125 137.375 C-72 136 -72 136 -72 133 C-73.80132223 129.79787307 -73.80132223 129.79787307 -76 127 C-76.66 127 -77.32 127 -78 127 C-78.28875 126.2575 -78.5775 125.515 -78.875 124.75 C-80.46792023 120.856195 -81.77966164 117.80029422 -85 115 C-85.33 115 -85.66 115 -86 115 Z M69 118 C67.80161791 120.32854463 67.80161791 120.32854463 67 123 C66.0625 125.75 66.0625 125.75 65 128 C64.01 128.33 63.02 128.66 62 129 C61.67 129.66 61.34 130.32 61 131 C60.525625 131.763125 60.05125 132.52625 59.5625 133.3125 C57.96722184 135.89270416 57.96722184 135.89270416 57.0625 138.4375 C55.74008586 141.62685175 54.06959083 144.24054555 52 147 C51.01 147.33 50.02 147.66 49 148 C47.86454438 150.29534258 47.86454438 150.29534258 47 153 C45.43743032 157.57609692 43.43542781 160.78228609 39 163 C38.34444881 165.52733235 38.34444881 165.52733235 38 168 C36.515 168.495 36.515 168.495 35 169 C34.896875 169.763125 34.79375 170.52625 34.6875 171.3125 C33.92510753 174.29276146 33.28926882 175.04988212 31 177 C27.63441928 179.96963005 26.78240221 181.64090195 26 186 C24.5625 187.6875 24.5625 187.6875 23 189 C19.48865701 192.4176052 19.48865701 192.4176052 17.62109375 196.81640625 C16.80651902 199.68022559 15.35322606 201.64517115 13.625 204.0625 C13.01914063 204.91972656 12.41328125 205.77695313 11.7890625 206.66015625 C10.29251809 208.61742722 8.79470357 210.32090617 7 212 C9.64 211.67 12.28 211.34 15 211 C15 210.34 15 209.68 15 209 C18.5559538 208.19601917 21.88201612 207.85439318 25.5246582 207.79467773 C26.62040161 207.77449585 27.71614502 207.75431396 28.84509277 207.73352051 C30.55565857 207.70880676 30.55565857 207.70880676 32.30078125 207.68359375 C33.35728882 207.66494263 34.41379639 207.6462915 35.50231934 207.6270752 C39.43896329 207.55891248 43.3757413 207.49867774 47.3125 207.4375 C56.119375 207.293125 64.92625 207.14875 74 207 C74 176.97 74 146.94 74 116 C71.97290032 116 70.6745606 116.93437053 69 118 Z M21 208 C21 208.33 21 208.66 21 209 C39.15 209 57.3 209 76 209 C76 208.67 76 208.34 76 208 C57.85 208 39.7 208 21 208 Z M16 209 C20 210 20 210 20 210 Z M-12 217 C-9.03 218.98 -9.03 218.98 -6 221 C-4.35 219.35 -2.7 217.7 -1 216 C-6.98447954 213.74025279 -6.98447954 213.74025279 -12 217 Z M123 237 C124 240 124 240 124 240 Z M122 241 C123 243 123 243 123 243 Z M101 257 C105 258 105 258 105 258 Z M-113 258 C-113 258.33 -113 258.66 -113 259 C-105.75812156 259.13155035 -98.51622441 259.2620161 -91.27430248 259.39115143 C-87.91047916 259.45116684 -84.546663 259.51153588 -81.18286133 259.57275391 C-77.30291317 259.64318082 -73.42294398 259.71233242 -69.54296875 259.78125 C-68.35293747 259.80312378 -67.16290619 259.82499756 -65.93681335 259.84753418 C-58.95696499 259.97007688 -51.98090448 260.02781479 -45 260 C-44.67 259.34 -44.34 258.68 -44 258 C-66.77 258 -89.54 258 -113 258 Z M39 258 C42.68114701 260.45409801 44.27039848 260.16723151 48.63671875 259.9765625 C49.93544922 259.925 51.23417969 259.8734375 52.57226562 259.8203125 C53.94402118 259.75543549 55.31576587 259.69032837 56.6875 259.625 C58.07092326 259.56674379 59.45438702 259.50944085 60.83789062 259.453125 C64.22577631 259.31147124 67.61294104 259.16003846 71 259 C71 258.67 71 258.34 71 258 C60.44 258 49.88 258 39 258 Z M89 258 C89 258.33 89 258.66 89 259 C92.96 259 96.92 259 101 259 C101 258.67 101 258.34 101 258 C97.04 258 93.08 258 89 258 Z M-53 260 C-53 260.99 -53 261.98 -53 263 C-52.34 263.33 -51.68 263.66 -51 264 C-49.97895449 263.02149805 -48.9793879 262.02019573 -48 261 C-48 260.67 -48 260.34 -48 260 C-49.65 260 -51.3 260 -53 260 Z M51 260 C51 260.99 51 261.98 51 263 C51.78375 263.763125 52.5675 264.52625 53.375 265.3125 C56.22309258 268.22840431 56.85721132 270.16349515 58 274 C58.98731742 275.34275169 59.98594743 276.67732273 61 278 C61.6875 280.25 61.6875 280.25 62 282 C61.34 282 60.68 282 60 282 C59.90203125 282.62648438 59.8040625 283.25296875 59.703125 283.8984375 C59.55359375 284.71570313 59.4040625 285.53296875 59.25 286.375 C59.11078125 287.18710937 58.9715625 287.99921875 58.828125 288.8359375 C58 291 58 291 56.25 292.21875 C53.76118304 293.08292256 51.34097916 293.64771437 48.75 294.125 C47.41195312 294.37636719 47.41195312 294.37636719 46.046875 294.6328125 C45.37140625 294.75398438 44.6959375 294.87515625 44 295 C44 295.33 44 295.66 44 296 C52.99748258 298.29347595 60.30893747 294.59075901 68.17578125 290.24609375 C74.38238068 286.48466067 74.38238068 286.48466067 79 281 C79 280.34 79 279.68 79 279 C76.0173094 277.47551369 73.181798 276.06059933 70 275 C68.94931357 271.84794071 68.93036614 269.67390424 69 266.375 C69.03761201 264.58372817 69.04667254 262.79105866 69 261 C67.78571012 259.55611429 67.78571012 259.55611429 64.18359375 259.90234375 C62.60153318 259.90901911 61.01948841 259.92098125 59.4375 259.9375 C58.63119141 259.94201172 57.82488281 259.94652344 56.99414062 259.95117188 C54.99606244 259.96299482 52.99802217 259.98093086 51 260 Z M-25 263 C-25.65572604 265.74312664 -25.65572604 265.74312664 -26.0625 268.9375 C-27.02673622 275.62340238 -28.68201997 277.87261251 -34 282 C-34.99 282.66 -35.98 283.32 -37 284 C-36.01 284.33 -35.02 284.66 -34 285 C-34.33 285.66 -34.66 286.32 -35 287 C-32.1668838 288.62507196 -32.1668838 288.62507196 -29 290 C-25.42092962 288.80697654 -24.8571206 288.22977496 -23 285 C-22.72772857 283.50388227 -22.47993135 282.0032071 -22.25 280.5 C-21.72831407 277.72225125 -21.46645312 276.40896006 -19.3203125 274.52734375 C-17.375 273.4375 -17.375 273.4375 -14 272 C-14.66 271.67 -15.32 271.34 -16 271 C-15.896875 270.2575 -15.79375 269.515 -15.6875 268.75 C-15.73188386 265.77285547 -15.73188386 265.77285547 -18.375 263.6875 C-21.3514844 261.77404574 -21.90060513 261.45030257 -25 263 Z M91 262 C92 264 92 264 92 264 Z M-49 263 C-48 265 -48 265 -48 265 Z M-27 263 C-26 265 -26 265 -26 265 Z M7 263 C6.3503125 264.0828125 6.3503125 264.0828125 5.6875 265.1875 C3.16339945 269.39433424 0.06467877 272.29021416 -4 275 C-3.67 275.99 -3.34 276.98 -3 278 C1.2217797 275.88911015 5.06945831 273.76783932 8 270 C8.80765878 266.35278304 8.80765878 266.35278304 9 263 C8.34 263 7.68 263 7 263 Z M33 270 C34 272 34 272 34 272 Z M31 276 C32 278 32 278 32 278 Z M100 276 C101 279 101 279 101 279 Z M30 278 C31 280 31 280 31 280 Z M61 279 C62 281 62 281 62 281 Z M24.36328125 281.50390625 C15.99599747 288.67550953 15.99599747 288.67550953 12 298 C15.53531873 299.76765937 19.6061073 299.19029834 23.5 299.1875 C24.85689941 299.1884668 24.85689941 299.1884668 26.24121094 299.18945312 C32.40348063 299.14063428 38.02308307 298.59384452 44 297 C41.68686216 295.45790811 39.53951971 294.21711525 37.0625 293 C36.39347656 292.67 35.72445312 292.34 35.03515625 292 C34.36355469 291.67 33.69195312 291.34 33 291 C31.66620467 290.33425814 30.3327365 289.66785901 29 289 C29.33 288.67 29.66 288.34 30 288 C30.07148199 286.64756083 30.08399454 285.29165633 30.0625 283.9375 C30.041875 282.638125 30.02125 281.33875 30 280 C29.01 280 28.02 280 27 280 C25.75226819 279.88723341 25.75226819 279.88723341 24.36328125 281.50390625 Z M-26 289 C-25 293 -25 293 -25 293 Z M-28 293 C-28 294.32 -28 295.64 -28 297 C-27.34 297 -26.68 297 -26 297 C-26.66 295.68 -27.32 294.36 -28 293 Z M-58 294 C-58.4125 294.474375 -58.825 294.94875 -59.25 295.4375 C-61.20798141 297.18569769 -62.41824645 297.66687051 -65 298 C-65.66 297.67 -66.32 297.34 -67 297 C-67 299.64 -67 302.28 -67 305 C-61.34261469 303.51703188 -61.34261469 303.51703188 -57.4375 299.5 C-56.77538363 296.88213522 -56.77538363 296.88213522 -58 294 Z M-65 296 C-61 297 -61 297 -61 297 Z M-57 297 C-56 299 -56 299 -56 299 Z M9 298 C8.67 298.66 8.34 299.32 8 300 C9.32 299.67 10.64 299.34 12 299 C11.01 298.67 10.02 298.34 9 298 Z M36 299 C36 299.33 36 299.66 36 300 C38.31 300 40.62 300 43 300 C43 299.67 43 299.34 43 299 C40.69 299 38.38 299 36 299 Z M123 299 C124 301 124 301 124 301 Z M-121 300 C-120 302 -120 302 -120 302 Z M14 300 C14 300.33 14 300.66 14 301 C20.6 301 27.2 301 34 301 C34 300.67 34 300.34 34 300 C27.4 300 20.8 300 14 300 Z M124 302 C124 303.98 124 305.96 124 308 C124.33 308 124.66 308 125 308 C125 306.02 125 304.04 125 302 C124.67 302 124.34 302 124 302 Z M123 309 C124 312 124 312 124 312 Z M-137 320 C-136 323 -136 323 -136 323 Z M-52 321 C-51.67 321.66 -51.34 322.32 -51 323 C-50.34 322.67 -49.68 322.34 -49 322 C-49.99 321.67 -50.98 321.34 -52 321 Z M10 327 C10 327.33 10 327.66 10 328 C11.65 328 13.3 328 15 328 C15 327.67 15 327.34 15 327 C13.35 327 11.7 327 10 327 Z M15 328 C15 328.33 15 328.66 15 329 C19.62 329 24.24 329 29 329 C29 328.67 29 328.34 29 328 C24.38 328 19.76 328 15 328 Z M-79 332 C-79 332.66 -79 333.32 -79 334 C-78.01 333.67 -77.02 333.34 -76 333 C-76.99 332.67 -77.98 332.34 -79 332 Z M-16 339 C-12 340 -12 340 -12 340 Z " fill="#F6F8FA" transform="translate(144,11)"/>
<path d="M0 0 C3.04068831 -0.06269266 6.08006902 -0.1084298 9.12109375 -0.14453125 C10.40421448 -0.17359558 10.40421448 -0.17359558 11.71325684 -0.20324707 C18.33453595 -0.26215241 23.70719298 0.71993966 29 5 C31.17334504 8.26001757 31.24838084 9.14976587 31.24050903 12.91642761 C31.24325836 13.93025009 31.24600769 14.94407257 31.24884033 15.98861694 C31.24164978 17.09991974 31.23445923 18.21122253 31.22705078 19.35620117 C31.22734283 20.52706772 31.22763489 21.69793427 31.22793579 22.90428162 C31.22678049 26.11481492 31.21674407 29.3251743 31.20278788 32.5356729 C31.19029264 35.89090581 31.18911097 39.24614207 31.18673706 42.60139465 C31.18051873 48.95495229 31.16410317 55.30844118 31.14403808 61.66196853 C31.12169003 68.89526443 31.11068841 76.1285636 31.10064721 83.36188543 C31.07973723 98.24129527 31.04455442 113.12064076 31 128 C31.83778992 127.98889694 32.67557983 127.97779388 33.53875732 127.96635437 C41.48164689 127.86565783 49.42431832 127.78978608 57.36770248 127.74093914 C61.45033013 127.71498089 65.53242498 127.67983992 69.61474609 127.62280273 C73.56352124 127.56798442 77.51178796 127.53847626 81.46091461 127.52561378 C82.95826458 127.51646222 84.45559059 127.49859421 85.95272064 127.47134972 C98.02961819 127.26056331 108.42903616 129.05059047 117.59765625 137.47265625 C119.20522608 139.22351921 120.60588776 141.07637332 122 143 C122.46148437 142.40832031 122.92296875 141.81664062 123.3984375 141.20703125 C130.46552225 132.64552344 138.00473799 128.65958 149 127 C153.88719469 126.7360034 158.76777337 126.76598543 163.66015625 126.8046875 C165.0597666 126.80842526 166.45937961 126.81126862 167.85899353 126.81326294 C171.51353387 126.82083939 175.16791108 126.84043514 178.8223877 126.8626709 C182.56320999 126.88325959 186.30405906 126.89229229 190.04492188 126.90234375 C197.363355 126.92368776 204.6816545 126.95774976 212 127 C211.99308655 126.09608552 211.99308655 126.09608552 211.98603344 125.17391014 C211.87554036 110.50103946 211.79283677 95.82819338 211.74093914 81.1550045 C211.71517366 74.05907613 211.68005544 66.96342572 211.62280273 59.86767578 C211.56758345 53.02067047 211.53858285 46.17395422 211.52561378 39.32674026 C211.51637074 36.71361367 211.49832136 34.10050298 211.47134972 31.48749924 C211.43508655 27.82904575 211.43005383 24.17178771 211.43237305 20.51318359 C211.41439667 19.4313681 211.39642029 18.34955261 211.37789917 17.23495483 C211.4342528 9.02689338 211.4342528 9.02689338 214.03547668 5.40542603 C220.14208474 0.45049993 226.99061807 0.71600657 234.5 0.875 C235.73363281 0.88853516 235.73363281 0.88853516 236.9921875 0.90234375 C238.99492083 0.92563135 240.99750154 0.96149041 243 1 C243.07009445 20.06277031 243.12299032 39.12551444 243.15543652 58.18838692 C243.17090257 67.03969761 243.19198708 75.89092821 243.22631836 84.7421875 C243.25622873 92.45733375 243.27557691 100.172422 243.28226548 107.88762462 C243.28617497 111.97242913 243.29535732 116.0570677 243.31719017 120.141819 C243.33758124 123.98805494 243.34382854 127.83405686 243.33932304 131.68034172 C243.34014708 133.09043462 243.34609726 134.5005355 243.35761642 135.91058159 C243.37259968 137.8395913 243.36715278 139.76872711 243.36076355 141.69778442 C243.36352893 142.77628222 243.36629431 143.85478001 243.36914349 144.96595955 C242.84465729 149.27678282 241.42245624 152.7471672 238.1328125 155.64453125 C237.47023437 156.02996094 236.80765625 156.41539062 236.125 156.8125 C235.46757812 157.21082031 234.81015625 157.60914063 234.1328125 158.01953125 C229.2982632 160.24200721 224.2944783 160.15027744 219.0637207 160.15771484 C218.27926071 160.16279556 217.49480072 160.16787628 216.68656921 160.17311096 C214.98803625 160.18378397 213.28948949 160.1924161 211.59093666 160.19923019 C208.89512053 160.21107218 206.1994608 160.23053991 203.50370789 160.25234985 C195.84049752 160.3137776 188.17730365 160.36790402 180.51391602 160.40136719 C175.82012829 160.42241059 171.12662733 160.45779139 166.43300438 160.50212479 C164.65221742 160.51620913 162.87137974 160.52498998 161.09053993 160.52817917 C148.13274573 160.55383523 137.0209213 160.73453618 127 170 C125.19724659 171.93434125 123.60564194 173.89259495 122 176 C119.86732729 173.86732729 117.76851889 171.74279876 115.75 169.5 C112.43948227 166.49043842 109.07550692 164.76759675 105 163 C104.30248123 162.65714462 103.60496246 162.31428925 102.88630676 161.96104431 C99.15779483 160.71957364 95.64092106 160.71578462 91.7565918 160.72875977 C90.93965851 160.72353302 90.12272522 160.71830627 89.28103638 160.71292114 C87.51211651 160.70270301 85.74316676 160.69690456 83.97421837 160.69503975 C81.16966696 160.69136756 78.36546648 160.6746167 75.56098938 160.65428162 C67.58898458 160.59895691 59.61692813 160.56822492 51.64477539 160.54370117 C46.7629895 160.5277809 41.88145249 160.49751413 36.99979591 160.45893669 C35.14478012 160.44732507 33.28971972 160.44135668 31.43466759 160.44125557 C28.83337982 160.4410624 26.23277316 160.42271459 23.6315918 160.40063477 C22.49429878 160.40750053 22.49429878 160.40750053 21.33403015 160.414505 C15.33515758 160.33400691 9.71372427 159.2193836 4.94140625 155.31640625 C4.48636719 154.73761719 4.03132813 154.15882813 3.5625 153.5625 C3.08941406 152.98628906 2.61632812 152.41007813 2.12890625 151.81640625 C-0.20309784 148.06421973 -0.12397592 144.30797084 -0.12025452 139.97625732 C-0.12162918 138.74229218 -0.12300385 137.50832703 -0.12442017 136.23696899 C-0.12088127 134.87249732 -0.11724647 133.50802588 -0.11352539 132.14355469 C-0.11324327 130.70455935 -0.11340174 129.26556386 -0.1139679 127.8265686 C-0.1142549 123.92195871 -0.10837371 120.01737951 -0.10139394 116.11277676 C-0.0951444 112.03150526 -0.09455533 107.95023306 -0.09336853 103.86895752 C-0.09025994 96.14131988 -0.08205291 88.41369637 -0.07201904 80.68606496 C-0.06084325 71.88807624 -0.05534375 63.09008685 -0.05032361 54.2920928 C-0.03986992 36.19472052 -0.0222796 18.09736139 0 0 Z " fill="#2E2C74" transform="translate(16,101)"/>
<path d="M0 0 C3 1 3 1 4.68359375 4.2109375 C5.28004921 5.59392025 5.8639813 6.98234904 6.4375 8.375 C6.74606934 9.10090332 7.05463867 9.82680664 7.37255859 10.57470703 C9.41548922 15.43110024 11.24205888 20.34261956 12.9765625 25.31738281 C13.9503192 27.86977753 15.07150117 30.21931355 16.33203125 32.640625 C19.02150024 37.94796152 21.31574462 43.36844745 23.5625 48.875 C27.2687874 57.86172797 31.03762976 66.81843792 34.875 75.75 C35.37136963 76.9059668 35.86773926 78.06193359 36.37915039 79.25292969 C37.91847491 82.83569947 39.4590637 86.41792317 41 90 C42.90731526 94.43418603 44.81356408 98.86882671 46.71783447 103.30432129 C47.47477137 105.06627428 48.23320952 106.8275821 48.99169922 108.58886719 C56.81728643 126.81165329 56.81728643 126.81165329 58 132 C55.66889613 129.81176764 53.92024931 127.54729853 52.171875 124.87426758 C51.62700439 124.04522415 51.08213379 123.21618073 50.52075195 122.36201477 C49.93640381 121.46524521 49.35205566 120.56847565 48.75 119.64453125 C48.13664795 118.71009689 47.5232959 117.77566254 46.89135742 116.81291199 C44.92417965 113.81498205 42.96178165 110.81396328 41 107.8125 C38.4397914 103.90083808 35.87732832 99.99066563 33.3125 96.08203125 C32.68846786 95.13090958 32.06443573 94.1797879 31.42149353 93.19984436 C26.79546588 86.1670082 22.07588122 79.20490396 17.27563477 72.29003906 C13.77344305 67.24497856 10.39289282 62.11887118 7 57 C5.37643036 54.5615458 3.75065136 52.1245667 2.125 49.6875 C1.28121229 48.42190014 0.43746259 47.15627494 -0.40625 45.890625 C-1.04240234 44.93639648 -1.04240234 44.93639648 -1.69140625 43.96289062 C-10.7734375 30.33984375 -10.7734375 30.33984375 -11.88574219 28.64013672 C-12.99580061 27.00618131 -14.20551126 25.44141829 -15.4140625 23.87890625 C-17 21 -17 21 -16.65625 18.5390625 C-14.35608336 15.01286364 -11.54261008 12.26580958 -8.5 9.375 C-7.32074402 8.23923069 -6.14357637 7.10128815 -4.96875 5.9609375 C-4.44732422 5.46384277 -3.92589844 4.96674805 -3.38867188 4.45458984 C-1.77096426 2.8442269 -1.77096426 2.8442269 0 0 Z " fill="#2CB6C9" transform="translate(73,85)"/>
<path d="M0 0 C5.00706301 2.38431572 8.21825718 6.00075435 12 10 C12.68449219 10.71414062 13.36898437 11.42828125 14.07421875 12.1640625 C14.70972656 12.85242188 15.34523438 13.54078125 16 14.25 C16.5775 14.87390625 17.155 15.4978125 17.75 16.140625 C19 18 19 18 19 22 C18.05712891 23.8684082 18.05712891 23.8684082 16.7265625 25.80078125 C15.98212891 26.8980957 15.98212891 26.8980957 15.22265625 28.01757812 C14.69542969 28.77490234 14.16820312 29.53222656 13.625 30.3125 C12.61682896 31.78751542 11.60903116 33.262786 10.6015625 34.73828125 C10.04057861 35.55466064 9.47959473 36.37104004 8.90161133 37.2121582 C4.88154441 43.10574457 0.94990449 49.05926192 -3 55 C-16.64421901 75.51036627 -30.30257859 96.00810711 -44.171875 116.3671875 C-47.47963344 121.22392102 -50.75340114 126.10219398 -54 131 C-55 129 -55 129 -54.35083008 126.97216797 C-53.99400146 126.15377441 -53.63717285 125.33538086 -53.26953125 124.4921875 C-52.87830078 123.58726562 -52.48707031 122.68234375 -52.08398438 121.75 C-51.66439453 120.80125 -51.24480469 119.8525 -50.8125 118.875 C-50.41224609 117.94945312 -50.01199219 117.02390625 -49.59960938 116.0703125 C-47.7863683 111.90896831 -45.92747369 107.79514738 -43.859375 103.75390625 C-42.09145388 100.27700937 -40.73550563 96.74492978 -39.4375 93.0625 C-36.36913048 84.59252164 -32.71288878 76.40190949 -29.04663086 68.17700195 C-25.91898807 61.14450546 -22.96128551 54.08141932 -20.21875 46.890625 C-19 44 -19 44 -17.50390625 41.5390625 C-15.70410011 38.50042876 -14.61665291 35.45478702 -13.4375 32.125 C-9.48131729 21.20015259 -4.70356379 10.61860929 0 0 Z " fill="#2CB6C9" transform="translate(200,85)"/>
<path d="M0 0 C2.75424275 2.75424275 3.02485742 5.81120724 3.8125 9.5 C5.20363028 15.72291864 6.74985437 21.86845993 8.5 28 C10.94025727 36.60868538 13.01107728 45.27764062 15 54 C17.6835236 65.78379969 17.6835236 65.78379969 20.875 77.4375 C23.15773354 85.21669784 24.91634933 93.10620471 26.70288086 101.01196289 C27.91396648 106.35471519 29.15325388 111.68193117 30.53125 116.984375 C30.76851807 117.89880371 31.00578613 118.81323242 31.25024414 119.75537109 C31.69702411 121.45837255 32.15152524 123.15937358 32.61499023 124.85791016 C33.60650734 128.64399621 34.16817712 131.25705456 33 135 C22.30203883 109.79977687 22.30203883 109.79977687 18.125 99.5625 C15.97359626 94.29346335 13.70243191 89.09867685 11.3125 83.93359375 C9.0342667 78.84147112 6.95036977 73.66884225 4.84375 68.50390625 C0.82492113 58.66929303 -3.32546212 48.90280195 -7.625 39.1875 C-9.01963893 36.03071593 -10.41379476 32.87384178 -11.79785156 29.71240234 C-12.52428046 28.07336396 -13.26651053 26.44102989 -14.03808594 24.82275391 C-16.0583052 20.51516947 -16.0583052 20.51516947 -15.7800293 18.05639648 C-14.81266042 15.50611541 -13.50802824 14.07559245 -11.62109375 12.109375 C-10.61079102 11.04589844 -10.61079102 11.04589844 -9.58007812 9.9609375 C-8.87302734 9.23132813 -8.16597656 8.50171875 -7.4375 7.75 C-6.72658203 7.00492187 -6.01566406 6.25984375 -5.28320312 5.4921875 C-3.52855956 3.65511102 -1.76740606 1.82478731 0 0 Z " fill="#2DB6C9" transform="translate(94,63)"/>
<path d="M0 0 C3.27856192 1.4030527 5.1141327 3.01148468 7.375 5.75 C9.60892492 8.43844644 11.83617061 10.74503745 14.5 13 C17 16 17 16 16.88598633 19.62744141 C16.107185 24.40199478 14.31312524 28.57805284 12.32421875 32.9609375 C11.95778763 33.79154694 11.59135651 34.62215637 11.21382141 35.47793579 C10.04824235 38.11479827 8.86844475 40.74498846 7.6875 43.375 C6.52276787 45.99377571 5.36102708 48.61386256 4.19969177 51.23414612 C3.45482256 52.91471946 2.70895705 54.59485161 1.96205139 56.27452087 C-0.48999699 61.80092805 -2.83755661 67.35304079 -5 73 C-8.08957694 80.92468899 -11.28010232 88.69508332 -14.9609375 96.36743164 C-18.3292819 103.51149326 -21.30456459 110.82418372 -24.3125 118.125 C-24.57911438 118.77204895 -24.84572876 119.4190979 -25.12042236 120.08575439 C-27.43732243 125.71439883 -29.74696281 131.34544696 -32 137 C-33.5895446 132.9745299 -32.39593139 129.3933457 -31.375 125.375 C-31.19187256 124.62500732 -31.00874512 123.87501465 -30.82006836 123.10229492 C-29.32334517 117.0607589 -27.63576243 111.0769897 -25.92944336 105.09204102 C-23.96732173 98.10754628 -22.37915675 91.05396707 -20.80712891 83.97314453 C-19.35640643 77.46947222 -17.72269769 71.05190117 -15.9609375 64.625 C-14.91054004 60.66252504 -13.97812611 56.68271081 -13.0625 52.6875 C-11.70145938 46.76154127 -10.16812118 40.90917589 -8.5 35.0625 C-6.33494064 27.46075443 -4.54624777 19.81399595 -2.89453125 12.0859375 C-2.02490466 8.03158411 -1.02476418 4.01779787 0 0 Z " fill="#2DB6C9" transform="translate(180,63)"/>
<path d="M0 0 C0.66 0 1.32 0 2 0 C2.10304443 0.93102539 2.20608887 1.86205078 2.31225586 2.82128906 C3.28099441 11.56135173 4.25780844 20.30047703 5.24087524 29.03894043 C5.77898173 33.82371892 6.31486853 38.60874555 6.85032082 43.39382172 C7.24666267 46.93475066 7.64405719 50.47555539 8.04370117 54.01611328 C8.43751991 57.50551617 8.82852898 60.99522425 9.21772575 64.48514557 C9.43350015 66.41371122 9.65206843 68.34196365 9.8707428 70.27020264 C10.68454224 77.5920974 11.30714338 84.89763816 11.73838806 92.25250244 C11.82961334 94.95957469 11.82961334 94.95957469 13 97 C13.21056305 98.94496651 13.3686113 100.89574218 13.5 102.84765625 C13.5825 104.00974609 13.665 105.17183594 13.75 106.36914062 C13.91692987 108.83526866 14.08359571 111.30141457 14.25 113.76757812 C14.37375 115.5087793 14.37375 115.5087793 14.5 117.28515625 C14.5721875 118.35644775 14.644375 119.42773926 14.71875 120.53149414 C14.73388384 122.94138879 14.73388384 122.94138879 16 124 C16.21558034 125.51336648 16.3710643 127.03539692 16.5 128.55859375 C16.5825 129.50283203 16.665 130.44707031 16.75 131.41992188 C16.8325 132.41572266 16.915 133.41152344 17 134.4375 C17.16622282 136.37373607 17.33288711 138.3099343 17.5 140.24609375 C17.58121094 141.19726074 17.66242188 142.14842773 17.74609375 143.12841797 C18.12580824 147.42284282 18.55793328 151.71160015 19 156 C16.15230821 153.15230821 15.87080184 149.8294487 15.046875 146.01171875 C14.86611923 145.20536987 14.68536346 144.399021 14.49913025 143.5682373 C14.11167774 141.8396142 13.72716992 140.11032898 13.3453064 138.38046265 C10.55088641 125.73946182 7.67703029 113.17273248 3.96240234 100.765625 C1.94582229 93.98968865 0.40180337 87.15697986 -1.07421875 80.24609375 C-2.0766493 75.57055443 -3.24773844 70.94745432 -4.43237305 66.31469727 C-5.87759645 60.60854453 -7.15980507 54.87066228 -8.4375 49.125 C-10.20493202 41.18811264 -12.19124137 33.34946492 -14.47631836 25.54541016 C-15.33298299 22.59179902 -16 20.09395393 -16 17 C-13.828125 14.63671875 -13.828125 14.63671875 -11 12 C-9.24876692 10.27208216 -7.49875302 8.54292776 -5.75 6.8125 C-4.87859375 5.95269531 -4.0071875 5.09289063 -3.109375 4.20703125 C-0.97005762 2.18568934 -0.97005762 2.18568934 0 0 Z " fill="#2DB6C9" transform="translate(114,41)"/>
<path d="M0 0 C15.98449374 12.92363323 15.98449374 12.92363323 17 21 C16.71801758 23.36499023 16.71801758 23.36499023 16.14453125 25.80859375 C15.93376953 26.72189453 15.72300781 27.63519531 15.50585938 28.57617188 C15.27705078 29.52041016 15.04824219 30.46464844 14.8125 31.4375 C14.60302734 32.34693359 14.39355469 33.25636719 14.17773438 34.19335938 C12.96881451 39.34113386 11.60808759 44.42623246 10.1328125 49.50390625 C7.54623016 58.44476343 5.30730822 67.46831634 3.0625 76.5 C2.84178833 77.38461914 2.62107666 78.26923828 2.39367676 79.18066406 C-0.28681488 89.92787704 -2.91201132 100.68106805 -5.30175781 111.49731445 C-7.02164013 119.2467842 -8.95980599 126.93788843 -10.94628906 134.62304688 C-12.40974115 140.35407575 -13.58231546 146.04318308 -14.46606445 151.89379883 C-14.64226318 152.58884521 -14.81846191 153.2838916 -15 154 C-15.66 154.33 -16.32 154.66 -17 155 C-16.33810935 145.8161472 -15.5094437 136.65864525 -14.5625 127.5 C-14.37977539 125.67662109 -14.37977539 125.67662109 -14.19335938 123.81640625 C-13.59187359 117.97607274 -12.90251502 112.17988274 -11.96875 106.3828125 C-10.95987785 100.06279432 -10.40014012 93.75541076 -9.9375 87.375 C-9.78337504 85.27839108 -9.62597838 83.18201934 -9.46484375 81.0859375 C-9.399021 80.1789209 -9.33319824 79.2719043 -9.26538086 78.33740234 C-9 76 -9 76 -8 73 C-7.83149797 71.55461526 -7.70513615 70.10410006 -7.60546875 68.65234375 C-7.53900146 67.75354492 -7.47253418 66.85474609 -7.40405273 65.92871094 C-7.29685913 64.44806152 -7.29685913 64.44806152 -7.1875 62.9375 C-6.25808669 50.89170324 -4.87734475 38.91868732 -3.40893555 26.92944336 C-3.23978937 25.54153828 -3.07091969 24.15359946 -2.90234375 22.765625 C-2.82122849 22.0999501 -2.74011322 21.43427521 -2.65653992 20.74842834 C-2.04445478 15.62293524 -1.60027333 10.49603412 -1.24829102 5.34667969 C-1 3 -1 3 0 0 Z " fill="#2CB6C9" transform="translate(160,41)"/>
<path d="M0 0 C0.66 0 1.32 0 2 0 C-1.82746197 19.64456385 -24.70136429 36.95786617 -38 50 C-18.18372531 54.93853868 5.64905237 57.97493599 25 50 C25.6408252 49.74798828 26.28165039 49.49597656 26.94189453 49.23632812 C45.39263392 42.09319576 45.39263392 42.09319576 57.625 27.4375 C58.305625 25.7359375 58.305625 25.7359375 59 24 C59.65288627 22.65986503 60.31225595 21.32258472 61 20 C61.66 20 62.32 20 63 20 C59.76907158 31.59467929 55.6892979 39.86840918 45.625 46.875 C45.01922119 47.29990723 44.41344238 47.72481445 43.78930664 48.16259766 C33.20633569 55.42795049 22.49350859 60.80901729 10 64 C9.40606445 64.17289551 8.81212891 64.34579102 8.20019531 64.52392578 C3.2171468 65.60214866 -1.98526724 65.35872004 -7.0625 65.4375 C-8.24005859 65.48326172 -9.41761719 65.52902344 -10.63085938 65.57617188 C-19.24392143 65.68580133 -24.87221175 63.82481067 -32 59 C-32.10223877 59.61931396 -32.20447754 60.23862793 -32.30981445 60.87670898 C-33.32971935 66.77923554 -35.16894767 70.4027372 -39 75 C-41.82883747 76.41441874 -43.87376745 76.31900332 -47 76 C-50.64056023 72.35943977 -51.15815835 68.59167254 -51.203125 63.61328125 C-51.14297727 56.95392552 -50.10245463 50.69272768 -48.75 44.1875 C-48.54503906 43.10791016 -48.34007813 42.02832031 -48.12890625 40.91601562 C-46.90586177 34.87121093 -45.4319237 30.14055238 -42 25 C-40.92958877 28.21123369 -41.06121122 29.60399408 -41.55859375 32.88671875 C-41.69716797 33.82451172 -41.83574219 34.76230469 -41.97851562 35.72851562 C-42.12998047 36.70498047 -42.28144531 37.68144531 -42.4375 38.6875 C-42.58509766 39.67556641 -42.73269531 40.66363281 -42.88476562 41.68164062 C-43.25024657 44.12211013 -43.62222571 46.56140835 -44 49 C-33.77480992 40.44422871 -24.05693226 30.89251535 -15.47265625 20.68359375 C-13.88347632 18.86678592 -12.18492133 17.22689052 -10.4375 15.5625 C-5.9532919 11.15927082 -1.99894943 5.9968483 0 0 Z " fill="#323077" transform="translate(174,265)"/>
<path d="M0 0 C0.33 0 0.66 0 1 0 C1 54.78 1 109.56 1 166 C0.67 166 0.34 166 0 166 C-2.15764646 148.22369894 -4.20240193 130.44156137 -6 112.625 C-7.80485381 94.74932619 -9.74494578 76.89150186 -11.7689209 59.03936768 C-11.99659461 57.03005394 -12.22348611 55.02065323 -12.45019531 53.01123047 C-12.86036235 49.38222439 -13.2731728 45.75353324 -13.6875 42.125 C-13.80681885 41.0733667 -13.9261377 40.0217334 -14.04907227 38.93823242 C-14.73383149 32.99523536 -15.60858202 27.13500716 -16.6875 21.25 C-16.6692664 18.07127525 -16.02330972 17.02872011 -13.98046875 14.51171875 C-12.22595971 12.77825329 -10.43825877 11.07782401 -8.62109375 9.41015625 C-6.35941048 7.33048623 -4.39035208 5.23847623 -2.4375 2.875 C-1.633125 1.92625 -0.82875 0.9775 0 0 Z " fill="#2FB7CA" transform="translate(135,19)"/>
<path d="M0 0 C7.96825397 6.82993197 7.96825397 6.82993197 10.8125 9.6875 C11.37582031 10.24824219 11.93914062 10.80898438 12.51953125 11.38671875 C14.9787652 14.06656999 15.99009457 15.49315291 16.06225586 19.18554688 C15.97999545 20.53078545 15.88391131 21.87521848 15.77734375 23.21875 C15.69999245 24.33086853 15.69999245 24.33086853 15.62107849 25.4654541 C14.85523983 35.83328252 13.69208332 46.16698251 12.5625 56.5 C12.34274446 58.54293065 12.12334193 60.5858993 11.90429688 62.62890625 C11.03671582 70.68599 10.16130618 78.74109663 9.18589783 86.78591919 C7.9733974 96.78789281 7.12322681 106.8063364 6.32275391 116.84863281 C5.51189875 126.95655331 4.40098598 136.95419314 3 147 C2.60564921 150.14369781 2.23625452 153.28984792 1.875 156.4375 C1.78863281 157.18064453 1.70226562 157.92378906 1.61328125 158.68945312 C1.40772685 160.45950487 1.20367839 162.22973141 1 164 C0.67 164 0.34 164 0 164 C0 109.88 0 55.76 0 0 Z " fill="#2BB5C8" transform="translate(140,20)"/>
<path d="M0 0 C4.8706566 0.90808852 8.29233931 3.07703644 11.6875 6.6875 C12.32421875 8.72265625 12.32421875 8.72265625 12.6875 10.6875 C14.51629056 14.35283601 14.51629056 14.35283601 17.6875 16.6875 C18.4375 19.5625 18.4375 19.5625 18.6875 22.6875 C18.0275 23.6775 17.3675 24.6675 16.6875 25.6875 C15.44593117 28.02457073 14.5288154 30.1635538 13.6875 32.6875 C8.80129443 35.90691582 2.40316583 36.47555545 -3.3125 36.6875 C-6.39792591 35.85718634 -8.71108244 34.50971937 -11.3125 32.6875 C-12.7975 31.82125 -12.7975 31.82125 -14.3125 30.9375 C-14.9725 30.525 -15.6325 30.1125 -16.3125 29.6875 C-16.16941406 29.12160156 -16.02632812 28.55570312 -15.87890625 27.97265625 C-15.31422888 25.69447515 -14.77268044 23.41317882 -14.25 21.125 C-14.07339844 20.36058594 -13.89679688 19.59617187 -13.71484375 18.80859375 C-13.21931812 16.55607896 -13.21931812 16.55607896 -13.3125 13.6875 C-12.6525 13.3575 -11.9925 13.0275 -11.3125 12.6875 C-11.3125 11.6975 -11.3125 10.7075 -11.3125 9.6875 C-10.6525 9.3575 -9.9925 9.0275 -9.3125 8.6875 C-8.9825 7.6975 -8.6525 6.7075 -8.3125 5.6875 C-5.68634398 2.36618503 -4.1907507 0.86977845 0 0 Z M16.6875 19.6875 C17.6875 21.6875 17.6875 21.6875 17.6875 21.6875 Z " fill="#F5F5F8" transform="translate(188.3125,270.3125)"/>
<path d="M0 0 C0.66 0 1.32 0 2 0 C-1.82746197 19.64456385 -24.70136429 36.95786617 -38 50 C-36.02 50.33 -34.04 50.66 -32 51 C-32 51.33 -32 51.66 -32 52 C-34.31 52 -36.62 52 -39 52 C-39 52.99 -39 53.98 -39 55 C-38.34 55 -37.68 55 -37 55 C-35 58 -35 58 -35.25 60.5625 C-36 63 -36 63 -38 65 C-41 65.25 -41 65.25 -44 65 C-46 63 -46 63 -46.125 59.875 C-46.08375 58.92625 -46.0425 57.9775 -46 57 C-46.66 58.98 -47.32 60.96 -48 63 C-48.33 63 -48.66 63 -49 63 C-49.33 64.98 -49.66 66.96 -50 69 C-50.33 69 -50.66 69 -51 69 C-51.31165528 60.43236538 -50.49272244 52.56989304 -48.75 44.1875 C-48.54503906 43.10791016 -48.34007813 42.02832031 -48.12890625 40.91601562 C-46.90586177 34.87121093 -45.4319237 30.14055238 -42 25 C-40.92958877 28.21123369 -41.06121122 29.60399408 -41.55859375 32.88671875 C-41.69716797 33.82451172 -41.83574219 34.76230469 -41.97851562 35.72851562 C-42.12998047 36.70498047 -42.28144531 37.68144531 -42.4375 38.6875 C-42.58509766 39.67556641 -42.73269531 40.66363281 -42.88476562 41.68164062 C-43.25024657 44.12211013 -43.62222571 46.56140835 -44 49 C-33.77480992 40.44422871 -24.05693226 30.89251535 -15.47265625 20.68359375 C-13.88347632 18.86678592 -12.18492133 17.22689052 -10.4375 15.5625 C-5.9532919 11.15927082 -1.99894943 5.9968483 0 0 Z " fill="#35347A" transform="translate(174,265)"/>
<path d="M0 0 C1.17789191 3.53367574 0.74218685 5.24111866 0.0625 8.875 C-2.25530522 20.21217235 -2.25530522 20.21217235 0.26953125 30.87890625 C2.4533799 32.29372467 3.45637931 32.22198439 6 31.8125 C7.0209375 31.66748047 7.0209375 31.66748047 8.0625 31.51953125 C10.30224609 31.02981275 10.30224609 31.02981275 13 29 C15.29609974 28.21826194 17.61043601 27.54872528 19.94140625 26.87890625 C22.3457253 26.07444916 22.3457253 26.07444916 24 23 C24.66 23 25.32 23 26 23 C25.87625 21.2365625 25.87625 21.2365625 25.75 19.4375 C25.71575415 14.63451989 27.37066032 11.94400953 30 8 C30.33 8 30.66 8 31 8 C31.268125 8.969375 31.53625 9.93875 31.8125 10.9375 C32.204375 11.948125 32.59625 12.95875 33 14 C33.99 14.33 34.98 14.66 36 15 C36 14.34 36 13.68 36 13 C36.66 13 37.32 13 38 13 C36 21 36 21 33 24 C31.3364521 24.67441131 29.66933058 25.3400321 28 26 C26.52380733 27.21946351 25.04898451 28.44124487 23.60546875 29.69921875 C20.27478283 32.39780369 16.54806072 34.45817875 12.5 35.875 C9.94575729 37.02440922 8.54194437 38.24148235 6.5 40.125 C4.27805527 42.08667355 3.23046687 42.94104336 0.3125 43.6875 C-2 43 -2 43 -4.3125 41.1875 C-6.85380526 36.38725672 -6.40873499 32.33213372 -6 27 C-5.95069336 26.33790527 -5.90138672 25.67581055 -5.85058594 24.99365234 C-5.14056925 16.11032932 -4.08162752 8.0641864 0 0 Z " fill="#323077" transform="translate(70,293)"/>
<path d="M0 0 C0.66 0.33 1.32 0.66 2 1 C0.089456 14.77302612 -3.41651117 28.28524858 -7.0625 41.6875 C-8.73038624 47.8231779 -10.14196923 53.988342 -11.49145508 60.19946289 C-13.16023897 67.84247658 -15.05909171 75.4221985 -17 83 C-17.66 81.68 -18.32 80.36 -19 79 C-19.99 79.495 -19.99 79.495 -21 80 C-18.58280277 64.33857629 -14.27802454 48.92341035 -10.4375 33.5625 C-10.15338257 32.42467072 -10.15338257 32.42467072 -9.86352539 31.26385498 C-8.76834627 26.88373037 -7.66163843 22.50673519 -6.54266357 18.13262939 C-5.98909414 15.95714074 -5.44603715 13.7791709 -4.90283203 11.60107422 C-4.55162878 10.22219767 -4.19992578 8.84344828 -3.84765625 7.46484375 C-3.53965088 6.24273193 -3.23164551 5.02062012 -2.91430664 3.76147461 C-2.61258545 2.85018799 -2.31086426 1.93890137 -2 1 C-1.34 0.67 -0.68 0.34 0 0 Z " fill="#E6F6F8" transform="translate(176,70)"/>
<path d="M0 0 C0.66 0 1.32 0 2 0 C2.97721125 9.19302435 0.63383452 15.14119276 -4 23 C-4.42925781 23.75539063 -4.85851562 24.51078125 -5.30078125 25.2890625 C-6.46442895 27.25248109 -7.69354413 29.12902616 -9 31 C-9.43828125 31.639375 -9.8765625 32.27875 -10.328125 32.9375 C-13.97586327 37.74770432 -17.98373055 40.08323513 -24 41 C-24.99 40.67 -25.98 40.34 -27 40 C-25.77023438 39.22076172 -25.77023438 39.22076172 -24.515625 38.42578125 C-23.43796875 37.72839844 -22.3603125 37.03101563 -21.25 36.3125 C-19.64898437 35.28576172 -19.64898437 35.28576172 -18.015625 34.23828125 C-15.08637421 32.06410935 -13.12421832 29.9440016 -11 27 C-11.78375 27.04125 -12.5675 27.0825 -13.375 27.125 C-16 27 -16 27 -18 25 C-17.7750187 20.05041147 -16.15499233 16.7859908 -13 13 C-11.68 13 -10.36 13 -9 13 C-8.34 14.65 -7.68 16.3 -7 18 C-3.85996985 16.36509153 -3.85996985 16.36509153 -3.33984375 13.828125 C-3.20707031 12.97734375 -3.07429688 12.1265625 -2.9375 11.25 C-2.26392891 7.34441975 -1.37461479 3.73109728 0 0 Z " fill="#2F2D75" transform="translate(58,299)"/>
<path d="M0 0 C2.58148508 0.35606691 3.82045747 0.83328193 5.75 2.625 C7.5736426 6.08992094 7.50366711 8.09657988 7 12 C5.07979773 16.90718359 3.45244091 21.03170606 -1 24 C-3.6875 23.625 -3.6875 23.625 -6 23 C-6.47347788 14.31957222 -4.10716909 7.62759974 0 0 Z " fill="#343279" transform="translate(110,317)"/>
<path d="M0 0 C0.66 0 1.32 0 2 0 C-1.11395974 15.98249215 -17.75274929 29.92106767 -28.5625 40.875 C-29.44381592 41.77412109 -30.32513184 42.67324219 -31.2331543 43.59960938 C-32.06500244 44.43041016 -32.89685059 45.26121094 -33.75390625 46.1171875 C-34.49970947 46.86597168 -35.2455127 47.61475586 -36.01391602 48.38623047 C-38.71116555 50.57784933 -40.60013271 50 -44 50 C-43.33991943 49.34515625 -42.67983887 48.6903125 -41.99975586 48.015625 C-39.51703534 45.55009874 -37.03669808 43.08222166 -34.55786133 40.61279297 C-33.49107703 39.55099139 -32.42339147 38.49009442 -31.35473633 37.43017578 C-25.87601293 31.99507688 -20.43617143 26.57194628 -15.45947266 20.66381836 C-13.87411282 18.85648693 -12.18493953 17.2125117 -10.4375 15.5625 C-5.9532919 11.15927082 -1.99894943 5.9968483 0 0 Z " fill="#333278" transform="translate(174,265)"/>
<path d="M0 0 C0.66 0.33 1.32 0.66 2 1 C1.67 1.33 1.34 1.66 1 2 C0.83333333 5 0.83333333 5 1 8 C1.33 8.33 1.66 8.66 2 9 C3.85772162 8.91015699 5.71247985 8.75388139 7.5625 8.5625 C8.57441406 8.46066406 9.58632812 8.35882813 10.62890625 8.25390625 C11.80259766 8.12822266 11.80259766 8.12822266 13 8 C11.68203796 12.61286713 9.86611786 16.14865412 7 20 C4.17116253 21.41441874 2.12623255 21.31900332 -1 21 C-3.6218375 18.5549841 -3.98695069 17.15380784 -4.29296875 13.546875 C-4.25816406 12.29390625 -4.22335938 11.0409375 -4.1875 9.75 C-4.16042969 8.48671875 -4.13335937 7.2234375 -4.10546875 5.921875 C-4.07066406 4.95765625 -4.03585938 3.9934375 -4 3 C-3.34 3 -2.68 3 -2 3 C-1.34 2.01 -0.68 1.02 0 0 Z " fill="#2C2A73" transform="translate(128,320)"/>
<path d="M0 0 C2 0 2 0 4.125 1.875 C6.78135987 6.30226645 6.76659749 9.9557885 6 15 C4.44615919 19.70908899 2.43006027 23.5080911 -2 26 C-2.680625 26.4125 -3.36125 26.825 -4.0625 27.25 C-6 28 -6 28 -9 27 C-8.02546875 26.22076172 -8.02546875 26.22076172 -7.03125 25.42578125 C-6.1959375 24.72839844 -5.360625 24.03101563 -4.5 23.3125 C-3.6646875 22.62800781 -2.829375 21.94351562 -1.96875 21.23828125 C0.21640278 19.15855876 0.21640278 19.15855876 0.40625 16.375 C-0.13604147 13.20468061 -1.5899661 12.0334661 -4 10 C-3.52449439 8.51965236 -3.04448784 7.04074979 -2.5625 5.5625 C-2.16224609 4.32693359 -2.16224609 4.32693359 -1.75390625 3.06640625 C-1 1 -1 1 0 0 Z " fill="#312F77" transform="translate(253,306)"/>
<path d="M0 0 C0.33 0 0.66 0 1 0 C1 49.17 1 98.34 1 149 C0.67 149 0.34 149 0 149 C0 99.83 0 50.66 0 0 Z " fill="#FFFFFF" transform="translate(6,99)"/>
<path d="M0 0 C0.66 0.33 1.32 0.66 2 1 C2.37890625 3.90625 2.37890625 3.90625 2.5625 7.5 C2.41799469 11.56998767 2.41799469 11.56998767 4 15 C4.21558034 16.51336648 4.3710643 18.03539692 4.5 19.55859375 C4.62375 20.97495117 4.62375 20.97495117 4.75 22.41992188 C4.87375 23.91362305 4.87375 23.91362305 5 25.4375 C5.16622282 27.37373607 5.33288711 29.3099343 5.5 31.24609375 C5.62181641 32.67284424 5.62181641 32.67284424 5.74609375 34.12841797 C6.12580824 38.42284282 6.55793328 42.71160015 7 47 C4.0474688 44.0474688 3.72857795 40.40692234 2.8359375 36.44921875 C2.63900299 35.59826126 2.44206848 34.74730377 2.23916626 33.87055969 C1.82388585 32.06824273 1.41222878 30.26508767 1.00390625 28.46118164 C0.37938656 25.70684616 -0.25860995 22.95589294 -0.8984375 20.20507812 C-1.30029125 18.45331109 -1.70135866 16.70136345 -2.1015625 14.94921875 C-2.2921524 14.12822189 -2.48274231 13.30722504 -2.67910767 12.46134949 C-3.55233605 8.57110212 -4.24558509 5.01678165 -4 1 C-3.67 2.32 -3.34 3.64 -3 5 C-2.34 4.67 -1.68 4.34 -1 4 C-0.34786708 1.97536745 -0.34786708 1.97536745 0 0 Z " fill="#28B5C8" transform="translate(126,150)"/>
<path d="M0 0 C0.33 0 0.66 0 1 0 C1.12375 1.134375 1.2475 2.26875 1.375 3.4375 C1.684375 5.2009375 1.684375 5.2009375 2 7 C2.66 7.33 3.32 7.66 4 8 C3.43404509 15.50071979 2.1717862 22.71983847 0.5625 30.0625 C0.34529297 31.10599609 0.12808594 32.14949219 -0.09570312 33.22460938 C-0.31033203 34.21396484 -0.52496094 35.20332031 -0.74609375 36.22265625 C-1.03504517 37.56469116 -1.03504517 37.56469116 -1.32983398 38.93383789 C-1.55098877 39.61567139 -1.77214355 40.29750488 -2 41 C-2.99 41.495 -2.99 41.495 -4 42 C-3.32787917 32.54122658 -2.43436359 23.11716184 -1.4375 13.6875 C-1.29736346 12.34962639 -1.15738875 11.01173583 -1.01757812 9.67382812 C-0.67996591 6.44904942 -0.34074847 3.22444855 0 0 Z " fill="#4DC1D1" transform="translate(147,154)"/>
<path d="M0 0 C0.66 0 1.32 0 2 0 C0.53452325 18.1719117 0.53452325 18.1719117 -6 24 C-8.58837307 25.33610351 -11.13874954 26.42422475 -14 27 C-14.99 26.67 -15.98 26.34 -17 26 C-16.26394531 25.40574219 -15.52789063 24.81148438 -14.76953125 24.19921875 C-6.65153664 17.30374908 -1.8954412 10.77306884 0 0 Z " fill="#36347A" transform="translate(33,308)"/>
<path d="M0 0 C0.99 0 1.98 0 3 0 C5 3 5 3 4.625 6.1875 C4.41875 7.115625 4.2125 8.04375 4 9 C0.98968256 9.93423645 0.13349732 10.04449911 -3 9 C-3.99 10.485 -3.99 10.485 -5 12 C-6.9375 11.1875 -6.9375 11.1875 -9 10 C-10 7 -10 7 -8.5625 3.8125 C-8.046875 2.884375 -7.53125 1.95625 -7 1 C-3.125 2.875 -3.125 2.875 -2 4 C-1.34 2.68 -0.68 1.36 0 0 Z " fill="#3A387D" transform="translate(88,341)"/>
<path d="M0 0 C0.66 0 1.32 0 2 0 C1.12413108 12.3798189 -0.38494566 22.76989131 -6 34 C-6.66 33.67 -7.32 33.34 -8 33 C-7.69255859 31.78376953 -7.69255859 31.78376953 -7.37890625 30.54296875 C-6.05282567 25.09271411 -4.88076383 19.85939994 -4.5625 14.25 C-4.20110056 8.89971693 -2.49725216 4.70412617 0 0 Z " fill="#3D3C7F" transform="translate(239,300)"/>
<path d="M0 0 C2.47128202 0.9566253 3.72986449 1.45972898 4.9375 3.875 C5.0225942 6.76820282 3.88243538 7.89167237 2 10 C0.35 9.67 -1.3 9.34 -3 9 C-3.99 10.485 -3.99 10.485 -5 12 C-7.42716947 11.06045053 -8.71970832 10.54189724 -9.9375 8.1875 C-10.02525652 5.11602165 -8.71778904 3.47361622 -7 1 C-5.68 1.99 -4.36 2.98 -3 4 C-2.01 2.68 -1.02 1.36 0 0 Z " fill="#343278" transform="translate(87,287)"/>
<path d="M0 0 C0.66 1.32 1.32 2.64 2 4 C-0.75863213 6.84543756 -3.53381999 9.67414757 -6.3125 12.5 C-7.49102539 13.71623047 -7.49102539 13.71623047 -8.69335938 14.95703125 C-9.45068359 15.72402344 -10.20800781 16.49101562 -10.98828125 17.28125 C-12.03302612 18.34956055 -12.03302612 18.34956055 -13.09887695 19.43945312 C-15.72518379 21.59527093 -17.67710192 21 -21 21 C-14.07 14.07 -7.14 7.14 0 0 Z " fill="#22206D" transform="translate(151,294)"/>
<path d="M0 0 C0.66 0 1.32 0 2 0 C4 3 4 3 3.625 6.1875 C3.41875 7.115625 3.2125 8.04375 3 9 C-1 9 -1 9 -4 8 C-4.33 8.99 -4.66 9.98 -5 11 C-7.475 10.01 -7.475 10.01 -10 9 C-9.34 7.02 -8.68 5.04 -8 3 C-4 3 -4 3 -2 4 C-1.34 2.68 -0.68 1.36 0 0 Z " fill="#35337A" transform="translate(192,287)"/>
<path d="M0 0 C1.52519276 0.08937803 3.04681929 0.24537146 4.5625 0.4375 C5.80193359 0.59025391 5.80193359 0.59025391 7.06640625 0.74609375 C7.70449219 0.82988281 8.34257812 0.91367187 9 1 C9.6875 3.3125 9.6875 3.3125 10 6 C8.9375 7.8125 8.9375 7.8125 7 9 C3.9375 9.3125 3.9375 9.3125 1 9 C-1 7 -1 7 -1.1875 3.9375 C-1 1 -1 1 0 0 Z " fill="#EEEEF4" transform="translate(129,321)"/>
<path d="M0 0 C1.09916562 3.29749685 0.89023727 4.54881363 0.22265625 7.88671875 C0.03896484 8.82451172 -0.14472656 9.76230469 -0.33398438 10.72851562 C-0.53314453 11.70498047 -0.73230469 12.68144531 -0.9375 13.6875 C-1.13279297 14.67556641 -1.32808594 15.66363281 -1.52929688 16.68164062 C-2.01275776 19.12252852 -2.50323966 21.56179009 -3 24 C-3.99 24 -4.98 24 -6 24 C-6.33229438 14.86190462 -4.95037093 7.75558112 0 0 Z " fill="#2C2A73" transform="translate(132,290)"/>
<path d="M0 0 C0.33 0 0.66 0 1 0 C1 1.65 1 3.3 1 5 C2.32 5.33 3.64 5.66 5 6 C5.5625 7.9375 5.5625 7.9375 6 10 C5 11 5 11 1.9375 11.0625 C0.968125 11.041875 -0.00125 11.02125 -1 11 C-1 12.32 -1 13.64 -1 15 C-0.34 14.34 0.32 13.68 1 13 C3.625 13.375 3.625 13.375 6 14 C4.8125 15.5625 4.8125 15.5625 3 17 C0.3125 16.6875 0.3125 16.6875 -2 16 C-2.20674944 10.21101581 -1.59162079 5.57067277 0 0 Z " fill="#474685" transform="translate(106,324)"/>
<path d="M0 0 C0.66 0 1.32 0 2 0 C2.31453125 0.845625 2.6290625 1.69125 2.953125 2.5625 C5.84736169 10.26433094 5.84736169 10.26433094 9.375 17.6875 C9.91125 18.780625 10.4475 19.87375 11 21 C10.67 21.66 10.34 22.32 10 23 C7.96239467 20.07380821 5.94794274 17.13240552 3.9375 14.1875 C3.35677734 13.35412109 2.77605469 12.52074219 2.17773438 11.66210938 C1.63310547 10.85966797 1.08847656 10.05722656 0.52734375 9.23046875 C0.01937256 8.49207764 -0.48859863 7.75368652 -1.01196289 6.99291992 C-2 5 -2 5 -1 2 C-0.67 1.34 -0.34 0.68 0 0 Z " fill="#39BACC" transform="translate(120,194)"/>
<path d="M0 0 C0.66 0 1.32 0 2 0 C-0.39540652 8.59628156 -3.06493605 15.26290038 -9 22 C-9.33 21.01 -9.66 20.02 -10 19 C-10.66 18.67 -11.32 18.34 -12 18 C-11.25363281 17.48953125 -10.50726563 16.9790625 -9.73828125 16.453125 C-6.45935116 13.51565268 -5.00218384 10.69182979 -3.1875 6.75 C-2.87619141 6.1003125 -2.56488281 5.450625 -2.24414062 4.78125 C-1.48494554 3.19278029 -0.74089481 1.59708737 0 0 Z " fill="#26246F" transform="translate(235,285)"/>
<path d="M0 0 C1.32 0 2.64 0 4 0 C2.5316967 3.77329341 0.63118717 5.20547208 -2.8125 7.25 C-4.09060547 8.03117187 -4.09060547 8.03117187 -5.39453125 8.828125 C-8.17652346 10.07939586 -9.98798767 10.23793275 -13 10 C-13 9.34 -13 8.68 -13 8 C-12.34 8 -11.68 8 -11 8 C-11 7.01 -11 6.02 -11 5 C-10.37351562 4.80664062 -9.74703125 4.61328125 -9.1015625 4.4140625 C-8.28429687 4.15367187 -7.46703125 3.89328125 -6.625 3.625 C-5.81289062 3.36976563 -5.00078125 3.11453125 -4.1640625 2.8515625 C-1.83540815 2.10145717 -1.83540815 2.10145717 0 0 Z " fill="#2A2872" transform="translate(94,317)"/>
<path d="M0 0 C-2.82751297 1.88500864 -4.27652054 2.42317657 -7.5 3.0625 C-10.10082768 3.58700025 -12.47389425 4.15796475 -15 5 C-16.70016844 5.08178114 -18.40336297 5.10749501 -20.10546875 5.09765625 C-21.08837891 5.09443359 -22.07128906 5.09121094 -23.08398438 5.08789062 C-24.10814453 5.07951172 -25.13230469 5.07113281 -26.1875 5.0625 C-27.22326172 5.05798828 -28.25902344 5.05347656 -29.32617188 5.04882812 C-31.88417266 5.0370401 -34.44205733 5.02058515 -37 5 C-37 4.34 -37 3.68 -37 3 C-37.66 2.67 -38.32 2.34 -39 2 C-38.34 1.67 -37.68 1.34 -37 1 C-36.34 1.33 -35.68 1.66 -35 2 C-31.83960524 2.2410814 -28.66859044 2.18977608 -25.5 2.1875 C-24.5917749 2.18814453 -23.6835498 2.18878906 -22.74780273 2.18945312 C-17.32497178 2.14662721 -12.2368205 1.85439654 -6.97265625 0.4375 C-4.61105143 -0.08626186 -2.41119846 -0.06709422 0 0 Z " fill="#C8C8E1" transform="translate(193,307)"/>
<path d="M0 0 C0.66 0 1.32 0 2 0 C2.36621148 3.33192408 2.13775189 4.77586687 0.35546875 7.67578125 C-0.35996094 8.54589844 -1.07539063 9.41601562 -1.8125 10.3125 C-2.52019531 11.19550781 -3.22789062 12.07851563 -3.95703125 12.98828125 C-6 15 -6 15 -9 15 C-7.38343185 11.60520688 -5.49068911 8.43847663 -3.5 5.25 C-2.8915625 4.26515625 -2.283125 3.2803125 -1.65625 2.265625 C-1.1096875 1.51796875 -0.563125 0.7703125 0 0 Z " fill="#A7A6C4" transform="translate(171,265)"/>
<path d="M0 0 C0.33 0 0.66 0 1 0 C1.08302368 0.92111572 1.08302368 0.92111572 1.16772461 1.86083984 C1.42381969 4.6989383 1.68065639 7.53696919 1.9375 10.375 C2.02451172 11.34050781 2.11152344 12.30601562 2.20117188 13.30078125 C2.76624656 19.53753144 3.36468813 25.77001037 4 32 C-0.09142792 27.90857208 -0.95010421 21.30143797 -1.03515625 15.67382812 C-0.8942923 10.43286072 -0.48135186 5.21947795 0 0 Z " fill="#60C8D6" transform="translate(129,165)"/>
<path d="M0 0 C1.32 0.66 2.64 1.32 4 2 C4.25 7.625 4.25 7.625 2 11 C0 11 0 11 -1.6875 9.75 C-3 8 -3 8 -2.8125 6.0625 C-1.9873763 3.96795522 -1.06290513 1.98408958 0 0 Z " fill="#343279" transform="translate(105,275)"/>
<path d="M0 0 C0.33 0 0.66 0 1 0 C1.33 1.98 1.66 3.96 2 6 C0.35 6.33 -1.3 6.66 -3 7 C-2.814375 8.051875 -2.62875 9.10375 -2.4375 10.1875 C-2.04920669 13.57119882 -2.11752515 15.76425888 -3 19 C-3.33 19 -3.66 19 -4 19 C-4.33 20.98 -4.66 22.96 -5 25 C-5.33 25 -5.66 25 -6 25 C-6.24923458 17.06603268 -5.70994772 9.7558343 -4 2 C-3.67 2.99 -3.34 3.98 -3 5 C-2.01 5 -1.02 5 0 5 C0 3.35 0 1.7 0 0 Z " fill="#454384" transform="translate(129,309)"/>
<path d="M0 0 C0.66 0 1.32 0 2 0 C2.05410687 1.77049689 2.09284119 3.54146849 2.125 5.3125 C2.14820313 6.29863281 2.17140625 7.28476562 2.1953125 8.30078125 C2 11 2 11 0 14 C-0.99 14.33 -1.98 14.66 -3 15 C-3.36263859 9.1977825 -2.25684543 5.36000789 0 0 Z " fill="#434182" transform="translate(58,299)"/>
<path d="M0 0 C1.32 0.66 2.64 1.32 4 2 C3.67 4.31 3.34 6.62 3 9 C1.68 9 0.36 9 -1 9 C-1.66 8.34 -2.32 7.68 -3 7 C-2.61121812 3.98694043 -1.73543126 2.60314689 0 0 Z " fill="#2E2D75" transform="translate(53,337)"/>
<path d="M0 0 C0.66 1.32 1.32 2.64 2 4 C-0.77058501 6.97581353 -3.48535116 8.97907692 -7 11 C-8.34631825 11.98244845 -9.68441297 12.97676564 -11 14 C-11 11 -11 11 -8.59375 8.30078125 C-7.5700032 7.29697757 -6.5383946 6.30114351 -5.5 5.3125 C-4.97535156 4.80138672 -4.45070312 4.29027344 -3.91015625 3.76367188 C-2.61339096 2.50227292 -1.30753883 1.25022788 0 0 Z " fill="#292771" transform="translate(151,294)"/>
<path d="M0 0 C1.32 0.66 2.64 1.32 4 2 C3.67 4.31 3.34 6.62 3 9 C1.68 9 0.36 9 -1 9 C-2.1875 7.3125 -2.1875 7.3125 -3 5 C-1.625 2.25 -1.625 2.25 0 0 Z " fill="#2D2B74" transform="translate(83,279)"/>
<path d="M0 0 C0.66 0 1.32 0 2 0 C4 3 4 3 3.625 6.1875 C3.41875 7.115625 3.2125 8.04375 3 9 C-1 9 -1 9 -3 8 C-2.45276317 4.62537285 -1.9451 2.91765 0 0 Z " fill="#333178" transform="translate(223,272)"/>
<path d="M0 0 C0.99 0 1.98 0 3 0 C5 3 5 3 4.625 6.1875 C4.41875 7.115625 4.2125 8.04375 4 9 C2.68 9.33 1.36 9.66 0 10 C-0.33 9.01 -0.66 8.02 -1 7 C-1.66 6.67 -2.32 6.34 -3 6 C-2.01 6 -1.02 6 0 6 C0 4.02 0 2.04 0 0 Z " fill="#323077" transform="translate(88,341)"/>
<path d="M0 0 C0.99 0.33 1.98 0.66 3 1 C3 1.99 3 2.98 3 4 C3.99 4.33 4.98 4.66 6 5 C4.68 6.32 3.36 7.64 2 9 C-0.475 8.01 -0.475 8.01 -3 7 C-1.125 1.125 -1.125 1.125 0 0 Z " fill="#2C2A73" transform="translate(185,289)"/>
<path d="M0 0 C0.66 0 1.32 0 2 0 C4 3 4 3 3.625 5.6875 C3.41875 6.450625 3.2125 7.21375 3 8 C1.0625 8.5625 1.0625 8.5625 -1 9 C-1.33 8.67 -1.66 8.34 -2 8 C-1.28 1.28 -1.28 1.28 0 0 Z " fill="#323178" transform="translate(188,279)"/>
<path d="M0 0 C0.12375 0.639375 0.2475 1.27875 0.375 1.9375 C0.684375 2.9584375 0.684375 2.9584375 1 4 C1.66 4.33 2.32 4.66 3 5 C1.89966185 6.60679516 0.79457336 8.21033793 -0.3125 9.8125 C-0.92738281 10.70582031 -1.54226562 11.59914062 -2.17578125 12.51953125 C-3.67715037 14.56100746 -5.14785401 16.28462787 -7 18 C-5.06375702 11.79522136 -2.74390859 5.89174281 0 0 Z " fill="#3CBBCD" transform="translate(152,198)"/>
<path d="M0 0 C1.19037366 3.57112099 0.83927846 5.72476544 0.3125 9.4375 C0.16425781 10.57058594 0.01601562 11.70367187 -0.13671875 12.87109375 C-1.09699671 16.35155823 -2.2559803 17.72542562 -5 20 C-4.68676801 12.63904818 -3.06085395 6.69116911 0 0 Z " fill="#444284" transform="translate(70,293)"/>
<path d="M0 0 C1.15837573 3.47512718 0.77265943 5.13670286 0.0625 8.6875 C-0.13214844 9.68136719 -0.32679688 10.67523438 -0.52734375 11.69921875 C-0.68332031 12.45847656 -0.83929688 13.21773438 -1 14 C-1.99 14 -2.98 14 -4 14 C-5.06528748 11.26980214 -5.07998186 10.20701188 -4.00390625 7.421875 C-3.52824219 6.54015625 -3.05257812 5.6584375 -2.5625 4.75 C-2.08941406 3.85796875 -1.61632812 2.9659375 -1.12890625 2.046875 C-0.75636719 1.37140625 -0.38382813 0.6959375 0 0 Z " fill="#3D3B7F" transform="translate(132,290)"/>
<path d="M0 0 C1.98 0 3.96 0 6 0 C6 0.66 6 1.32 6 2 C4.8553125 2.6496875 4.8553125 2.6496875 3.6875 3.3125 C0.65604482 5.21597186 -0.23737591 6.95546748 -2 10 C-2.99 10.33 -3.98 10.66 -5 11 C-4.6875 8.125 -4.6875 8.125 -4 5 C-3.01 4.34 -2.02 3.68 -1 3 C-0.67 2.01 -0.34 1.02 0 0 Z " fill="#CECEDE" transform="translate(28,299)"/>
<path d="M0 0 C0 0.66 0 1.32 0 2 C0.66 2.33 1.32 2.66 2 3 C0.40084119 3.69906942 -1.20455045 4.38389468 -2.8125 5.0625 C-3.70582031 5.44535156 -4.59914063 5.82820313 -5.51953125 6.22265625 C-8 7 -8 7 -11 6 C-9.54550599 4.9944239 -8.08627557 3.99569565 -6.625 3 C-5.40683594 2.1646875 -5.40683594 2.1646875 -4.1640625 1.3125 C-2 0 -2 0 0 0 Z " fill="#3B3A7D" transform="translate(42,333)"/>
<path d="M0 0 C0.33 0 0.66 0 1 0 C1.1875 2.8125 1.1875 2.8125 1 6 C0.505 6.474375 0.01 6.94875 -0.5 7.4375 C-2.40783642 9.08339692 -2.40783642 9.08339692 -2.1875 12.6875 C-2.125625 13.780625 -2.06375 14.87375 -2 16 C-3.32 15.67 -4.64 15.34 -6 15 C-5.34 15 -4.68 15 -4 15 C-4.0825 13.824375 -4.165 12.64875 -4.25 11.4375 C-4.28424585 6.63451989 -2.62933968 3.94400953 0 0 Z " fill="#55538E" transform="translate(100,301)"/>
<path d="M0 0 C0.33 0.99 0.66 1.98 1 3 C-5.625 6.125 -5.625 6.125 -9 5 C-3.375 0 -3.375 0 0 0 Z " fill="#312F77" transform="translate(25,329)"/>
<path d="M0 0 C0.33 0 0.66 0 1 0 C1 4.95 1 9.9 1 15 C0.01 14.34 -0.98 13.68 -2 13 C-2.54915308 8.27728349 -1.42242024 4.44506325 0 0 Z " fill="#24216E" transform="translate(67,306)"/>
<path d="M0 0 C0.33 0 0.66 0 1 0 C0.67 5.94 0.34 11.88 0 18 C-0.33 18 -0.66 18 -1 18 C-1.33 15.36 -1.66 12.72 -2 10 C-2.33 10 -2.66 10 -3 10 C-3 8.02 -3 6.04 -3 4 C-2.01 4.33 -1.02 4.66 0 5 C0 3.35 0 1.7 0 0 Z " fill="#65CAD7" transform="translate(145,134)"/>
<path d="M0 0 C1.32 0.66 2.64 1.32 4 2 C3.67 3.32 3.34 4.64 3 6 C1.35 6 -0.3 6 -2 6 C-1.125 1.125 -1.125 1.125 0 0 Z " fill="#F3F3F7" transform="translate(108,329)"/>
<path d="M0 0 C1 3 1 3 0.25 5.5625 C-1 8 -1 8 -4 10 C-4 9.01 -4 8.02 -4 7 C-4.66 6.67 -5.32 6.34 -6 6 C-5.195625 5.38125 -4.39125 4.7625 -3.5625 4.125 C-0.96125481 2.25835959 -0.96125481 2.25835959 0 0 Z " fill="#3F3D80" transform="translate(229,297)"/>
<path d="M0 0 C0.66 0 1.32 0 2 0 C1.88490339 1.41750563 1.75746342 2.83401169 1.625 4.25 C1.55539063 5.03890625 1.48578125 5.8278125 1.4140625 6.640625 C0.98492887 9.085877 0.21399362 10.84836903 -1 13 C-2.20577428 8.05632546 -1.6290678 4.79137588 0 0 Z " fill="#434283" transform="translate(33,308)"/>
<path d="M0 0 C7.59 0 15.18 0 23 0 C23 0.33 23 0.66 23 1 C15.41 1 7.82 1 0 1 C0 0.67 0 0.34 0 0 Z " fill="#FFFFFF" transform="translate(239,91)"/>
<path d="M0 0 C0.66 0 1.32 0 2 0 C1.67 2.97 1.34 5.94 1 9 C-0.32 9 -1.64 9 -3 9 C-2.01 6.03 -1.02 3.06 0 0 Z " fill="#4C4A88" transform="translate(239,300)"/>
<path d="M0 0 C7.26 0 14.52 0 22 0 C22 0.33 22 0.66 22 1 C14.74 1 7.48 1 0 1 C0 0.67 0 0.34 0 0 Z " fill="#FFFFFF" transform="translate(14,91)"/>
<path d="M0 0 C2.07384637 2.28176413 2.98397191 3.44323483 3.07421875 6.578125 C2.94660156 7.45984375 2.81898437 8.3415625 2.6875 9.25 C2.50767578 10.58804688 2.50767578 10.58804688 2.32421875 11.953125 C2.21722656 12.62859375 2.11023438 13.3040625 2 14 C1.67 14 1.34 14 1 14 C0.04738513 9.23692563 -0.08333357 4.8333472 0 0 Z " fill="#5CC7D5" transform="translate(119,36)"/>
<path d="M0 0 C0.66 0 1.32 0 2 0 C1.49287967 3.71888239 0.88391785 6.73454239 -1 10 C-1.66 9.67 -2.32 9.34 -3 9 C-2.01 6.03 -1.02 3.06 0 0 Z " fill="#2C2B73" transform="translate(234,324)"/>
<path d="M0 0 C0.33 0.99 0.66 1.98 1 3 C-0.4375 5.6875 -0.4375 5.6875 -2 8 C-2.66 7.67 -3.32 7.34 -4 7 C-3.43628586 3.73045798 -2.50037734 2.17424117 0 0 Z " fill="#272570" transform="translate(57,312)"/>
<path d="M0 0 C0.66 0 1.32 0 2 0 C1.34 2.64 0.68 5.28 0 8 C-1.32 8.33 -2.64 8.66 -4 9 C-2.80100302 5.9168649 -1.52299523 2.93720508 0 0 Z " fill="#4C4A88" transform="translate(235,285)"/>
<path d="M0 0 C2.39073445 3.82517513 2.55966552 7.59665524 3 12 C0.50476973 9.07081664 -0.60563569 6.84505198 -1 3 C-0.67 2.01 -0.34 1.02 0 0 Z " fill="#42BECE" transform="translate(125,186)"/>
<path d="M0 0 C1.65 1.65 3.3 3.3 5 5 C3.35 4.67 1.7 4.34 0 4 C0 6.31 0 8.62 0 11 C-0.33 11 -0.66 11 -1 11 C-1.125 3.375 -1.125 3.375 0 0 Z " fill="#45BFCF" transform="translate(160,41)"/>
<path d="M0 0 C0.33 0 0.66 0 1 0 C1.38133299 1.9914056 1.71325582 3.99279077 2 6 C1 7 1 7 -1.5625 7.0625 C-2.7690625 7.0315625 -2.7690625 7.0315625 -4 7 C-4 5.35 -4 3.7 -4 2 C-3.67 2.99 -3.34 3.98 -3 5 C-2.01 5 -1.02 5 0 5 C0 3.35 0 1.7 0 0 Z " fill="#6D6C9E" transform="translate(129,309)"/>
<path d="M0 0 C0.33 0 0.66 0 1 0 C1.33 4.62 1.66 9.24 2 14 C1.67 14 1.34 14 1 14 C1 12.35 1 10.7 1 9 C0.34 9 -0.32 9 -1 9 C-0.67 6.03 -0.34 3.06 0 0 Z " fill="#5DC7D5" transform="translate(122,104)"/>
<path d="M0 0 C0.66 0 1.32 0 2 0 C2.98248524 4.0527516 3.08159574 7.83861737 3 12 C2.67 12 2.34 12 2 12 C2 10.35 2 8.7 2 7 C1.34 7 0.68 7 0 7 C0 4.69 0 2.38 0 0 Z " fill="#65C9D7" transform="translate(114,41)"/>
<path d="M0 0 C0 0.66 0 1.32 0 2 C-2.64 2.33 -5.28 2.66 -8 3 C-7 1 -7 1 -5.125 0.375 C-3 0 -3 0 0 0 Z " fill="#FAFAFA" transform="translate(62,288)"/>
<path d="M0 0 C2.62187494 1.04874998 3.79371361 1.64931313 5.25 4.125 C5.4975 4.74375 5.745 5.3625 6 6 C3.97945196 4.35830472 1.97956942 2.69088222 0 1 C0 0.67 0 0.34 0 0 Z " fill="#FFFFFF" transform="translate(145,11)"/>
<path d="M0 0 C-2.64 0.66 -5.28 1.32 -8 2 C-7 0 -7 0 -5.125 -0.6875 C-3 -1 -3 -1 0 0 Z " fill="#E5E5E5" transform="translate(252,343)"/>
<path d="M0 0 C0.598125 0.20625 1.19625 0.4125 1.8125 0.625 C-0.4975 0.955 -2.8075 1.285 -5.1875 1.625 C-2.1875 -0.375 -2.1875 -0.375 0 0 Z " fill="#D4D4F4" transform="translate(237.1875,92.375)"/>
<path d="M0 0 C3.875 1.75 3.875 1.75 5 4 C1.125 2.25 1.125 2.25 0 0 Z " fill="#FFFFFF" transform="translate(186,55)"/>
<path d="M0 0 C0 0.99 0 1.98 0 3 C-0.99 2.67 -1.98 2.34 -3 2 C-2.01 1.34 -1.02 0.68 0 0 Z " fill="#C8C8EC" transform="translate(224,319)"/>
<path d="M0 0 C1.98 0 3.96 0 6 0 C6 0.33 6 0.66 6 1 C4.02 1 2.04 1 0 1 C0 0.67 0 0.34 0 0 Z " fill="#DBDBDB" transform="translate(28,349)"/>
<path d="M0 0 C2.475 0.495 2.475 0.495 5 1 C4.01 1.495 4.01 1.495 3 2 C2.01 1.34 1.02 0.68 0 0 Z " fill="#D4D4D4" transform="translate(40,93)"/>
<path d="M0 0 C0 0.99 0 1.98 0 3 C-0.99 3.495 -0.99 3.495 -2 4 C-1.34 2.68 -0.68 1.36 0 0 Z " fill="#FFD4FF" transform="translate(82,61)"/>
<path d="M0 0 C0.99 0.99 1.98 1.98 3 3 C2.01 2.67 1.02 2.34 0 2 C0 1.34 0 0.68 0 0 Z " fill="#666699" transform="translate(41,348)"/>
<path d="M0 0 C0.99 0.33 1.98 0.66 3 1 C2.01 1.33 1.02 1.66 0 2 C0 1.34 0 0.68 0 0 Z " fill="#FFFFFF" transform="translate(139,227)"/>
<path d="M0 0 C1.65 0 3.3 0 5 0 C5 0.33 5 0.66 5 1 C3.35 1 1.7 1 0 1 C0 0.67 0 0.34 0 0 Z " fill="#FFFFFF" transform="translate(111,219)"/>
<path d="M0 0 C0.66 0.33 1.32 0.66 2 1 C1.01 1.66 0.02 2.32 -1 3 C-0.67 2.01 -0.34 1.02 0 0 Z " fill="#FFFFFF" transform="translate(66,78)"/>
<path d="M0 0 C4 1 4 1 4 1 Z " fill="#FFFFFF" transform="translate(15,345)"/>
<path d="M0 0 C4 1 4 1 4 1 Z " fill="#FFFFFF" transform="translate(240,343)"/>
<path d="M0 0 C0.66 0.33 1.32 0.66 2 1 C1.01 1 0.02 1 -1 1 C-0.67 0.67 -0.34 0.34 0 0 Z " fill="#FFFFFF" transform="translate(237,341)"/>
<path d="M0 0 C0.99 0.33 1.98 0.66 3 1 C2.01 1 1.02 1 0 1 C0 0.67 0 0.34 0 0 Z " fill="#FFFFFF" transform="translate(222,339)"/>
<path d="M0 0 C4 1 4 1 4 1 Z " fill="#FFFFFF" transform="translate(181,338)"/>
<path d="M0 0 C1 4 1 4 1 4 Z " fill="#FFFFFF" transform="translate(222,326)"/>
<path d="M0 0 C1 4 1 4 1 4 Z " fill="#FFFFFF" transform="translate(223,322)"/>
<path d="M0 0 C0.66 0.33 1.32 0.66 2 1 C1.01 1 0.02 1 -1 1 C-0.67 0.67 -0.34 0.34 0 0 Z " fill="#E9E9FF" transform="translate(212,298)"/>
<path d="M0 0 C0 3 0 3 0 3 Z " fill="#FFFFFF" transform="translate(75,272)"/>
<path d="M0 0 C4 1 4 1 4 1 Z " fill="#BFBFBF" transform="translate(116,220)"/>
<path d="M0 0 C0.99 0.495 0.99 0.495 2 1 C1.67 1.66 1.34 2.32 1 3 C0.67 2.01 0.34 1.02 0 0 Z " fill="#BFFFFF" transform="translate(75,151)"/>
<path d="M0 0 C0.66 0.33 1.32 0.66 2 1 C1.01 1 0.02 1 -1 1 C-0.67 0.67 -0.34 0.34 0 0 Z " fill="#FFFFFF" transform="translate(230,94)"/>
<path d="M0 0 C3 1 3 1 3 1 Z " fill="#FFFFFF" transform="translate(83,362)"/>
<path d="M0 0 C3 1 3 1 3 1 Z " fill="#FFFFFF" transform="translate(78,362)"/>
<path d="M0 0 C3 1 3 1 3 1 Z " fill="#FFFFFF" transform="translate(230,344)"/>
<path d="M0 0 C3 1 3 1 3 1 Z " fill="#FFFFFF" transform="translate(12,344)"/>
<path d="M0 0 C3 1 3 1 3 1 Z " fill="#FFFFFF" transform="translate(233,343)"/>
<path d="M0 0 C3 1 3 1 3 1 Z " fill="#FFFFFF" transform="translate(227,343)"/>
<path d="M0 0 C3 1 3 1 3 1 Z " fill="#FFFFFF" transform="translate(197,334)"/>
<path d="" fill="#D4D4D4" transform="translate(0,0)"/>
<path d="M0 0 C3 1 3 1 3 1 Z " fill="#FFFFFF" transform="translate(81,312)"/>
<path d="M0 0 C0.33 0.66 0.66 1.32 1 2 C0.34 1.67 -0.32 1.34 -1 1 C-0.67 0.67 -0.34 0.34 0 0 Z " fill="#D4D4D4" transform="translate(200,303)"/>
<path d="" fill="#FFFFFF" transform="translate(0,0)"/>
<path d="M0 0 C0.66 0 1.32 0 2 0 C1.67 0.66 1.34 1.32 1 2 C0.67 1.34 0.34 0.68 0 0 Z " fill="#EEEEFF" transform="translate(134,227)"/>
<path d="M0 0 C3 1 3 1 3 1 Z " fill="#FFFFFF" transform="translate(37,92)"/>
<path d="M0 0 C0.66 0 1.32 0 2 0 C1.67 0.66 1.34 1.32 1 2 C0.67 1.34 0.34 0.68 0 0 Z " fill="#AAFFFF" transform="translate(208,78)"/>
<path d="M0 0 C0.33 0.66 0.66 1.32 1 2 C0.34 1.67 -0.32 1.34 -1 1 C-0.67 0.67 -0.34 0.34 0 0 Z " fill="#FFFFFF" transform="translate(84,59)"/>
<path d="M0 0 C0.99 0.495 0.99 0.495 2 1 C1.01 1.495 1.01 1.495 0 2 C0 1.34 0 0.68 0 0 Z " fill="#AAFFFF" transform="translate(94,48)"/>
<path d="M0 0 C2 1 2 1 2 1 Z " fill="#FFFFFF" transform="translate(81,363)"/>
<path d="M0 0 C2 1 2 1 2 1 Z " fill="#FFFFFF" transform="translate(86,361)"/>
<path d="M0 0 C2 1 2 1 2 1 Z " fill="#FFFFFF" transform="translate(75,360)"/>
<path d="M0 0 C2 1 2 1 2 1 Z " fill="#FFFFFF" transform="translate(50,356)"/>
<path d="" fill="#FFFFFF" transform="translate(0,0)"/>
<path d="" fill="#FFFFFF" transform="translate(0,0)"/>
<path d="M0 0 C2 1 2 1 2 1 Z " fill="#FFFFFF" transform="translate(111,349)"/>
<path d="" fill="#FFFFFF" transform="translate(0,0)"/>
<path d="M0 0 C2 1 2 1 2 1 Z " fill="#FFFFFF" transform="translate(252,341)"/>
<path d="M0 0 C2 1 2 1 2 1 Z " fill="#FFFFFF" transform="translate(195,335)"/>
<path d="M0 0 C2 1 2 1 2 1 Z " fill="#FFFFFF" transform="translate(200,333)"/>
<path d="M0 0 C2 1 2 1 2 1 Z " fill="#BFBFBF" transform="translate(202,332)"/>
<path d="M0 0 C2 1 2 1 2 1 Z " fill="#FFFFFF" transform="translate(207,329)"/>
<path d="M0 0 C2 1 2 1 2 1 Z " fill="#FFFFFF" transform="translate(209,328)"/>
<path d="M0 0 C2 1 2 1 2 1 Z " fill="#FFFFFF" transform="translate(218,323)"/>
<path d="M0 0 C2 1 2 1 2 1 Z " fill="#FFFFFF" transform="translate(16,321)"/>
<path d="" fill="#FFFFFF" transform="translate(0,0)"/>
<path d="M0 0 C2 1 2 1 2 1 Z " fill="#FFFFFF" transform="translate(183,307)"/>
<path d="M0 0 C2 1 2 1 2 1 Z " fill="#FFFFFF" transform="translate(194,306)"/>
<path d="" fill="#7F7F7F" transform="translate(0,0)"/>
<path d="M0 0 C2 1 2 1 2 1 Z " fill="#FFFFFF" transform="translate(207,301)"/>
<path d="M0 0 C2 1 2 1 2 1 Z " fill="#FFFFFF" transform="translate(209,300)"/>
<path d="M0 0 C2 1 2 1 2 1 Z " fill="#DFDFFF" transform="translate(30,298)"/>
<path d="M0 0 C2 1 2 1 2 1 Z " fill="#FFFFFF" transform="translate(257,297)"/>
<path d="M0 0 C2 1 2 1 2 1 Z " fill="#FFFFFF" transform="translate(214,297)"/>
<path d="M0 0 C2 1 2 1 2 1 Z " fill="#7F7F7F" transform="translate(217,295)"/>
<path d="M0 0 C2 1 2 1 2 1 Z " fill="#FFFFFF" transform="translate(218,290)"/>
<path d="" fill="#FFFFFF" transform="translate(0,0)"/>
<path d="" fill="#FFFFFF" transform="translate(0,0)"/>
<path d="M0 0 C2 1 2 1 2 1 Z " fill="#FFFFFF" transform="translate(239,275)"/>
<path d="M0 0 C2 1 2 1 2 1 Z " fill="#FFFFFF" transform="translate(21,267)"/>
<path d="" fill="#FFFFFF" transform="translate(0,0)"/>
<path d="" fill="#FFFFFF" transform="translate(0,0)"/>
<path d="" fill="#FFFFFF" transform="translate(0,0)"/>
<path d="" fill="#FFFFFF" transform="translate(0,0)"/>
<path d="" fill="#FFFFFF" transform="translate(0,0)"/>
<path d="" fill="#FFFFFF" transform="translate(0,0)"/>
<path d="" fill="#BFBFBF" transform="translate(0,0)"/>
<path d="M0 0 C2 1 2 1 2 1 Z " fill="#FFFFFF" transform="translate(48,97)"/>
<path d="M0 0 C2 1 2 1 2 1 Z " fill="#FFFFFF" transform="translate(262,92)"/>
<path d="M0 0 C2 1 2 1 2 1 Z " fill="#FFFFFF" transform="translate(11,92)"/>
<path d="" fill="#FFFFFF" transform="translate(0,0)"/>
<path d="M0 0 C2 1 2 1 2 1 Z " fill="#FFFFFF" transform="translate(130,10)"/>
<path d="M0 0 C2 1 2 1 2 1 Z " fill="#FFFFFF" transform="translate(132,9)"/>
<path d="" fill="#FFFFFF" transform="translate(0,0)"/>
<path d="" fill="#FFFFFF" transform="translate(0,0)"/>
<path d="" fill="#FFFFFF" transform="translate(0,0)"/>
<path d="" fill="#FFFFFF" transform="translate(0,0)"/>
<path d="" fill="#FFFFFF" transform="translate(0,0)"/>
<path d="" fill="#FFFFFF" transform="translate(0,0)"/>
<path d="" fill="#FFFFFF" transform="translate(0,0)"/>
<path d="" fill="#FFFFFF" transform="translate(0,0)"/>
<path d="" fill="#FFFFFF" transform="translate(0,0)"/>
<path d="" fill="#FFFFFF" transform="translate(0,0)"/>
<path d="" fill="#FFFFFF" transform="translate(0,0)"/>
<path d="" fill="#FFFFFF" transform="translate(0,0)"/>
<path d="" fill="#FFFFFF" transform="translate(0,0)"/>
<path d="" fill="#FFFFFF" transform="translate(0,0)"/>
<path d="" fill="#FFFFFF" transform="translate(0,0)"/>
<path d="" fill="#FFFFFF" transform="translate(0,0)"/>
<path d="" fill="#FFFFFF" transform="translate(0,0)"/>
<path d="" fill="#FFFFFF" transform="translate(0,0)"/>
<path d="" fill="#FFFFFF" transform="translate(0,0)"/>
<path d="" fill="#FFFFFF" transform="translate(0,0)"/>
<path d="" fill="#AAAAAA" transform="translate(0,0)"/>
<path d="" fill="#AAAAFF" transform="translate(0,0)"/>
<path d="" fill="#FFFFFF" transform="translate(0,0)"/>
<path d="" fill="#FFFFFF" transform="translate(0,0)"/>
<path d="" fill="#FFFFFF" transform="translate(0,0)"/>
<path d="" fill="#FFFFFF" transform="translate(0,0)"/>
<path d="" fill="#000000" transform="translate(0,0)"/>
<path d="" fill="#7F7F7F" transform="translate(0,0)"/>
<path d="" fill="#FFFFFF" transform="translate(0,0)"/>
<path d="" fill="#FFFFFF" transform="translate(0,0)"/>
<path d="" fill="#FFFFFF" transform="translate(0,0)"/>
<path d="" fill="#FFFFFF" transform="translate(0,0)"/>
<path d="" fill="#FFFFFF" transform="translate(0,0)"/>
<path d="" fill="#FFFFFF" transform="translate(0,0)"/>
<path d="" fill="#FFFFFF" transform="translate(0,0)"/>
<path d="" fill="#FFFFFF" transform="translate(0,0)"/>
<path d="" fill="#FFFFFF" transform="translate(0,0)"/>
<path d="" fill="#FFFFFF" transform="translate(0,0)"/>
<path d="" fill="#FFFFFF" transform="translate(0,0)"/>
<path d="" fill="#FFFFFF" transform="translate(0,0)"/>
<path d="" fill="#0000FF" transform="translate(0,0)"/>
<path d="" fill="#FFFFFF" transform="translate(0,0)"/>
<path d="" fill="#FFFFFF" transform="translate(0,0)"/>
<path d="" fill="#FFFFFF" transform="translate(0,0)"/>
<path d="" fill="#FFFFFF" transform="translate(0,0)"/>
<path d="" fill="#FFFFFF" transform="translate(0,0)"/>
<path d="" fill="#FFFFFF" transform="translate(0,0)"/>
<path d="" fill="#FFFFFF" transform="translate(0,0)"/>
<path d="" fill="#FFFFFF" transform="translate(0,0)"/>
<path d="" fill="#FFFFFF" transform="translate(0,0)"/>
<path d="" fill="#FFFFFF" transform="translate(0,0)"/>
<path d="" fill="#FFFFFF" transform="translate(0,0)"/>
<path d="" fill="#FFFFFF" transform="translate(0,0)"/>
<path d="" fill="#FFFFFF" transform="translate(0,0)"/>
<path d="" fill="#FFFFFF" transform="translate(0,0)"/>
<path d="" fill="#FFFFFF" transform="translate(0,0)"/>
<path d="" fill="#FFFFFF" transform="translate(0,0)"/>
<path d="" fill="#FFFFFF" transform="translate(0,0)"/>
<path d="" fill="#FFFFFF" transform="translate(0,0)"/>
<path d="" fill="#FFFFFF" transform="translate(0,0)"/>
<path d="" fill="#FFFFFF" transform="translate(0,0)"/>
<path d="" fill="#FFFFFF" transform="translate(0,0)"/>
<path d="" fill="#FFFFFF" transform="translate(0,0)"/>
<path d="" fill="#7F7F7F" transform="translate(0,0)"/>
<path d="" fill="#7F7FFF" transform="translate(0,0)"/>
<path d="" fill="#FFFFFF" transform="translate(0,0)"/>
<path d="" fill="#FFFFFF" transform="translate(0,0)"/>
<path d="" fill="#FFFFFF" transform="translate(0,0)"/>
<path d="" fill="#FFFFFF" transform="translate(0,0)"/>
<path d="" fill="#FFFFFF" transform="translate(0,0)"/>
<path d="" fill="#FFFFFF" transform="translate(0,0)"/>
<path d="" fill="#FFFFFF" transform="translate(0,0)"/>
<path d="" fill="#FFFFFF" transform="translate(0,0)"/>
<path d="" fill="#FFFFFF" transform="translate(0,0)"/>
<path d="" fill="#FFFFFF" transform="translate(0,0)"/>
<path d="" fill="#FFFFFF" transform="translate(0,0)"/>
<path d="" fill="#FFFFFF" transform="translate(0,0)"/>
<path d="" fill="#FFFFFF" transform="translate(0,0)"/>
<path d="" fill="#FFFFFF" transform="translate(0,0)"/>
<path d="" fill="#FFFFFF" transform="translate(0,0)"/>
<path d="" fill="#FFFFFF" transform="translate(0,0)"/>
<path d="" fill="#FFFFFF" transform="translate(0,0)"/>
<path d="" fill="#FFFFFF" transform="translate(0,0)"/>
<path d="" fill="#FFFFFF" transform="translate(0,0)"/>
<path d="" fill="#FFFFFF" transform="translate(0,0)"/>
<path d="" fill="#FFFFFF" transform="translate(0,0)"/>
<path d="" fill="#FFFFFF" transform="translate(0,0)"/>
<path d="" fill="#FFFFFF" transform="translate(0,0)"/>
<path d="" fill="#FFFFFF" transform="translate(0,0)"/>
<path d="" fill="#FFFFFF" transform="translate(0,0)"/>
<path d="" fill="#FFFFFF" transform="translate(0,0)"/>
<path d="" fill="#FFFFFF" transform="translate(0,0)"/>
<path d="" fill="#FFFFFF" transform="translate(0,0)"/>
<path d="" fill="#FFFFFF" transform="translate(0,0)"/>
<path d="" fill="#AAAAAA" transform="translate(0,0)"/>
<path d="" fill="#FFFFFF" transform="translate(0,0)"/>
<path d="" fill="#FFFFFF" transform="translate(0,0)"/>
<path d="" fill="#FFFFFF" transform="translate(0,0)"/>
<path d="" fill="#FFFFFF" transform="translate(0,0)"/>
<path d="" fill="#AAAAAA" transform="translate(0,0)"/>
<path d="" fill="#FFFFFF" transform="translate(0,0)"/>
<path d="" fill="#FFFFFF" transform="translate(0,0)"/>
<path d="" fill="#FFFFFF" transform="translate(0,0)"/>
<path d="" fill="#FFFFFF" transform="translate(0,0)"/>
<path d="" fill="#FFFFFF" transform="translate(0,0)"/>
<path d="" fill="#FFFFFF" transform="translate(0,0)"/>
<path d="" fill="#FFFFFF" transform="translate(0,0)"/>
<path d="" fill="#FFFFFF" transform="translate(0,0)"/>
<path d="" fill="#FFFFFF" transform="translate(0,0)"/>
<path d="" fill="#FFFFFF" transform="translate(0,0)"/>
<path d="" fill="#FFFFFF" transform="translate(0,0)"/>
<path d="" fill="#FFFFFF" transform="translate(0,0)"/>
<path d="" fill="#FFFFFF" transform="translate(0,0)"/>
<path d="" fill="#FFFFFF" transform="translate(0,0)"/>
<path d="" fill="#FFFFFF" transform="translate(0,0)"/>
<path d="" fill="#FFFFFF" transform="translate(0,0)"/>
<path d="" fill="#FFFFFF" transform="translate(0,0)"/>
<path d="" fill="#FFFFFF" transform="translate(0,0)"/>
<path d="" fill="#FFFFFF" transform="translate(0,0)"/>
<path d="" fill="#FFFFFF" transform="translate(0,0)"/>
<path d="" fill="#FFFFFF" transform="translate(0,0)"/>
<path d="" fill="#FFFFFF" transform="translate(0,0)"/>
<path d="" fill="#FFFFFF" transform="translate(0,0)"/>
<path d="" fill="#FFFFFF" transform="translate(0,0)"/>
<path d="" fill="#FFFFFF" transform="translate(0,0)"/>
<path d="" fill="#FFFFFF" transform="translate(0,0)"/>
<path d="" fill="#7F7FFF" transform="translate(0,0)"/>
<path d="" fill="#FFFFFF" transform="translate(0,0)"/>
<path d="" fill="#FFFFFF" transform="translate(0,0)"/>
<path d="" fill="#FFFFFF" transform="translate(0,0)"/>
<path d="" fill="#FFFFFF" transform="translate(0,0)"/>
<path d="" fill="#FFFFFF" transform="translate(0,0)"/>
<path d="" fill="#FFFFFF" transform="translate(0,0)"/>
<path d="" fill="#FFFFFF" transform="translate(0,0)"/>
<path d="" fill="#FFFFFF" transform="translate(0,0)"/>
<path d="" fill="#FFFFFF" transform="translate(0,0)"/>
<path d="" fill="#CCCCFF" transform="translate(0,0)"/>
<path d="" fill="#7F7F7F" transform="translate(0,0)"/>
<path d="" fill="#FFFFFF" transform="translate(0,0)"/>
<path d="" fill="#FFFFFF" transform="translate(0,0)"/>
<path d="" fill="#FFFFFF" transform="translate(0,0)"/>
<path d="" fill="#FFFFFF" transform="translate(0,0)"/>
<path d="" fill="#FFFFFF" transform="translate(0,0)"/>
<path d="" fill="#FFFFFF" transform="translate(0,0)"/>
<path d="" fill="#FFFFFF" transform="translate(0,0)"/>
<path d="" fill="#FFFFFF" transform="translate(0,0)"/>
<path d="" fill="#FFFFFF" transform="translate(0,0)"/>
<path d="" fill="#FFFFFF" transform="translate(0,0)"/>
<path d="" fill="#FFFFFF" transform="translate(0,0)"/>
<path d="" fill="#FFFFFF" transform="translate(0,0)"/>
<path d="" fill="#FFFFFF" transform="translate(0,0)"/>
<path d="" fill="#FFFFFF" transform="translate(0,0)"/>
<path d="" fill="#FFFFFF" transform="translate(0,0)"/>
<path d="" fill="#FFFFFF" transform="translate(0,0)"/>
<path d="" fill="#FFFFFF" transform="translate(0,0)"/>
<path d="" fill="#FFFFFF" transform="translate(0,0)"/>
<path d="" fill="#FFFFFF" transform="translate(0,0)"/>
<path d="" fill="#FFFFFF" transform="translate(0,0)"/>
<path d="" fill="#FFFFFF" transform="translate(0,0)"/>
<path d="" fill="#FFFFFF" transform="translate(0,0)"/>
<path d="" fill="#FFFFFF" transform="translate(0,0)"/>
<path d="" fill="#FFFFFF" transform="translate(0,0)"/>
<path d="" fill="#FFFFFF" transform="translate(0,0)"/>
<path d="" fill="#FFFFFF" transform="translate(0,0)"/>
<path d="" fill="#FFFFFF" transform="translate(0,0)"/>
<path d="" fill="#FFFFFF" transform="translate(0,0)"/>
<path d="" fill="#FFFFFF" transform="translate(0,0)"/>
<path d="" fill="#FFFFFF" transform="translate(0,0)"/>
<path d="" fill="#FFFFFF" transform="translate(0,0)"/>
<path d="" fill="#FFFFFF" transform="translate(0,0)"/>
<path d="" fill="#FFFFFF" transform="translate(0,0)"/>
<path d="" fill="#FFFFFF" transform="translate(0,0)"/>
<path d="" fill="#FFFFFF" transform="translate(0,0)"/>
<path d="" fill="#FFFFFF" transform="translate(0,0)"/>
<path d="" fill="#FFFFFF" transform="translate(0,0)"/>
<path d="" fill="#FFFFFF" transform="translate(0,0)"/>
<path d="" fill="#FFFFFF" transform="translate(0,0)"/>
<path d="" fill="#FFFFFF" transform="translate(0,0)"/>
<path d="" fill="#FFFFFF" transform="translate(0,0)"/>
<path d="" fill="#FFFFFF" transform="translate(0,0)"/>
<path d="" fill="#FFFFFF" transform="translate(0,0)"/>
<path d="" fill="#FFFFFF" transform="translate(0,0)"/>
<path d="" fill="#FFFFFF" transform="translate(0,0)"/>
<path d="" fill="#AAAAAA" transform="translate(0,0)"/>
<path d="" fill="#FFFFFF" transform="translate(0,0)"/>
<path d="" fill="#FFFFFF" transform="translate(0,0)"/>
<path d="" fill="#FFFFFF" transform="translate(0,0)"/>
<path d="" fill="#FFFFFF" transform="translate(0,0)"/>
<path d="" fill="#FFFFFF" transform="translate(0,0)"/>
<path d="" fill="#FFFFFF" transform="translate(0,0)"/>
<path d="" fill="#FFFFFF" transform="translate(0,0)"/>
<path d="" fill="#FFFFFF" transform="translate(0,0)"/>
<path d="" fill="#FFFFFF" transform="translate(0,0)"/>
<path d="" fill="#FFFFFF" transform="translate(0,0)"/>
<path d="" fill="#FFFFFF" transform="translate(0,0)"/>
<path d="" fill="#FFFFFF" transform="translate(0,0)"/>
<path d="" fill="#AAAAFF" transform="translate(0,0)"/>
<path d="" fill="#BFFFFF" transform="translate(0,0)"/>
<path d="" fill="#FFFFFF" transform="translate(0,0)"/>
<path d="" fill="#FFFFFF" transform="translate(0,0)"/>
<path d="" fill="#FFFFFF" transform="translate(0,0)"/>
<path d="" fill="#FFFFFF" transform="translate(0,0)"/>
<path d="" fill="#FFFFFF" transform="translate(0,0)"/>
<path d="" fill="#FFFFFF" transform="translate(0,0)"/>
<path d="" fill="#FFFFFF" transform="translate(0,0)"/>
<path d="" fill="#FFFFFF" transform="translate(0,0)"/>
<path d="" fill="#FFFFFF" transform="translate(0,0)"/>
<path d="" fill="#FFFFFF" transform="translate(0,0)"/>
<path d="" fill="#FFFFFF" transform="translate(0,0)"/>
<path d="" fill="#FFFFFF" transform="translate(0,0)"/>
<path d="" fill="#00FFFF" transform="translate(0,0)"/>
<path d="" fill="#FFFFFF" transform="translate(0,0)"/>
<path d="" fill="#FFFFFF" transform="translate(0,0)"/>
<path d="" fill="#FFFFFF" transform="translate(0,0)"/>
<path d="" fill="#FFFFFF" transform="translate(0,0)"/>
<path d="" fill="#FFFFFF" transform="translate(0,0)"/>
<path d="" fill="#FFFFFF" transform="translate(0,0)"/>
<path d="" fill="#FFFFFF" transform="translate(0,0)"/>
<path d="" fill="#FFFFFF" transform="translate(0,0)"/>
<path d="" fill="#FFFFFF" transform="translate(0,0)"/>
<path d="" fill="#FFFFFF" transform="translate(0,0)"/>
<path d="" fill="#AAFFFF" transform="translate(0,0)"/>
<path d="" fill="#BFBFBF" transform="translate(0,0)"/>
<path d="" fill="#FFFFFF" transform="translate(0,0)"/>
<path d="" fill="#FFFFFF" transform="translate(0,0)"/>
<path d="" fill="#FFFFFF" transform="translate(0,0)"/>
<path d="" fill="#FFFFFF" transform="translate(0,0)"/>
<path d="" fill="#FFFFFF" transform="translate(0,0)"/>
<path d="" fill="#FFFFFF" transform="translate(0,0)"/>
<path d="" fill="#FFFFFF" transform="translate(0,0)"/>
<path d="" fill="#FFFFFF" transform="translate(0,0)"/>
<path d="" fill="#FFFFFF" transform="translate(0,0)"/>
<path d="" fill="#FFFFFF" transform="translate(0,0)"/>
<path d="" fill="#FFFFFF" transform="translate(0,0)"/>
<path d="" fill="#FFFFFF" transform="translate(0,0)"/>
<path d="" fill="#FFFFFF" transform="translate(0,0)"/>
<path d="" fill="#FFFFFF" transform="translate(0,0)"/>
<path d="" fill="#FFFFFF" transform="translate(0,0)"/>
<path d="" fill="#CCFFFF" transform="translate(0,0)"/>
<path d="" fill="#BFFFFF" transform="translate(0,0)"/>
<path d="" fill="#FFFFFF" transform="translate(0,0)"/>
<path d="" fill="#FFFFFF" transform="translate(0,0)"/>
<path d="" fill="#FFFFFF" transform="translate(0,0)"/>
<path d="" fill="#FFFFFF" transform="translate(0,0)"/>
<path d="" fill="#FFFFFF" transform="translate(0,0)"/>
<path d="" fill="#FFFFFF" transform="translate(0,0)"/>
<path d="" fill="#FFFFFF" transform="translate(0,0)"/>
<path d="" fill="#FFFFFF" transform="translate(0,0)"/>
<path d="" fill="#FFFFFF" transform="translate(0,0)"/>
<path d="" fill="#AAAAAA" transform="translate(0,0)"/>
<path d="" fill="#FFFFFF" transform="translate(0,0)"/>
<path d="" fill="#FFFFFF" transform="translate(0,0)"/>
<path d="" fill="#FFFFFF" transform="translate(0,0)"/>
<path d="" fill="#FFFFFF" transform="translate(0,0)"/>
<path d="" fill="#FFFFFF" transform="translate(0,0)"/>
<path d="" fill="#FFFFFF" transform="translate(0,0)"/>
<path d="" fill="#FFFFFF" transform="translate(0,0)"/>
<path d="" fill="#FFFFFF" transform="translate(0,0)"/>
<path d="" fill="#FFFFFF" transform="translate(0,0)"/>
</svg>
