<?xml version="1.0" encoding="UTF-8"?><svg xmlns="http://www.w3.org/2000/svg" viewBox="0 0 438.69 289.76"><defs><style>.d{fill:#1d1d1b;}</style></defs><g id="a"/><g id="b"><g id="c"><g><polygon class="d" points="438.69 0 148.94 0 148.94 58.2 352.9 144.88 148.94 231.56 148.94 289.76 438.69 289.76 438.69 230.25 301.93 230.25 438.69 172.13 438.69 117.63 301.94 59.52 438.69 59.52 438.69 0"/><polygon class="d" points="107.99 111.89 103.1 105.73 19.11 0 0 0 0 6.67 0 144.88 19.11 144.88 19.11 30.72 19.68 31.44 107.99 142.6 107.99 142.61 109.79 144.88 127.1 144.88 127.1 0 107.99 0 107.99 111.89"/></g></g></g></svg>