<?xml version="1.0" encoding="UTF-8"?>
<svg version="1.1" xmlns="http://www.w3.org/2000/svg" width="207" height="244">
<path d="M0 0 C68.31 0 136.62 0 207 0 C207 80.52 207 161.04 207 244 C138.69 244 70.38 244 0 244 C0 163.48 0 82.96 0 0 Z " fill="#030303" transform="translate(0,0)"/>
<path d="M0 0 C68.31 0 136.62 0 207 0 C207 0.66 207 1.32 207 2 C205.76638229 2.00364563 204.53276459 2.00729126 203.26176453 2.01104736 C191.65150161 2.04794498 180.04150522 2.10566015 168.43144512 2.18390274 C162.46217923 2.22345784 156.49306263 2.25560689 150.52368164 2.27099609 C144.76580708 2.28610976 139.00834277 2.32046099 133.25065041 2.36830902 C131.05099866 2.38317753 128.85128837 2.39104413 126.65158653 2.39188385 C123.57676524 2.39423881 120.50309136 2.42119979 117.4284668 2.45410156 C116.51352951 2.4490712 115.59859222 2.44404083 114.65592957 2.43885803 C109.77139406 2.37655462 109.77139406 2.37655462 105.91072083 5.03411865 C105.61018295 5.6828595 105.30964508 6.33160034 105 7 C102.53199953 5.84826645 100.95216435 4.95216435 99 3 C95.89756034 2.7818853 92.88185176 2.68852972 89.77685547 2.68115234 C88.8207135 2.67110672 87.86457153 2.6610611 86.87945557 2.65071106 C83.70870585 2.6197392 80.53804109 2.6028051 77.3671875 2.5859375 C75.17285423 2.56723711 72.97852822 2.54766456 70.78421021 2.5272522 C65.00071491 2.4758057 59.21719627 2.43624709 53.43359375 2.39910889 C47.5350969 2.35914754 41.63669822 2.3080194 35.73828125 2.2578125 C24.158923 2.16090507 12.57950948 2.07654787 1 2 C1.03728799 20.25556931 1.0973258 38.51091859 1.18390274 56.76632023 C1.22358737 65.24403736 1.25603326 73.72166309 1.27099609 82.19946289 C1.28406778 89.59507819 1.31117171 96.99049147 1.35461307 104.38599294 C1.37710487 108.29613053 1.39291815 112.2060201 1.39188385 116.1162281 C1.39112988 119.80917437 1.40937069 123.50157501 1.44116783 127.19437981 C1.45352803 129.17027882 1.44666069 131.14627011 1.43885803 133.12219238 C1.57587615 145.09216032 3.65045993 158.15061637 11 168 C11.66 168.33 12.32 168.66 13 169 C13.391875 169.721875 13.78375 170.44375 14.1875 171.1875 C20.0261374 180.24745458 30.14517868 183.71505956 40 187 C41.33451263 187.11235161 42.67354389 187.17575649 44.01245117 187.20532227 C44.81305466 187.22526749 45.61365814 187.24521271 46.43852234 187.26576233 C47.29798965 187.28247482 48.15745697 187.29918732 49.04296875 187.31640625 C49.9265657 187.33718735 50.81016266 187.35796844 51.72053528 187.37937927 C54.54277785 187.44475754 57.36511335 187.50370528 60.1875 187.5625 C62.10092106 187.60569637 64.01433273 187.64931102 65.92773438 187.69335938 C70.61839437 187.80042695 75.30914783 187.90172752 80 188 C80 191.3 80 194.6 80 198 C86.93 198 93.86 198 101 198 C100.896875 194.968125 100.79375 191.93625 100.6875 188.8125 C100.66260498 187.86608643 100.63770996 186.91967285 100.61206055 185.94458008 C100.40141955 181.1162374 99.91482092 178.02448465 97 174 C97 173.34 97 172.68 97 172 C96.443125 171.7525 95.88625 171.505 95.3125 171.25 C93 170 93 170 90.99511719 167.95117188 C86.64144624 165.11496889 82.85453099 165.47075109 77.765625 165.53125 C76.77302673 165.52420044 75.78042847 165.51715088 74.75775146 165.5098877 C70.52423605 165.48046924 66.29118336 165.49697423 62.05761719 165.50927734 C58.96001144 165.51167117 55.86313934 165.49066446 52.765625 165.46875 C51.34953949 165.48572937 51.34953949 165.48572937 49.90484619 165.50305176 C42.3717859 165.44633019 36.21109272 163.78458117 30.44140625 158.78125 C29.82136719 158.0284375 29.20132812 157.275625 28.5625 156.5 C27.60537109 155.37078125 27.60537109 155.37078125 26.62890625 154.21875 C25 152 25 152 23.90234375 149.78125 C23.12924622 147.81637631 23.12924622 147.81637631 21 147 C18.82939485 139.6985986 18.71855214 132.11461918 18.77294922 124.56176758 C18.77265717 123.47751495 18.77236511 122.39326233 18.77206421 121.27615356 C18.7734451 117.73219484 18.78894747 114.18845274 18.8046875 110.64453125 C18.80842204 108.1716066 18.81126693 105.69868045 18.81326294 103.22575378 C18.82086463 96.74689582 18.84048315 90.26812888 18.8626709 83.78930664 C18.88320422 77.16619091 18.89228062 70.54306033 18.90234375 63.91992188 C18.92373248 50.94657597 18.95743667 37.97329285 19 25 C28.33575505 24.90738432 37.67135236 24.83627822 47.00746632 24.79275131 C51.34246338 24.77186217 55.67714652 24.74352081 60.01196289 24.69824219 C64.19409463 24.654831 68.37592414 24.63087289 72.55826378 24.62049103 C74.1551254 24.61309108 75.75197018 24.59864078 77.34870338 24.57707977 C79.58285088 24.54810715 81.81574419 24.5440412 84.05004883 24.54589844 C85.95866447 24.53257477 85.95866447 24.53257477 87.90583801 24.51898193 C91 25 91 25 92.8914032 26.7822876 C94.81468898 30.62975922 94.8746583 33.89815418 94 38 C89.91750049 48.00693482 82.28211351 55.14366816 74.52392578 62.38061523 C67.92546718 68.63383028 62.35173792 75.60501486 60.1875 84.625 C59.96835937 85.53121094 59.74921875 86.43742187 59.5234375 87.37109375 C58.81844819 90.91182364 58.33907527 94.40580216 58 98 C56.72125 98.061875 55.4425 98.12375 54.125 98.1875 C44.94447782 99.26671499 38.03861242 103.9437157 31.8515625 110.64453125 C26.91844634 116.92020434 26.72676817 123.32932059 26.5625 131.0625 C26.53986084 131.81845459 26.51722168 132.57440918 26.49389648 133.35327148 C26.523783 140.0544108 28.5421545 145.08259935 32.859375 150.20703125 C33.48328125 150.73683594 34.1071875 151.26664063 34.75 151.8125 C35.67039062 152.62654297 35.67039062 152.62654297 36.609375 153.45703125 C42.99426019 157.57799473 48.98244404 158.44721471 56.390625 158.4765625 C57.69117828 158.49993179 57.69117828 158.49993179 59.01800537 158.52377319 C61.76199541 158.57092132 64.50573593 158.5989377 67.25 158.625 C70.00837035 158.66158571 72.76660219 158.70224076 75.52484131 158.74765015 C77.23427163 158.77471337 78.94380308 158.79613462 80.65338135 158.81118774 C81.42808777 158.82144989 82.20279419 158.83171204 83.00097656 158.84228516 C83.67856018 158.84878082 84.3561438 158.85527649 85.05426025 158.86196899 C87.13096074 159.00929037 88.99847334 159.43942874 91 160 C91 160.66 91 161.32 91 162 C91.680625 162.061875 92.36125 162.12375 93.0625 162.1875 C96.52757436 163.14592482 98.52711236 164.75938724 101.25390625 167.0390625 C102.97541368 168.20592669 102.97541368 168.20592669 105.078125 167.76171875 C107.17484672 167.04537753 107.17484672 167.04537753 109.1875 165.1875 C115.9960157 159.89198779 122.4829687 158.42472982 130.96875 158.56640625 C132.85807375 158.55680334 134.74739665 158.54703262 136.63671875 158.53710938 C139.57252549 158.54570222 142.50811271 158.56256123 145.44384766 158.5847168 C148.30674111 158.59932095 151.16839934 158.58393333 154.03125 158.56640625 C155.33008118 158.59112755 155.33008118 158.59112755 156.65515137 158.61634827 C163.71420594 158.55917071 169.27960291 156.36041625 174.55822754 151.59254456 C180.25702259 145.24123034 182.38392233 137.46202822 182.2734375 129.109375 C181.44953237 119.74039666 177.96022774 112.28901081 171 106 C164.62027681 100.68129687 159.09851336 98.82357763 151 98 C150.88785156 97.05253906 150.88785156 97.05253906 150.7734375 96.0859375 C149.05314765 84.38122029 144.9910495 74.09220662 136.5390625 65.671875 C135 64 135 64 135 62 C134.360625 61.731875 133.72125 61.46375 133.0625 61.1875 C131 60 131 60 130 57 C129.34 56.67 128.68 56.34 128 56 C126 55 126 55 125 52 C124.34 52 123.68 52 123 52 C117.99671416 46.6343592 113.95624432 40.27929907 113.625 32.8125 C114.01477575 28.84977985 114.16391369 27.65675172 117 25 C120.09416199 24.51898193 120.09416199 24.51898193 123.94995117 24.54589844 C125.00399391 24.54502228 125.00399391 24.54502228 126.07933044 24.54412842 C128.40104649 24.5469143 130.72147715 24.57802743 133.04296875 24.609375 C134.65293171 24.61683566 136.26290375 24.62252942 137.87287903 24.62652588 C142.10966071 24.64179616 146.3458936 24.68108944 150.5824585 24.7253418 C154.90580826 24.76626477 159.22924674 24.7845305 163.55273438 24.8046875 C172.03540806 24.84758283 180.51763576 24.91585041 189 25 C189.16375145 40.50769243 189.28707309 56.01531991 189.3626852 71.52367401 C189.39873171 78.7250616 189.44784705 85.92591104 189.52807617 93.12695312 C189.59799675 99.40575166 189.64304263 105.68416036 189.65861946 111.96333742 C189.66772106 115.28632941 189.69271197 118.60795075 189.7401104 121.9306488 C189.79100416 125.64649278 189.79791996 129.36003487 189.79467773 133.07617188 C189.83242813 134.7161615 189.83242813 134.7161615 189.87094116 136.38928223 C189.80711424 143.15954474 188.58021971 146.65095096 183.71617222 151.43573761 C183.14983539 151.9519442 182.58349855 152.46815079 182 153 C180.92105469 154.18335938 180.92105469 154.18335938 179.8203125 155.390625 C178.67782102 156.64368017 177.53190866 157.89362378 176.3828125 159.140625 C174.90129372 161.1327237 174.52554005 162.6062178 174 165 C173.34346939 164.9969838 172.68693878 164.99396759 172.01051331 164.99085999 C165.14752387 164.96620645 158.28592183 164.99054415 151.4230957 165.04272461 C148.86551199 165.05582549 146.30783346 165.05663444 143.75024414 165.04467773 C140.0630247 165.02961029 136.3784126 165.05944025 132.69140625 165.09765625 C131.55667374 165.08340103 130.42194122 165.06914581 129.25282288 165.05445862 C121.23668656 165.19907626 116.60191864 167.21840524 111 173 C107.45407344 177.95195159 107.46899275 182.98297203 107.3125 188.875 C107.209375 191.88625 107.10625 194.8975 107 198 C113.93 198 120.86 198 128 198 C128 194.7 128 191.4 128 188 C129.0830542 187.9906543 130.1661084 187.98130859 131.28198242 187.97167969 C135.36212912 187.93132266 139.44155737 187.86544613 143.52124023 187.79248047 C145.27537698 187.7645325 147.02963353 187.74319008 148.78393555 187.72900391 C161.75360151 187.61793055 173.93025331 187.07061598 185.0625 179.5 C185.91972656 178.9328125 186.77695313 178.365625 187.66015625 177.78125 C191.78954547 174.6376749 194.43668354 171.49973487 197 167 C197.7425 165.93652344 197.7425 165.93652344 198.5 164.8515625 C203.36921217 157.62382568 204.71467987 150.45605351 206 142 C206.33 142 206.66 142 207 142 C207 175.66 207 209.32 207 244 C138.69 244 70.38 244 0 244 C0 163.48 0 82.96 0 0 Z " fill="#FAFAFA" transform="translate(0,0)"/>
<path d="M0 0 C4 0 4 0 5.67578125 1.5390625 C6.21589844 2.22742187 6.75601563 2.91578125 7.3125 3.625 C9.53837392 6.34340773 11.64633459 8.62157706 14.4375 10.75 C23.23752517 18.10642554 30.09349887 30.63867473 31.20166016 42.08251953 C31.40173337 46.40232691 31.27206046 50.68330734 31 55 C31.89460938 54.94199219 32.78921875 54.88398437 33.7109375 54.82421875 C43.96510683 54.44160049 49.96599004 56.27483263 58.125 62.3125 C60.8567119 66.22795373 60.67430306 68.2798786 60 73 C57.55212123 76.44516271 54.95723387 77.7172092 51 79 C48.430075 79.19658405 45.95964608 79.30062206 43.390625 79.30859375 C41.8984338 79.33376571 40.40624639 79.35916355 38.9140625 79.38476562 C36.58627417 79.41338597 34.25855201 79.43743068 31.93066406 79.45629883 C21.65973766 79.55560337 13.26366404 80.28769214 4 85 C4 85.66 4 86.32 4 87 C0.78654052 86.63274749 -0.79788597 86.16933878 -3.3125 84.0625 C-8.73043238 79.90455189 -15.31988988 79.72132787 -21.9375 79.76171875 C-23.42448837 79.74630681 -24.91146773 79.73000375 -26.3984375 79.71289062 C-28.702354 79.6964481 -31.00559988 79.68751717 -33.30957031 79.69458008 C-48.76331323 79.71268736 -48.76331323 79.71268736 -54.76831055 75.50292969 C-56.85912582 72.95167918 -56.89158577 70.40984755 -56.59375 67.21875 C-55.56981391 63.3924625 -53.93825251 61.67707451 -51 59 C-45.45681204 56.01520648 -39.30622154 55.87442631 -33.125 55.9375 C-31.97257812 55.94652344 -30.82015625 55.95554688 -29.6328125 55.96484375 C-28.76398438 55.97644531 -27.89515625 55.98804688 -27 56 C-27.05800781 54.92363281 -27.11601563 53.84726563 -27.17578125 52.73828125 C-27.76895003 37.06708658 -23.15074837 25.00294217 -13 13 C-10.7890625 11.765625 -10.7890625 11.765625 -9 11 C-8.31731862 9.67479497 -7.6492959 8.34187818 -7 7 C-6.01 6.67 -5.02 6.34 -4 6 C-2.90833725 4.06669397 -2.90833725 4.06669397 -2 2 C-1.34 1.34 -0.68 0.68 0 0 Z " fill="#FAFAFA" transform="translate(102,61)"/>
<path d="M0 0 C68.31 0 136.62 0 207 0 C207 0.66 207 1.32 207 2 C205.76638229 2.00364563 204.53276459 2.00729126 203.26176453 2.01104736 C191.65150161 2.04794498 180.04150522 2.10566015 168.43144512 2.18390274 C162.46217923 2.22345784 156.49306263 2.25560689 150.52368164 2.27099609 C144.76580708 2.28610976 139.00834277 2.32046099 133.25065041 2.36830902 C131.05099866 2.38317753 128.85128837 2.39104413 126.65158653 2.39188385 C123.57676524 2.39423881 120.50309136 2.42119979 117.4284668 2.45410156 C116.51352951 2.4490712 115.59859222 2.44404083 114.65592957 2.43885803 C109.77139406 2.37655462 109.77139406 2.37655462 105.91072083 5.03411865 C105.61018295 5.6828595 105.30964508 6.33160034 105 7 C102.53199953 5.84826645 100.95216435 4.95216435 99 3 C95.89743478 2.78187647 92.88196642 2.68855681 89.77685547 2.68115234 C88.8052202 2.67099909 87.83358494 2.66084583 86.83250618 2.6503849 C83.6774039 2.61967127 80.52239223 2.60257015 77.3671875 2.5859375 C75.42325046 2.56901078 73.47932095 2.55119504 71.53540039 2.5324707 C64.31535344 2.46918923 57.0951637 2.42315116 49.875 2.375 C33.74625 2.25125 17.6175 2.1275 1 2 C1 47.21 1 92.42 1 139 C0.67 139 0.34 139 0 139 C0 93.13 0 47.26 0 0 Z " fill="#C0C0C0" transform="translate(0,0)"/>
<path d="M0 0 C1.65 0 3.3 0 5 0 C5 0.99 5 1.98 5 3 C6.98 2.34 8.96 1.68 11 1 C11 1.99 11 2.98 11 4 C11.66 4 12.32 4 13 4 C13 4.99 13 5.98 13 7 C12.34 7 11.68 7 11 7 C11 8.32 11 9.64 11 11 C11.66 11 12.32 11 13 11 C13 11.66 13 12.32 13 13 C11.35 13 9.7 13 8 13 C7.34 11.02 6.68 9.04 6 7 C5.67 9.31 5.34 11.62 5 14 C3.35 14 1.7 14 0 14 C0 9.38 0 4.76 0 0 Z " fill="#ABABAB" transform="translate(173,209)"/>
<path d="M0 0 C2.47923801 -0.02685095 4.9581884 -0.04676547 7.4375 -0.0625 C8.14455078 -0.07087891 8.85160156 -0.07925781 9.58007812 -0.08789062 C11.38693559 -0.09653588 13.19387603 -0.05220011 15 0 C16 1 16 1 16.09765625 2.84765625 C16.06510417 4.8984375 16.03255208 6.94921875 16 9 C15.01 9 14.02 9 13 9 C13 7.02 13 5.04 13 3 C12.01 3 11.02 3 10 3 C10 5.31 10 7.62 10 10 C8.68 10 7.36 10 6 10 C6 7.69 6 5.38 6 3 C5.34 3 4.68 3 4 3 C4 5.31 4 7.62 4 10 C2.68 10 1.36 10 0 10 C0 6.7 0 3.4 0 0 Z " fill="#2C2C2C" transform="translate(36,213)"/>
<path d="M0 0 C2.64 0 5.28 0 8 0 C8.33 0.99 8.66 1.98 9 3 C6.03 2.505 6.03 2.505 3 2 C3 2.99 3 3.98 3 5 C5.31 5.33 7.62 5.66 10 6 C9.125 10.875 9.125 10.875 8 12 C5.32941149 12.14115161 2.67567762 12.04247107 0 12 C-0.66 10.68 -1.32 9.36 -2 8 C0.76276177 8.52268466 3.3260876 9.10869587 6 10 C6 9.01 6 8.02 6 7 C5.21625 7.04125 4.4325 7.0825 3.625 7.125 C1 7 1 7 -1 5 C-0.625 2.375 -0.625 2.375 0 0 Z " fill="#1B1B1B" transform="translate(12,210)"/>
<path d="M0 0 C0.99 0 1.98 0 3 0 C3.33 2.97 3.66 5.94 4 9 C4.99 9 5.98 9 7 9 C7.33 6.03 7.66 3.06 8 0 C9.32 0 10.64 0 12 0 C12.05422947 1.4370809 12.09289723 2.87475462 12.125 4.3125 C12.14820312 5.11300781 12.17140625 5.91351563 12.1953125 6.73828125 C12 9 12 9 10 12 C8.125 12.36328125 8.125 12.36328125 6 12.3125 C5.29875 12.30863281 4.5975 12.30476562 3.875 12.30078125 C2 12 2 12 0 10 C-0.1953125 7.6171875 -0.1953125 7.6171875 -0.125 4.875 C-0.10695313 3.96492187 -0.08890625 3.05484375 -0.0703125 2.1171875 C-0.04710938 1.41851562 -0.02390625 0.71984375 0 0 Z " fill="#020202" transform="translate(98,210)"/>
<path d="M0 0 C3.375 -0.125 3.375 -0.125 7 0 C9 2 9 2 9.1953125 3.9453125 C9.13020833 5.96354167 9.06510417 7.98177083 9 10 C5.7 9.67 2.4 9.34 -1 9 C-1 7.68 -1 6.36 -1 5 C0.32 4.67 1.64 4.34 3 4 C1.68 3.67 0.36 3.34 -1 3 C-0.67 2.01 -0.34 1.02 0 0 Z " fill="#2A2A2A" transform="translate(68,213)"/>
<path d="M0 0 C6.93359375 -0.09765625 6.93359375 -0.09765625 9 0 C10 1 10 1 10.09765625 3.06640625 C10.08605469 3.89011719 10.07445313 4.71382812 10.0625 5.5625 C10.05347656 6.38878906 10.04445313 7.21507812 10.03515625 8.06640625 C10.02355469 8.70449219 10.01195313 9.34257812 10 10 C8.68 10 7.36 10 6 10 C6 7.69 6 5.38 6 3 C5.01 3.495 5.01 3.495 4 4 C3.34444881 6.52733235 3.34444881 6.52733235 3 9 C2.01 9 1.02 9 0 9 C0 6.03 0 3.06 0 0 Z " fill="#323232" transform="translate(79,213)"/>
<path d="M0 0 C2.64 0 5.28 0 8 0 C8.33 1.65 8.66 3.3 9 5 C6.69 5 4.38 5 2 5 C2 5.66 2 6.32 2 7 C3.98 7 5.96 7 8 7 C7.67 7.66 7.34 8.32 7 9 C3.625 9.125 3.625 9.125 0 9 C-0.66 8.34 -1.32 7.68 -2 7 C-1.6730244 4.38419521 -1.17960932 2.35921863 0 0 Z " fill="#0E0E0E" transform="translate(143,213)"/>
<path d="M0 0 C1.32 0 2.64 0 4 0 C4.66 1.32 5.32 2.64 6 4 C6.33 2.68 6.66 1.36 7 0 C8.32 0.33 9.64 0.66 11 1 C10.35758106 2.813713 9.71096881 4.62594124 9.0625 6.4375 C8.70285156 7.44683594 8.34320313 8.45617187 7.97265625 9.49609375 C7 12 7 12 6 13 C4.33382885 13.04063832 2.66611905 13.042721 1 13 C1 12.34 1 11.68 1 11 C1.99 11 2.98 11 4 11 C3.566875 10.06027344 3.566875 10.06027344 3.125 9.1015625 C2.75375 8.28429687 2.3825 7.46703125 2 6.625 C1.62875 5.81289062 1.2575 5.00078125 0.875 4.1640625 C0 2 0 2 0 0 Z " fill="#181818" transform="translate(187,213)"/>
<path d="M0 0 C3 0.25 3 0.25 5 2.25 C5 3.24 5 4.23 5 5.25 C2.69 5.25 0.38 5.25 -2 5.25 C-2 5.91 -2 6.57 -2 7.25 C0.31 7.25 2.62 7.25 5 7.25 C4.67 7.91 4.34 8.57 4 9.25 C-2.15234375 9.34765625 -2.15234375 9.34765625 -4 9.25 C-5 8.25 -5 8.25 -5.1875 5.3125 C-4.93154618 1.13192099 -4.17353375 0.34779448 0 0 Z " fill="#272727" transform="translate(29,212.75)"/>
<path d="M0 0 C6.15234375 -0.09765625 6.15234375 -0.09765625 8 0 C9 1 9 1 9.09765625 2.84765625 C9.04882812 5.92382812 9.04882812 5.92382812 9 9 C8.01 9 7.02 9 6 9 C6 7.02 6 5.04 6 3 C5.01 3 4.02 3 3 3 C3 4.98 3 6.96 3 9 C2.01 9 1.02 9 0 9 C0 6.03 0 3.06 0 0 Z " fill="#0C0C0C" transform="translate(113,213)"/>
<path d="M0 0 C6.15234375 -0.09765625 6.15234375 -0.09765625 8 0 C9 1 9 1 9.09765625 2.84765625 C9.04882812 5.92382812 9.04882812 5.92382812 9 9 C8.01 9 7.02 9 6 9 C6 7.02 6 5.04 6 3 C5.01 3 4.02 3 3 3 C3 4.98 3 6.96 3 9 C2.01 9 1.02 9 0 9 C0 6.03 0 3.06 0 0 Z " fill="#121212" transform="translate(55,213)"/>
<path d="M0 0 C0 0.99 0 1.98 0 3 C0.66 3 1.32 3 2 3 C2 3.99 2 4.98 2 6 C1.34 6 0.68 6 0 6 C0 7.32 0 8.64 0 10 C0.66 10 1.32 10 2 10 C2 10.66 2 11.32 2 12 C0.35 12 -1.3 12 -3 12 C-4.60642307 7.9366946 -5.44504746 5.21472177 -4 1 C-2 0 -2 0 0 0 Z " fill="#252525" transform="translate(184,210)"/>
<path d="M0 0 C2.31 0 4.62 0 7 0 C7.33 0.99 7.66 1.98 8 3 C5.03 2.505 5.03 2.505 2 2 C2 2.66 2 3.32 2 4 C3.65 4 5.3 4 7 4 C7.33 5.65 7.66 7.3 8 9 C5.36 9 2.72 9 0 9 C-0.33 8.34 -0.66 7.68 -1 7 C1.97 7.495 1.97 7.495 5 8 C5 7.34 5 6.68 5 6 C3.02 5.34 1.04 4.68 -1 4 C-0.67 2.68 -0.34 1.36 0 0 Z " fill="#2D2D2D" transform="translate(163,213)"/>
<path d="M0 0 C1.32 0 2.64 0 4 0 C4.66 0.99 5.32 1.98 6 3 C6.33 2.01 6.66 1.02 7 0 C8.32 0.33 9.64 0.66 11 1 C9.68 3.64 8.36 6.28 7 9 C5.68 9 4.36 9 3 9 C2.01 6.03 1.02 3.06 0 0 Z " fill="#111111" transform="translate(130,213)"/>
<path d="M0 0 C5 6.36363636 5 6.36363636 5 11 C4.01 11 3.02 11 2 11 C1.67 11.66 1.34 12.32 1 13 C1 12.01 1 11.02 1 10 C-0.65 10 -2.3 10 -4 10 C-2.68 9.67 -1.36 9.34 0 9 C0 8.34 0 7.68 0 7 C-0.66 7 -1.32 7 -2 7 C-2 5.68 -2 4.36 -2 3 C-1.34 3 -0.68 3 0 3 C0 2.01 0 1.02 0 0 Z " fill="#D3D3D3" transform="translate(186,213)"/>
<path d="M0 0 C2.05078125 0.03255208 4.1015625 0.06510417 6.15234375 0.09765625 C6.15234375 3.61481928 5.3278879 4.46887373 3.15234375 7.09765625 C0.53046881 6.04890627 -0.64136986 5.44834312 -2.09765625 2.97265625 C-2.34515625 2.35390625 -2.59265625 1.73515625 -2.84765625 1.09765625 C-1.84765625 0.09765625 -1.84765625 0.09765625 0 0 Z " fill="#F1F1F1" transform="translate(101.84765625,-0.09765625)"/>
<path d="M0 0 C2.4375 0.375 2.4375 0.375 5 1 C5.33 1.66 5.66 2.32 6 3 C5.34 3 4.68 3 4 3 C4 5.31 4 7.62 4 10 C2.68 10 1.36 10 0 10 C0 6.7 0 3.4 0 0 Z " fill="#343434" transform="translate(36,213)"/>
<path d="M0 0 C2.31 0 4.62 0 7 0 C6 3 6 3 4 4 C3.34444881 6.52733235 3.34444881 6.52733235 3 9 C2.01 9 1.02 9 0 9 C0 6.03 0 3.06 0 0 Z " fill="#121212" transform="translate(154,213)"/>
<path d="M0 0 C2.64 0 5.28 0 8 0 C8.33 0.99 8.66 1.98 9 3 C6.03 2.505 6.03 2.505 3 2 C3 3.32 3 4.64 3 6 C1.68 5.67 0.36 5.34 -1 5 C-0.67 3.35 -0.34 1.7 0 0 Z " fill="#0E0E0E" transform="translate(12,210)"/>
<path d="M0 0 C0 2.64 0 5.28 0 8 C-0.99 8 -1.98 8 -3 8 C-3 6.02 -3 4.04 -3 2 C-4.32 1.34 -5.64 0.68 -7 0 C-4.3333581 -1.33332095 -2.83319697 -0.67102033 0 0 Z " fill="#121212" transform="translate(52,214)"/>
<path d="M0 0 C2.475 0.495 2.475 0.495 5 1 C5 3.64 5 6.28 5 9 C4.01 9 3.02 9 2 9 C2 6.69 2 4.38 2 2 C1.34 2 0.68 2 0 2 C0 1.34 0 0.68 0 0 Z " fill="#131313" transform="translate(117,213)"/>
<path d="M0 0 C0.99 0 1.98 0 3 0 C4.10844919 3.32534757 3.84454356 5.62182575 3 9 C2.01 9 1.02 9 0 9 C0 6.03 0 3.06 0 0 Z " fill="#0F0F0F" transform="translate(79,213)"/>
<path d="M0 0 C1.65 0.33 3.3 0.66 5 1 C5 2.32 5 3.64 5 5 C2.36 5 -0.28 5 -3 5 C-3.33 4.34 -3.66 3.68 -4 3 C-1.03 3.495 -1.03 3.495 2 4 C2 3.34 2 2.68 2 2 C1.34 2 0.68 2 0 2 C0 1.34 0 0.68 0 0 Z " fill="#111111" transform="translate(166,217)"/>
<path d="M0 0 C0.99 0 1.98 0 3 0 C3 2.97 3 5.94 3 9 C2.01 9 1.02 9 0 9 C0 6.03 0 3.06 0 0 Z " fill="#080808" transform="translate(174,213)"/>
<path d="M0 0 C2.64 0 5.28 0 8 0 C8.33 1.65 8.66 3.3 9 5 C6.69 4.67 4.38 4.34 2 4 C2 3.34 2 2.68 2 2 C3.32 1.67 4.64 1.34 6 1 C4.02 1 2.04 1 0 1 C0 0.67 0 0.34 0 0 Z " fill="#545454" transform="translate(143,213)"/>
<path d="M0 0 C0.99 0 1.98 0 3 0 C3 2.97 3 5.94 3 9 C2.01 9 1.02 9 0 9 C0 6.03 0 3.06 0 0 Z " fill="#080808" transform="translate(125,213)"/>
<path d="M0 0 C0.66 0.33 1.32 0.66 2 1 C-1.3 4.3 -4.6 7.6 -8 11 C-8.33 10.34 -8.66 9.68 -9 9 C-6.21000549 5.51250686 -3.74764169 2.49842779 0 0 Z " fill="#2D2D2D" transform="translate(118,166)"/>
<path d="M0 0 C0.99 0 1.98 0 3 0 C3 2.64 3 5.28 3 8 C2.01 8 1.02 8 0 8 C0 5.36 0 2.72 0 0 Z " fill="#0A0A0A" transform="translate(61,214)"/>
<path d="M0 0 C1.65 0 3.3 0 5 0 C5 0.99 5 1.98 5 3 C5.66 3.33 6.32 3.66 7 4 C6.34 4.66 5.68 5.32 5 6 C5 5.34 5 4.68 5 4 C3.35 3.67 1.7 3.34 0 3 C0 2.01 0 1.02 0 0 Z " fill="#9A9A9A" transform="translate(173,209)"/>
<path d="M0 0 C1.32 0 2.64 0 4 0 C4.66 1.98 5.32 3.96 6 6 C4.68 6 3.36 6 2 6 C1.34 4.02 0.68 2.04 0 0 Z " fill="#222222" transform="translate(130,213)"/>
<path d="M0 0 C1.98 0 3.96 0 6 0 C6.33 1.32 6.66 2.64 7 4 C5.02 4 3.04 4 1 4 C1.99 3.67 2.98 3.34 4 3 C4 2.34 4 1.68 4 1 C2.68 0.67 1.36 0.34 0 0 Z " fill="#010101" transform="translate(27,214)"/>
</svg>
