<?xml version="1.0" encoding="UTF-8"?>
<svg version="1.1" xmlns="http://www.w3.org/2000/svg" width="144" height="251">
<path d="M0 0 C5.47803329 1.4252811 10.09868657 4.48483089 14.92089844 7.36132812 C16.75829197 8.45265205 18.60952796 9.51707396 20.46313477 10.58056641 C28.18462943 15.09622284 33.41085366 18.71467071 36.45727539 27.39697266 C37.08064042 30.11953275 37.198402 32.43035472 37.15649414 35.24462891 C37.1446502 38.99915789 37.24647084 42.19935498 38.20727539 45.83447266 C41.45949807 48.78524154 45.20320228 50.12669869 49.20727539 51.83447266 C59.08231337 58.17814592 67.28124096 66.68056549 71.20727539 77.83447266 C71.7747062 80.87189027 71.90250416 83.8421195 71.96289062 86.92749023 C71.99399429 87.78735031 72.02509796 88.64721039 72.05714417 89.53312683 C72.15046647 92.34834449 72.21237664 95.16276042 72.26586914 97.97900391 C72.2859157 98.94870306 72.30596226 99.91840221 72.32661629 100.91748619 C72.42723384 106.04701824 72.49981429 111.17616388 72.55273438 116.30639648 C72.60166681 120.531277 72.70614593 124.74910733 72.86035156 128.97143555 C73.04758253 134.09864979 73.13992841 139.21952185 73.1656971 144.35001183 C73.19056527 146.29175763 73.24750712 148.23338992 73.33840752 150.17316628 C73.88030026 162.44604379 73.88030026 162.44604379 71.20727539 167.83447266 C65.98492973 173.41261894 59.02896599 176.62717809 52.20727539 179.83447266 C51.0576683 180.44027664 49.90806122 181.04608063 48.72361755 181.67024231 C43.15991277 184.58652339 37.52799686 186.21216076 31.20727539 185.83447266 C26.410515 184.23555253 24.05148362 181.95367079 21.20727539 177.83447266 C20.68191696 177.14501053 20.15655853 176.4555484 19.61528015 175.74519348 C17.64005522 171.66187749 17.8105966 168.1164059 17.86669922 163.63793945 C17.86626114 162.72037369 17.86582306 161.80280792 17.8653717 160.85743713 C17.86745727 157.83263677 17.89077763 154.80839463 17.91430664 151.78369141 C17.91990341 149.68333743 17.92417313 147.58297953 17.9271698 145.48262024 C17.93861213 139.96041001 17.96807425 134.43843732 18.00128174 128.9163208 C18.03199568 123.27904473 18.04567798 117.6417302 18.06079102 112.00439453 C18.09294437 100.94764967 18.1441335 89.89108093 18.20727539 78.83447266 C17.72371582 79.14263916 17.24015625 79.45080566 16.74194336 79.76831055 C14.53272871 81.16233925 12.3080965 82.52963025 10.08227539 83.89697266 C9.32172852 84.38230469 8.56118164 84.86763672 7.77758789 85.36767578 C2.04215036 88.85343739 2.04215036 88.85343739 -2.13525391 88.75854492 C-5.60178888 87.55313979 -8.56163213 85.78136838 -11.60522461 83.77197266 C-15.01689003 81.14553304 -15.01689003 81.14553304 -18.79272461 79.83447266 C-18.77940094 80.95232147 -18.76607727 82.07017029 -18.75234985 83.22189331 C-18.63042969 93.78483863 -18.54063773 104.34764017 -18.48185158 114.91113091 C-18.45061211 120.3412814 -18.40827421 125.77086138 -18.34008789 131.20068359 C-18.27463208 136.44622486 -18.23896308 141.69121928 -18.22346115 146.9371376 C-18.21242178 148.93296027 -18.19086437 150.92875487 -18.15834427 152.92434311 C-17.8405399 173.24462252 -17.8405399 173.24462252 -24.79272461 180.83447266 C-28.61340618 184.39465321 -31.32666992 186.23745571 -36.64038086 186.09619141 C-47.64491625 184.75807186 -57.62199269 177.63996729 -66.79272461 171.83447266 C-67.80967407 171.32397369 -68.82662354 170.81347473 -69.87438965 170.2875061 C-72.79272461 167.83447266 -72.79272461 167.83447266 -73.54789734 164.0039978 C-73.58046966 162.42878218 -73.57985055 160.85267107 -73.55322266 159.27734375 C-73.56213028 158.41500122 -73.5710379 157.55265869 -73.58021545 156.66418457 C-73.60153501 153.81132447 -73.57916137 150.96071569 -73.55444336 148.10791016 C-73.55594614 146.11975881 -73.55937703 144.13160806 -73.56465149 142.14346313 C-73.56898722 137.97197064 -73.55212201 133.80124992 -73.52001953 129.62988281 C-73.48039297 124.3035055 -73.4894759 118.9785884 -73.51425457 113.65216637 C-73.52850095 109.54261502 -73.51829827 105.43339936 -73.50074196 101.32387161 C-73.49492094 99.36163766 -73.49615167 97.39936891 -73.50476646 95.43714523 C-73.56234853 75.759142 -73.56234853 75.759142 -67.79272461 67.83447266 C-67.09791992 66.87154297 -66.40311523 65.90861328 -65.68725586 64.91650391 C-60.1998908 58.93496714 -54.09106819 52.6355864 -46.23022461 49.96337891 C-43.28832136 48.90259648 -41.82690469 48.24950143 -39.79272461 45.83447266 C-38.52496536 41.11481275 -38.40705257 36.25924188 -38.20678711 31.40087891 C-37.80707503 25.22796694 -35.7881141 21.55235885 -31.28100586 17.35400391 C-26.55024688 13.41982205 -21.36134836 10.47048203 -15.98022461 7.52197266 C-14.11915046 6.48492449 -12.25845624 5.44719413 -10.39819336 4.40869141 C-9.17845825 3.73713013 -9.17845825 3.73713013 -7.93408203 3.05200195 C-2.32403691 -0.13774779 -2.32403691 -0.13774779 0 0 Z M-13.73022461 14.95947266 C-14.71958008 15.52923828 -15.70893555 16.09900391 -16.72827148 16.68603516 C-25.44538142 21.76473145 -25.44538142 21.76473145 -30.60131836 30.15869141 C-30.87565241 33.9937695 -30.89710619 37.8035322 -30.85522461 41.64697266 C-30.85071289 42.43523438 -30.84620117 43.22349609 -30.84155273 44.03564453 C-30.82983773 45.96862026 -30.81190459 47.90155658 -30.79272461 49.83447266 C-31.82010742 50.37974609 -32.84749023 50.92501953 -33.90600586 51.48681641 C-47.63384946 58.89304201 -59.87645313 66.11055291 -64.79272461 81.83447266 C-65.99191999 88.10422283 -65.85380413 94.49933977 -65.82788086 100.85791016 C-65.84024961 102.65720762 -65.85423223 104.45649464 -65.86973572 106.25576782 C-65.89341377 109.99934677 -65.8907368 113.74176496 -65.87011719 117.48535156 C-65.84691711 122.26804277 -65.90141042 127.04634881 -65.97672367 131.82837486 C-66.02463466 135.53307525 -66.026004 139.23672211 -66.0140667 142.94166946 C-66.01493567 144.70468467 -66.03131563 146.46776743 -66.06398201 148.23048019 C-66.45251699 157.97992783 -66.45251699 157.97992783 -62.68209839 166.63531494 C-60.13207466 168.73712057 -57.7226364 170.31603607 -54.79272461 171.83447266 C-53.32289879 172.62004044 -53.32289879 172.62004044 -51.82337952 173.42147827 C-46.55130945 176.10251224 -41.72589537 177.83447266 -35.79272461 177.83447266 C-31.52230223 176.1263037 -29.68766809 173.96866507 -27.79272461 169.83447266 C-27.36448895 166.43106167 -27.41380933 163.05426199 -27.45214844 159.62817383 C-27.45171036 158.60331879 -27.45127228 157.57846375 -27.45082092 156.52255249 C-27.45290817 153.1406539 -27.47623683 149.75925323 -27.49975586 146.37744141 C-27.50535202 144.03046438 -27.50962203 141.68348386 -27.51261902 139.33650208 C-27.5240661 133.16328229 -27.55353241 126.9902747 -27.58673096 120.81713867 C-27.6174346 114.51630524 -27.631125 108.21543748 -27.64624023 101.91455078 C-27.67840199 89.55443158 -27.72959694 77.19446977 -27.79272461 64.83447266 C-22.16237644 68.0363293 -16.657181 71.38833564 -11.17163086 74.83447266 C-10.0565918 75.49447266 -8.94155273 76.15447266 -7.79272461 76.83447266 C-7.19339111 77.28121338 -6.59405762 77.7279541 -5.9765625 78.18823242 C-3.83910426 79.60336037 -2.32911208 80.40658105 0.20727539 80.83447266 C4.21200173 79.47566393 7.4507229 77.18889429 10.89477539 74.77197266 C11.81838867 74.15902344 12.74200195 73.54607422 13.69360352 72.91455078 C15.41852695 71.76832736 17.13476113 70.60883486 18.83886719 69.43188477 C21.24687937 67.80776109 23.71200266 66.31994175 26.20727539 64.83447266 C26.20061356 66.12406891 26.19395172 67.41366516 26.18708801 68.74234009 C26.12627107 80.89598052 26.08129985 93.04959008 26.05183887 105.20334816 C26.03618353 111.45171069 26.01494731 117.69995036 25.98095703 123.94824219 C25.94835941 129.97826724 25.93042139 136.00817412 25.92264366 142.03828049 C25.91710092 144.33877803 25.90627736 146.63926911 25.89008522 148.93971634 C25.86830604 152.16210148 25.86530873 155.3839984 25.86669922 158.60644531 C25.85591339 159.55735046 25.84512756 160.50825562 25.83401489 161.48797607 C25.86304293 167.70550519 26.62175664 172.2489539 31.20727539 176.83447266 C37.90379677 178.82918115 43.04113101 176.74007215 49.20727539 173.83447266 C57.46524465 169.27296868 57.46524465 169.27296868 64.20727539 162.83447266 C64.5837399 160.09852792 64.718051 157.774195 64.66479492 155.04345703 C64.66526321 154.26235565 64.66573151 153.48125427 64.66621399 152.67648315 C64.66173316 150.09314954 64.62722679 147.5112793 64.59008789 144.92822266 C64.575404 143.12423415 64.56165479 141.32023781 64.54879761 139.51623535 C64.5167429 135.7297684 64.46910055 131.94387408 64.41137695 128.15771484 C64.33965826 123.33405137 64.31263334 118.51134974 64.29846382 113.68721771 C64.28133314 109.95652508 64.23670485 106.2265214 64.18447495 102.49617004 C64.16344196 100.7198781 64.15145449 98.94345289 64.1491127 97.16703796 C64.11459714 84.46418113 62.81626728 74.18987899 53.39477539 64.70947266 C42.23387673 55.4945226 42.23387673 55.4945226 29.20727539 50.83447266 C29.22298584 50.26003418 29.23869629 49.6855957 29.25488281 49.09375 C29.31763052 46.46575957 29.35639045 43.83792729 29.39477539 41.20947266 C29.41991211 40.30583984 29.44504883 39.40220703 29.47094727 38.47119141 C29.52901929 33.16727982 29.34777 29.32465572 26.20727539 24.83447266 C21.57125318 20.33150848 16.16028553 17.23576465 10.58227539 14.02197266 C9.73665039 13.51988281 8.89102539 13.01779297 8.01977539 12.50048828 C7.20250977 12.02675781 6.38524414 11.55302734 5.54321289 11.06494141 C4.43792236 10.42141724 4.43792236 10.42141724 3.31030273 9.76489258 C-3.09845358 6.92953499 -8.39285483 11.77298324 -13.73022461 14.95947266 Z " fill="#151515" transform="translate(72.792724609375,0.16552734375)"/>
<path d="M0 0 C0.07010567 14.64697968 0.12299578 29.29393712 0.15543652 43.94105053 C0.17090022 50.74208881 0.19198012 57.5430228 0.22631836 64.34399414 C0.25943261 70.90567606 0.27684702 77.46727801 0.28463173 84.02904701 C0.29018042 86.53411885 0.30101545 89.03918467 0.31719017 91.54421043 C0.33892529 95.04938008 0.34196849 98.55410012 0.34057617 102.05932617 C0.351362 103.09798325 0.36214783 104.13664032 0.3732605 105.20677185 C0.33524249 114.03530545 0.33524249 114.03530545 -3 118 C-5.18649037 119.52920185 -6.45874355 119.99003211 -9.12109375 120.0390625 C-17.19661496 118.59554606 -23.2966116 114.51280005 -30 110 C-30.99 109.34 -31.98 108.68 -33 108 C-33.30799016 105.50454875 -33.41994183 103.25468232 -33.40405273 100.75561523 C-33.41091599 100.00900131 -33.41777924 99.26238739 -33.42485046 98.4931488 C-33.44320928 96.01477227 -33.43926513 93.53702399 -33.43359375 91.05859375 C-33.43815432 89.3342315 -33.44345952 87.60987108 -33.44947815 85.88551331 C-33.45842934 82.26303756 -33.45596706 78.64078197 -33.44604492 75.01831055 C-33.43460815 70.39370664 -33.45467436 65.76987231 -33.48396206 61.14536953 C-33.502393 57.57893597 -33.50201699 54.01268396 -33.49632454 50.44621468 C-33.49617187 48.7427062 -33.50217129 47.03918499 -33.51461601 45.33572197 C-33.5867441 33.83331769 -33.1156129 24.58616991 -24.68505859 15.9909668 C-24.14961426 15.47832275 -23.61416992 14.96567871 -23.0625 14.4375 C-22.22066162 13.61342651 -22.22066162 13.61342651 -21.36181641 12.77270508 C-15.93462257 7.63293977 -7.74658155 0 0 0 Z M-17 19 C-22.34257579 25.56373597 -25.08669869 30.31748639 -25.25634766 38.85473633 C-25.27095032 39.54779373 -25.28555298 40.24085114 -25.30059814 40.95491028 C-25.4264049 47.3353492 -25.49531089 53.71700486 -25.54844093 60.09842396 C-25.58423195 64.3833518 -25.63761861 68.66640662 -25.73388672 72.95043945 C-25.82678281 77.09733432 -25.87536988 81.24257128 -25.89283371 85.39044762 C-25.90691262 86.96825275 -25.93651961 88.54600058 -25.98213577 90.123209 C-26.50733175 98.76352502 -26.50733175 98.76352502 -23.07489014 106.30282593 C-18.64193406 109.37904324 -14.38365935 110.88784043 -9 111 C-7.08935701 109.08935701 -7.87985389 106.26172105 -7.87557983 103.71983337 C-7.87917511 102.81640701 -7.88277039 101.91298065 -7.88647461 100.98217773 C-7.88632858 100.03593536 -7.88618256 99.08969299 -7.8860321 98.11477661 C-7.88673164 94.97102608 -7.89452591 91.82733399 -7.90234375 88.68359375 C-7.90420779 86.51025932 -7.90563176 84.33692448 -7.90663147 82.16358948 C-7.91045779 76.43098805 -7.92028903 70.69841177 -7.93133545 64.96582031 C-7.94154713 59.12109721 -7.94612857 53.27637007 -7.95117188 47.43164062 C-7.9619112 35.954416 -7.97898898 24.47721009 -8 13 C-11.16553227 13 -14.80312011 17.02086396 -17 19 Z " fill="#181818" transform="translate(42,55)"/>
<path d="M0 0 C11.62865787 2.05819104 21.8385925 11.64370846 28.67578125 20.91015625 C32.03927834 26.21833013 33.46276087 30.51949944 33.56274414 36.7902832 C33.58567032 37.5472348 33.6085965 38.3041864 33.63221741 39.08407593 C33.70118473 41.5729356 33.74622217 44.06127865 33.78515625 46.55078125 C33.79987913 47.40561789 33.81460201 48.26045452 33.82977104 49.1411953 C33.90388291 53.66429985 33.95701017 58.18715245 33.99536133 62.71069336 C34.03974307 67.36661191 34.16372634 72.01689933 34.30527592 76.67072773 C34.3990211 80.26634349 34.43022713 83.86063123 34.44509697 87.45735741 C34.46332251 89.17244351 34.50521722 90.8874576 34.57191658 92.60134315 C35.04807187 105.59384795 35.04807187 105.59384795 31.63499069 109.6036644 C27.81608945 112.86827168 23.57278527 114.98055308 19 117 C18.06950333 117.41135696 17.13900665 117.82271393 16.18031311 118.24653625 C11.97513315 119.94083334 8.34145443 120.71638896 4 119 C-0.76889235 113.70524391 -0.54995092 108.84443723 -0.45410156 101.94580078 C-0.45468567 100.84277115 -0.45526978 99.73974152 -0.45587158 98.60328674 C-0.45309074 94.9669723 -0.42199708 91.33148329 -0.390625 87.6953125 C-0.38316265 85.17040454 -0.37746969 82.64549078 -0.37347412 80.12057495 C-0.35977586 74.16013447 -0.32826874 68.19995766 -0.28807616 62.23965251 C-0.24329772 55.45129253 -0.22135623 48.66291812 -0.20129442 41.87444711 C-0.15953411 27.91613501 -0.08922018 13.95808368 0 0 Z M8 13 C7.97687868 25.62995485 7.95908599 38.2599047 7.94818783 50.88987637 C7.94295854 56.75382164 7.93586006 62.61775249 7.92456055 68.48168945 C7.9137333 74.13561712 7.90772351 79.78953087 7.90512276 85.44346809 C7.90326821 87.6057361 7.89964705 89.76800331 7.89426994 91.93026543 C7.88706167 94.94758657 7.88600897 97.96484943 7.88647461 100.98217773 C7.88287933 101.8856041 7.87928406 102.78903046 7.87557983 103.71983337 C7.48460545 107.67553903 7.48460545 107.67553903 9 111 C13.66299687 110.80570846 16.69750213 109.77698866 20.75 107.4453125 C21.54921875 106.98914551 22.3484375 106.53297852 23.171875 106.06298828 C23.77515625 105.71220215 24.3784375 105.36141602 25 105 C25.1395215 95.52445473 25.24588329 86.04926743 25.31087303 76.57291603 C25.34207805 72.17177461 25.38434946 67.77134012 25.45263672 63.37060547 C25.5182205 59.1170808 25.55378733 54.86423252 25.56926346 50.61024094 C25.58028044 48.99398537 25.60179361 47.37776344 25.63438034 45.76179886 C25.85053573 34.59013801 24.48530491 27.08090719 16.76953125 18.52734375 C16.12371094 18.00269531 15.47789063 17.47804688 14.8125 16.9375 C14.15894531 16.38964844 13.50539063 15.84179688 12.83203125 15.27734375 C10.92079157 13.81627259 10.92079157 13.81627259 8 13 Z " fill="#141414" transform="translate(102,55)"/>
<path d="M0 0 C2.74984149 1.39587951 5.45050459 2.83732216 8.13012695 4.36425781 C9.6625 5.234375 9.6625 5.234375 11.22583008 6.12207031 C12.80847656 7.02699219 12.80847656 7.02699219 14.4230957 7.95019531 C15.4975293 8.56121094 16.57196289 9.17222656 17.67895508 9.80175781 C20.32445647 11.30675416 22.9682582 12.81465322 25.6105957 14.32519531 C25.85895353 18.62980957 26.03971874 22.93058098 26.15991211 27.24023438 C26.21002526 28.70353829 26.27814723 30.16634562 26.36499023 31.62792969 C26.63641678 36.31562586 26.70161222 40.71783288 25.6105957 45.32519531 C22.69649798 48.45484605 19.56241971 49.82073952 15.6105957 51.32519531 C14.55227539 51.916875 13.49395508 52.50855469 12.40356445 53.11816406 C11.54375977 53.57835937 10.68395508 54.03855469 9.7980957 54.51269531 C7.10583925 55.9562538 4.58417583 57.34413709 2.09887695 59.12597656 C-0.3894043 60.32519531 -0.3894043 60.32519531 -2.9128418 59.68457031 C-5.31889289 58.36389874 -7.68370029 57.02506469 -10.0144043 55.57519531 C-14.67185166 52.72469745 -19.42166096 50.0975799 -24.23706055 47.52441406 C-26.3894043 46.32519531 -26.3894043 46.32519531 -27.3894043 45.32519531 C-30.89698719 19.6974989 -30.89698719 19.6974989 -25.84545898 11.96044922 C-21.9679728 8.52354264 -17.5097823 6.7525904 -12.6237793 5.18359375 C-9.49435034 3.98133499 -6.97260093 2.12016391 -4.3112793 0.10498047 C-2.3894043 -0.67480469 -2.3894043 -0.67480469 0 0 Z M-9.8269043 12.76269531 C-11.17809494 13.59744223 -12.53090191 14.42957987 -13.88549805 15.25878906 C-14.78546509 15.81651001 -14.78546509 15.81651001 -15.70361328 16.38549805 C-17.3894043 17.32519531 -17.3894043 17.32519531 -20.3894043 18.32519531 C-20.3894043 25.91519531 -20.3894043 33.50519531 -20.3894043 41.32519531 C-17.5431543 43.01644531 -14.6969043 44.70769531 -11.7644043 46.45019531 C-10.87930176 46.99047363 -9.99419922 47.53075195 -9.08227539 48.08740234 C-4.46941857 50.80284357 -4.46941857 50.80284357 0.7355957 50.88769531 C2.1587207 50.11425781 2.1587207 50.11425781 3.6105957 49.32519531 C4.19502441 49.01694824 4.77945313 48.70870117 5.3815918 48.39111328 C7.27820904 47.36955429 9.1307035 46.29580593 10.9855957 45.20019531 C13.1718457 43.92144531 15.3580957 42.64269531 17.6105957 41.32519531 C17.6105957 33.73519531 17.6105957 26.14519531 17.6105957 18.32519531 C15.1046582 16.96394531 15.1046582 16.96394531 12.5480957 15.57519531 C9.18501707 13.74630461 5.84656409 11.89293729 2.5480957 9.95019531 C-2.68408665 7.05579657 -5.18939132 9.88769903 -9.8269043 12.76269531 Z " fill="#151515" transform="translate(73.389404296875,14.6748046875)"/>
<path d="M0 0 C3.4375 -0.4375 3.4375 -0.4375 7 0 C8.9375 2 8.9375 2 10 4 C10.66 2.68 11.32 1.36 12 0 C16.62 0 21.24 0 26 0 C26.66 1.32 27.32 2.64 28 4 C28.66 2.68 29.32 1.36 30 0 C31.32 0.33 32.64 0.66 34 1 C33.21527835 3.29426252 32.42261339 5.58522223 31.625 7.875 C31.29242188 8.85146484 31.29242188 8.85146484 30.953125 9.84765625 C29.93037374 12.76550545 29.21443349 14.78556651 27 17 C25.68 17 24.36 17 23 17 C23 16.01 23 15.02 23 14 C23.66 13.67 24.32 13.34 25 13 C24.43260132 8.87026372 24.43260132 8.87026372 23 5 C22.87882812 5.69867188 22.75765625 6.39734375 22.6328125 7.1171875 C22.46523437 8.02726563 22.29765625 8.93734375 22.125 9.875 C21.96257812 10.77992188 21.80015625 11.68484375 21.6328125 12.6171875 C21 15 21 15 19 17 C15.875 17.125 15.875 17.125 13 17 C11.35173889 14.03312999 10.55728913 11.34373475 10 8 C8.35 9.65 6.7 11.3 5 13 C2.97954558 12.39816251 0.97888961 11.72693904 -1 11 C-2.38550197 8.22899606 -2.1877467 6.0665294 -2 3 C-1.34 2.01 -0.68 1.02 0 0 Z M2 3 C2 4.98 2 6.96 2 9 C3.32 8.67 4.64 8.34 6 8 C5.67 6.35 5.34 4.7 5 3 C4.01 3 3.02 3 2 3 Z M15 3 C14.67 4.65 14.34 6.3 14 8 C15.32 8.33 16.64 8.66 18 9 C18 7.02 18 5.04 18 3 C17.01 3 16.02 3 15 3 Z " fill="#000000" transform="translate(98,233)"/>
<path d="M0 0 C1.32 0 2.64 0 4 0 C4 5.61 4 11.22 4 17 C-3 18 -3 18 -5.375 17.25 C-7 16 -7 16 -8 13 C-9.65 14.65 -11.3 16.3 -13 18 C-18.875 16.125 -18.875 16.125 -20 15 C-20.35897436 8.53846154 -20.35897436 8.53846154 -18 5 C-14.5625 4.5625 -14.5625 4.5625 -11 5 C-9.0625 7 -9.0625 7 -8 9 C-7.34 7.68 -6.68 6.36 -6 5 C-4.02 5 -2.04 5 0 5 C0 3.35 0 1.7 0 0 Z M-16 8 C-16 9.98 -16 11.96 -16 14 C-14.68 13.67 -13.36 13.34 -12 13 C-12.33 11.35 -12.66 9.7 -13 8 C-13.99 8 -14.98 8 -16 8 Z M-3 8 C-3.33 9.65 -3.66 11.3 -4 13 C-2.68 13.33 -1.36 13.66 0 14 C0 12.35 0 10.7 0 9 C-0.99 8.67 -1.98 8.34 -3 8 Z " fill="#000000" transform="translate(117,188)"/>
<path d="M0 0 C1.32 0.33 2.64 0.66 4 1 C3.34 1.66 2.68 2.32 2 3 C1.81679674 6.04792297 1.75887909 9.00402985 1.78881836 12.05200195 C1.7901326 12.99035889 1.79144684 13.92871582 1.7928009 14.89550781 C1.79931281 18.00986661 1.81975875 21.12398294 1.83984375 24.23828125 C1.84611211 26.39820591 1.85135288 28.55813378 1.85560608 30.71806335 C1.86893578 36.41589583 1.89337576 42.11362199 1.92095947 47.81140137 C1.96399912 56.92151371 1.99380546 66.03165382 2.0170002 75.14183617 C2.02722557 78.32647558 2.04427994 81.51102751 2.06199646 84.69563293 C2.06882593 86.65035931 2.07543463 88.60508647 2.08178711 90.55981445 C2.08852448 91.44571762 2.09526184 92.33162079 2.10220337 93.24436951 C2.10969836 97.3000823 2.02521836 101.04323811 1 105 C0.67 105 0.34 105 0 105 C0 70.35 0 35.7 0 0 Z " fill="#8B8B8B" transform="translate(45,65)"/>
<path d="M0 0 C0.99 0 1.98 0 3 0 C3 0.99 3 1.98 3 3 C4.98 3 6.96 3 9 3 C9.33 4.32 9.66 5.64 10 7 C10.66 7 11.32 7 12 7 C12.33 5.68 12.66 4.36 13 3 C14.32 3.33 15.64 3.66 17 4 C16.21527835 6.29426252 15.42261339 8.58522223 14.625 10.875 C14.29242188 11.85146484 14.29242188 11.85146484 13.953125 12.84765625 C12.93037374 15.76550545 12.21443349 17.78556651 10 20 C8.68 20 7.36 20 6 20 C6 19.01 6 18.02 6 17 C6.66 16.67 7.32 16.34 8 16 C7.745504 14.51793505 7.47088238 13.03931385 7.1875 11.5625 C7.03667969 10.73878906 6.88585937 9.91507813 6.73046875 9.06640625 C6.36888672 8.04353516 6.36888672 8.04353516 6 7 C5.01 6.67 4.02 6.34 3 6 C3 7.98 3 9.96 3 12 C3.66 12 4.32 12 5 12 C5 13.32 5 14.64 5 16 C3.35 15.67 1.7 15.34 0 15 C0 12.03 0 9.06 0 6 C-0.66 6 -1.32 6 -2 6 C-2 5.01 -2 4.02 -2 3 C-1.34 3 -0.68 3 0 3 C0 2.01 0 1.02 0 0 Z " fill="#000000" transform="translate(91,210)"/>
<path d="M0 0 C3.33333333 0 6.66666667 0 10 0 C11.7325 -0.0928125 11.7325 -0.0928125 13.5 -0.1875 C14.655 -0.125625 15.81 -0.06375 17 0 C19.31332486 3.46998729 19.33957563 4.92509248 19 9 C17 12 17 12 14.6875 13 C12 13 12 13 9.1875 10.8125 C7 8 7 8 7 4 C6.34 4 5.68 4 5 4 C4.67 6.64 4.34 9.28 4 12 C2.68 12 1.36 12 0 12 C0 8.04 0 4.08 0 0 Z M12 3 C11.67 4.65 11.34 6.3 11 8 C12.32 8.33 13.64 8.66 15 9 C15 7.02 15 5.04 15 3 C14.01 3 13.02 3 12 3 Z " fill="#000000" transform="translate(77,193)"/>
<path d="M0 0 C0.70125 0.00515625 1.4025 0.0103125 2.125 0.015625 C2.82625 0.01046875 3.5275 0.0053125 4.25 0 C6.125 0.265625 6.125 0.265625 8.125 2.265625 C8.125 3.255625 8.125 4.245625 8.125 5.265625 C6.805 5.265625 5.485 5.265625 4.125 5.265625 C4.125 4.605625 4.125 3.945625 4.125 3.265625 C2.805 3.265625 1.485 3.265625 0.125 3.265625 C1.94179655 5.27366329 3.36611255 6.38898491 5.8125 7.640625 C8.125 9.265625 8.125 9.265625 8.75 11.765625 C8.125 14.265625 8.125 14.265625 6.0625 16.203125 C2.14189218 17.62121719 -0.04678513 16.6918227 -3.875 15.265625 C-4.205 13.945625 -4.535 12.625625 -4.875 11.265625 C-1.85080475 11.85366297 1.14258453 12.49240618 4.125 13.265625 C2.30820345 11.25758671 0.88388745 10.14226509 -1.5625 8.890625 C-2.325625 8.354375 -3.08875 7.818125 -3.875 7.265625 C-4.3125 4.703125 -4.3125 4.703125 -3.875 2.265625 C-1.875 0.265625 -1.875 0.265625 0 0 Z " fill="#000000" transform="translate(31.875,188.734375)"/>
<path d="M0 0 C1.32 0 2.64 0 4 0 C4 1.65 4 3.3 4 5 C5.98 5 7.96 5 10 5 C11.26237731 7.52475462 11.09856404 9.31200466 11.0625 12.125 C11.05347656 13.03507813 11.04445313 13.94515625 11.03515625 14.8828125 C11.02355469 15.58148438 11.01195313 16.28015625 11 17 C9.68 17 8.36 17 7 17 C7 14.03 7 11.06 7 8 C6.01 8 5.02 8 4 8 C4 10.97 4 13.94 4 17 C2.68 17 1.36 17 0 17 C0 11.39 0 5.78 0 0 Z " fill="#000000" transform="translate(65,188)"/>
<path d="M0 0 C1.32 0 2.64 0 4 0 C4 1.65 4 3.3 4 5 C5.98 5 7.96 5 10 5 C10.96070434 7.88211302 11.10581883 9.69850044 11.0625 12.6875 C11.05347656 13.49574219 11.04445313 14.30398437 11.03515625 15.13671875 C11.02355469 15.75160156 11.01195312 16.36648437 11 17 C9.68 17 8.36 17 7 17 C7 14.03 7 11.06 7 8 C6.01 8 5.02 8 4 8 C4 10.97 4 13.94 4 17 C2.68 17 1.36 17 0 17 C0 11.39 0 5.78 0 0 Z " fill="#000000" transform="translate(41,188)"/>
<path d="M0 0 C0.99 0 1.98 0 3 0 C3.33 4.29 3.66 8.58 4 13 C5.32 13 6.64 13 8 13 C8.33 8.71 8.66 4.42 9 0 C9.99 0 10.98 0 12 0 C12.13489391 2.26921536 12.23193995 4.5407067 12.3125 6.8125 C12.39951172 8.70935547 12.39951172 8.70935547 12.48828125 10.64453125 C12 14 12 14 9.68359375 15.99609375 C6.11085288 17.33262127 4.40342278 16.54701035 1 15 C0 14 0 14 -0.09765625 10.83984375 C-0.08025391 8.90818359 -0.08025391 8.90818359 -0.0625 6.9375 C-0.05347656 5.64714844 -0.04445313 4.35679687 -0.03515625 3.02734375 C-0.02355469 2.02832031 -0.01195312 1.02929688 0 0 Z " fill="#000000" transform="translate(11,209)"/>
<path d="M0 0 C2.31332486 3.46998729 2.33957563 4.92509248 2 9 C0 12 0 12 -2.375 12.8125 C-5.32703618 13.02335973 -6.57434783 12.64597826 -9 11 C-10.39935013 8.20129973 -10.25265405 6.09501208 -10 3 C-7.72386284 -1.01671263 -4.20715633 -0.45896251 0 0 Z M-5 3 C-5.33 4.65 -5.66 6.3 -6 8 C-4.68 8.33 -3.36 8.66 -2 9 C-2 7.35 -2 5.7 -2 4 C-2.99 3.67 -3.98 3.34 -5 3 Z " fill="#000000" transform="translate(123,213)"/>
<path d="M0 0 C2 2 2 2 2.125 4.625 C2.08375 5.40875 2.0425 6.1925 2 7 C1.01 7.33 0.02 7.66 -1 8 C-0.01 8.33 0.98 8.66 2 9 C1.67 9.99 1.34 10.98 1 12 C-1.81736172 12.78260048 -3.45969238 13.19511109 -6.25 12.1875 C-8 11 -8 11 -9 9 C-9.44720497 3.74534161 -9.44720497 3.74534161 -7.875 1.125 C-5.15781176 -0.50531294 -3.10347254 -0.33015665 0 0 Z " fill="#000000" transform="translate(62,213)"/>
<path d="M0 0 C3.5 0.125 3.5 0.125 4.5 1.125 C4.73363881 2.97391946 4.91303635 4.82988031 5.0625 6.6875 C5.14628906 7.69941406 5.23007812 8.71132812 5.31640625 9.75390625 C5.37699219 10.53636719 5.43757813 11.31882813 5.5 12.125 C-2.125 13.375 -2.125 13.375 -5.5 11.125 C-5.87402935 7.66522856 -5.34072667 4.48790668 -4.5 1.125 C-3.5 0.125 -3.5 0.125 0 0 Z M-1.5 7.125 C-1.5 7.785 -1.5 8.445 -1.5 9.125 C-0.51 9.125 0.48 9.125 1.5 9.125 C1.5 8.465 1.5 7.805 1.5 7.125 C0.51 7.125 -0.48 7.125 -1.5 7.125 Z " fill="#000000" transform="translate(58.5,192.875)"/>
<path d="M0 0 C3.5 -0.3125 3.5 -0.3125 7 0 C9 2 9 2 9.125 4.625 C9.08375 5.40875 9.0425 6.1925 9 7 C6.69 7 4.38 7 2 7 C2 7.66 2 8.32 2 9 C3.98 8.67 5.96 8.34 8 8 C8 9.32 8 10.64 8 12 C5.18263828 12.78260048 3.54030762 13.19511109 0.75 12.1875 C-1 11 -1 11 -2 9 C-2.25860135 4.94857881 -2.30441554 3.45662331 0 0 Z " fill="#000000" transform="translate(32,233)"/>
<path d="M0 0 C3.3 0 6.6 0 10 0 C10.96070434 2.88211302 11.10581883 4.69850044 11.0625 7.6875 C11.05347656 8.49574219 11.04445313 9.30398437 11.03515625 10.13671875 C11.02355469 10.75160156 11.01195313 11.36648437 11 12 C9.68 12 8.36 12 7 12 C7 9.03 7 6.06 7 3 C6.01 3 5.02 3 4 3 C4 5.97 4 8.94 4 12 C2.68 12 1.36 12 0 12 C0 8.04 0 4.08 0 0 Z " fill="#000000" transform="translate(66,233)"/>
<path d="M0 0 C2.05078125 0.03255208 4.1015625 0.06510417 6.15234375 0.09765625 C7.15536599 3.85898964 7.15234375 7.21198919 7.15234375 11.09765625 C1.73695913 13.31304087 1.73695913 13.31304087 -1.22265625 12.22265625 C-1.75890625 11.85140625 -2.29515625 11.48015625 -2.84765625 11.09765625 C-2.84765625 10.10765625 -2.84765625 9.11765625 -2.84765625 8.09765625 C-1.52765625 8.09765625 -0.20765625 8.09765625 1.15234375 8.09765625 C-0.16765625 7.43765625 -1.48765625 6.77765625 -2.84765625 6.09765625 C-2.89037725 4.4315372 -2.88829457 2.7638274 -2.84765625 1.09765625 C-1.84765625 0.09765625 -1.84765625 0.09765625 0 0 Z " fill="#000000" transform="translate(75.84765625,212.90234375)"/>
<path d="M0 0 C3.3 0 6.6 0 10 0 C10.96070434 2.88211302 11.10581883 4.69850044 11.0625 7.6875 C11.05347656 8.49574219 11.04445313 9.30398437 11.03515625 10.13671875 C11.02355469 10.75160156 11.01195312 11.36648437 11 12 C9.68 12 8.36 12 7 12 C7 9.03 7 6.06 7 3 C6.01 3 5.02 3 4 3 C4 5.97 4 8.94 4 12 C2.68 12 1.36 12 0 12 C0 8.04 0 4.08 0 0 Z " fill="#000000" transform="translate(25,213)"/>
<path d="M0 0 C3.5625 0.4375 3.5625 0.4375 5.625 2.5625 C6.5625 5.4375 6.5625 5.4375 6.0625 8.625 C4.5625 11.4375 4.5625 11.4375 2.25 13 C-0.4375 13.4375 -0.4375 13.4375 -3.25 12.5625 C-5.72639368 10.15686042 -5.79103914 9.66746504 -5.875 6.375 C-5.32211471 1.39903239 -4.9692283 0.63244724 0 0 Z M-1.4375 3.4375 C-2.44861093 6.48663228 -2.44861093 6.48663228 -1.4375 9.4375 C-0.1175 9.1075 1.2025 8.7775 2.5625 8.4375 C2.2325 6.7875 1.9025 5.1375 1.5625 3.4375 C0.5725 3.4375 -0.4175 3.4375 -1.4375 3.4375 Z " fill="#000000" transform="translate(83.4375,232.5625)"/>
<path d="M0 0 C0.99 0 1.98 0 3 0 C3 1.65 3 3.3 3 5 C3.969375 4.979375 4.93875 4.95875 5.9375 4.9375 C9 5 9 5 10 6 C10.07226502 7.85287502 10.0838122 9.70833878 10.0625 11.5625 C10.05347656 12.57441406 10.04445313 13.58632812 10.03515625 14.62890625 C10.02355469 15.41136719 10.01195313 16.19382813 10 17 C9.01 17 8.02 17 7 17 C6.67 14.36 6.34 11.72 6 9 C5.34 9 4.68 9 4 9 C3.67 11.64 3.34 14.28 3 17 C2.01 17 1.02 17 0 17 C0 11.39 0 5.78 0 0 Z " fill="#000000" transform="translate(54,228)"/>
<path d="M0 0 C4.62 0 9.24 0 14 0 C14 0.99 14 1.98 14 3 C12.35 3 10.7 3 9 3 C9 7.29 9 11.58 9 16 C7.68 16 6.36 16 5 16 C5 11.71 5 7.42 5 3 C3.35 3 1.7 3 0 3 C0 2.01 0 1.02 0 0 Z " fill="#000000" transform="translate(17,229)"/>
<path d="M0 0 C3.5 0.25 3.5 0.25 5.5 2.25 C5.5 3.24 5.5 4.23 5.5 5.25 C4.18 5.25 2.86 5.25 1.5 5.25 C1.5 4.59 1.5 3.93 1.5 3.25 C0.51 3.25 -0.48 3.25 -1.5 3.25 C-1.5 5.23 -1.5 7.21 -1.5 9.25 C1.965 8.755 1.965 8.755 5.5 8.25 C4.56045053 10.67716947 4.04189724 11.96970832 1.6875 13.1875 C-1.65770394 13.28307726 -3.04024833 12.50477237 -5.5 10.25 C-6.08403017 7.35934564 -5.83385606 5.25470456 -5.5 2.25 C-3.5 0.25 -3.5 0.25 0 0 Z " fill="#000000" transform="translate(47.5,232.75)"/>
<path d="M0 0 C1.98 0 3.96 0 6 0 C6 0.99 6 1.98 6 3 C5.01 3 4.02 3 3 3 C3 3.66 3 4.32 3 5 C3.66 5 4.32 5 5 5 C5 5.99 5 6.98 5 8 C4.34 8 3.68 8 3 8 C3 10.97 3 13.94 3 17 C1.68 17 0.36 17 -1 17 C-1 14.03 -1 11.06 -1 8 C-1.66 8 -2.32 8 -3 8 C-3 7.01 -3 6.02 -3 5 C-2.34 5 -1.68 5 -1 5 C-0.67 3.35 -0.34 1.7 0 0 Z " fill="#000000" transform="translate(128,208)"/>
<path d="M0 0 C1.32 0 2.64 0 4 0 C4.66 0.99 5.32 1.98 6 3 C6.33 2.01 6.66 1.02 7 0 C8.32 0 9.64 0 11 0 C10.33501617 4.38889325 8.81242323 7.9811485 7 12 C5.109375 11.7421875 5.109375 11.7421875 3 11 C1.953125 9.2578125 1.953125 9.2578125 1.25 7.125 C1.00765625 6.42632812 0.7653125 5.72765625 0.515625 5.0078125 C0 3 0 3 0 0 Z " fill="#000000" transform="translate(42,213)"/>
<path d="M0 0 C1.32 0 2.64 0 4 0 C4 5.61 4 11.22 4 17 C2.68 17 1.36 17 0 17 C0 11.39 0 5.78 0 0 Z " fill="#000000" transform="translate(91,228)"/>
<path d="M0 0 C2.64 0 5.28 0 8 0 C7 3 7 3 5 4 C4.53476937 5.89533342 4.53476937 5.89533342 4.375 8.0625 C4.189375 10.0115625 4.189375 10.0115625 4 12 C2.68 12 1.36 12 0 12 C0 8.04 0 4.08 0 0 Z " fill="#000000" transform="translate(65,213)"/>
<path d="M0 0 C1.32 0 2.64 0 4 0 C4 3.96 4 7.92 4 12 C2.68 12 1.36 12 0 12 C0 8.04 0 4.08 0 0 Z " fill="#000000" transform="translate(37,213)"/>
<path d="M0 0 C0.99 0 1.98 0 3 0 C3 3.96 3 7.92 3 12 C2.01 12 1.02 12 0 12 C0 8.04 0 4.08 0 0 Z " fill="#000000" transform="translate(85,213)"/>
<path d="M0 0 C1.32 0.33 2.64 0.66 4 1 C3.34 1.66 2.68 2.32 2 3 C1.53603307 5.89223503 1.53603307 5.89223503 1.375 9.125 C1.30023438 10.22070312 1.22546875 11.31640625 1.1484375 12.4453125 C1.09945312 13.28835937 1.05046875 14.13140625 1 15 C0.67 15 0.34 15 0 15 C0 10.05 0 5.1 0 0 Z " fill="#383838" transform="translate(45,65)"/>
<path d="M0 0 C0.99 0.33 1.98 0.66 3 1 C3 1.99 3 2.98 3 4 C1.68 3.67 0.36 3.34 -1 3 C-0.67 2.01 -0.34 1.02 0 0 Z " fill="#000000" transform="translate(38,208)"/>
<path d="M0 0 C0.99 0.33 1.98 0.66 3 1 C3 1.99 3 2.98 3 4 C2.01 4 1.02 4 0 4 C0 2.68 0 1.36 0 0 Z " fill="#000000" transform="translate(85,208)"/>
</svg>
