<?xml version="1.0" encoding="UTF-8"?>
<svg version="1.1" xmlns="http://www.w3.org/2000/svg" width="184" height="184">
<path d="M0 0 C60.72 0 121.44 0 184 0 C184 60.72 184 121.44 184 184 C123.28 184 62.56 184 0 184 C0 123.28 0 62.56 0 0 Z " fill="#2E2558" transform="translate(0,0)"/>
<path d="M0 0 C2.475 1.98 2.475 1.98 5 4 C3.57236352 7.7544094 1.86413452 11.2566634 0 14.8125 C-6.21651869 27.30618635 -6.66176751 39.59890093 -2.8125 53 C-2.61648193 53.69343506 -2.42046387 54.38687012 -2.21850586 55.10131836 C-1.05775472 58.79194596 0.35372889 61.69502936 2.65625 64.81640625 C5.02419194 68.03286071 5.58420006 69.1442796 5 73 C5.99 73.33 6.98 73.66 8 74 C8 75.32 8 76.64 8 78 C7.01 78.495 7.01 78.495 6 79 C9.08809695 77.23537317 10.23312136 77 14 77 C15.65782076 78.19363095 17.31262863 79.39203285 18.94140625 80.625 C26.88084913 85.92800549 35.64432752 87.17870707 45 87.1875 C45.68578125 87.19974609 46.3715625 87.21199219 47.078125 87.22460938 C51.4653683 87.23716828 54.93210947 86.61020667 59 85 C60.2684375 84.505 60.2684375 84.505 61.5625 84 C62.366875 83.67 63.17125 83.34 64 83 C67.63012582 81.53040223 71.26321563 80.18003717 75 79 C79.7545717 83.37921078 79.7545717 83.37921078 81.0625 86.6875 C81.80209457 89.14131428 81.80209457 89.14131428 84 90.3125 C85.96275128 91.10835992 85.96275128 91.10835992 88 91 C94.82428016 86.30630496 99.40153114 79.76317361 104 73 C106.9375 73.8125 106.9375 73.8125 110 75 C110.33 75.99 110.66 76.98 111 78 C109.62260822 80.21778279 108.24599436 82.15951654 106.625 84.1875 C106.16963867 84.76685303 105.71427734 85.34620605 105.24511719 85.94311523 C99.80129149 92.71205789 93.52099805 98.59746456 86 103 C85.34 103 84.68 103 84 103 C84 103.66 84 104.32 84 105 C84.66 105.33 85.32 105.66 86 106 C85.38125 106.226875 84.7625 106.45375 84.125 106.6875 C81.38589791 108.37929835 80.94975528 109.99244161 80 113 C79.37351562 112.97679687 78.74703125 112.95359375 78.1015625 112.9296875 C77.28429687 112.91164063 76.46703125 112.89359375 75.625 112.875 C74.81289062 112.85179687 74.00078125 112.82859375 73.1640625 112.8046875 C70.78657757 112.78629949 70.78657757 112.78629949 69 115 C66.8359375 115.1953125 66.8359375 115.1953125 64.375 115.125 C63.55773437 115.10695313 62.74046875 115.08890625 61.8984375 115.0703125 C61.27195312 115.04710937 60.64546875 115.02390625 60 115 C60.33 116.32 60.66 117.64 61 119 C59.02 119.99 59.02 119.99 57 121 C55.5 119.625 55.5 119.625 54 118 C54 117.34 54 116.68 54 116 C53.34 116 52.68 116 52 116 C51.505 117.98 51.505 117.98 51 120 C50.34 120 49.68 120 49 120 C49 119.01 49 118.02 49 117 C44.60129011 115.09785518 41.61406822 114.55810368 37 116 C36.01 116.66 35.02 117.32 34 118 C34.33 118.66 34.66 119.32 35 120 C32.625 119.75 32.625 119.75 30 119 C28.6875 116.9375 28.6875 116.9375 28 115 C27.01 115 26.02 115 25 115 C25 114.01 25 113.02 25 112 C24.33355469 111.85304688 23.66710937 111.70609375 22.98046875 111.5546875 C12.75636886 109.06658487 2.7142515 104.33848567 -5 97 C-5 96.34 -5 95.68 -5 95 C-5.58007812 94.74347656 -6.16015625 94.48695313 -6.7578125 94.22265625 C-20.06791772 86.96470689 -26.75819519 69.8953718 -30.875 56.25 C-32.1745057 51.13557112 -32.30743556 46.24917749 -32 41 C-29.69 41 -27.38 41 -25 41 C-24.34 44.96 -23.68 48.92 -23 53 C-21.515 52.505 -21.515 52.505 -20 52 C-19.67 52.33 -19.34 52.66 -19 53 C-18.67 51.68 -18.34 50.36 -18 49 C-17.01 49 -16.02 49 -15 49 C-14.9906543 48.43192627 -14.98130859 47.86385254 -14.97167969 47.27856445 C-14.59937642 29.22368108 -12.49720659 13.92545877 0 0 Z " fill="#40366D" transform="translate(47,55)"/>
<path d="M0 0 C0.495 1.98 0.495 1.98 1 4 C3.88214887 3.11785113 3.88214887 3.11785113 6 2 C6.66 2.99 7.32 3.98 8 5 C8.66 3.35 9.32 1.7 10 0 C21.25349345 2.17809551 29.87432512 6.02526408 39 13 C39.58910156 13.43441406 40.17820312 13.86882813 40.78515625 14.31640625 C44.75047294 17.38927315 47.40491326 20.75349442 50 25 C49.505 26.485 49.505 26.485 49 28 C45.9375 29.1875 45.9375 29.1875 43 30 C42.62230469 29.43152344 42.24460937 28.86304687 41.85546875 28.27734375 C34.95392915 18.59579289 24.51814897 12.01279853 12.8203125 9.5390625 C11.22108483 9.30142626 9.6107088 9.14006164 8 9 C8.495 11.475 8.495 11.475 9 14 C8.34 14 7.68 14 7 14 C6.505 12.515 6.505 12.515 6 11 C2.88214887 11.64644661 2.88214887 11.64644661 2 14 C1.01 13.67 0.02 13.34 -1 13 C-1 13.66 -1 14.32 -1 15 C-1.99 14.67 -2.98 14.34 -4 14 C-4 13.34 -4 12.68 -4 12 C-3.01 11.67 -2.02 11.34 -1 11 C-1 10.34 -1 9.68 -1 9 C-3.57327433 10.21030974 -3.57327433 10.21030974 -6 12 C-6 13.32 -6 14.64 -6 16 C-6.94875 15.979375 -7.8975 15.95875 -8.875 15.9375 C-11.90666283 15.77448174 -11.90666283 15.77448174 -14 17 C-14.65213292 19.02463255 -14.65213292 19.02463255 -15 21 C-14.34 20.67 -13.68 20.34 -13 20 C-13 19.34 -13 18.68 -13 18 C-12.34 18 -11.68 18 -11 18 C-11 18.66 -11 19.32 -11 20 C-9.80503906 19.96519531 -8.61007813 19.93039063 -7.37890625 19.89453125 C8.30130573 19.5783581 8.30130573 19.5783581 16 23 C15.67 24.98 15.34 26.96 15 29 C11.98968256 29.93423645 11.13349732 30.04449911 8 29 C-1.73225078 28.27293751 -10.93414207 27.69396562 -19 34 C-25.7641853 40.11333586 -29.55887096 45.65061243 -30.30859375 54.7421875 C-30.60956249 61.82916529 -30.40546933 68.04849613 -26.875 74.3984375 C-26 76 -26 76 -26 78 C-25.01 78.33 -24.02 78.66 -23 79 C-22.319375 79.7425 -21.63875 80.485 -20.9375 81.25 C-14.93485524 87.25264476 -8.88984746 89.25055294 -0.51220703 89.34057617 C3.33081715 89.29966266 7.16072577 89.1773792 11 89 C11.66 91.31 12.32 93.62 13 96 C2.04426217 99.30739255 -7.50212884 98.71814434 -18 94 C-21.01265981 92.30272687 -23.47551268 90.35686543 -26 88 C-26.77472656 87.278125 -27.54945312 86.55625 -28.34765625 85.8125 C-36.38916104 77.65331465 -39.31026907 69.39760105 -39.5625 58 C-39.4654174 47.36630379 -35.36660934 37.69444274 -28 30 C-25.125 28 -25.125 28 -23 27 C-23.474375 26.62875 -23.94875 26.2575 -24.4375 25.875 C-26.52205802 23.37353038 -26.64621491 21.18406582 -27 18 C-28.98 18.66 -30.96 19.32 -33 20 C-34.32 18.68 -35.64 17.36 -37 16 C-34.73628294 10.20081473 -29.25822126 7.80177836 -24 5 C-16.13857019 1.77826067 -8.53158202 -0.20313291 0 0 Z " fill="#F6F5F8" transform="translate(91,34)"/>
<path d="M0 0 C3.34998521 -1.11666174 3.79340222 -1.74694925 5.6875 -4.5625 C6.12449219 -5.20316406 6.56148438 -5.84382813 7.01171875 -6.50390625 C7.33785156 -6.99761719 7.66398437 -7.49132812 8 -8 C8.99 -7.505 8.99 -7.505 10 -7 C10 -6.34 10 -5.68 10 -5 C9.34 -5 8.68 -5 8 -5 C8.495 -2.03 8.495 -2.03 9 1 C7.824375 1.0928125 7.824375 1.0928125 6.625 1.1875 C5.75875 1.455625 4.8925 1.72375 4 2 C2.67518454 4.39529669 2.67518454 4.39529669 2 7 C1.33333333 8.33333333 0.66666667 9.66666667 0 11 C-4.86880521 10.48749419 -8.91296741 8.91479048 -13.38671875 7.0546875 C-17.19760537 5.51666151 -21.0861902 4.24788138 -25 3 C-25.33 4.98 -25.66 6.96 -26 9 C-26.61875 8.649375 -27.2375 8.29875 -27.875 7.9375 C-28.57625 7.628125 -29.2775 7.31875 -30 7 C-30.66 7.33 -31.32 7.66 -32 8 C-32.66 7.67 -33.32 7.34 -34 7 C-34.33 7.99 -34.66 8.98 -35 10 C-35 7.69 -35 5.38 -35 3 C-48.68669362 5.43811546 -59.78834424 8.34197516 -71 17 C-69.6910428 20.12197478 -69.6910428 20.12197478 -67 22 C-66.01 21.34 -65.02 20.68 -64 20 C-63.01 20.33 -62.02 20.66 -61 21 C-60.25 22.9375 -60.25 22.9375 -60 25 C-60.495 25.99 -60.495 25.99 -61 27 C-59.68 27.66 -58.36 28.32 -57 29 C-58.28965176 30.37562854 -59.62689293 31.70766393 -61 33 C-61.66 33 -62.32 33 -63 33 C-63.26941406 33.5671875 -63.53882813 34.134375 -63.81640625 34.71875 C-65.04969984 37.09579112 -66.47063011 39.26050399 -67.9375 41.5 C-72.48436463 49.0078716 -74.01904068 57.36755794 -75 66 C-76.85776765 62.86501708 -77.20140476 60.62528568 -77 57 C-77.66 57 -78.32 57 -79 57 C-79 55.68 -79 54.36 -79 53 C-79.99 53.495 -79.99 53.495 -81 54 C-81.33 54.99 -81.66 55.98 -82 57 C-82.66 57 -83.32 57 -84 57 C-84.770378 47.60138842 -81.4904329 40.91691865 -76.5625 33.0625 C-74.63831469 30.1690575 -74.63831469 30.1690575 -75.75 27.5625 C-76.1625 27.046875 -76.575 26.53125 -77 26 C-77.99 26 -78.98 26 -80 26 C-85.40336518 31.84626396 -88.20242451 39.68421631 -91 47 C-91.66 45.68 -92.32 44.36 -93 43 C-93.66 43 -94.32 43 -95 43 C-98.27087248 32.77852349 -98.27087248 32.77852349 -95.97265625 27.75390625 C-86.87783864 11.60493647 -72.22068913 -0.25977029 -54.6953125 -6.1015625 C-36.1899988 -10.76054736 -16.83431307 -8.91228339 0 0 Z " fill="#1F1840" transform="translate(126,31)"/>
<path d="M0 0 C1.65 1.32 3.3 2.64 5 4 C3.57236352 7.7544094 1.86413452 11.2566634 0 14.8125 C-6.21651869 27.30618635 -6.66176751 39.59890093 -2.8125 53 C-2.61648193 53.69343506 -2.42046387 54.38687012 -2.21850586 55.10131836 C-1.05775472 58.79194596 0.35372889 61.69502936 2.65625 64.81640625 C5.02419194 68.03286071 5.58420006 69.1442796 5 73 C6.485 73.495 6.485 73.495 8 74 C8 75.32 8 76.64 8 78 C7.01 78.495 7.01 78.495 6 79 C11.97320446 88.23131598 23.44758268 92.06191081 33.69091797 94.55859375 C40.69044839 95.89663044 47.89489541 95.91504766 55 96 C55 96.33 55 96.66 55 97 C54.30962646 97.02505615 53.61925293 97.0501123 52.90795898 97.07592773 C49.75098591 97.1926566 46.59425543 97.31503178 43.4375 97.4375 C42.35146484 97.47681641 41.26542969 97.51613281 40.14648438 97.55664062 C34.69589254 97.77201355 29.37924559 98.08159222 24 99 C24 100.32 24 101.64 24 103 C13.03736814 102.75084928 2.70131611 94.2078085 -5 87 C-13.5980136 77.52556322 -21.88694383 66.07840994 -23 53 C-21.515 52.505 -21.515 52.505 -20 52 C-19.67 52.33 -19.34 52.66 -19 53 C-18.67 51.68 -18.34 50.36 -18 49 C-17.01 49 -16.02 49 -15 49 C-14.9906543 48.43192627 -14.98130859 47.86385254 -14.97167969 47.27856445 C-14.59937642 29.22368108 -12.49720659 13.92545877 0 0 Z " fill="#3C3464" transform="translate(47,55)"/>
<path d="M0 0 C15.61141887 -0.83993332 29.35538281 2.24627207 42.98291016 10.11474609 C42.50171873 14.68606462 42.50171873 14.68606462 40.22900391 16.56396484 C37.10873089 17.32911005 35.85018301 16.43296626 33.04541016 14.92724609 C18.3907085 7.8698503 -1.5224211 6.13745998 -17.20458984 11.30224609 C-35.17141841 17.65785892 -49.22629092 29.25542089 -58.51318359 45.95458984 C-61.87736177 53.02373308 -63.84199937 60.39601457 -65.01708984 68.11474609 C-67.65708984 68.11474609 -70.29708984 68.11474609 -73.01708984 68.11474609 C-72.94430667 50.61039371 -63.2440015 34.02320733 -51.26708984 21.73974609 C-45.49863283 16.07061719 -39.123874 11.98181046 -32.01708984 8.11474609 C-31.27587891 7.69580078 -30.53466797 7.27685547 -29.77099609 6.84521484 C-20.20717809 1.70730859 -10.67814712 0.60744725 0 0 Z " fill="#EEEDF2" transform="translate(88.01708984375,14.88525390625)"/>
<path d="M0 0 C0.495 1.98 0.495 1.98 1 4 C3.88214887 3.11785113 3.88214887 3.11785113 6 2 C6.66 2.99 7.32 3.98 8 5 C8.66 3.35 9.32 1.7 10 0 C21.25349345 2.17809551 29.87432512 6.02526408 39 13 C39.58910156 13.43441406 40.17820312 13.86882813 40.78515625 14.31640625 C44.75047294 17.38927315 47.40491326 20.75349442 50 25 C49.505 26.485 49.505 26.485 49 28 C45.9375 29.1875 45.9375 29.1875 43 30 C42.62230469 29.43152344 42.24460937 28.86304687 41.85546875 28.27734375 C34.95392915 18.59579289 24.51814897 12.01279853 12.8203125 9.5390625 C11.22108483 9.30142626 9.6107088 9.14006164 8 9 C8.495 11.475 8.495 11.475 9 14 C8.34 14 7.68 14 7 14 C6.505 12.515 6.505 12.515 6 11 C2.88214887 11.64644661 2.88214887 11.64644661 2 14 C1.01 13.67 0.02 13.34 -1 13 C-1 13.66 -1 14.32 -1 15 C-1.99 14.67 -2.98 14.34 -4 14 C-4 13.34 -4 12.68 -4 12 C-3.01 11.67 -2.02 11.34 -1 11 C-1 10.34 -1 9.68 -1 9 C-3.57327433 10.21030974 -3.57327433 10.21030974 -6 12 C-6 13.32 -6 14.64 -6 16 C-7.423125 15.9690625 -7.423125 15.9690625 -8.875 15.9375 C-11.90666283 15.77448174 -11.90666283 15.77448174 -14 17 C-14.65213292 19.02463255 -14.65213292 19.02463255 -15 21 C-14.34 20.67 -13.68 20.34 -13 20 C-13 19.34 -13 18.68 -13 18 C-12.34 18 -11.68 18 -11 18 C-11 18.66 -11 19.32 -11 20 C-10.01 20.33 -9.02 20.66 -8 21 C-19.52164009 25.40774487 -19.52164009 25.40774487 -25 26 C-25.66 23.36 -26.32 20.72 -27 18 C-28.98 18.66 -30.96 19.32 -33 20 C-34.32 18.68 -35.64 17.36 -37 16 C-34.73628294 10.20081473 -29.25822126 7.80177836 -24 5 C-16.13857019 1.77826067 -8.53158202 -0.20313291 0 0 Z " fill="#282149" transform="translate(91,34)"/>
<path d="M0 0 C10.58163551 0.84860907 21.66787588 3.73239797 29 12 C28.67 12.66 28.34 13.32 28 14 C26.35 14 24.7 14 23 14 C22.505 12.515 22.505 12.515 22 11 C20.82780457 11.78345715 19.66236332 12.57702836 18.5 13.375 C17.8503125 13.81585938 17.200625 14.25671875 16.53125 14.7109375 C16.0259375 15.13632812 15.520625 15.56171875 15 16 C15 16.66 15 17.32 15 18 C14.01 18.495 14.01 18.495 13 19 C13.495 21.97 13.495 21.97 14 25 C13.01 24.34 12.02 23.68 11 23 C10.67 23.66 10.34 24.32 10 25 C7.4375 25.625 7.4375 25.625 5 26 C5.56589844 26.268125 6.13179687 26.53625 6.71484375 26.8125 C12.63438314 29.97513616 12.63438314 29.97513616 13.75390625 33.11328125 C14 35.3125 14 35.3125 14 39 C13.50371094 38.60167969 13.00742188 38.20335937 12.49609375 37.79296875 C6.54373127 33.15080371 1.08693106 29.37101275 -6.80859375 29.7109375 C-10.99636976 30.26333576 -15.20647837 31.11029034 -19 33 C-20.31959012 35.0109809 -20.31959012 35.0109809 -21 37 C-21.66 37 -22.32 37 -23 37 C-23.99 39.97 -24.98 42.94 -26 46 C-26.99 45.67 -27.98 45.34 -29 45 C-29.495 43.515 -29.495 43.515 -30 42 C-30.33 43.32 -30.66 44.64 -31 46 C-31.66 44.68 -32.32 43.36 -33 42 C-33.66 42 -34.32 42 -35 42 C-35.11670893 36.63138907 -33.53942015 33.96405398 -30.0625 29.875 C-23.51465028 23.15295084 -17.96517919 19.83086194 -8.52929688 19.62158203 C-2.93641999 19.62996895 2.4909734 19.94323704 8 21 C8.66 19.02 9.32 17.04 10 15 C1.12403951 12.53445542 -7.84634482 12.37523074 -17 12 C-17 11.34 -17 10.68 -17 10 C-17.66 10 -18.32 10 -19 10 C-18.67 10.99 -18.34 11.98 -18 13 C-18.99 13 -19.98 13 -21 13 C-20.79375 12.38125 -20.5875 11.7625 -20.375 11.125 C-20.25125 10.42375 -20.1275 9.7225 -20 9 C-20.66 8.34 -21.32 7.68 -22 7 C-15.375 6.875 -15.375 6.875 -12 8 C-12.2475 7.1028125 -12.2475 7.1028125 -12.5 6.1875 C-13 4 -13 4 -13 1 C-11.02 1 -9.04 1 -7 1 C-6.67 1.99 -6.34 2.98 -6 4 C-6.99 4.66 -7.98 5.32 -9 6 C-8.34 6.33 -7.68 6.66 -7 7 C-7 6.34 -7 5.68 -7 5 C-6.030625 4.87625 -5.06125 4.7525 -4.0625 4.625 C-3.051875 4.41875 -2.04125 4.2125 -1 4 C-0.67 3.34 -0.34 2.68 0 2 C0.495 3.98 0.495 3.98 1 6 C1.33 4.35 1.66 2.7 2 1 C1.34 0.67 0.68 0.34 0 0 Z " fill="#2A234B" transform="translate(97,42)"/>
<path d="M0 0 C2.79620478 1.35753849 3.9052203 2.57446561 6 5 C6.495 6.98 6.495 6.98 7 9 C9.97 9 12.94 9 16 9 C15.67 11.64 15.34 14.28 15 17 C12.36 17 9.72 17 7 17 C6.773125 17.7425 6.54625 18.485 6.3125 19.25 C4.59647707 22.84547661 3.54330989 24.08661266 0 26 C-4.14313568 26.73216703 -7.8714342 26.86621135 -12 26 C-13.97682763 24.37056468 -15.19234364 22.74040315 -16.62109375 20.625 C-18.0846763 18.57688268 -18.0846763 18.57688268 -21.875 18.0625 C-23.421875 18.0315625 -23.421875 18.0315625 -25 18 C-24.87625 19.1446875 -24.87625 19.1446875 -24.75 20.3125 C-25 23 -25 23 -27 24.8125 C-27.66 25.204375 -28.32 25.59625 -29 26 C-30.49821059 22.62902617 -31 20.79557881 -31 17 C-31.99 17 -32.98 17 -34 17 C-34.33 18.65 -34.66 20.3 -35 22 C-35.66 22 -36.32 22 -37 22 C-37.05394705 19.39555652 -37.09364469 16.79223002 -37.125 14.1875 C-37.14175781 13.44951172 -37.15851562 12.71152344 -37.17578125 11.95117188 C-37.21074628 8.08753574 -37.19397555 6.29096332 -35 3 C-35 3.66 -35 4.32 -35 5 C-32.50935112 5.68707555 -30.62113708 6 -28 6 C-28.33 6.66 -28.66 7.32 -29 8 C-25.27324441 8.3469738 -21.71357793 8.53664421 -18 8 C-15.39568821 5.26150253 -15.39568821 5.26150253 -14 2 C-9.53516204 -0.97655864 -5.23316953 -0.73906389 0 0 Z " fill="#2F2756" transform="translate(97,79)"/>
<path d="M0 0 C1.65 0 3.3 0 5 0 C5 0.66 5 1.32 5 2 C6.32 2.66 7.64 3.32 9 4 C9 5.32 9 6.64 9 8 C9.99 8.66 10.98 9.32 12 10 C12.99 9.34 13.98 8.68 15 8 C15.99 8.33 16.98 8.66 18 9 C18.75 10.9375 18.75 10.9375 19 13 C18.67 13.66 18.34 14.32 18 15 C19.32 15.66 20.64 16.32 22 17 C20.71034824 18.37562854 19.37310707 19.70766393 18 21 C17.34 21 16.68 21 16 21 C15.73058594 21.5671875 15.46117187 22.134375 15.18359375 22.71875 C13.95030016 25.09579112 12.52936989 27.26050399 11.0625 29.5 C6.51563537 37.0078716 4.98095932 45.36755794 4 54 C2.14223235 50.86501708 1.79859524 48.62528568 2 45 C1.34 45 0.68 45 0 45 C0 43.68 0 42.36 0 41 C-0.99 41.495 -0.99 41.495 -2 42 C-2.33 42.99 -2.66 43.98 -3 45 C-3.66 45 -4.32 45 -5 45 C-5.770378 35.60138842 -2.4904329 28.91691865 2.4375 21.0625 C4.36168531 18.1690575 4.36168531 18.1690575 3.25 15.5625 C2.8375 15.046875 2.425 14.53125 2 14 C1.01 14 0.02 14 -1 14 C-6.40336518 19.84626396 -9.20242451 27.68421631 -12 35 C-12.66 33.68 -13.32 32.36 -14 31 C-14.66 31 -15.32 31 -16 31 C-19.29843185 20.69240048 -19.29843185 20.69240048 -16.83203125 15.578125 C-14.05587372 10.75374843 -11.17415596 6.68307879 -7 3 C-6.67 3.99 -6.34 4.98 -6 6 C-5.34 6 -4.68 6 -4 6 C-3.67 5.34 -3.34 4.68 -3 4 C-2.34 3.67 -1.68 3.34 -1 3 C-0.67 2.01 -0.34 1.02 0 0 Z " fill="#26204A" transform="translate(47,43)"/>
<path d="M0 0 C1.890625 0.27734375 1.890625 0.27734375 4 1 C5.75 4.5625 5.75 4.5625 7 8 C7.99 7.67 8.98 7.34 10 7 C10 5.35 10 3.7 10 2 C13.125 1.5625 13.125 1.5625 17 2 C18.37890625 3.55859375 18.37890625 3.55859375 19.6875 5.5 C21.68638742 8.16338242 22.55317868 8.905644 25.8671875 9.60546875 C30.63604169 9.72789655 33.95444168 9.60642383 38.125 7.1875 C40.12471845 4.94328131 40.12471845 4.94328131 42 2 C43.9453125 1.70703125 43.9453125 1.70703125 46.125 1.8125 C47.40375 1.874375 48.6825 1.93625 50 2 C49.01017021 8.06270745 46.75545012 10.62712604 42.0703125 14.51953125 C38.9181924 16.77359449 36.92435558 18 33 18 C33 18.66 33 19.32 33 20 C33.928125 20.433125 33.928125 20.433125 34.875 20.875 C37 22 37 22 39 24 C39.625 26.125 39.625 26.125 40 28 C29.37984985 29.91796741 21.25969088 29.89484447 11.55859375 24.80078125 C8.76418756 22.83403124 7.01994459 20.73814711 5 18 C4.484375 17.525625 3.96875 17.05125 3.4375 16.5625 C0.70278934 13.58998841 -1.02553521 10.73639402 -0.96484375 6.609375 C-0.71667412 4.38633436 -0.40566067 2.1993651 0 0 Z " fill="#322A5C" transform="translate(62,95)"/>
<path d="M0 0 C2.31 0 4.62 0 7 0 C7.18175781 0.90621094 7.36351562 1.81242187 7.55078125 2.74609375 C10.52895106 17.17876284 14.59166191 29.43911155 24 41 C24.44988281 41.59554687 24.89976563 42.19109375 25.36328125 42.8046875 C35.56476783 55.73614937 51.51154928 61.40295543 67 65 C67 67.64 67 70.28 67 73 C52.72569701 72.64555907 37.48620942 65.7433172 27 56 C27 55.34 27 54.68 27 54 C26.41992188 53.74347656 25.83984375 53.48695313 25.2421875 53.22265625 C11.93208228 45.96470689 5.24180481 28.8953718 1.125 15.25 C-0.1745057 10.13557112 -0.30743556 5.24917749 0 0 Z " fill="#F2F0F5" transform="translate(15,96)"/>
<path d="M0 0 C1.65 1.32 3.3 2.64 5 4 C3.57236352 7.7544094 1.86413452 11.2566634 0 14.8125 C-6.21651869 27.30618635 -6.66176751 39.59890093 -2.8125 53 C-2.61648193 53.69343506 -2.42046387 54.38687012 -2.21850586 55.10131836 C-1.04667606 58.82717076 0.35089065 61.64498836 2.73828125 64.75 C5 68 5 68 4.73120117 70.09375 C3.86533373 72.35107653 2.88047286 73.49562171 1 75 C0.34 75 -0.32 75 -1 75 C-10.24985559 63.82088882 -13.35679477 51.31704381 -13.3125 37.125 C-13.32861328 36.10019531 -13.34472656 35.07539062 -13.36132812 34.01953125 C-13.36981031 20.66857625 -8.8766606 9.89113609 0 0 Z " fill="#F2F1F5" transform="translate(47,55)"/>
<path d="M0 0 C2.9375 0.8125 2.9375 0.8125 6 2 C6.495 3.485 6.495 3.485 7 5 C5.62247989 7.21798942 4.24681728 9.15986606 2.625 11.1875 C2.16456299 11.76975342 1.70412598 12.35200684 1.22973633 12.9519043 C-9.96182277 26.80436665 -27.23407844 38.57182726 -45.3515625 40.58984375 C-48.89961884 40.87928829 -52.43968041 40.9897692 -56 41 C-56 38.69 -56 36.38 -56 34 C-54.78183594 33.74605469 -53.56367187 33.49210937 -52.30859375 33.23046875 C-50.68481575 32.88318675 -49.06112225 32.53550945 -47.4375 32.1875 C-46.63763672 32.02185547 -45.83777344 31.85621094 -45.01367188 31.68554688 C-41.21795315 30.86443221 -37.70321678 29.97255921 -34.16015625 28.36328125 C-31 27 -31 27 -27 27 C-27 26.34 -27 25.68 -27 25 C-26.12085937 24.58878906 -25.24171875 24.17757812 -24.3359375 23.75390625 C-13.94836559 18.29252476 -6.42377695 9.63566542 0 0 Z " fill="#EFEDF2" transform="translate(151,128)"/>
<path d="M0 0 C2.41196169 1.11321309 4.45402655 2.32430468 6.625 3.875 C15.30678494 9.34130904 23.81497165 11.1779276 34 11.1875 C34.68578125 11.19974609 35.3715625 11.21199219 36.078125 11.22460938 C40.46608189 11.23717032 43.93188462 10.61146953 48 9 C48.86882812 8.65839844 49.73765625 8.31679687 50.6328125 7.96484375 C52.29964029 7.27773449 53.96630601 6.59023194 55.6328125 5.90234375 C57.74687628 5.09648775 59.79504803 4.49281185 62 4 C65 7.625 65 7.625 65 11 C62.39653203 12.14744331 59.79226795 13.29301468 57.1875 14.4375 C56.44951172 14.76298828 55.71152344 15.08847656 54.95117188 15.42382812 C54.23896484 15.73642578 53.52675781 16.04902344 52.79296875 16.37109375 C51.81106567 16.8031311 51.81106567 16.8031311 50.80932617 17.24389648 C38.89585392 22.22244507 21.85795974 20.16522167 10.0859375 15.49609375 C-1.51167698 9.8734528 -1.51167698 9.8734528 -4 4 C-2.68 2.68 -1.36 1.36 0 0 Z " fill="#F9F7FA" transform="translate(58,131)"/>
<path d="M0 0 C1.64826111 2.96687001 2.44271087 5.65626525 3 9 C3.66 8.67 4.32 8.34 5 8 C7.10579338 11.4147452 7.14024527 13.76406303 6.79296875 17.71875 C6.70080078 18.81574219 6.60863281 19.91273437 6.51367188 21.04296875 C6.40603516 22.18378906 6.29839844 23.32460937 6.1875 24.5 C6.09146484 25.64082031 5.99542969 26.78164062 5.89648438 27.95703125 C5.09551252 37.10638763 5.09551252 37.10638763 4 41 C3.01 41 2.02 41 1 41 C0.67 43.31 0.34 45.62 0 48 C-0.66 47.01 -1.32 46.02 -2 45 C-2.66 45 -3.32 45 -4 45 C-6.24828052 40.50343896 -6.16682272 36.92127034 -6 32 C-8.97 31.67 -11.94 31.34 -15 31 C-15 30.01 -15 29.02 -15 28 C-14.01 28 -13.02 28 -12 28 C-10.66018514 27.6937566 -9.32488113 27.36548445 -8 27 C-8 25.68 -8 24.36 -8 23 C-10.31 22.34 -12.62 21.68 -15 21 C-15 20.67 -15 20.34 -15 20 C-11.7 20 -8.4 20 -5 20 C-4.896875 18.72125 -4.79375 17.4425 -4.6875 16.125 C-3.28074866 3.28074866 -3.28074866 3.28074866 0 0 Z " fill="#2E2654" transform="translate(28,63)"/>
<path d="M0 0 C11.25349345 2.17809551 19.87432512 6.02526408 29 13 C29.58910156 13.43441406 30.17820313 13.86882813 30.78515625 14.31640625 C34.75047294 17.38927315 37.40491326 20.75349442 40 25 C39.505 26.485 39.505 26.485 39 28 C35.9375 29.1875 35.9375 29.1875 33 30 C32.62230469 29.43152344 32.24460938 28.86304687 31.85546875 28.27734375 C24.98800774 18.64359867 15.93091389 13.93587514 5 10 C3.33124615 9.33857516 1.66401781 8.67325102 0 8 C0 5.36 0 2.72 0 0 Z " fill="#EEECF2" transform="translate(101,34)"/>
<path d="M0 0 C4.69652712 2.9548261 7.62169751 6.38546344 8.9921875 11.76953125 C9.0334375 12.61515625 9.0746875 13.46078125 9.1171875 14.33203125 C3.85748993 14.85800101 3.85748993 14.85800101 1.1171875 14.33203125 C-1.1953125 11.45703125 -1.1953125 11.45703125 -2.8828125 8.33203125 C-7.3299719 5.36725831 -11.66848127 5.56858597 -16.8828125 6.33203125 C-20.10625922 8.76606245 -21.6575096 10.9940769 -23.8828125 14.33203125 C-25.828125 14.625 -25.828125 14.625 -28.0078125 14.51953125 C-29.2865625 14.45765625 -30.5653125 14.39578125 -31.8828125 14.33203125 C-30.90553029 8.46833798 -29.43730381 5.26990791 -24.6484375 1.50390625 C-16.73250184 -3.75003335 -8.45616445 -4.14030197 0 0 Z " fill="#F2F1F5" transform="translate(102.8828125,73.66796875)"/>
<path d="M0 0 C3.125 -0.4375 3.125 -0.4375 7 0 C8.37890625 1.55859375 8.37890625 1.55859375 9.6875 3.5 C11.68638742 6.16338242 12.55317868 6.905644 15.8671875 7.60546875 C20.63604169 7.72789655 23.95444168 7.60642383 28.125 5.1875 C30.12471845 2.94328131 30.12471845 2.94328131 32 0 C33.9453125 -0.29296875 33.9453125 -0.29296875 36.125 -0.1875 C37.40375 -0.125625 38.6825 -0.06375 40 0 C39.01017021 6.06270745 36.75545012 8.62712604 32.0703125 12.51953125 C25.98817997 16.8688298 20.32486443 16.56696828 13 16 C7.59229723 14.32852823 4.02812377 10.70600218 1 6 C0.125 2.5625 0.125 2.5625 0 0 Z " fill="#F1F0F3" transform="translate(72,97)"/>
<path d="M0 0 C0.33 1.32 0.66 2.64 1 4 C1.66 4 2.32 4 3 4 C3.33 2.68 3.66 1.36 4 0 C4.66 0 5.32 0 6 0 C6 1.32 6 2.64 6 4 C6.66 4 7.32 4 8 4 C8.33 5.65 8.66 7.3 9 9 C9.66 8.01 10.32 7.02 11 6 C11.14695312 7.35931641 11.14695312 7.35931641 11.296875 8.74609375 C12.12036431 15.45469198 13.13457743 21.11114261 16.1796875 27.15625 C17.22395638 29.50336863 17.32707678 31.46515498 17 34 C16.360625 34.103125 15.72125 34.20625 15.0625 34.3125 C14.381875 34.539375 13.70125 34.76625 13 35 C12.67 35.99 12.34 36.98 12 38 C8.34840907 36.82627434 6.75542721 34.70089989 5.015625 31.359375 C0.48855871 20.84265176 -0.56801645 11.2656595 0 0 Z " fill="#342C5A" transform="translate(41,84)"/>
<path d="M0 0 C0 2.31 0 4.62 0 7 C-0.94359375 7.14695312 -1.8871875 7.29390625 -2.859375 7.4453125 C-13.85184627 9.36568399 -22.43668136 13.19986451 -32 19 C-33.32 17.68 -34.64 16.36 -36 15 C-33.43137938 8.41971348 -26.1152554 5.38770468 -19.9921875 2.66015625 C-13.21839739 0.17525413 -7.18194949 -0.50895705 0 0 Z " fill="#F6F5F8" transform="translate(90,35)"/>
<path d="M0 0 C1.45922693 0.11409593 2.91740598 0.24165544 4.375 0.375 C5.59316406 0.47941406 5.59316406 0.47941406 6.8359375 0.5859375 C9 1 9 1 11 3 C10.01 3.66 9.02 4.32 8 5 C6.84682337 7.97903963 6.9551971 8.86559131 8 12 C4.91538494 13.02820502 3.10314761 13.04582849 -0.10546875 12.87890625 C-1.08837891 12.83056641 -2.07128906 12.78222656 -3.08398438 12.73242188 C-4.62022461 12.64831055 -4.62022461 12.64831055 -6.1875 12.5625 C-7.22326172 12.51029297 -8.25902344 12.45808594 -9.32617188 12.40429688 C-11.88442049 12.27461607 -14.44227938 12.13965022 -17 12 C-17 11.34 -17 10.68 -17 10 C-17.66 10 -18.32 10 -19 10 C-18.67 10.99 -18.34 11.98 -18 13 C-18.99 13 -19.98 13 -21 13 C-20.79375 12.38125 -20.5875 11.7625 -20.375 11.125 C-20.25125 10.42375 -20.1275 9.7225 -20 9 C-20.66 8.34 -21.32 7.68 -22 7 C-15.375 6.875 -15.375 6.875 -12 8 C-12.165 7.401875 -12.33 6.80375 -12.5 6.1875 C-13 4 -13 4 -13 1 C-11.02 1 -9.04 1 -7 1 C-6.67 1.99 -6.34 2.98 -6 4 C-6.99 4.66 -7.98 5.32 -9 6 C-8.34 6.33 -7.68 6.66 -7 7 C-7 6.34 -7 5.68 -7 5 C-6.030625 4.87625 -5.06125 4.7525 -4.0625 4.625 C-3.051875 4.41875 -2.04125 4.2125 -1 4 C-0.67 3.34 -0.34 2.68 0 2 C0.33 3.32 0.66 4.64 1 6 C1.33 4.35 1.66 2.7 2 1 C1.34 0.67 0.68 0.34 0 0 Z " fill="#1D1640" transform="translate(97,42)"/>
<path d="M0 0 C2 1 2 1 3 2 C3.66 2 4.32 2 5 2 C5 2.66 5 3.32 5 4 C6.093125 3.95875 7.18625 3.9175 8.3125 3.875 C12 4 12 4 15 6 C14.30132812 6.17015625 13.60265625 6.3403125 12.8828125 6.515625 C11.97273438 6.75796875 11.06265625 7.0003125 10.125 7.25 C9.22007813 7.48203125 8.31515625 7.7140625 7.3828125 7.953125 C4.85042396 8.79914179 4.85042396 8.79914179 3.6796875 11.109375 C3.34324219 12.04523438 3.34324219 12.04523438 3 13 C2.34 13 1.68 13 1 13 C0.01 15.97 -0.98 18.94 -2 22 C-2.99 21.67 -3.98 21.34 -5 21 C-5.33 20.01 -5.66 19.02 -6 18 C-6.33 19.32 -6.66 20.64 -7 22 C-7.66 20.68 -8.32 19.36 -9 18 C-9.66 18 -10.32 18 -11 18 C-11.15018032 11.09170507 -7.66258329 7.89023756 -3.03125 3.0390625 C-1 1 -1 1 0 0 Z " fill="#292151" transform="translate(73,66)"/>
<path d="M0 0 C3.3734229 1.44575267 5.61595146 3.2049086 8 6 C8.2475 7.051875 8.2475 7.051875 8.5 8.125 C8.82698013 10.22075249 8.82698013 10.22075249 11.0625 11.25 C12.0215625 11.62125 12.0215625 11.62125 13 12 C13 12.99 13 13.98 13 15 C6.25 19 6.25 19 4 19 C4 19.66 4 20.32 4 21 C2.56853622 21.41713515 1.12941114 21.8080497 -0.3125 22.1875 C-1.11300781 22.40792969 -1.91351563 22.62835938 -2.73828125 22.85546875 C-5 23 -5 23 -6.79296875 21.61328125 C-8.2954252 19.60514366 -8 19.48260618 -8 17 C-8.66 16.67 -9.32 16.34 -10 16 C-7.03 16 -4.06 16 -1 16 C1.68844039 9.17979245 1.68844039 9.17979245 1.0625 2.1875 C0.711875 1.465625 0.36125 0.74375 0 0 Z " fill="#3C3167" transform="translate(120,134)"/>
<path d="M0 0 C-0.33 1.98 -0.66 3.96 -1 6 C-3.71259175 7.04330452 -4.83957479 7.05729472 -7.625 6.0625 C-11.60487934 4.80957502 -15.23180504 4.55481316 -19.375 4.375 C-20.11105469 4.33632813 -20.84710938 4.29765625 -21.60546875 4.2578125 C-23.40327406 4.16442002 -25.20160108 4.0811629 -27 4 C-27.66 2.35 -28.32 0.7 -29 -1 C-19.98217986 -5.31960469 -8.93870791 -3.76366649 0 0 Z " fill="#F9F9FA" transform="translate(107,57)"/>
<path d="M0 0 C0.66 0 1.32 0 2 0 C2 0.99 2 1.98 2 3 C3.485 3.495 3.485 3.495 5 4 C4.8359375 5.77734375 4.8359375 5.77734375 4 8 C1.6640625 9.75390625 1.6640625 9.75390625 -1.375 11.5625 C-11.21362659 17.86390608 -19.06879 25.86438798 -25 36 C-26.32 35.34 -27.64 34.68 -29 34 C-29 33.34 -29 32.68 -29 32 C-28.01 32 -27.02 32 -26 32 C-24.50178941 28.62902617 -24 26.79557881 -24 23 C-22.68 23.66 -21.36 24.32 -20 25 C-19.67 24.01 -19.34 23.02 -19 22 C-18.34 22 -17.68 22 -17 22 C-17.33 19.69 -17.66 17.38 -18 15 C-17.01 15 -16.02 15 -15 15 C-13.32900023 14.68911632 -11.66128463 14.35919668 -10 14 C-10 12.02 -10 10.04 -10 8 C-5.545 7.505 -5.545 7.505 -1 7 C-1.20625 6.21625 -1.4125 5.4325 -1.625 4.625 C-1.74875 3.75875 -1.8725 2.8925 -2 2 C-1.34 1.34 -0.68 0.68 0 0 Z " fill="#211C3E" transform="translate(50,17)"/>
<path d="M0 0 C1.8125 0.875 1.8125 0.875 3.8125 3.875 C3.8125 4.865 3.8125 5.855 3.8125 6.875 C1.20903203 8.02244331 -1.39523205 9.16801468 -4 10.3125 C-4.73798828 10.63798828 -5.47597656 10.96347656 -6.23632812 11.29882812 C-6.94853516 11.61142578 -7.66074219 11.92402344 -8.39453125 12.24609375 C-9.37643433 12.6781311 -9.37643433 12.6781311 -10.37817383 13.11889648 C-14.06992843 14.66165239 -16.9024125 14.98423632 -20.875 14.9375 C-21.86886719 14.92847656 -22.86273438 14.91945312 -23.88671875 14.91015625 C-25.02560547 14.89275391 -25.02560547 14.89275391 -26.1875 14.875 C-26.1875 14.545 -26.1875 14.215 -26.1875 13.875 C-23.2175 13.875 -20.2475 13.875 -17.1875 13.875 C-18.44291557 11.36416886 -19.68813488 11.00374554 -22.1875 9.875 C-21.1975 9.545 -20.2075 9.215 -19.1875 8.875 C-18.8575 7.885 -18.5275 6.895 -18.1875 5.875 C-15.859375 5.03125 -15.859375 5.03125 -12.9375 4.375 C-8.65710833 3.33397331 -4.13754022 -0.23643087 0 0 Z " fill="#EEEBF4" transform="translate(119.1875,135.125)"/>
<path d="M0 0 C0.99 0.66 1.98 1.32 3 2 C2.38125 2.226875 1.7625 2.45375 1.125 2.6875 C-1.61410209 4.37929835 -2.05024472 5.99244161 -3 9 C-3.62648437 8.97679687 -4.25296875 8.95359375 -4.8984375 8.9296875 C-5.71570313 8.91164062 -6.53296875 8.89359375 -7.375 8.875 C-8.59316406 8.84019531 -8.59316406 8.84019531 -9.8359375 8.8046875 C-12.21342243 8.78629949 -12.21342243 8.78629949 -14 11 C-16.1640625 11.1953125 -16.1640625 11.1953125 -18.625 11.125 C-19.44226563 11.10695312 -20.25953125 11.08890625 -21.1015625 11.0703125 C-21.72804688 11.04710937 -22.35453125 11.02390625 -23 11 C-22.67 12.32 -22.34 13.64 -22 15 C-23.98 15.99 -23.98 15.99 -26 17 C-27.5 15.625 -27.5 15.625 -29 14 C-29 13.34 -29 12.68 -29 12 C-29.66 12 -30.32 12 -31 12 C-31.33 13.32 -31.66 14.64 -32 16 C-32.66 16 -33.32 16 -34 16 C-34 15.01 -34 14.02 -34 13 C-35.32 12.67 -36.64 12.34 -38 12 C-37.34 9.03 -36.68 6.06 -36 3 C-35.67 3 -35.34 3 -35 3 C-35 5.31 -35 7.62 -35 10 C-22.44195679 9.09241281 -11.27600272 5.63800136 0 0 Z " fill="#51476E" transform="translate(130,159)"/>
<path d="M0 0 C0.66 0.33 1.32 0.66 2 1 C2 3.64 2 6.28 2 9 C1.236875 9.12375 0.47375 9.2475 -0.3125 9.375 C-3.20267136 9.88102792 -3.20267136 9.88102792 -6 12 C-6.2502157 15.08365871 -6.2502157 15.08365871 -6 18 C-7.98 18 -9.96 18 -12 18 C-12.226875 18.78375 -12.45375 19.5675 -12.6875 20.375 C-14 23 -14 23 -16.5 24.3125 C-19 25 -19 25 -21 25 C-21.33 25.66 -21.66 26.32 -22 27 C-22.66 27 -23.32 27 -24 27 C-24 26.34 -24 25.68 -24 25 C-24.99 24.67 -25.98 24.34 -27 24 C-26.18208984 23.48953125 -26.18208984 23.48953125 -25.34765625 22.96875 C-16.64177888 17.37317754 -9.50423771 11.18432763 -3.41015625 2.78515625 C-2 1 -2 1 0 0 Z " fill="#3B3364" transform="translate(158,134)"/>
<path d="M0 0 C2.125 0.9375 2.125 0.9375 4 2 C4 2.66 4 3.32 4 4 C9.28 4.33 14.56 4.66 20 5 C20 5.33 20 5.66 20 6 C19.10539062 6.01417969 18.21078125 6.02835938 17.2890625 6.04296875 C7.01041427 6.44841649 0.09835122 8.73385494 -8 15 C-8 14.34 -8 13.68 -8 13 C-9.32 12.34 -10.64 11.68 -12 11 C-12.99 11.99 -13.98 12.98 -15 14 C-15.66 13.67 -16.32 13.34 -17 13 C-14.18666733 9.13333425 -11.45066288 6.73274882 -7.375 4.25 C-6.41335937 3.65703125 -5.45171875 3.0640625 -4.4609375 2.453125 C-2.99968216 1.59028852 -1.51782844 0.75891422 0 0 Z " fill="#EFEEF2" transform="translate(76,56)"/>
<path d="M0 0 C2.49370127 1.15093905 4.60875485 2.42348164 6.875 4 C9.89628671 5.93362349 12.56787452 7.01939272 16 8 C15.01 8.495 15.01 8.495 14 9 C13.17195931 11.48412207 13 13.35220307 13 16 C6.13399981 13.65146875 1.2563805 11.02784222 -4 6 C-2.84826645 3.53199953 -1.95216435 1.95216435 0 0 Z " fill="#EDEAF2" transform="translate(58,131)"/>
<path d="M0 0 C1.65 0 3.3 0 5 0 C6 2 6 2 6 3 C6.99 3 7.98 3 9 3 C9.33 4.32 9.66 5.64 10 7 C5.33559024 8.82804239 1.14754576 9.31613394 -3.8125 9.25 C-4.51375 9.24613281 -5.215 9.24226562 -5.9375 9.23828125 C-11.22966311 9.15024157 -15.9267898 8.44948863 -21 7 C-21 6.67 -21 6.34 -21 6 C-19.72125 5.731875 -18.4425 5.46375 -17.125 5.1875 C-11.99937583 4.0548104 -7.00710512 2.56798699 -2 1 C-2 1.99 -2 2.98 -2 4 C-1.34 4 -0.68 4 0 4 C0 2.68 0 1.36 0 0 Z " fill="#3C316C" transform="translate(96,134)"/>
<path d="M0 0 C-0.639375 0.268125 -1.27875 0.53625 -1.9375 0.8125 C-4.33131686 1.88667752 -4.33131686 1.88667752 -5 5 C-3.35 5 -1.7 5 0 5 C-1 8 -1 8 -3.109375 9.28125 C-3.98078125 9.6834375 -4.8521875 10.085625 -5.75 10.5 C-9.28974745 12.17859084 -12.68483765 13.90039718 -16 16 C-17.32 14.68 -18.64 13.36 -20 12 C-18.50115053 8.02059848 -16.25287411 6.56536515 -12.6875 4.375 C-11.74261719 3.78460938 -10.79773437 3.19421875 -9.82421875 2.5859375 C-2.76091205 -1.38045603 -2.76091205 -1.38045603 0 0 Z " fill="#F1F0F4" transform="translate(74,38)"/>
<path d="M0 0 C2.31 0 4.62 0 7 0 C8.40454548 6.11980533 9.23268915 11.71739294 9 18 C8.34 18.33 7.68 18.66 7 19 C6.67 18.34 6.34 17.68 6 17 C5.67 17.99 5.34 18.98 5 20 C4.34 20 3.68 20 3 20 C0.55833216 13.16914355 -0.41640288 7.2484945 0 0 Z " fill="#F6F4F8" transform="translate(15,96)"/>
<path d="M0 0 C-0.99 0 -1.98 0 -3 0 C-3 0.66 -3 1.32 -3 2 C0.46146608 3.15662807 0.46146608 3.15662807 4 4 C4.66 3.67 5.32 3.34 6 3 C8.6723621 2.86584528 11.32250488 2.95681459 14 3 C14 3.33 14 3.66 14 4 C12.5459375 4.1546875 12.5459375 4.1546875 11.0625 4.3125 C3.45131038 5.42819647 -3.18085186 8.42927822 -9.93359375 12.01171875 C-12 13 -12 13 -14 13 C-13.95875 12.236875 -13.9175 11.47375 -13.875 10.6875 C-13.77919176 7.77281584 -13.77919176 7.77281584 -16 5 C-14.09118566 3.96455826 -12.17260796 2.94709915 -10.25 1.9375 C-8.64898437 1.08478516 -8.64898437 1.08478516 -7.015625 0.21484375 C-3.97406463 -1.01044806 -2.95106435 -1.25348607 0 0 Z " fill="#E5E3EB" transform="translate(68,20)"/>
<path d="M0 0 C0.33 0 0.66 0 1 0 C1 4.95 1 9.9 1 15 C1.99 14.34 2.98 13.68 4 13 C3.67 12.34 3.34 11.68 3 11 C3.99 11.33 4.98 11.66 6 12 C6.33 9.36 6.66 6.72 7 4 C7.33 4 7.66 4 8 4 C8.07347656 5.21623047 8.07347656 5.21623047 8.1484375 6.45703125 C8.64162798 13.76135227 9.52007561 20.83026922 11 28 C10.01 28 9.02 28 8 28 C8 27.34 8 26.68 8 26 C5.83333333 26.83333333 5.83333333 26.83333333 5 29 C4.35004703 27.58521865 3.70521278 26.16808513 3.0625 24.75 C2.70285156 23.96109375 2.34320313 23.1721875 1.97265625 22.359375 C-0.03987526 17.47757165 -0.12261909 12.98498526 -0.0625 7.75 C-0.05798828 7.00492187 -0.05347656 6.25984375 -0.04882812 5.4921875 C-0.03709246 3.6614236 -0.0191585 1.83070127 0 0 Z " fill="#E8E7EB" transform="translate(52,84)"/>
<path d="M0 0 C2.31 0 4.62 0 7 0 C7 0.66 7 1.32 7 2 C7.61875 2.28875 8.2375 2.5775 8.875 2.875 C11 4 11 4 13 6 C13.625 8.125 13.625 8.125 14 10 C9.72940537 10.8076011 5.65780161 11.16226596 1.3125 11.1875 C0.19488281 11.20167969 -0.92273438 11.21585938 -2.07421875 11.23046875 C-5 11 -5 11 -8 9 C-6.35 9 -4.7 9 -3 9 C-2.71125 8.360625 -2.4225 7.72125 -2.125 7.0625 C-1 5 -1 5 1 4 C0.67 2.68 0.34 1.36 0 0 Z " fill="#413A65" transform="translate(88,113)"/>
<path d="M0 0 C0.33 0 0.66 0 1 0 C1.02505615 0.60473145 1.0501123 1.20946289 1.07592773 1.83251953 C1.19263006 4.5968562 1.31501734 7.36091366 1.4375 10.125 C1.47681641 11.07632813 1.51613281 12.02765625 1.55664062 13.0078125 C1.73288319 16.9122632 1.94489645 20.67227887 2.59375 24.53125 C3.06879535 27.41806406 2.57706494 28.58801833 1 31 C1 30.34 1 29.68 1 29 C-0.32 29.33 -1.64 29.66 -3 30 C-3.495 32.475 -3.495 32.475 -4 35 C-4.33 34.34 -4.66 33.68 -5 33 C-5.99 32.67 -6.98 32.34 -8 32 C-8.33 29.69 -8.66 27.38 -9 25 C-8.01 24.67 -7.02 24.34 -6 24 C-5.67 24.33 -5.34 24.66 -5 25 C-4.67 23.68 -4.34 22.36 -4 21 C-3.01 21 -2.02 21 -1 21 C-0.67 14.07 -0.34 7.14 0 0 Z " fill="#443D68" transform="translate(33,83)"/>
<path d="M0 0 C0 1.65 0 3.3 0 5 C-0.66 5 -1.32 5 -2 5 C-2 5.66 -2 6.32 -2 7 C-6.95 7.33 -11.9 7.66 -17 8 C-17 5.69 -17 3.38 -17 1 C-14.54256214 0.63826036 -12.08441207 0.28531831 -9.625 -0.0625 C-8.57699219 -0.2181543 -8.57699219 -0.2181543 -7.5078125 -0.37695312 C-2.2265625 -1.11328125 -2.2265625 -1.11328125 0 0 Z " fill="#F7F6F7" transform="translate(112,161)"/>
<path d="M0 0 C1.98 0 3.96 0 6 0 C6.33 1.32 6.66 2.64 7 4 C9.88214887 3.11785113 9.88214887 3.11785113 12 2 C12.99 3.485 12.99 3.485 14 5 C14.66 4.34 15.32 3.68 16 3 C16 4.65 16 6.3 16 8 C16.66 8.33 17.32 8.66 18 9 C16.68 9 15.36 9 14 9 C14.33 10.65 14.66 12.3 15 14 C14.34 14 13.68 14 13 14 C12.67 13.01 12.34 12.02 12 11 C8.88214887 11.64644661 8.88214887 11.64644661 8 14 C7.01 13.67 6.02 13.34 5 13 C5 13.66 5 14.32 5 15 C4.01 14.67 3.02 14.34 2 14 C2 13.34 2 12.68 2 12 C2.99 11.67 3.98 11.34 5 11 C5 10.34 5 9.68 5 9 C3.824375 9.7425 3.824375 9.7425 2.625 10.5 C0 12 0 12 -2 12 C-2 11.34 -2 10.68 -2 10 C-3.65 10 -5.3 10 -7 10 C-7 9.67 -7 9.34 -7 9 C-2.9472484 8.01751476 0.83861737 7.91840426 5 8 C5 5.69 5 3.38 5 1 C3.35 1 1.7 1 0 1 C0 0.67 0 0.34 0 0 Z " fill="#3E395B" transform="translate(85,34)"/>
<path d="M0 0 C4.27939175 1.61807847 8.19103741 3.46069161 12 6 C11.67 6.66 11.34 7.32 11 8 C-0.82976715 6.92039018 -0.82976715 6.92039018 -4 6 C-4.33 5.34 -4.66 4.68 -5 4 C-7.52733235 3.34444881 -7.52733235 3.34444881 -10 3 C-9.67 2.01 -9.34 1.02 -9 0 C-5.94526555 -1.52736723 -3.19539166 -0.79433465 0 0 Z " fill="#42336A" transform="translate(58,161)"/>
<path d="M0 0 C1.65 0.33 3.3 0.66 5 1 C6 4 6 4 4.5625 7.1875 C3.7890625 8.5796875 3.7890625 8.5796875 3 10 C2.34 10 1.68 10 1 10 C0.690625 10.61875 0.38125 11.2375 0.0625 11.875 C-0.625 13.25 -1.3125 14.625 -2 16 C-2.99 16 -3.98 16 -5 16 C-4.55643705 9.79011871 -3.08467498 5.39459439 0 0 Z " fill="#2A234F" transform="translate(47,68)"/>
<path d="M0 0 C1.43791516 0.14168137 2.8753237 0.28851043 4.3125 0.4375 C5.11300781 0.51871094 5.91351563 0.59992188 6.73828125 0.68359375 C9 1 9 1 12 2 C13.47965926 2.14573058 14.96403843 2.24663268 16.44921875 2.31640625 C17.29677734 2.35830078 18.14433594 2.40019531 19.01757812 2.44335938 C19.89865234 2.48267578 20.77972656 2.52199219 21.6875 2.5625 C22.58017578 2.60568359 23.47285156 2.64886719 24.39257812 2.69335938 C26.59490108 2.79935353 28.79733473 2.90142051 31 3 C31 3.33 31 3.66 31 4 C30.30962646 4.02505615 29.61925293 4.0501123 28.90795898 4.07592773 C25.75098591 4.1926566 22.59425543 4.31503178 19.4375 4.4375 C18.35146484 4.47681641 17.26542969 4.51613281 16.14648438 4.55664062 C10.69589254 4.77201355 5.37924559 5.08159222 0 6 C0 7.32 0 8.64 0 10 C-1.65 9.67 -3.3 9.34 -5 9 C-4.67 8.01 -4.34 7.02 -4 6 C-3.01 6 -2.02 6 -1 6 C-0.67 4.02 -0.34 2.04 0 0 Z " fill="#3B325E" transform="translate(71,148)"/>
<path d="M0 0 C2.9375 0.8125 2.9375 0.8125 6 2 C6.33 2.99 6.66 3.98 7 5 C5.78515625 7.04296875 5.78515625 7.04296875 4.0625 9.1875 C3.49660156 9.90292969 2.93070313 10.61835938 2.34765625 11.35546875 C1.90292969 11.89816406 1.45820313 12.44085938 1 13 C-0.98 11.35 -2.96 9.7 -5 8 C-3.35 5.36 -1.7 2.72 0 0 Z " fill="#F8F8F7" transform="translate(151,128)"/>
<path d="M0 0 C2 1 2 1 3 2 C3.66 2 4.32 2 5 2 C5 2.66 5 3.32 5 4 C6.093125 3.95875 7.18625 3.9175 8.3125 3.875 C12 4 12 4 15 6 C14.30132812 6.17015625 13.60265625 6.3403125 12.8828125 6.515625 C11.97273438 6.75796875 11.06265625 7.0003125 10.125 7.25 C9.22007813 7.48203125 8.31515625 7.7140625 7.3828125 7.953125 C4.85042396 8.79914179 4.85042396 8.79914179 3.6796875 11.109375 C3.45539063 11.73328125 3.23109375 12.3571875 3 13 C2.34 12.01 1.68 11.02 1 10 C0.13824802 8.92672708 -0.7369604 7.86412584 -1.625 6.8125 C-2.40875 5.884375 -3.1925 4.95625 -4 4 C-2.68 2.68 -1.36 1.36 0 0 Z " fill="#332D4F" transform="translate(73,66)"/>
<path d="M0 0 C2.16874252 0.50603992 3.99967627 0.99983813 6 2 C6 2.66 6 3.32 6 4 C6.66 4.66 7.32 5.32 8 6 C7.16807129 6.21148682 7.16807129 6.21148682 6.31933594 6.42724609 C3.79499554 7.07179223 1.27250811 7.72332156 -1.25 8.375 C-2.12269531 8.59671875 -2.99539062 8.8184375 -3.89453125 9.046875 C-5.16103516 9.37558594 -5.16103516 9.37558594 -6.453125 9.7109375 C-7.22817383 9.90993652 -8.00322266 10.10893555 -8.80175781 10.31396484 C-11.02751649 10.93431689 -11.02751649 10.93431689 -13.03417969 12.08056641 C-15 13 -15 13 -19 13 C-18.67 11.68 -18.34 10.36 -18 9 C-17.113125 8.855625 -16.22625 8.71125 -15.3125 8.5625 C-13.39089476 8.23618968 -11.47185728 7.89166303 -9.5625 7.5 C-6.38964019 6.8809054 -3.2021202 6.43950669 0 6 C-0.33 5.01 -0.66 4.02 -1 3 C-0.34 2.67 0.32 2.34 1 2 C0.67 1.34 0.34 0.68 0 0 Z " fill="#0E0B29" transform="translate(75,9)"/>
<path d="M0 0 C3.93438516 0.58627283 6.77930831 1.77583477 10.1875 3.8125 C11.04730469 4.31394531 11.90710938 4.81539062 12.79296875 5.33203125 C15.1031698 7.0779708 15.96440026 8.33289677 17 11 C15.02 11 13.04 11 11 11 C10.67 10.01 10.34 9.02 10 8 C9.34 8.66 8.68 9.32 8 10 C6 9.9375 6 9.9375 4 9 C2.75 6.4375 2.75 6.4375 2 4 C2.66 4 3.32 4 4 4 C4 3.34 4 2.68 4 2 C2.68 1.67 1.36 1.34 0 1 C0 0.67 0 0.34 0 0 Z " fill="#1F1A3B" transform="translate(109,45)"/>
<path d="M0 0 C3.96 0 7.92 0 12 0 C11 2 11 2 8 4 C8 4.99 8 5.98 8 7 C9.65 7.33 11.3 7.66 13 8 C13 8.33 13 8.66 13 9 C8.71 9 4.42 9 0 9 C0 8.34 0 7.68 0 7 C-1.32 7.33 -2.64 7.66 -4 8 C-2.75 6.5 -2.75 6.5 -1 5 C0.32 5 1.64 5 3 5 C2.2575 4.319375 2.2575 4.319375 1.5 3.625 C0 2 0 2 0 0 Z " fill="#221B44" transform="translate(85,62)"/>
<path d="M0 0 C0.66 0 1.32 0 2 0 C2 0.66 2 1.32 2 2 C2.66 2 3.32 2 4 2 C4.33 1.34 4.66 0.68 5 0 C5.66 0.763125 6.32 1.52625 7 2.3125 C10.20902735 5.56776694 13.69785705 6.61456414 18 8 C17.01 8.495 17.01 8.495 16 9 C16.33 9.99 16.66 10.98 17 12 C14 13 14 13 11.9140625 11.99609375 C7.14093919 8.74613436 3.38642753 5.6973027 0 1 C0 0.67 0 0.34 0 0 Z " fill="#352F56" transform="translate(64,109)"/>
<path d="M0 0 C1.66666667 0 3.33333333 0 5 0 C6.85776765 3.13498292 7.20140476 5.37471432 7 9 C6.360625 9.103125 5.72125 9.20625 5.0625 9.3125 C4.0415625 9.6528125 4.0415625 9.6528125 3 10 C2.67 10.99 2.34 11.98 2 13 C0.68 12.34 -0.64 11.68 -2 11 C-1.34 7.37 -0.68 3.74 0 0 Z " fill="#2C2453" transform="translate(51,109)"/>
<path d="M0 0 C2.31 0 4.62 0 7 0 C7 2.83967231 6.59732819 5.23735711 6 8 C6.66 8.45375 7.32 8.9075 8 9.375 C8.66 9.91125 9.32 10.4475 10 11 C10 11.66 10 12.32 10 13 C10.99 12.67 11.98 12.34 13 12 C13 12.99 13 13.98 13 15 C7.89039463 13.90508456 5.36506261 11.83928816 2.19140625 7.88671875 C0.57406838 5.32549189 0.14635077 3.00019074 0 0 Z " fill="#E9E8ED" transform="translate(72,97)"/>
<path d="M0 0 C0.33 0 0.66 0 1 0 C1 2.31 1 4.62 1 7 C6.445 6.505 6.445 6.505 12 6 C12.66 7.98 13.32 9.96 14 12 C12.02 12.99 12.02 12.99 10 14 C8.5 12.625 8.5 12.625 7 11 C7 10.34 7 9.68 7 9 C6.34 9 5.68 9 5 9 C4.67 10.32 4.34 11.64 4 13 C3.34 13 2.68 13 2 13 C2 12.01 2 11.02 2 10 C0.68 9.67 -0.64 9.34 -2 9 C-1.34 6.03 -0.68 3.06 0 0 Z " fill="#54477C" transform="translate(94,162)"/>
<path d="M0 0 C1.98 0 3.96 0 6 0 C6.33 0.99 6.66 1.98 7 3 C6.01 3.66 5.02 4.32 4 5 C4.33 5.66 4.66 6.32 5 7 C3.02 7.66 1.04 8.32 -1 9 C2.3 9 5.6 9 9 9 C9 9.33 9 9.66 9 10 C4.59085217 11.10228696 0.51617599 11.07654536 -4 11 C-4 10.34 -4 9.68 -4 9 C-4.66 9 -5.32 9 -6 9 C-5.67 9.99 -5.34 10.98 -5 12 C-5.99 12 -6.98 12 -8 12 C-7.79375 11.38125 -7.5875 10.7625 -7.375 10.125 C-7.25125 9.42375 -7.1275 8.7225 -7 8 C-7.66 7.34 -8.32 6.68 -9 6 C-2.375 5.875 -2.375 5.875 1 7 C0.835 6.401875 0.67 5.80375 0.5 5.1875 C0 3 0 3 0 0 Z " fill="#1A143A" transform="translate(84,43)"/>
<path d="M0 0 C-0.33 1.65 -0.66 3.3 -1 5 C1.97 5.495 1.97 5.495 5 6 C5 6.33 5 6.66 5 7 C2.7089095 7.19441368 0.41709663 7.38033135 -1.875 7.5625 C-3.78925781 7.71912109 -3.78925781 7.71912109 -5.7421875 7.87890625 C-9 8 -9 8 -11 7 C-12.32860925 6.64830932 -13.66158328 6.31229724 -15 6 C-13.865625 5.54625 -12.73125 5.0925 -11.5625 4.625 C-7.95278308 3.42904194 -7.95278308 3.42904194 -7 1 C-4.51587793 0.17195931 -2.64779693 0 0 0 Z " fill="#272149" transform="translate(97,46)"/>
<path d="M0 0 C0.66 0 1.32 0 2 0 C2 0.99 2 1.98 2 3 C2.99 3.33 3.98 3.66 5 4 C4.70049983 6.8951683 4.19065168 7.83823494 1.9375 9.75 C-1.95741064 11.40740878 -4.78875961 11.21413087 -9 11 C-9.33 10.01 -9.66 9.02 -10 8 C-5.545 7.505 -5.545 7.505 -1 7 C-1.20625 6.21625 -1.4125 5.4325 -1.625 4.625 C-1.74875 3.75875 -1.8725 2.8925 -2 2 C-1.34 1.34 -0.68 0.68 0 0 Z " fill="#1C1739" transform="translate(50,17)"/>
<path d="M0 0 C3.96 0 7.92 0 12 0 C12 0.33 12 0.66 12 1 C11.21625 1.103125 10.4325 1.20625 9.625 1.3125 C6.66954819 1.77595022 6.66954819 1.77595022 5 5 C6.49743119 6.49743119 7.98824239 6.33202693 10.0625 6.5625 C11.361875 6.706875 12.66125 6.85125 14 7 C14 7.33 14 7.66 14 8 C6.40237976 8.38999191 0.15533979 7.60758587 -7 5 C-6.34 4.67 -5.68 4.34 -5 4 C-5 3.01 -5 2.02 -5 1 C-3 2 -3 2 -1 4 C-0.34 3.34 0.32 2.68 1 2 C0.67 1.34 0.34 0.68 0 0 Z " fill="#E4E1ED" transform="translate(82,124)"/>
<path d="M0 0 C1.65 0.33 3.3 0.66 5 1 C4.01 1.33 3.02 1.66 2 2 C2.33 2.99 2.66 3.98 3 5 C2.01 6.485 2.01 6.485 1 8 C0.01 8 -0.98 8 -2 8 C-2.33 8.99 -2.66 9.98 -3 11 C-6.77545388 9.90931332 -9.47043472 9.0916909 -12 6 C-10.576875 6.0928125 -10.576875 6.0928125 -9.125 6.1875 C-7.578125 6.0946875 -7.578125 6.0946875 -6 6 C-5.34 5.01 -4.68 4.02 -4 3 C-1.375 2.8125 -1.375 2.8125 1 3 C0.67 2.01 0.34 1.02 0 0 Z " fill="#473C76" transform="translate(69,146)"/>
<path d="M0 0 C3 3 6 6 9 9 C8.01 9.66 7.02 10.32 6 11 C4.80767387 13.05003955 4.80767387 13.05003955 4 15 C3.01 15 2.02 15 1 15 C1.165 14.401875 1.33 13.80375 1.5 13.1875 C2.13942462 10.39001729 2.29984393 8.59968785 1 6 C0.67 6.66 0.34 7.32 0 8 C-0.99 7.01 -1.98 6.02 -3 5 C-1.125 1.125 -1.125 1.125 0 0 Z " fill="#231B48" transform="translate(52,47)"/>
<path d="M0 0 C-1.65 0.66 -3.3 1.32 -5 2 C-3.5459375 2.4021875 -3.5459375 2.4021875 -2.0625 2.8125 C-1.051875 3.204375 -0.04125 3.59625 1 4 C1.33 4.99 1.66 5.98 2 7 C-3.64399358 9.44064587 -8.97751478 9.19289099 -15 9 C-15 8.67 -15 8.34 -15 8 C-12.03 8 -9.06 8 -6 8 C-7.25541557 5.48916886 -8.50063488 5.12874554 -11 4 C-10.01 3.67 -9.02 3.34 -8 3 C-7.67 2.01 -7.34 1.02 -7 0 C-2.25 -1.125 -2.25 -1.125 0 0 Z " fill="#E7E4EB" transform="translate(108,141)"/>
<path d="M0 0 C1.8125 0.125 1.8125 0.125 4 1 C5.95320589 4.20883825 7 6.2205439 7 10 C4.36 10 1.72 10 -1 10 C-1.66 8.35 -2.32 6.7 -3 5 C-2.34 4.67 -1.68 4.34 -1 4 C-0.34786708 1.97536745 -0.34786708 1.97536745 0 0 Z " fill="#E6E4EF" transform="translate(105,78)"/>
<path d="M0 0 C2.9375 -0.4375 2.9375 -0.4375 6 0 C7.9375 1.8125 7.9375 1.8125 9 4 C8.67 4.99 8.34 5.98 8 7 C4.9375 8.1875 4.9375 8.1875 2 9 C0.68 7.02 -0.64 5.04 -2 3 C-1.34 2.01 -0.68 1.02 0 0 Z " fill="#E8E6F0" transform="translate(132,55)"/>
<path d="M0 0 C0 0.66 0 1.32 0 2 C5.61 2 11.22 2 17 2 C13.7392982 5.2607018 12.89625078 5.36098868 8.50195312 5.36523438 C7.80005859 5.34783203 7.09816406 5.33042969 6.375 5.3125 C5.66021484 5.30412109 4.94542969 5.29574219 4.20898438 5.28710938 C-1.0819001 5.16718906 -5.89712692 4.45796374 -11 3 C-11 2.67 -11 2.34 -11 2 C-9.5422647 1.664061 -8.08378894 1.33133376 -6.625 1 C-5.40683594 0.7215625 -5.40683594 0.7215625 -4.1640625 0.4375 C-2 0 -2 0 0 0 Z " fill="#4A4368" transform="translate(86,138)"/>
<path d="M0 0 C2.05078125 0.03255208 4.1015625 0.06510417 6.15234375 0.09765625 C4.52734375 6.84765625 4.52734375 6.84765625 1.15234375 9.09765625 C0.82234375 8.43765625 0.49234375 7.77765625 0.15234375 7.09765625 C-1.16765625 7.09765625 -2.48765625 7.09765625 -3.84765625 7.09765625 C-2.81269978 0.14866278 -2.81269978 0.14866278 0 0 Z " fill="#EDEAF5" transform="translate(105.84765625,96.90234375)"/>
<path d="M0 0 C2.35083942 2.0475053 3.83363367 3.58408418 5 6.5 C5 9 5 9 3.1875 11.3125 C1 13 1 13 -1 13 C-1.99 11.02 -2.98 9.04 -4 7 C-2.68 6.34 -1.36 5.68 0 5 C0 3.35 0 1.7 0 0 Z " fill="#EAE7F1" transform="translate(47,117)"/>
<path d="M0 0 C0.66 0.33 1.32 0.66 2 1 C1.8125 3.375 1.8125 3.375 1 6 C-1.5625 7.3125 -1.5625 7.3125 -4 8 C-4.33 7.34 -4.66 6.68 -5 6 C-5.33 6.66 -5.66 7.32 -6 8 C-1.545 8.99 -1.545 8.99 3 10 C3 10.33 3 10.66 3 11 C0.69 11 -1.62 11 -4 11 C-4 13.64 -4 16.28 -4 19 C-4.33 19 -4.66 19 -5 19 C-5.1953125 16.94921875 -5.390625 14.8984375 -5.5859375 12.84765625 C-5.79089844 11.93306641 -5.79089844 11.93306641 -6 11 C-6.66 10.67 -7.32 10.34 -8 10 C-8.625 7.9375 -8.625 7.9375 -9 6 C-3.30379747 1.25316456 -3.30379747 1.25316456 0 0 Z " fill="#30285B" transform="translate(19,85)"/>
<path d="M0 0 C0.99 0.33 1.98 0.66 3 1 C2.8125 3.875 2.8125 3.875 2 7 C-0.47590076 8.39666197 -2.16264185 9 -5 9 C-5.33 9.66 -5.66 10.32 -6 11 C-6.66 11 -7.32 11 -8 11 C-8 10.34 -8 9.68 -8 9 C-8.99 8.67 -9.98 8.34 -11 8 C-10.37351563 7.59007812 -9.74703125 7.18015625 -9.1015625 6.7578125 C-8.28429687 6.21898437 -7.46703125 5.68015625 -6.625 5.125 C-5.40683594 4.32449219 -5.40683594 4.32449219 -4.1640625 3.5078125 C-1.92405904 2.04134945 -1.92405904 2.04134945 0 0 Z " fill="#453C6B" transform="translate(142,150)"/>
<path d="M0 0 C2.5864584 2.5864584 3.62271883 5.2938548 5.125 8.625 C5.66382813 9.81351563 6.20265625 11.00203125 6.7578125 12.2265625 C7.37269531 13.59941406 7.37269531 13.59941406 8 15 C7 16 7 16 4.4375 16.0625 C3.633125 16.041875 2.82875 16.02125 2 16 C1.34 13.03 0.68 10.06 0 7 C-0.33 7 -0.66 7 -1 7 C-1.04254356 5.00045254 -1.04080783 2.99958364 -1 1 C-0.67 0.67 -0.34 0.34 0 0 Z " fill="#403665" transform="translate(19,120)"/>
<path d="M0 0 C0.33 0.66 0.66 1.32 1 2 C1.66 2.33 2.32 2.66 3 3 C2.34 3 1.68 3 1 3 C1.33 4.32 1.66 5.64 2 7 C0.125 8.0625 0.125 8.0625 -2 9 C-2.66 8.67 -3.32 8.34 -4 8 C-4 8.66 -4 9.32 -4 10 C-4.99 10.33 -5.98 10.66 -7 11 C-7.66 10.67 -8.32 10.34 -9 10 C-7.46990911 6.55729549 -5.5068778 3.81074178 -3 1 C-2.01 0.67 -1.02 0.34 0 0 Z " fill="#F9F8F9" transform="translate(46,31)"/>
<path d="M0 0 C1.32 0.66 2.64 1.32 4 2 C3.34 3.32 2.68 4.64 2 6 C-1.3 6 -4.6 6 -8 6 C-8 5.34 -8 4.68 -8 4 C-9.32 3.67 -10.64 3.34 -12 3 C-12 2.34 -12 1.68 -12 1 C-8.37 1.33 -4.74 1.66 -1 2 C-0.67 1.34 -0.34 0.68 0 0 Z " fill="#171336" transform="translate(96,8)"/>
<path d="M0 0 C1.27230469 0.01804688 2.54460937 0.03609375 3.85546875 0.0546875 C5.31919922 0.08949219 5.31919922 0.08949219 6.8125 0.125 C6.8125 0.455 6.8125 0.785 6.8125 1.125 C2.8525 1.125 -1.1075 1.125 -5.1875 1.125 C-4.8575 2.445 -4.5275 3.765 -4.1875 5.125 C-6.89932212 7.72834924 -8.07883813 8.11956691 -11.9375 8.3125 C-13.54625 8.2196875 -13.54625 8.2196875 -15.1875 8.125 C-14.5275 7.795 -13.8675 7.465 -13.1875 7.125 C-13.1875 6.465 -13.1875 5.805 -13.1875 5.125 C-12.1975 5.125 -11.2075 5.125 -10.1875 5.125 C-10.1875 4.135 -10.1875 3.145 -10.1875 2.125 C-6.4507157 -0.36618953 -4.44298181 -0.0815226 0 0 Z " fill="#392F62" transform="translate(90.1875,131.875)"/>
<path d="M0 0 C1.46224799 0.42423244 2.91973412 0.86490245 4.375 1.3125 C5.18710938 1.55613281 5.99921875 1.79976563 6.8359375 2.05078125 C9 3 9 3 11 6 C10.67 6.66 10.34 7.32 10 8 C7.9375 8.625 7.9375 8.625 6 9 C6 8.34 6 7.68 6 7 C5.34 6.67 4.68 6.34 4 6 C3.67 5.67 3.34 5.34 3 5 C3 5.99 3 6.98 3 8 C2.01 7.67 1.02 7.34 0 7 C-0.38133299 5.0085944 -0.71325582 3.00720923 -1 1 C-0.67 0.67 -0.34 0.34 0 0 Z " fill="#F8F7FB" transform="translate(74,120)"/>
<path d="M0 0 C1.32 0.66 2.64 1.32 4 2 C3.77139942 3.46184058 3.51629608 4.91955419 3.25 6.375 C3.04117188 7.59316406 3.04117188 7.59316406 2.828125 8.8359375 C2 11 2 11 -0.078125 12.2890625 C-1.02945312 12.64097656 -1.02945312 12.64097656 -2 13 C-3.18771723 9.57056481 -2.80226223 7.62215325 -1.5625 4.25 C-1.27503906 3.45078125 -0.98757812 2.6515625 -0.69140625 1.828125 C-0.46324219 1.22484375 -0.23507813 0.6215625 0 0 Z " fill="#F4F3F4" transform="translate(32,43)"/>
<path d="M0 0 C1.30665133 2.61330266 0.75752197 3.70174163 0.0625 6.5 C-0.74468356 9.71658903 -0.74468356 9.71658903 -1 13 C-0.34 13.33 0.32 13.66 1 14 C0.34 14.66 -0.32 15.32 -1 16 C-1.99 15.01 -2.98 14.02 -4 13 C-6.475 14.485 -6.475 14.485 -9 16 C-7.51637716 9.73581469 -3.75837844 5.08486495 0 0 Z " fill="#E6E4EC" transform="translate(31,43)"/>
<path d="M0 0 C0.99 0 1.98 0 3 0 C2.67 0.99 2.34 1.98 2 3 C2.33 3.99 2.66 4.98 3 6 C2.0625 8.1875 2.0625 8.1875 1 10 C-2.36720387 8.60667426 -3.9859524 7.0210714 -6 4 C-5.67 3.34 -5.34 2.68 -5 2 C-3.67696283 1.6278958 -2.34262065 1.29369827 -1 1 C-0.67 0.67 -0.34 0.34 0 0 Z " fill="#241C49" transform="translate(141,48)"/>
<path d="M0 0 C1.65 0.33 3.3 0.66 5 1 C3.625 2.5 3.625 2.5 2 4 C1.34 4 0.68 4 0 4 C0 4.99 0 5.98 0 7 C-0.99 7 -1.98 7 -3 7 C-3 7.66 -3 8.32 -3 9 C-3.99 9.33 -4.98 9.66 -6 10 C-7.4606285 7.35261084 -8 6.10551666 -8 3 C-5.03 3 -2.06 3 1 3 C0.67 2.01 0.34 1.02 0 0 Z " fill="#3D3369" transform="translate(80,130)"/>
<path d="M0 0 C0 2.62113708 -0.31292445 4.50935112 -1 7 C-4.55780196 6.39009109 -7.6828589 5.4216319 -11 4 C-11 3.34 -11 2.68 -11 2 C-7.17010894 0.19769832 -4.21878192 -0.19622241 0 0 Z " fill="#26223D" transform="translate(129,16)"/>
<path d="M0 0 C0.99 0.33 1.98 0.66 3 1 C0.03 4.3 -2.94 7.6 -6 11 C-6.99 10.67 -7.98 10.34 -9 10 C-8.42415568 7.61435923 -7.77772405 5.33317216 -7 3 C-5.02 3 -3.04 3 -1 3 C-0.67 2.01 -0.34 1.02 0 0 Z " fill="#433A66" transform="translate(144,134)"/>
<path d="M0 0 C2.97 0 5.94 0 9 0 C8.67 2.64 8.34 5.28 8 8 C5.69 8 3.38 8 1 8 C2.32 7.34 3.64 6.68 5 6 C4.01 5.34 3.02 4.68 2 4 C2 3.34 2 2.68 2 2 C1.34 2 0.68 2 0 2 C0 1.34 0 0.68 0 0 Z " fill="#2A2449" transform="translate(104,88)"/>
<path d="M0 0 C1.65 1.65 3.3 3.3 5 5 C5.66 4.34 6.32 3.68 7 3 C6.48964169 7.3890815 5.47785723 10.33708062 3 14 C2.34 13.67 1.68 13.34 1 13 C1.33 12.01 1.66 11.02 2 10 C1.34 9.34 0.68 8.68 0 8 C-0.26991906 5.31160615 -0.08737357 2.70858064 0 0 Z " fill="#231A4F" transform="translate(16,50)"/>
<path d="M0 0 C1.4606285 2.64738916 2 3.89448334 2 7 C1 9.1875 1 9.1875 0 11 C-2 10 -2 10 -2.875 8.0625 C-4.22909764 5.57998766 -5.42178493 5.03128603 -8 4 C-7 2 -7 2 -5.0625 1.3125 C-3 1 -3 1 -1 2 C-0.67 1.34 -0.34 0.68 0 0 Z " fill="#302A52" transform="translate(53,51)"/>
<path d="M0 0 C1.19882813 0.00483398 1.19882813 0.00483398 2.421875 0.00976562 C3.246875 0.01814453 4.071875 0.02652344 4.921875 0.03515625 C5.76234375 0.03966797 6.6028125 0.04417969 7.46875 0.04882812 C9.53648901 0.06057664 11.60419124 0.07851103 13.671875 0.09765625 C10.0698823 2.32188674 6.85017729 2.45212637 2.671875 2.66015625 C-2.90089966 2.92579439 -2.90089966 2.92579439 -8.328125 4.09765625 C-8.328125 3.10765625 -8.328125 2.11765625 -8.328125 1.09765625 C-5.47652109 0.28331482 -2.96186369 -0.02115617 0 0 Z " fill="#100B29" transform="translate(86.328125,22.90234375)"/>
<path d="M0 0 C2 0 2 0 4.5 2.375 C5.325 3.24125 6.15 4.1075 7 5 C7.66 5.66 8.32 6.32 9 7 C7.68 7 6.36 7 5 7 C4.67 7.66 4.34 8.32 4 9 C2.68 9 1.36 9 0 9 C0 6.03 0 3.06 0 0 Z " fill="#4B4270" transform="translate(40,150)"/>
<path d="M0 0 C-0.54723683 3.37462715 -1.0549 5.08235 -3 8 C-5.66666667 6.66666667 -8.33333333 5.33333333 -11 4 C-9.73308493 3.32591692 -8.46129251 2.66099503 -7.1875 2 C-6.47980469 1.62875 -5.77210937 1.2575 -5.04296875 0.875 C-3 0 -3 0 0 0 Z " fill="#FAF8FA" transform="translate(113,139)"/>
<path d="M0 0 C0.33 0 0.66 0 1 0 C1 2.97 1 5.94 1 9 C0.34 8.01 -0.32 7.02 -1 6 C-1.33 7.32 -1.66 8.64 -2 10 C-6 10 -6 10 -8 9 C-7.67 8.01 -7.34 7.02 -7 6 C-6.67 6.33 -6.34 6.66 -6 7 C-5.67 5.68 -5.34 4.36 -5 3 C-4.360625 2.87625 -3.72125 2.7525 -3.0625 2.625 C-2.0415625 2.315625 -2.0415625 2.315625 -1 2 C-0.67 1.34 -0.34 0.68 0 0 Z " fill="#2C2357" transform="translate(35,110)"/>
<path d="M0 0 C2.9375 0.8125 2.9375 0.8125 6 2 C6.33 2.99 6.66 3.98 7 5 C6.34 5.66 5.68 6.32 5 7 C5 6.01 5 5.02 5 4 C4.278125 4.28875 3.55625 4.5775 2.8125 4.875 C-1.09375 6.4375 -1.09375 6.4375 -5 8 C-3.35 5.36 -1.7 2.72 0 0 Z " fill="#DCD9E9" transform="translate(151,128)"/>
<path d="M0 0 C1.32 0.66 2.64 1.32 4 2 C3.37240135 4.92879371 2.41377341 7.36095629 1 10 C0.01 10 -0.98 10 -2 10 C-1.125 2.25 -1.125 2.25 0 0 Z " fill="#383157" transform="translate(44,74)"/>
<path d="M0 0 C1.98 0.99 1.98 0.99 4 2 C4 2.66 4 3.32 4 4 C9.28 4.33 14.56 4.66 20 5 C20 5.33 20 5.66 20 6 C19.03578125 6.06058594 18.0715625 6.12117188 17.078125 6.18359375 C15.81484375 6.26738281 14.5515625 6.35117187 13.25 6.4375 C11.99703125 6.51871094 10.7440625 6.59992187 9.453125 6.68359375 C6.81682447 6.92515522 4.51962706 7.24283934 2 8 C0.38431014 5.07156213 0 3.37503263 0 0 Z " fill="#CFCDD8" transform="translate(76,56)"/>
<path d="M0 0 C0.99 0.66 1.98 1.32 3 2 C2.34 3.32 1.68 4.64 1 6 C1.66 6.33 2.32 6.66 3 7 C3 7.99 3 8.98 3 10 C-0.93673644 8.68775452 -3.22719294 7.08089673 -6 4 C-4.35 4 -2.7 4 -1 4 C-0.67 2.68 -0.34 1.36 0 0 Z " fill="#E9E7F1" transform="translate(72,118)"/>
<path d="M0 0 C0.99 1.32 1.98 2.64 3 4 C0 6 0 6 -3 7 C-3.33 8.98 -3.66 10.96 -4 13 C-4.99 12.67 -5.98 12.34 -7 12 C-6.38983051 6.50847458 -6.38983051 6.50847458 -4.5625 4.125 C-3 3 -3 3 -1 3 C-0.67 2.01 -0.34 1.02 0 0 Z " fill="#413A64" transform="translate(58,114)"/>
<path d="M0 0 C1.9375 0.375 1.9375 0.375 4 1 C4.33 1.66 4.66 2.32 5 3 C5.99 3.33 6.98 3.66 8 4 C8 4.66 8 5.32 8 6 C7.34 6 6.68 6 6 6 C5.67 6.99 5.34 7.98 5 9 C3.02 7.35 1.04 5.7 -1 4 C-0.67 2.68 -0.34 1.36 0 0 Z " fill="#262045" transform="translate(127,41)"/>
<path d="M0 0 C1.32 0 2.64 0 4 0 C4 0.99 4 1.98 4 3 C2.75336669 3.50833591 1.50250613 4.00631145 0.25 4.5 C-0.44609375 4.7784375 -1.1421875 5.056875 -1.859375 5.34375 C-4 6 -4 6 -8 6 C-7.67 4.68 -7.34 3.36 -7 2 C-6.030625 1.855625 -5.06125 1.71125 -4.0625 1.5625 C-1.13513227 1.32437659 -1.13513227 1.32437659 0 0 Z " fill="#1C1735" transform="translate(64,16)"/>
<path d="M0 0 C0.66 0.66 1.32 1.32 2 2 C2.99 2 3.98 2 5 2 C5.99 3.485 5.99 3.485 7 5 C6.67 5.66 6.34 6.32 6 7 C3.69 7 1.38 7 -1 7 C-1.04254356 5.00045254 -1.04080783 2.99958364 -1 1 C-0.67 0.67 -0.34 0.34 0 0 Z " fill="#473D6E" transform="translate(33,145)"/>
<path d="M0 0 C0.66 0.33 1.32 0.66 2 1 C2.38218767 2.65614657 2.71395102 4.32457024 3 6 C3.33 6.66 3.66 7.32 4 8 C-1.625 10 -1.625 10 -5 10 C-5 9.34 -5 8.68 -5 8 C-4.01 8 -3.02 8 -2 8 C-2 5.69 -2 3.38 -2 1 C-1.34 0.67 -0.68 0.34 0 0 Z " fill="#332A5F" transform="translate(56,119)"/>
<path d="M0 0 C2.09749995 2.35968744 2.96905704 3.54616994 3.1875 6.75 C3.125625 7.4925 3.06375 8.235 3 9 C1.68 9 0.36 9 -1 9 C-1.625 6.1875 -1.625 6.1875 -2 3 C-1.34 2.01 -0.68 1.02 0 0 Z M-4 4 C-1.8614515 6.1385485 -1.57344937 7.13275314 -1 10 C-1.66 10 -2.32 10 -3 10 C-3.33 8.02 -3.66 6.04 -4 4 Z " fill="#352E5C" transform="translate(55,109)"/>
<path d="M0 0 C-0.33 0.66 -0.66 1.32 -1 2 C-2.32303717 2.3721042 -3.65737935 2.70630173 -5 3 C-5.33 3.33 -5.66 3.66 -6 4 C-11.73611111 4.27314815 -11.73611111 4.27314815 -14 4 C-14.66 3.34 -15.32 2.68 -16 2 C-14.27192682 1.66104344 -12.54248026 1.32908475 -10.8125 1 C-9.84957031 0.814375 -8.88664062 0.62875 -7.89453125 0.4375 C-5.2065794 0.03122388 -2.71228981 -0.07933572 0 0 Z " fill="#44376B" transform="translate(122,166)"/>
<path d="M0 0 C1.65 0.33 3.3 0.66 5 1 C4.67 2.98 4.34 4.96 4 7 C3.01 7.33 2.02 7.66 1 8 C0.01 6.68 -0.98 5.36 -2 4 C-1.34 2.68 -0.68 1.36 0 0 Z " fill="#FAF7FA" transform="translate(116,157)"/>
<path d="M0 0 C2.12038635 2.61514317 4.13091744 5.19637616 6 8 C3.6875 8.6875 3.6875 8.6875 1 9 C-0.8125 7.6875 -0.8125 7.6875 -2 6 C-2 5.34 -2 4.68 -2 4 C-1.34 4 -0.68 4 0 4 C0 2.68 0 1.36 0 0 Z " fill="#433A67" transform="translate(27,135)"/>
<path d="M0 0 C0.99 1.485 0.99 1.485 2 3 C2.43699219 3.62777344 2.87398437 4.25554687 3.32421875 4.90234375 C3.99904297 5.90974609 3.99904297 5.90974609 4.6875 6.9375 C5.14511719 7.60652344 5.60273437 8.27554688 6.07421875 8.96484375 C7.1970855 11.43325548 6.92133116 12.50403012 6 15 C3.59027489 12.59027489 2.49053393 10.04587368 1 7 C0.67 6.67 0.34 6.34 0 6 C-0.04080783 4.00041636 -0.04254356 1.99954746 0 0 Z M-2 6 C-1.34 6 -0.68 6 0 6 C-0.33 6.66 -0.66 7.32 -1 8 C-1.33 7.34 -1.66 6.68 -2 6 Z " fill="#E9E7EE" transform="translate(28,121)"/>
<path d="M0 0 C0.66 0.33 1.32 0.66 2 1 C2 1.66 2 2.32 2 3 C2.99 3 3.98 3 5 3 C5 3.99 5 4.98 5 6 C2.36 6 -0.28 6 -3 6 C-2.625 3.5625 -2.625 3.5625 -2 1 C-1.34 0.67 -0.68 0.34 0 0 Z " fill="#E2DFEB" transform="translate(74,82)"/>
<path d="M0 0 C0.66 0.33 1.32 0.66 2 1 C2 1.66 2 2.32 2 3 C1.34 3 0.68 3 0 3 C0.33 4.98 0.66 6.96 1 9 C-0.98 9.33 -2.96 9.66 -5 10 C-4.49701212 5.59885603 -2.91227269 3.28804981 0 0 Z " fill="#191537" transform="translate(134,23)"/>
<path d="M0 0 C0.99 0 1.98 0 3 0 C2.37321829 3.66172475 1.35548154 6.8818995 -0.0625 10.3125 C-0.42472656 11.19550781 -0.78695312 12.07851562 -1.16015625 12.98828125 C-1.43730469 13.65214844 -1.71445312 14.31601563 -2 15 C-4.046875 11.28125 -4.046875 11.28125 -3.625 8.75 C-3.41875 8.1725 -3.2125 7.595 -3 7 C-2.34 7.33 -1.68 7.66 -1 8 C-0.67 5.36 -0.34 2.72 0 0 Z " fill="#1F1A3B" transform="translate(37,63)"/>
<path d="M0 0 C0.66 0.33 1.32 0.66 2 1 C1.360625 1.28875 0.72125 1.5775 0.0625 1.875 C-2.15206079 2.82823451 -2.15206079 2.82823451 -3 5 C-3.99 5.33 -4.98 5.66 -6 6 C-6 6.66 -6 7.32 -6 8 C-6.99 8.33 -7.98 8.66 -9 9 C-9.66 8.34 -10.32 7.68 -11 7 C-7.71103088 3.18479582 -4.67184669 1.64379791 0 0 Z " fill="#E0DFE8" transform="translate(72,37)"/>
<path d="M0 0 C0.144375 0.61875 0.28875 1.2375 0.4375 1.875 C0.93152225 4.03258322 0.93152225 4.03258322 2 6 C-0.89234315 6.82638376 -2.88742431 7 -6 7 C-6.33 6.01 -6.66 5.02 -7 4 C-2.25 1.125 -2.25 1.125 0 0 Z " fill="#FCFAFD" transform="translate(134,149)"/>
<path d="M0 0 C1.32 0.33 2.64 0.66 4 1 C3.01 2.98 2.02 4.96 1 7 C-2 7 -2 7 -4 6 C-4 5.34 -4 4.68 -4 4 C-3.01 4 -2.02 4 -1 4 C-0.67 2.68 -0.34 1.36 0 0 Z " fill="#26213F" transform="translate(25,45)"/>
<path d="M0 0 C-0.33 0.66 -0.66 1.32 -1 2 C-12.385 1.505 -12.385 1.505 -24 1 C-24 0.67 -24 0.34 -24 0 C-20.56296699 -0.19682269 -17.12536573 -0.38085152 -13.6875 -0.5625 C-12.71103516 -0.61857422 -11.73457031 -0.67464844 -10.72851562 -0.73242188 C-9.32182617 -0.80493164 -9.32182617 -0.80493164 -7.88671875 -0.87890625 C-7.02264404 -0.9260376 -6.15856934 -0.97316895 -5.26831055 -1.02172852 C-3 -1 -3 -1 0 0 Z " fill="#696283" transform="translate(107,150)"/>
<path d="M0 0 C0 0.66 0 1.32 0 2 C0.66 2 1.32 2 2 2 C2 1.34 2 0.68 2 0 C2.66 0 3.32 0 4 0 C3.67 0.99 3.34 1.98 3 3 C1.35 3 -0.3 3 -2 3 C-2 3.99 -2 4.98 -2 6 C-3.32 6 -4.64 6 -6 6 C-6 4.68 -6 3.36 -6 2 C-3 0 -3 0 0 0 Z " fill="#362C64" transform="translate(50,137)"/>
<path d="M0 0 C1.98 0 3.96 0 6 0 C6.33 0.99 6.66 1.98 7 3 C5.35 3.33 3.7 3.66 2 4 C2.33 4.99 2.66 5.98 3 7 C2.01 7.33 1.02 7.66 0 8 C-1.16363636 3.49090909 -1.16363636 3.49090909 0 0 Z " fill="#3F3568" transform="translate(113,130)"/>
<path d="M0 0 C0.66 0.33 1.32 0.66 2 1 C1.67 1.99 1.34 2.98 1 4 C1.66 4.33 2.32 4.66 3 5 C3.66666667 6.33333333 4.33333333 7.66666667 5 9 C4.67 9.66 4.34 10.32 4 11 C3.34 11 2.68 11 2 11 C2 10.34 2 9.68 2 9 C1.01 8.67 0.02 8.34 -1 8 C-1.04241723 5.66705225 -1.04092937 3.33297433 -1 1 C-0.67 0.67 -0.34 0.34 0 0 Z " fill="#2C2551" transform="translate(64,100)"/>
<path d="M0 0 C1.4370809 -0.05422947 2.87475462 -0.09289723 4.3125 -0.125 C5.11300781 -0.14820312 5.91351563 -0.17140625 6.73828125 -0.1953125 C9 0 9 0 12 2 C10.71937515 3.7074998 9.38232443 5.37373596 8 7 C7.34 7 6.68 7 6 7 C6.66 5.02 7.32 3.04 8 1 C5.36 1 2.72 1 0 1 C0 0.67 0 0.34 0 0 Z M12 0 C14 1 14 1 14 1 Z " fill="#4F486F" transform="translate(104,96)"/>
<path d="M0 0 C0.66 0.66 1.32 1.32 2 2 C1.484375 2.7425 0.96875 3.485 0.4375 4.25 C-1.18112295 7.34649609 -0.97741997 7.85053566 0 11 C-0.66 11.66 -1.32 12.32 -2 13 C-4 6.375 -4 6.375 -4 3 C-3.01 2.67 -2.02 2.34 -1 2 C-0.67 1.34 -0.34 0.68 0 0 Z " fill="#453C6D" transform="translate(54,137)"/>
<path d="M0 0 C0.99 0 1.98 0 3 0 C3 0.66 3 1.32 3 2 C3.99 2.33 4.98 2.66 6 3 C6.66 3.66 7.32 4.32 8 5 C5.36 5.66 2.72 6.32 0 7 C0 6.34 0 5.68 0 5 C-0.66 4.67 -1.32 4.34 -2 4 C-1.34 4 -0.68 4 0 4 C0 2.68 0 1.36 0 0 Z " fill="#282246" transform="translate(68,32)"/>
<path d="M0 0 C3.37462715 0.54723683 5.08235 1.0549 8 3 C7.67 3.66 7.34 4.32 7 5 C4.69 4.67 2.38 4.34 0 4 C0 2.68 0 1.36 0 0 Z " fill="#4C416F" transform="translate(62,164)"/>
<path d="M0 0 C0.99 0.66 1.98 1.32 3 2 C2.071875 2.3403125 2.071875 2.3403125 1.125 2.6875 C-1.61410209 4.37929835 -2.05024472 5.99244161 -3 9 C-3.66 9 -4.32 9 -5 9 C-4.75 5.625 -4.75 5.625 -4 2 C-1.9375 0.5625 -1.9375 0.5625 0 0 Z " fill="#46396B" transform="translate(130,159)"/>
<path d="M0 0 C1.27230469 0.01804688 2.54460937 0.03609375 3.85546875 0.0546875 C5.31919922 0.08949219 5.31919922 0.08949219 6.8125 0.125 C6.8125 0.455 6.8125 0.785 6.8125 1.125 C2.8525 1.125 -1.1075 1.125 -5.1875 1.125 C-4.8575 2.115 -4.5275 3.105 -4.1875 4.125 C-5.8375 4.455 -7.4875 4.785 -9.1875 5.125 C-9.5175 4.135 -9.8475 3.145 -10.1875 2.125 C-6.4507157 -0.36618953 -4.44298181 -0.0815226 0 0 Z " fill="#2B2154" transform="translate(90.1875,131.875)"/>
<path d="M0 0 C2 3 2 3 2 6 C0 7.6875 0 7.6875 -2 9 C-4.125 4.375 -4.125 4.375 -3 1 C-2.34 1 -1.68 1 -1 1 C-0.67 0.67 -0.34 0.34 0 0 Z " fill="#29224C" transform="translate(70,96)"/>
<path d="M0 0 C0.99 0 1.98 0 3 0 C2.67 1.98 2.34 3.96 2 6 C0.1875 6.625 0.1875 6.625 -2 7 C-2.99 6.34 -3.98 5.68 -5 5 C-3.68 4.67 -2.36 4.34 -1 4 C-0.67 2.68 -0.34 1.36 0 0 Z " fill="#E8E6EF" transform="translate(104,57)"/>
<path d="M0 0 C0.66 0 1.32 0 2 0 C2 0.99 2 1.98 2 3 C2.66 3 3.32 3 4 3 C3.34 4.32 2.68 5.64 2 7 C0.68 6.67 -0.64 6.34 -2 6 C-1.34 4.02 -0.68 2.04 0 0 Z " fill="#FAF8F8" transform="translate(57,154)"/>
<path d="M0 0 C3.5219721 -0.08004482 6.61981469 -0.04005702 10 1 C9.67 2.32 9.34 3.64 9 5 C5.22454612 3.90931332 2.52956528 3.0916909 0 0 Z " fill="#494168" transform="translate(57,152)"/>
<path d="M0 0 C4.03321763 1.21934486 7.54269479 2.55954927 11 5 C11 5.66 11 6.32 11 7 C8.03 6.505 8.03 6.505 5 6 C5 5.01 5 4.02 5 3 C4.360625 2.87625 3.72125 2.7525 3.0625 2.625 C2.381875 2.41875 1.70125 2.2125 1 2 C0.67 1.34 0.34 0.68 0 0 Z " fill="#3A3257" transform="translate(59,142)"/>
<path d="M0 0 C0.33 1.32 0.66 2.64 1 4 C-0.32 4.99 -1.64 5.98 -3 7 C-3 6.34 -3 5.68 -3 5 C-5.31 4.34 -7.62 3.68 -10 3 C-10 2.67 -10 2.34 -10 2 C-6.7 2 -3.4 2 0 2 C0 1.34 0 0.68 0 0 Z " fill="#1D173F" transform="translate(23,81)"/>
<path d="M0 0 C3.3 0 6.6 0 10 0 C10.33 0.99 10.66 1.98 11 3 C11.99 3.33 12.98 3.66 14 4 C13.01 4.66 12.02 5.32 11 6 C10.649375 5.360625 10.29875 4.72125 9.9375 4.0625 C7.22815794 1.17836168 4.84141089 1.2899178 1 1 C0.67 1.66 0.34 2.32 0 3 C0 2.01 0 1.02 0 0 Z " fill="#5A5573" transform="translate(71,96)"/>
<path d="M0 0 C0.66 0.33 1.32 0.66 2 1 C2.66 1 3.32 1 4 1 C4.66 1 5.32 1 6 1 C6 1.99 6 2.98 6 4 C6.66 4.33 7.32 4.66 8 5 C5.03 4.67 2.06 4.34 -1 4 C-1 1 -1 1 0 0 Z " fill="#28214D" transform="translate(14,90)"/>
<path d="M0 0 C1.5 1.1875 1.5 1.1875 3 3 C3.1875 5.6875 3.1875 5.6875 3 8 C2.34 7.34 1.68 6.68 1 6 C0.67 6.66 0.34 7.32 0 8 C-0.99 7.01 -1.98 6.02 -3 5 C-1.125 1.125 -1.125 1.125 0 0 Z " fill="#1B1440" transform="translate(52,47)"/>
<path d="M0 0 C1.32 0.66 2.64 1.32 4 2 C3.67 2.66 3.34 3.32 3 4 C2.01 4.33 1.02 4.66 0 5 C0 7.64 0 10.28 0 13 C-0.66 13 -1.32 13 -2 13 C-3.18771723 9.57056481 -2.80226223 7.62215325 -1.5625 4.25 C-1.27503906 3.45078125 -0.98757812 2.6515625 -0.69140625 1.828125 C-0.46324219 1.22484375 -0.23507813 0.6215625 0 0 Z " fill="#FCFBFB" transform="translate(32,43)"/>
<path d="M0 0 C0.66 0 1.32 0 2 0 C2 1.32 2 2.64 2 4 C1.34 4 0.68 4 0 4 C0.33 5.98 0.66 7.96 1 10 C0.01 10.33 -0.98 10.66 -2 11 C-2.92817192 7.37169157 -3.26901295 5.58926645 -1.6875 2.125 C-0.8521875 1.073125 -0.8521875 1.073125 0 0 Z " fill="#352A62" transform="translate(55,139)"/>
<path d="M0 0 C0.66 0 1.32 0 2 0 C2 0.66 2 1.32 2 2 C2.66 2 3.32 2 4 2 C4.33 1.34 4.66 0.68 5 0 C5.99 1.32 6.98 2.64 8 4 C7.34 5.32 6.68 6.64 6 8 C4.9970458 6.85675161 3.99770973 5.71032809 3 4.5625 C2.443125 3.92441406 1.88625 3.28632812 1.3125 2.62890625 C0 1 0 1 0 0 Z " fill="#484267" transform="translate(64,109)"/>
<path d="M0 0 C0.99 0.33 1.98 0.66 3 1 C1.02 3.31 -0.96 5.62 -3 8 C-3.99 7.67 -4.98 7.34 -6 7 C-5.67 6.34 -5.34 5.68 -5 5 C-4.34 5 -3.68 5 -3 5 C-3 4.34 -3 3.68 -3 3 C-2.34 3 -1.68 3 -1 3 C-0.67 2.01 -0.34 1.02 0 0 Z " fill="#3C3558" transform="translate(144,134)"/>
<path d="M0 0 C0.66 0 1.32 0 2 0 C1.67 4.29 1.34 8.58 1 13 C-0.98983228 9.02033543 -1.22400716 8.32324868 -0.625 4.25 C-0.51414063 3.45078125 -0.40328125 2.6515625 -0.2890625 1.828125 C-0.19367187 1.22484375 -0.09828125 0.6215625 0 0 Z " fill="#211B40" transform="translate(50,84)"/>
<path d="M0 0 C2.5654594 2.5654594 2.54046087 4.47686668 3 8 C0.03 7.505 0.03 7.505 -3 7 C-1.125 2.25 -1.125 2.25 0 0 Z " fill="#332E50" transform="translate(65,74)"/>
<path d="M0 0 C1.65 0 3.3 0 5 0 C5 0.66 5 1.32 5 2 C6.32 2.66 7.64 3.32 9 4 C6 6 6 6 3 6 C3.33 4.68 3.66 3.36 4 2 C2.68 2.33 1.36 2.66 0 3 C0 2.01 0 1.02 0 0 Z " fill="#2F284F" transform="translate(47,43)"/>
<path d="M0 0 C0.33 0.66 0.66 1.32 1 2 C0.01 3.32 -0.98 4.64 -2 6 C-4.31 5.67 -6.62 5.34 -9 5 C-6.08596738 3.05731159 -3.14191424 1.53604696 0 0 Z " fill="#504870" transform="translate(121,142)"/>
<path d="M0 0 C0.66 0.33 1.32 0.66 2 1 C0.35 2.98 -1.3 4.96 -3 7 C-3.99 6.67 -4.98 6.34 -6 6 C-3.6 1.2 -3.6 1.2 0 0 Z " fill="#362D59" transform="translate(58,128)"/>
<path d="M0 0 C1.69752187 0.25245197 3.38471545 0.57645775 5.0625 0.9375 C5.98160156 1.13214844 6.90070312 1.32679687 7.84765625 1.52734375 C8.91306641 1.76130859 8.91306641 1.76130859 10 2 C10 2.33 10 2.66 10 3 C7.69 3 5.38 3 3 3 C3 5.64 3 8.28 3 11 C2.67 11 2.34 11 2 11 C1.8046875 8.98177083 1.609375 6.96354167 1.4140625 4.9453125 C1.13625251 2.77331755 1.13625251 2.77331755 -1 1 C-0.67 0.67 -0.34 0.34 0 0 Z " fill="#645E81" transform="translate(12,93)"/>
<path d="M0 0 C1.65 1.32 3.3 2.64 5 4 C4.34 5.32 3.68 6.64 3 8 C2.34 6.68 1.68 5.36 1 4 C-0.32 4.33 -1.64 4.66 -3 5 C-1.125 1.125 -1.125 1.125 0 0 Z " fill="#E8E6F0" transform="translate(47,55)"/>
<path d="M0 0 C2.475 0.495 2.475 0.495 5 1 C5.144375 1.78375 5.28875 2.5675 5.4375 3.375 C5.87798925 5.96421018 5.87798925 5.96421018 7 8 C3.64379729 6.61122646 1.92701272 5.08322035 0 2 C0 1.34 0 0.68 0 0 Z " fill="#1D1839" transform="translate(135,50)"/>
<path d="M0 0 C0.66 0.33 1.32 0.66 2 1 C2.33 1.99 2.66 2.98 3 4 C-0.05263664 4.98120464 -1.94736336 4.98120464 -5 4 C-3.35 2.68 -1.7 1.36 0 0 Z " fill="#1B1733" transform="translate(53,34)"/>
<path d="M0 0 C1.98 0.66 3.96 1.32 6 2 C5.01 3.32 4.02 4.64 3 6 C1.68 5.67 0.36 5.34 -1 5 C-0.67 3.35 -0.34 1.7 0 0 Z " fill="#221A4A" transform="translate(113,29)"/>
<path d="M0 0 C0.66 0.33 1.32 0.66 2 1 C1.01 2.98 0.02 4.96 -1 7 C-1.66 7 -2.32 7 -3 7 C-3 6.34 -3 5.68 -3 5 C-3.99 4.67 -4.98 4.34 -6 4 C-4.02 2.68 -2.04 1.36 0 0 Z " fill="#4D456D" transform="translate(137,154)"/>
<path d="M0 0 C1.65 1.65 3.3 3.3 5 5 C3.35 5.33 1.7 5.66 0 6 C-1.125 2.25 -1.125 2.25 0 0 Z " fill="#49426A" transform="translate(61,118)"/>
<path d="M0 0 C0.66 0 1.32 0 2 0 C3.25 7.625 3.25 7.625 1 11 C-0.20272819 8.59454362 -0.10071472 7.05003047 -0.0625 4.375 C-0.05347656 3.55773437 -0.04445312 2.74046875 -0.03515625 1.8984375 C-0.02355469 1.27195312 -0.01195312 0.64546875 0 0 Z " fill="#2D2847" transform="translate(41,90)"/>
<path d="M0 0 C-0.33 1.65 -0.66 3.3 -1 5 C-1.99 4.67 -2.98 4.34 -4 4 C-4.33 3.01 -4.66 2.02 -5 1 C-5.33 2.32 -5.66 3.64 -6 5 C-6.66 3.68 -7.32 2.36 -8 1 C-5.29120665 -0.35439668 -2.99066732 -0.06501451 0 0 Z " fill="#231D43" transform="translate(72,83)"/>
<path d="M0 0 C0.99 0.33 1.98 0.66 3 1 C2.01 2.485 2.01 2.485 1 4 C1 4.99 1 5.98 1 7 C0.01 7 -0.98 7 -2 7 C-2.125 4.625 -2.125 4.625 -2 2 C-1.34 1.34 -0.68 0.68 0 0 Z " fill="#211B41" transform="translate(68,71)"/>
<path d="M0 0 C2.48046875 0.14453125 2.48046875 0.14453125 5.1875 0.8125 C6.53908203 1.13154297 6.53908203 1.13154297 7.91796875 1.45703125 C8.60503906 1.63621094 9.29210937 1.81539063 10 2 C10 2.33 10 2.66 10 3 C5.71 3 1.42 3 -3 3 C-2.01 2.01 -1.02 1.02 0 0 Z " fill="#151033" transform="translate(88,68)"/>
<path d="M0 0 C0.99 0.99 1.98 1.98 3 3 C3.66 2.34 4.32 1.68 5 1 C5 2.65 5 4.3 5 6 C5.66 6.33 6.32 6.66 7 7 C4.69 6.67 2.38 6.34 0 6 C-0.38218767 4.34385343 -0.71395102 2.67542976 -1 1 C-0.67 0.67 -0.34 0.34 0 0 Z " fill="#3E395B" transform="translate(96,36)"/>
<path d="M0 0 C1.32 0 2.64 0 4 0 C4.33 1.65 4.66 3.3 5 5 C3.68 4.67 2.36 4.34 1 4 C0.67 4.99 0.34 5.98 0 7 C0 4.69 0 2.38 0 0 Z " fill="#171136" transform="translate(91,34)"/>
<path d="M0 0 C1.32 0.66 2.64 1.32 4 2 C3.67 3.65 3.34 5.3 3 7 C1.68 6.34 0.36 5.68 -1 5 C-0.67 3.35 -0.34 1.7 0 0 Z " fill="#FAF9FB" transform="translate(51,26)"/>
<path d="M0 0 C0 0.99 0 1.98 0 3 C-1.75 3.6875 -1.75 3.6875 -4 4 C-6.25 2.5625 -6.25 2.5625 -8 1 C-5.29120665 -0.35439668 -2.99066732 -0.06501451 0 0 Z " fill="#18113E" transform="translate(129,16)"/>
<path d="M0 0 C2.16874252 0.50603992 3.99967627 0.99983813 6 2 C5.67 2.99 5.34 3.98 5 5 C3.35 5 1.7 5 0 5 C-0.33 4.34 -0.66 3.68 -1 3 C-0.34 2.67 0.32 2.34 1 2 C0.67 1.34 0.34 0.68 0 0 Z " fill="#18143B" transform="translate(75,9)"/>
<path d="M0 0 C-0.99 0.33 -1.98 0.66 -3 1 C-3.66 0.67 -4.32 0.34 -5 0 C-5 0.99 -5 1.98 -5 3 C-6.65 3 -8.3 3 -10 3 C-9.67 2.01 -9.34 1.02 -9 0 C-5.93109813 -1.53445094 -3.29905734 -0.54984289 0 0 Z " fill="#4E4075" transform="translate(58,161)"/>
<path d="M0 0 C2.875 -0.1875 2.875 -0.1875 6 0 C6.66 0.99 7.32 1.98 8 3 C2.25 4.125 2.25 4.125 0 3 C0 2.01 0 1.02 0 0 Z " fill="#443C66" transform="translate(108,155)"/>
<path d="M0 0 C0.66 1.32 1.32 2.64 2 4 C1.34 4 0.68 4 0 4 C-0.33 4.99 -0.66 5.98 -1 7 C-2.32 6.67 -3.64 6.34 -5 6 C-3.35 4.02 -1.7 2.04 0 0 Z " fill="#443D65" transform="translate(151,141)"/>
<path d="M0 0 C2.31 0 4.62 0 7 0 C6.1875 1.9375 6.1875 1.9375 5 4 C4.01 4.33 3.02 4.66 2 5 C1.34 3.35 0.68 1.7 0 0 Z " fill="#372F5E" transform="translate(144,128)"/>
<path d="M0 0 C2.31 0.33 4.62 0.66 7 1 C7.33 2.65 7.66 4.3 8 6 C5.03 5.505 5.03 5.505 2 5 C2.66 3.68 3.32 2.36 4 1 C2.68 0.67 1.36 0.34 0 0 Z " fill="#433C67" transform="translate(94,117)"/>
<path d="M0 0 C1.98 0.66 3.96 1.32 6 2 C5.01 2.495 5.01 2.495 4 3 C4.33 3.99 4.66 4.98 5 6 C4.01 6.33 3.02 6.66 2 7 C1.34 6.34 0.68 5.68 0 5 C0 3.33333333 0 1.66666667 0 0 Z " fill="#413A67" transform="translate(76,115)"/>
<path d="M0 0 C1.258125 0.12375 2.51625 0.2475 3.8125 0.375 C4.87404297 0.47941406 4.87404297 0.47941406 5.95703125 0.5859375 C8 1 8 1 11 3 C9.741875 3.020625 8.48375 3.04125 7.1875 3.0625 C6.47980469 3.07410156 5.77210937 3.08570313 5.04296875 3.09765625 C3 3 3 3 0 2 C0 1.34 0 0.68 0 0 Z " fill="#3F3360" transform="translate(72,168)"/>
<path d="M0 0 C1.98 0 3.96 0 6 0 C6.66 2.31 7.32 4.62 8 7 C7.34 7 6.68 7 6 7 C5.62875 6.1028125 5.62875 6.1028125 5.25 5.1875 C3.83629988 2.71352479 2.34944617 1.56629745 0 0 Z " fill="#D9D5E8" transform="translate(96,123)"/>
<path d="M0 0 C0.99 0.33 1.98 0.66 3 1 C1.515 4.465 1.515 4.465 0 8 C-0.66 8 -1.32 8 -2 8 C-2.125 5.125 -2.125 5.125 -2 2 C-1.34 1.34 -0.68 0.68 0 0 Z " fill="#231D44" transform="translate(60,60)"/>
<path d="M0 0 C0.83583327 2.37607949 1.1842383 3.54449627 0.22265625 5.921875 C-0.8515625 7.61458333 -1.92578125 9.30729167 -3 11 C-3.66 10.67 -4.32 10.34 -5 10 C-3.33333333 6.66666667 -1.66666667 3.33333333 0 0 Z " fill="#1A1535" transform="translate(22,53)"/>
<path d="M0 0 C0 2.31 0 4.62 0 7 C-0.99 7 -1.98 7 -3 7 C-4 4 -4 4 -3 1 C-1 0 -1 0 0 0 Z " fill="#3B3164" transform="translate(94,163)"/>
<path d="M0 0 C1.32 0.66 2.64 1.32 4 2 C2.02 2.66 0.04 3.32 -2 4 C-2 4.66 -2 5.32 -2 6 C-2.66 5.67 -3.32 5.34 -4 5 C-3 2 -3 2 0 0 Z " fill="#4A4363" transform="translate(126,149)"/>
<path d="M0 0 C0.66 0 1.32 0 2 0 C1.43628586 3.26954202 0.50037734 4.82575883 -2 7 C-2.33 5.68 -2.66 4.36 -3 3 C-2.34 3 -1.68 3 -1 3 C-0.67 2.01 -0.34 1.02 0 0 Z " fill="#EFEEF1" transform="translate(154,133)"/>
<path d="M0 0 C0.66 0.33 1.32 0.66 2 1 C2 3.64 2 6.28 2 9 C1.67 8.01 1.34 7.02 1 6 C0.34 6 -0.32 6 -1 6 C-1.042721 4.33388095 -1.04063832 2.66617115 -1 1 C-0.67 0.67 -0.34 0.34 0 0 Z " fill="#3A2F68" transform="translate(17,127)"/>
<path d="M0 0 C0.33 0 0.66 0 1 0 C1.66 2.97 2.32 5.94 3 9 C0.525 8.01 0.525 8.01 -2 7 C-1.34 4.69 -0.68 2.38 0 0 Z " fill="#E5E1EB" transform="translate(24,110)"/>
<path d="M0 0 C0.99 0.33 1.98 0.66 3 1 C2.01 1.33 1.02 1.66 0 2 C0 1.34 0 0.68 0 0 Z M-1 2 C-0.34 2.33 0.32 2.66 1 3 C0.67 4.32 0.34 5.64 0 7 C-0.99 6.67 -1.98 6.34 -3 6 C-3 5.01 -3 4.02 -3 3 C-2.34 2.67 -1.68 2.34 -1 2 Z " fill="#F9F9F6" transform="translate(105,98)"/>
<path d="M0 0 C0.99 0 1.98 0 3 0 C3.33 1.32 3.66 2.64 4 4 C1.03 4 -1.94 4 -5 4 C-3.68 3.34 -2.36 2.68 -1 2 C-0.67 1.34 -0.34 0.68 0 0 Z " fill="#231B4B" transform="translate(77,92)"/>
<path d="M0 0 C0.66 0.33 1.32 0.66 2 1 C3.67654729 0.72057545 5.34608154 0.39171753 7 0 C5.02579865 2.52259061 4.03254358 2.9929808 0.8125 3.6875 C-0.5796875 3.8421875 -0.5796875 3.8421875 -2 4 C-1.34 2.68 -0.68 1.36 0 0 Z " fill="#221D3E" transform="translate(68,56)"/>
<path d="M0 0 C0.99 0.99 1.98 1.98 3 3 C2.67 3.99 2.34 4.98 2 6 C1.34 5.67 0.68 5.34 0 5 C-0.66 5.66 -1.32 6.32 -2 7 C-2.33 6.34 -2.66 5.68 -3 5 C-1.5625 2.375 -1.5625 2.375 0 0 Z " fill="#2C2745" transform="translate(34,52)"/>
<path d="M0 0 C0.33 0.99 0.66 1.98 1 3 C-2.75 6 -2.75 6 -5 6 C-5.33 4.68 -5.66 3.36 -6 2 C-5.34 1.67 -4.68 1.34 -4 1 C-4 1.66 -4 2.32 -4 3 C-2.68 2.67 -1.36 2.34 0 2 C0 1.34 0 0.68 0 0 Z " fill="#1A133E" transform="translate(46,43)"/>
<path d="M0 0 C2.62187494 1.04874998 3.79371361 1.64931313 5.25 4.125 C5.4975 4.74375 5.745 5.3625 6 6 C3.5625 5.25 3.5625 5.25 1 4 C0.1875 1.875 0.1875 1.875 0 0 Z " fill="#201A3E" transform="translate(128,58)"/>
<path d="M0 0 C0.99 0.33 1.98 0.66 3 1 C3.6875 3.0625 3.6875 3.0625 4 5 C2.35 4.67 0.7 4.34 -1 4 C-0.67 2.68 -0.34 1.36 0 0 Z " fill="#F9F9F5" transform="translate(46,58)"/>
<path d="M0 0 C1.65 0.33 3.3 0.66 5 1 C4.67 1.99 4.34 2.98 4 4 C2.35 4.33 0.7 4.66 -1 5 C-0.67 3.35 -0.34 1.7 0 0 Z " fill="#1E183D" transform="translate(92,38)"/>
<path d="M0 0 C1.485 0.99 1.485 0.99 3 2 C3 2.66 3 3.32 3 4 C4.32 4.66 5.64 5.32 7 6 C3.62537285 5.45276317 1.91765 4.9451 -1 3 C-0.67 2.01 -0.34 1.02 0 0 Z " fill="#1C1832" transform="translate(118,36)"/>
<path d="M0 0 C0 0.66 0 1.32 0 2 C1.65 2.33 3.3 2.66 5 3 C5 3.33 5 3.66 5 4 C-2.75 3.25 -2.75 3.25 -5 1 C-2 0 -2 0 0 0 Z " fill="#15112E" transform="translate(112,14)"/>
</svg>
